<?xml version="1.0" encoding="utf-8"?>
<COLLADA xmlns="http://www.collada.org/2005/11/COLLADASchema" version="1.4.1" xmlns:xsi="http://www.w3.org/2001/XMLSchema-instance">
  <asset>
    <contributor>
      <author>Blender User</author>
      <authoring_tool>Blender 3.6.23 commit date:2025-06-16, commit time:11:52, hash:e467db79ca8c</authoring_tool>
    </contributor>
    <created>2026-06-12T11:35:29</created>
    <modified>2026-06-12T11:35:29</modified>
    <unit name="meter" meter="1"/>
    <up_axis>Z_UP</up_axis>
  </asset>
  <library_effects>
    <effect id="g_pad-effect">
      <profile_COMMON>
        <technique sid="common">
          <lambert>
            <emission>
              <color sid="emission">0 0 0 1</color>
            </emission>
            <diffuse>
              <color sid="diffuse">0.04 0.04 0.04 1</color>
            </diffuse>
            <index_of_refraction>
              <float sid="ior">1.45</float>
            </index_of_refraction>
          </lambert>
        </technique>
      </profile_COMMON>
    </effect>
    <effect id="g_metal-effect">
      <profile_COMMON>
        <technique sid="common">
          <lambert>
            <emission>
              <color sid="emission">0 0 0 1</color>
            </emission>
            <diffuse>
              <color sid="diffuse">0.6 0.62 0.65 1</color>
            </diffuse>
            <reflectivity>
              <float sid="specular">0.9</float>
            </reflectivity>
            <index_of_refraction>
              <float sid="ior">1.45</float>
            </index_of_refraction>
          </lambert>
        </technique>
      </profile_COMMON>
    </effect>
    <effect id="g_dark-effect">
      <profile_COMMON>
        <technique sid="common">
          <lambert>
            <emission>
              <color sid="emission">0 0 0 1</color>
            </emission>
            <diffuse>
              <color sid="diffuse">0.11 0.11 0.12 1</color>
            </diffuse>
            <reflectivity>
              <float sid="specular">0.5</float>
            </reflectivity>
            <index_of_refraction>
              <float sid="ior">1.45</float>
            </index_of_refraction>
          </lambert>
        </technique>
      </profile_COMMON>
    </effect>
  </library_effects>
  <library_images/>
  <library_materials>
    <material id="g_pad-material" name="g_pad">
      <instance_effect url="#g_pad-effect"/>
    </material>
    <material id="g_metal-material" name="g_metal">
      <instance_effect url="#g_metal-effect"/>
    </material>
    <material id="g_dark-material" name="g_dark">
      <instance_effect url="#g_dark-effect"/>
    </material>
  </library_materials>
  <library_geometries>
    <geometry id="Cube_099-mesh" name="Cube.099">
      <mesh>
        <source id="Cube_099-mesh-positions">
          <float_array id="Cube_099-mesh-positions-array" count="24">0.08939999 -0.03999996 0.05799996 0.08939999 -0.03999996 0.1019999 0.08939999 0.03999996 0.05799996 0.08939999 0.03999996 0.1019999 0.09439998 -0.03999996 0.05799996 0.09439998 -0.03999996 0.1019999 0.09439998 0.03999996 0.05799996 0.09439998 0.03999996 0.1019999</float_array>
          <technique_common>
            <accessor source="#Cube_099-mesh-positions-array" count="8" stride="3">
              <param name="X" type="float"/>
              <param name="Y" type="float"/>
              <param name="Z" type="float"/>
            </accessor>
          </technique_common>
        </source>
        <source id="Cube_099-mesh-normals">
          <float_array id="Cube_099-mesh-normals-array" count="18">-1 0 0 0 1 0 1 0 0 0 -1 0 0 0 -1 0 0 1</float_array>
          <technique_common>
            <accessor source="#Cube_099-mesh-normals-array" count="6" stride="3">
              <param name="X" type="float"/>
              <param name="Y" type="float"/>
              <param name="Z" type="float"/>
            </accessor>
          </technique_common>
        </source>
        <source id="Cube_099-mesh-map-0">
          <float_array id="Cube_099-mesh-map-0-array" count="72">0.625 0 0.375 0.25 0.375 0 0.625 0.25 0.375 0.5 0.375 0.25 0.625 0.5 0.375 0.75 0.375 0.5 0.625 0.75 0.375 1 0.375 0.75 0.375 0.5 0.125 0.75 0.125 0.5 0.875 0.5 0.625 0.75 0.625 0.5 0.625 0 0.625 0.25 0.375 0.25 0.625 0.25 0.625 0.5 0.375 0.5 0.625 0.5 0.625 0.75 0.375 0.75 0.625 0.75 0.625 1 0.375 1 0.375 0.5 0.375 0.75 0.125 0.75 0.875 0.5 0.875 0.75 0.625 0.75</float_array>
          <technique_common>
            <accessor source="#Cube_099-mesh-map-0-array" count="36" stride="2">
              <param name="S" type="float"/>
              <param name="T" type="float"/>
            </accessor>
          </technique_common>
        </source>
        <vertices id="Cube_099-mesh-vertices">
          <input semantic="POSITION" source="#Cube_099-mesh-positions"/>
        </vertices>
        <triangles material="g_pad-material" count="12">
          <input semantic="VERTEX" source="#Cube_099-mesh-vertices" offset="0"/>
          <input semantic="NORMAL" source="#Cube_099-mesh-normals" offset="1"/>
          <input semantic="TEXCOORD" source="#Cube_099-mesh-map-0" offset="2" set="0"/>
          <p>1 0 0 2 0 1 0 0 2 3 1 3 6 1 4 2 1 5 7 2 6 4 2 7 6 2 8 5 3 9 0 3 10 4 3 11 6 4 12 0 4 13 2 4 14 3 5 15 5 5 16 7 5 17 1 0 18 3 0 19 2 0 20 3 1 21 7 1 22 6 1 23 7 2 24 5 2 25 4 2 26 5 3 27 1 3 28 0 3 29 6 4 30 4 4 31 0 4 32 3 5 33 1 5 34 5 5 35</p>
        </triangles>
      </mesh>
    </geometry>
    <geometry id="Cube_088-mesh" name="Cube.088">
      <mesh>
        <source id="Cube_088-mesh-positions">
          <float_array id="Cube_088-mesh-positions-array" count="75">-0.04479998 -0.04559999 0.105 0.04049998 -0.04559999 0.05499994 -0.04479998 -0.04559999 0.115 0.04049998 -0.04559999 0.115 -0.04479998 0.04559999 0.105 0.04049998 0.04559999 0.05499994 -0.04479998 0.04559999 0.115 0.04049998 0.04559999 0.115 0.0532 -0.04559999 0.05499994 0.0532 -0.04559999 0.105 0.0532 -0.04559999 0.115 0.05319994 -0.04559999 0.115 0.0532 0.04559999 0.105 0.0532 0.04559999 0.05499994 0.05319994 0.04559999 0.115 0.0532 0.04559999 0.115 0.04049998 0.04559999 0.105 0.05319994 0.04559999 0.105 0.04049998 -0.04559999 0.105 0.05319994 -0.04559999 0.105 0.04165452 -0.04559999 0.105 0.04049998 -0.04559999 0.1087555 0.05319994 0.04559999 0.1121742 0.05287092 0.04559999 0.1121501 0.0412271 -0.04559999 0.1087023</float_array>
          <technique_common>
            <accessor source="#Cube_088-mesh-positions-array" count="25" stride="3">
              <param name="X" type="float"/>
              <param name="Y" type="float"/>
              <param name="Z" type="float"/>
            </accessor>
          </technique_common>
        </source>
        <source id="Cube_088-mesh-normals">
          <float_array id="Cube_088-mesh-normals-array" count="45">-1 0 0 0 0.6169871 -0.7869733 0 1 0 1 0 0 0 -0.8431297 -0.5377103 0 -1 0 0 0 -1 0 0 1 -1 0 0 1 0 0 0 1 -5.0258e-7 0 -0.980432 -0.1968583 0 -1 4.54854e-7 0 1 0 0 -1 0</float_array>
          <technique_common>
            <accessor source="#Cube_088-mesh-normals-array" count="15" stride="3">
              <param name="X" type="float"/>
              <param name="Y" type="float"/>
              <param name="Z" type="float"/>
            </accessor>
          </technique_common>
        </source>
        <source id="Cube_088-mesh-map-0">
          <float_array id="Cube_088-mesh-map-0-array" count="276">0.625 0 0.375 0.25 0.375 0 0.625 0.4061127 0.625 0.25 0.625 0.5 0.5543559 0.4293558 0.5537537 0.4287536 0.625 0.4293558 0.5537537 0.4287536 0.5543559 0.4293558 0.375 0.4293558 0.625 0.5 0.375 0.75 0.375 0.5 0.625 0.75 0.625 1 0.625 0.8438873 0.375 0.8438873 0.4675564 0.8425565 0.4688873 0.8438873 0.625 0.8438873 0.4688873 0.8438873 0.4675564 0.8425565 0.375 0.75 0.3043558 0.5 0.375 0.5 0.125 0.75 0.2811127 0.5 0.2811127 0.75 0.875 0.5 0.625 0.75 0.625 0.5 0.375 0.25 0.6022727 0 0.6022727 0.25 0.375 0.5 0.6022727 0.25 0.6022727 0.5 0.375 0.75 0.6022727 0.5 0.6022727 0.75 0.375 0.75 0.6022727 0.75 0.6022727 0.9772727 0.375 0.5 0.125 0.75 0.125 0.5 0.625 0 0.625 0.25 0.375 0.25 0.625 0.4061127 0.375 0.4061127 0.375 0.25 0.625 0.5 0.375 0.5 0.5543559 0.4293558 0.375 0.5 0.375 0.4293558 0.5543559 0.4293558 0.625 0.4061127 0.375 0.25 0.625 0.25 0.625 0.5 0.5543559 0.4293558 0.625 0.4293558 0.625 0.4293558 0.625 0.4061127 0.625 0.5 0.375 0.4293558 0.375 0.4061127 0.5537537 0.4287536 0.375 0.4061127 0.625 0.4061127 0.5537537 0.4287536 0.625 0.4061127 0.625 0.4293558 0.5537537 0.4287536 0.625 0.5 0.625 0.75 0.375 0.75 0.375 0.8206442 0.375 0.75 0.625 0.8206443 0.375 0.75 0.625 0.75 0.625 0.8206443 0.625 1 0.375 1 0.4688873 0.8438873 0.375 1 0.375 0.8438873 0.4688873 0.8438873 0.625 1 0.4688873 0.8438873 0.625 0.8438873 0.625 0.8438873 0.625 0.8206443 0.625 0.75 0.375 0.8438873 0.375 0.8417742 0.4675564 0.8425565 0.4675564 0.8425565 0.375 0.8417742 0.375 0.8206442 0.375 0.8206442 0.625 0.8206443 0.4675564 0.8425565 0.625 0.8206443 0.625 0.8438873 0.4675564 0.8425565 0.375 0.75 0.3043558 0.75 0.3043558 0.5 0.125 0.75 0.125 0.5 0.2811127 0.5 0.875 0.5 0.875 0.75 0.625 0.75 0.375 0.25 0.375 0 0.6022727 0 0.375 0.5 0.375 0.25 0.6022727 0.25 0.375 0.75 0.375 0.5 0.6022727 0.5 0.6022727 0.9772727 0.6022727 1 0.375 1 0.375 1 0.375 0.75 0.6022727 0.9772727 0.375 0.5 0.375 0.75 0.125 0.75</float_array>
          <technique_common>
            <accessor source="#Cube_088-mesh-map-0-array" count="138" stride="2">
              <param name="S" type="float"/>
              <param name="T" type="float"/>
            </accessor>
          </technique_common>
        </source>
        <vertices id="Cube_088-mesh-vertices">
          <input semantic="POSITION" source="#Cube_088-mesh-positions"/>
        </vertices>
        <triangles material="g_metal-material" count="46">
          <input semantic="VERTEX" source="#Cube_088-mesh-vertices" offset="0"/>
          <input semantic="NORMAL" source="#Cube_088-mesh-normals" offset="1"/>
          <input semantic="TEXCOORD" source="#Cube_088-mesh-map-0" offset="2" set="0"/>
          <p>2 0 0 4 0 1 0 0 2 7 1 3 6 1 4 15 1 5 22 2 6 23 2 7 14 2 8 23 2 9 22 2 10 17 2 11 15 3 12 9 3 13 12 3 14 10 4 15 2 4 16 3 4 17 18 5 18 24 5 19 21 5 20 3 5 21 21 5 22 24 5 23 9 6 24 17 6 25 12 6 26 0 6 27 16 6 28 18 6 29 6 7 30 10 7 31 15 7 32 5 8 33 18 8 34 16 8 35 13 2 36 16 2 37 17 2 38 8 9 39 17 9 40 19 9 41 8 5 42 19 5 43 20 5 44 13 6 45 1 6 46 5 6 47 2 0 48 6 0 49 4 0 50 7 2 51 16 2 52 4 2 53 15 7 54 12 7 55 22 7 56 12 2 57 17 2 58 22 2 59 7 2 60 4 2 61 6 2 62 15 2 63 22 2 64 14 2 65 14 2 66 7 2 67 15 2 68 17 2 69 16 2 70 23 2 71 16 2 72 7 2 73 23 2 74 7 10 75 14 10 76 23 10 77 15 3 78 10 3 79 9 3 80 19 5 81 9 5 82 11 5 83 9 5 84 10 5 85 11 5 86 2 5 87 0 5 88 21 5 89 0 5 90 18 5 91 21 5 92 2 5 93 21 5 94 3 5 95 3 11 96 11 11 97 10 11 98 18 5 99 20 5 100 24 5 101 24 5 102 20 5 103 19 5 104 19 5 105 11 5 106 24 5 107 11 12 108 3 12 109 24 12 110 9 6 111 19 6 112 17 6 113 0 6 114 4 6 115 16 6 116 6 7 117 2 7 118 10 7 119 5 8 120 1 8 121 18 8 122 13 13 123 5 13 124 16 13 125 8 9 126 13 9 127 17 9 128 20 14 129 18 14 130 1 14 131 1 5 132 8 5 133 20 5 134 13 6 135 8 6 136 1 6 137</p>
        </triangles>
      </mesh>
    </geometry>
    <geometry id="Cube_071-mesh" name="Cube.071">
      <mesh>
        <source id="Cube_071-mesh-positions">
          <float_array id="Cube_071-mesh-positions-array" count="24">-0.15 -0.07499998 0.1029 -0.15 -0.07499998 0.1229 -0.15 0.07499998 0.1029 -0.15 0.07499998 0.1229 0.15 -0.07499998 0.1029 0.15 -0.07499998 0.1229 0.15 0.07499998 0.1029 0.15 0.07499998 0.1229</float_array>
          <technique_common>
            <accessor source="#Cube_071-mesh-positions-array" count="8" stride="3">
              <param name="X" type="float"/>
              <param name="Y" type="float"/>
              <param name="Z" type="float"/>
            </accessor>
          </technique_common>
        </source>
        <source id="Cube_071-mesh-normals">
          <float_array id="Cube_071-mesh-normals-array" count="18">-1 0 0 0 1 0 1 0 0 0 -1 0 0 0 -1 0 0 1</float_array>
          <technique_common>
            <accessor source="#Cube_071-mesh-normals-array" count="6" stride="3">
              <param name="X" type="float"/>
              <param name="Y" type="float"/>
              <param name="Z" type="float"/>
            </accessor>
          </technique_common>
        </source>
        <source id="Cube_071-mesh-map-0">
          <float_array id="Cube_071-mesh-map-0-array" count="72">0.625 0 0.375 0.25 0.375 0 0.625 0.25 0.375 0.5 0.375 0.25 0.625 0.5 0.375 0.75 0.375 0.5 0.625 0.75 0.375 1 0.375 0.75 0.375 0.5 0.125 0.75 0.125 0.5 0.875 0.5 0.625 0.75 0.625 0.5 0.625 0 0.625 0.25 0.375 0.25 0.625 0.25 0.625 0.5 0.375 0.5 0.625 0.5 0.625 0.75 0.375 0.75 0.625 0.75 0.625 1 0.375 1 0.375 0.5 0.375 0.75 0.125 0.75 0.875 0.5 0.875 0.75 0.625 0.75</float_array>
          <technique_common>
            <accessor source="#Cube_071-mesh-map-0-array" count="36" stride="2">
              <param name="S" type="float"/>
              <param name="T" type="float"/>
            </accessor>
          </technique_common>
        </source>
        <vertices id="Cube_071-mesh-vertices">
          <input semantic="POSITION" source="#Cube_071-mesh-positions"/>
        </vertices>
        <triangles material="g_dark-material" count="12">
          <input semantic="VERTEX" source="#Cube_071-mesh-vertices" offset="0"/>
          <input semantic="NORMAL" source="#Cube_071-mesh-normals" offset="1"/>
          <input semantic="TEXCOORD" source="#Cube_071-mesh-map-0" offset="2" set="0"/>
          <p>1 0 0 2 0 1 0 0 2 3 1 3 6 1 4 2 1 5 7 2 6 4 2 7 6 2 8 5 3 9 0 3 10 4 3 11 6 4 12 0 4 13 2 4 14 3 5 15 5 5 16 7 5 17 1 0 18 3 0 19 2 0 20 3 1 21 7 1 22 6 1 23 7 2 24 5 2 25 4 2 26 5 3 27 1 3 28 0 3 29 6 4 30 4 4 31 0 4 32 3 5 33 1 5 34 5 5 35</p>
        </triangles>
      </mesh>
    </geometry>
    <geometry id="Cylinder_004-mesh" name="Cylinder.004">
      <mesh>
        <source id="Cylinder_004-mesh-positions">
          <float_array id="Cylinder_004-mesh-positions-array" count="288">0 0.06749999 -0.01071423 0 0.06749999 0.01071423 0.00881046 0.06692248 -0.01071423 0.00881046 0.06692248 0.01071423 0.01747024 0.06519997 -0.01071423 0.01747024 0.06519997 0.01071423 0.0258311 0.06236183 -0.01071423 0.0258311 0.06236183 0.01071423 0.03374999 0.05845665 -0.01071423 0.03374999 0.05845665 0.01071423 0.04109138 0.05355131 -0.01071423 0.04109138 0.05355131 0.01071423 0.04772967 0.04772967 -0.01071423 0.04772967 0.04772967 0.01071423 0.05355131 0.04109138 -0.01071423 0.05355131 0.04109138 0.01071423 0.05845665 0.03374999 -0.01071423 0.05845665 0.03374999 0.01071423 0.06236183 0.0258311 -0.01071423 0.06236183 0.0258311 0.01071423 0.06519997 0.01747024 -0.01071423 0.06519997 0.01747024 0.01071423 0.06692248 0.00881046 -0.01071423 0.06692248 0.00881046 0.01071423 0.06749999 0 -0.01071423 0.06749999 0 0.01071423 0.06692248 -0.00881046 -0.01071423 0.06692248 -0.00881046 0.01071423 0.06519997 -0.01747024 -0.01071423 0.06519997 -0.01747024 0.01071423 0.06236183 -0.0258311 -0.01071423 0.06236183 -0.0258311 0.01071423 0.05845665 -0.03374999 -0.01071423 0.05845665 -0.03374999 0.01071423 0.05355131 -0.04109138 -0.01071423 0.05355131 -0.04109138 0.01071423 0.04772967 -0.04772967 -0.01071423 0.04772967 -0.04772967 0.01071423 0.04109138 -0.05355131 -0.01071423 0.04109138 -0.05355131 0.01071423 0.03374999 -0.05845665 -0.01071423 0.03374999 -0.05845665 0.01071423 0.0258311 -0.06236183 -0.01071423 0.0258311 -0.06236183 0.01071423 0.01747024 -0.06519997 -0.01071423 0.01747024 -0.06519997 0.01071423 0.00881046 -0.06692248 -0.01071423 0.00881046 -0.06692248 0.01071423 0 -0.06749999 -0.01071423 0 -0.06749999 0.01071423 -0.00881046 -0.06692248 -0.01071423 -0.00881046 -0.06692248 0.01071423 -0.01747024 -0.06519997 -0.01071423 -0.01747024 -0.06519997 0.01071423 -0.0258311 -0.06236183 -0.01071423 -0.0258311 -0.06236183 0.01071423 -0.03374999 -0.05845665 -0.01071423 -0.03374999 -0.05845665 0.01071423 -0.04109138 -0.05355131 -0.01071423 -0.04109138 -0.05355131 0.01071423 -0.04772967 -0.04772967 -0.01071423 -0.04772967 -0.04772967 0.01071423 -0.05355131 -0.04109138 -0.01071423 -0.05355131 -0.04109138 0.01071423 -0.05845665 -0.03374999 -0.01071423 -0.05845665 -0.03374999 0.01071423 -0.06236183 -0.0258311 -0.01071423 -0.06236183 -0.0258311 0.01071423 -0.06519997 -0.01747024 -0.01071423 -0.06519997 -0.01747024 0.01071423 -0.06692248 -0.00881046 -0.01071423 -0.06692248 -0.00881046 0.01071423 -0.06749999 0 -0.01071423 -0.06749999 0 0.01071423 -0.06692248 0.00881046 -0.01071423 -0.06692248 0.00881046 0.01071423 -0.06519997 0.01747024 -0.01071423 -0.06519997 0.01747024 0.01071423 -0.06236183 0.0258311 -0.01071423 -0.06236183 0.0258311 0.01071423 -0.05845665 0.03374999 -0.01071423 -0.05845665 0.03374999 0.01071423 -0.05355131 0.04109138 -0.01071423 -0.05355131 0.04109138 0.01071423 -0.04772967 0.04772967 -0.01071423 -0.04772967 0.04772967 0.01071423 -0.04109138 0.05355131 -0.01071423 -0.04109138 0.05355131 0.01071423 -0.03374999 0.05845665 -0.01071423 -0.03374999 0.05845665 0.01071423 -0.0258311 0.06236183 -0.01071423 -0.0258311 0.06236183 0.01071423 -0.01747024 0.06519997 -0.01071423 -0.01747024 0.06519997 0.01071423 -0.00881046 0.06692248 -0.01071423 -0.00881046 0.06692248 0.01071423</float_array>
          <technique_common>
            <accessor source="#Cylinder_004-mesh-positions-array" count="96" stride="3">
              <param name="X" type="float"/>
              <param name="Y" type="float"/>
              <param name="Z" type="float"/>
            </accessor>
          </technique_common>
        </source>
        <source id="Cylinder_004-mesh-normals">
          <float_array id="Cylinder_004-mesh-normals-array" count="303">0.06540232 0.997859 0 0.1950905 0.9807853 0 0.3214396 0.9469301 0 0.4422888 0.8968727 0 0.5555701 0.8314698 0 0.6593461 0.7518397 0 0.7518395 0.6593461 0 0.8314699 0.5555698 0 0.8968726 0.442289 0 0.9469302 0.3214396 0 0.9807855 0.1950897 0 0.997859 0.06540232 0 0.997859 -0.06540232 0 0.9807852 -0.1950909 0 0.9469302 -0.3214396 0 0.8968726 -0.442289 0 0.8314693 -0.5555707 0 0.7518395 -0.6593461 0 0.6593461 -0.7518397 0 0.5555703 -0.8314696 0 0.4422891 -0.8968726 0 0.3214398 -0.9469301 0 0.1950905 -0.9807853 0 0.06540232 -0.997859 0 -0.06540232 -0.997859 0 -0.1950905 -0.9807853 0 -0.3214396 -0.9469301 0 -0.4422888 -0.8968727 0 -0.5555701 -0.8314698 0 -0.6593461 -0.7518397 0 -0.7518395 -0.6593461 0 -0.8314699 -0.5555698 0 -0.8968726 -0.442289 0 -0.9469302 -0.3214396 0 -0.9807855 -0.1950897 0 -0.997859 -0.06540232 0 -0.997859 0.06540232 0 -0.9807852 0.1950909 0 -0.9469302 0.3214396 0 -0.8968726 0.442289 0 -0.8314693 0.5555707 0 -0.7518395 0.6593461 0 -0.6593461 0.7518397 0 -0.5555703 0.8314696 0 -0.4422891 0.8968726 0 -0.3214398 0.9469301 0 0 0 1 -0.1950905 0.9807853 0 -0.06540232 0.997859 0 0 0 -1 0.3214398 0.9469301 0 0.4422891 0.8968726 0 0.5555703 0.8314696 0 0.8314693 0.5555707 0 0.9807852 0.1950909 0 0.9807855 -0.1950897 0 0.8314699 -0.5555698 0 0.5555701 -0.8314698 0 0.4422888 -0.8968727 0 0.3214396 -0.9469301 0 -0.3214398 -0.9469301 0 -0.4422891 -0.8968726 0 -0.5555703 -0.8314696 0 -0.8314693 -0.5555707 0 -0.9807852 -0.1950909 0 -0.9807855 0.1950897 0 -0.8314699 0.5555698 0 -0.5555701 0.8314698 0 -0.4422888 0.8968727 0 -0.3214396 0.9469301 0 -1.43008e-6 0 1 -1.43007e-6 0 1 -1.43007e-6 0 1 -7.15042e-7 0 1 1.43008e-6 0 1 1.43007e-6 0 1 1.43007e-6 0 1 7.15042e-7 0 1 4.94093e-7 0 1 2.55762e-7 0 1 -1.81076e-7 0 1 -4.94093e-7 0 1 -2.55762e-7 0 1 1.81076e-7 0 1 0 0 1 0 0 1 0 0 -1 3.57519e-7 0 -1 7.15033e-7 0 -1 1.43008e-6 0 -1 -1.43008e-6 0 -1 -1.43007e-6 0 -1 2.39712e-7 0 -1 -3.57519e-7 0 -1 -7.15033e-7 0 -1 1.43007e-6 0 -1 -2.39712e-7 0 -1 -2.47046e-7 0 -1 2.47046e-7 0 -1 0 0 -1 0 0 -1</float_array>
          <technique_common>
            <accessor source="#Cylinder_004-mesh-normals-array" count="101" stride="3">
              <param name="X" type="float"/>
              <param name="Y" type="float"/>
              <param name="Z" type="float"/>
            </accessor>
          </technique_common>
        </source>
        <source id="Cylinder_004-mesh-map-0">
          <float_array id="Cylinder_004-mesh-map-0-array" count="1128">1 1 0.9791667 0.5 1 0.5 0.9791667 1 0.9583334 0.5 0.9791667 0.5 0.9583334 1 0.9375001 0.5 0.9583334 0.5 0.9375001 1 0.9166668 0.5 0.9375001 0.5 0.9166668 1 0.8958334 0.5 0.9166668 0.5 0.8958334 1 0.8750001 0.5 0.8958334 0.5 0.8750001 1 0.8541668 0.5 0.8750001 0.5 0.8541668 1 0.8333335 0.5 0.8541668 0.5 0.8333335 1 0.8125002 0.5 0.8333335 0.5 0.8125002 1 0.7916669 0.5 0.8125002 0.5 0.7916669 1 0.7708336 0.5 0.7916669 0.5 0.7708336 1 0.7500002 0.5 0.7708336 0.5 0.7500002 1 0.7291669 0.5 0.7500002 0.5 0.7291669 1 0.7083336 0.5 0.7291669 0.5 0.7083336 1 0.6875003 0.5 0.7083336 0.5 0.6875003 1 0.666667 0.5 0.6875003 0.5 0.666667 1 0.6458337 0.5 0.666667 0.5 0.6458337 1 0.6250004 0.5 0.6458337 0.5 0.6250004 1 0.6041671 0.5 0.6250004 0.5 0.6041671 1 0.5833337 0.5 0.6041671 0.5 0.5833337 1 0.5625004 0.5 0.5833337 0.5 0.5625004 1 0.5416671 0.5 0.5625004 0.5 0.5416671 1 0.5208338 0.5 0.5416671 0.5 0.5208338 1 0.5000005 0.5 0.5208338 0.5 0.5000005 1 0.4791671 0.5 0.5000005 0.5 0.4791671 1 0.4583338 0.5 0.4791671 0.5 0.4583338 1 0.4375004 0.5 0.4583338 0.5 0.4375004 1 0.4166671 0.5 0.4375004 0.5 0.4166671 1 0.3958337 0.5 0.4166671 0.5 0.3958337 1 0.3750004 0.5 0.3958337 0.5 0.3750004 1 0.3541671 0.5 0.3750004 0.5 0.3541671 1 0.3333337 0.5 0.3541671 0.5 0.3333337 1 0.3125004 0.5 0.3333337 0.5 0.3125004 1 0.2916671 0.5 0.3125004 0.5 0.2916671 1 0.2708337 0.5 0.2916671 0.5 0.2708337 1 0.2500004 0.5 0.2708337 0.5 0.2500004 1 0.229167 0.5 0.2500004 0.5 0.229167 1 0.2083337 0.5 0.229167 0.5 0.2083337 1 0.1875004 0.5 0.2083337 0.5 0.1875004 1 0.166667 0.5 0.1875004 0.5 0.166667 1 0.1458337 0.5 0.166667 0.5 0.1458337 1 0.1250004 0.5 0.1458337 0.5 0.1250004 1 0.1041671 0.5 0.1250004 0.5 0.1041671 1 0.08333367 0.5 0.1041671 0.5 0.08333367 1 0.06250035 0.5 0.08333367 0.5 0.06250035 1 0.04166704 0.5 0.06250035 0.5 0.08029437 0.4197056 0.0181778 0.1878834 0.4197056 0.08029437 0.04166704 1 0.02083367 0.5 0.04166704 0.5 0.02083367 1 3.76254e-7 0.5 0.02083367 0.5 0.5595952 0.1038972 0.5282689 0.341844 0.7186737 0.4879468 1 1 0.9791667 1 0.9791667 0.5 0.9791667 1 0.9583334 1 0.9583334 0.5 0.9583334 1 0.9375001 1 0.9375001 0.5 0.9375001 1 0.9166668 1 0.9166668 0.5 0.9166668 1 0.8958334 1 0.8958334 0.5 0.8958334 1 0.8750001 1 0.8750001 0.5 0.8750001 1 0.8541668 1 0.8541668 0.5 0.8541668 1 0.8333335 1 0.8333335 0.5 0.8333335 1 0.8125002 1 0.8125002 0.5 0.8125002 1 0.7916669 1 0.7916669 0.5 0.7916669 1 0.7708336 1 0.7708336 0.5 0.7708336 1 0.7500002 1 0.7500002 0.5 0.7500002 1 0.7291669 1 0.7291669 0.5 0.7291669 1 0.7083336 1 0.7083336 0.5 0.7083336 1 0.6875003 1 0.6875003 0.5 0.6875003 1 0.666667 1 0.666667 0.5 0.666667 1 0.6458337 1 0.6458337 0.5 0.6458337 1 0.6250004 1 0.6250004 0.5 0.6250004 1 0.6041671 1 0.6041671 0.5 0.6041671 1 0.5833337 1 0.5833337 0.5 0.5833337 1 0.5625004 1 0.5625004 0.5 0.5625004 1 0.5416671 1 0.5416671 0.5 0.5416671 1 0.5208338 1 0.5208338 0.5 0.5208338 1 0.5000005 1 0.5000005 0.5 0.5000005 1 0.4791671 1 0.4791671 0.5 0.4791671 1 0.4583338 1 0.4583338 0.5 0.4583338 1 0.4375004 1 0.4375004 0.5 0.4375004 1 0.4166671 1 0.4166671 0.5 0.4166671 1 0.3958337 1 0.3958337 0.5 0.3958337 1 0.3750004 1 0.3750004 0.5 0.3750004 1 0.3541671 1 0.3541671 0.5 0.3541671 1 0.3333337 1 0.3333337 0.5 0.3333337 1 0.3125004 1 0.3125004 0.5 0.3125004 1 0.2916671 1 0.2916671 0.5 0.2916671 1 0.2708337 1 0.2708337 0.5 0.2708337 1 0.2500004 1 0.2500004 0.5 0.2500004 1 0.229167 1 0.229167 0.5 0.229167 1 0.2083337 1 0.2083337 0.5 0.2083337 1 0.1875004 1 0.1875004 0.5 0.1875004 1 0.166667 1 0.166667 0.5 0.166667 1 0.1458337 1 0.1458337 0.5 0.1458337 1 0.1250004 1 0.1250004 0.5 0.1250004 1 0.1041671 1 0.1041671 0.5 0.1041671 1 0.08333367 1 0.08333367 0.5 0.08333367 1 0.06250035 1 0.06250035 0.5 0.06250035 1 0.04166704 1 0.04166704 0.5 0.3121166 0.4818222 0.2813263 0.4879468 0.25 0.49 0.25 0.49 0.2186737 0.4879468 0.1878834 0.4818222 0.1878834 0.4818222 0.1581559 0.4717311 0.1299999 0.4578461 0.1299999 0.4578461 0.1038972 0.4404048 0.08029437 0.4197056 0.08029437 0.4197056 0.05959516 0.3961027 0.04215389 0.37 0.04215389 0.37 0.02826893 0.341844 0.0181778 0.3121166 0.0181778 0.3121166 0.01205319 0.2813263 0.00999999 0.25 0.00999999 0.25 0.01205319 0.2186737 0.0181778 0.1878834 0.0181778 0.1878834 0.02826893 0.1581559 0.04215389 0.1299999 0.04215389 0.1299999 0.05959516 0.1038972 0.08029437 0.08029437 0.08029437 0.08029437 0.1038972 0.05959516 0.1299999 0.04215389 0.1299999 0.04215389 0.1581559 0.02826893 0.1878834 0.0181778 0.1878834 0.0181778 0.2186737 0.01205319 0.25 0.00999999 0.25 0.00999999 0.2813263 0.01205319 0.3121166 0.0181778 0.3121166 0.0181778 0.341844 0.02826893 0.37 0.04215389 0.37 0.04215389 0.3961027 0.05959516 0.4197056 0.08029437 0.4197056 0.08029437 0.4404048 0.1038972 0.4578461 0.1299999 0.4578461 0.1299999 0.4717311 0.1581559 0.4818222 0.1878834 0.4818222 0.1878834 0.4879468 0.2186737 0.49 0.25 0.49 0.25 0.4879468 0.2813263 0.4818222 0.3121166 0.4818222 0.3121166 0.4717311 0.341844 0.4578461 0.37 0.4578461 0.37 0.4404048 0.3961027 0.4197056 0.4197056 0.4197056 0.4197056 0.3961027 0.4404048 0.37 0.4578461 0.37 0.4578461 0.341844 0.4717311 0.3121166 0.4818222 0.3121166 0.4818222 0.25 0.49 0.1878834 0.4818222 0.1878834 0.4818222 0.1299999 0.4578461 0.3121166 0.4818222 0.1299999 0.4578461 0.08029437 0.4197056 0.3121166 0.4818222 0.08029437 0.4197056 0.04215389 0.37 0.0181778 0.3121166 0.0181778 0.3121166 0.00999999 0.25 0.08029437 0.4197056 0.00999999 0.25 0.0181778 0.1878834 0.08029437 0.4197056 0.0181778 0.1878834 0.04215389 0.1299999 0.08029437 0.08029437 0.08029437 0.08029437 0.1299999 0.04215389 0.1878834 0.0181778 0.1878834 0.0181778 0.25 0.00999999 0.3121166 0.0181778 0.3121166 0.0181778 0.37 0.04215389 0.1878834 0.0181778 0.37 0.04215389 0.4197056 0.08029437 0.1878834 0.0181778 0.4197056 0.08029437 0.4578461 0.1299999 0.4818222 0.1878834 0.4818222 0.1878834 0.49 0.25 0.4197056 0.08029437 0.49 0.25 0.4818222 0.3121166 0.4197056 0.08029437 0.4818222 0.3121166 0.4578461 0.37 0.4197056 0.4197056 0.4197056 0.4197056 0.37 0.4578461 0.3121166 0.4818222 0.0181778 0.1878834 0.08029437 0.08029437 0.4197056 0.08029437 0.08029437 0.08029437 0.1878834 0.0181778 0.4197056 0.08029437 0.4818222 0.3121166 0.4197056 0.4197056 0.4197056 0.08029437 0.4197056 0.4197056 0.3121166 0.4818222 0.4197056 0.08029437 0.3121166 0.4818222 0.08029437 0.4197056 0.4197056 0.08029437 0.04166704 1 0.02083367 1 0.02083367 0.5 0.02083367 1 3.76254e-7 1 3.76254e-7 0.5 0.7186737 0.4879468 0.75 0.49 0.841844 0.4717311 0.75 0.49 0.7813263 0.4879468 0.841844 0.4717311 0.7813263 0.4879468 0.8121166 0.4818222 0.841844 0.4717311 0.841844 0.4717311 0.87 0.4578461 0.8961027 0.4404048 0.8961027 0.4404048 0.9197056 0.4197056 0.9404048 0.3961027 0.9404048 0.3961027 0.9578461 0.37 0.9717311 0.341844 0.9717311 0.341844 0.9818222 0.3121166 0.9879468 0.2813263 0.9879468 0.2813263 0.99 0.25 0.9717311 0.1581559 0.99 0.25 0.9879468 0.2186737 0.9717311 0.1581559 0.9879468 0.2186737 0.9818222 0.1878834 0.9717311 0.1581559 0.9717311 0.1581559 0.9578461 0.1299999 0.8961027 0.05959516 0.9578461 0.1299999 0.9404048 0.1038972 0.8961027 0.05959516 0.9404048 0.1038972 0.9197056 0.08029437 0.8961027 0.05959516 0.8961027 0.05959516 0.87 0.04215389 0.7813263 0.01205319 0.87 0.04215389 0.841844 0.02826893 0.7813263 0.01205319 0.841844 0.02826893 0.8121166 0.0181778 0.7813263 0.01205319 0.7813263 0.01205319 0.75 0.00999999 0.658156 0.02826893 0.75 0.00999999 0.7186737 0.01205319 0.658156 0.02826893 0.7186737 0.01205319 0.6878834 0.0181778 0.658156 0.02826893 0.658156 0.02826893 0.63 0.04215389 0.6038973 0.05959516 0.6038973 0.05959516 0.5802944 0.08029437 0.5595952 0.1038972 0.5595952 0.1038972 0.542154 0.1299999 0.5282689 0.1581559 0.5282689 0.1581559 0.5181778 0.1878834 0.5120533 0.2186737 0.5120533 0.2186737 0.51 0.25 0.5282689 0.341844 0.51 0.25 0.5120533 0.2813263 0.5282689 0.341844 0.5120533 0.2813263 0.5181778 0.3121166 0.5282689 0.341844 0.5282689 0.341844 0.542154 0.37 0.6038973 0.4404048 0.542154 0.37 0.5595952 0.3961027 0.6038973 0.4404048 0.5595952 0.3961027 0.5802944 0.4197056 0.6038973 0.4404048 0.6038973 0.4404048 0.63 0.4578461 0.7186737 0.4879468 0.63 0.4578461 0.658156 0.4717311 0.7186737 0.4879468 0.658156 0.4717311 0.6878834 0.4818222 0.7186737 0.4879468 0.841844 0.4717311 0.8961027 0.4404048 0.7186737 0.4879468 0.8961027 0.4404048 0.9404048 0.3961027 0.7186737 0.4879468 0.9404048 0.3961027 0.9717311 0.341844 0.9717311 0.1581559 0.9717311 0.341844 0.9879468 0.2813263 0.9717311 0.1581559 0.658156 0.02826893 0.6038973 0.05959516 0.7813263 0.01205319 0.6038973 0.05959516 0.5595952 0.1038972 0.7813263 0.01205319 0.5595952 0.1038972 0.5282689 0.1581559 0.5282689 0.341844 0.5282689 0.1581559 0.5120533 0.2186737 0.5282689 0.341844 0.9717311 0.1581559 0.8961027 0.05959516 0.5595952 0.1038972 0.8961027 0.05959516 0.7813263 0.01205319 0.5595952 0.1038972 0.5282689 0.341844 0.6038973 0.4404048 0.7186737 0.4879468 0.7186737 0.4879468 0.9404048 0.3961027 0.5595952 0.1038972 0.9404048 0.3961027 0.9717311 0.1581559 0.5595952 0.1038972</float_array>
          <technique_common>
            <accessor source="#Cylinder_004-mesh-map-0-array" count="564" stride="2">
              <param name="S" type="float"/>
              <param name="T" type="float"/>
            </accessor>
          </technique_common>
        </source>
        <vertices id="Cylinder_004-mesh-vertices">
          <input semantic="POSITION" source="#Cylinder_004-mesh-positions"/>
        </vertices>
        <triangles material="g_metal-material" count="188">
          <input semantic="VERTEX" source="#Cylinder_004-mesh-vertices" offset="0"/>
          <input semantic="NORMAL" source="#Cylinder_004-mesh-normals" offset="1"/>
          <input semantic="TEXCOORD" source="#Cylinder_004-mesh-map-0" offset="2" set="0"/>
          <p>1 0 0 2 0 1 0 0 2 3 1 3 4 1 4 2 1 5 5 2 6 6 2 7 4 2 8 7 3 9 8 3 10 6 3 11 9 4 12 10 4 13 8 4 14 11 5 15 12 5 16 10 5 17 13 6 18 14 6 19 12 6 20 15 7 21 16 7 22 14 7 23 17 8 24 18 8 25 16 8 26 19 9 27 20 9 28 18 9 29 21 10 30 22 10 31 20 10 32 23 11 33 24 11 34 22 11 35 25 12 36 26 12 37 24 12 38 27 13 39 28 13 40 26 13 41 29 14 42 30 14 43 28 14 44 31 15 45 32 15 46 30 15 47 33 16 48 34 16 49 32 16 50 35 17 51 36 17 52 34 17 53 37 18 54 38 18 55 36 18 56 39 19 57 40 19 58 38 19 59 41 20 60 42 20 61 40 20 62 43 21 63 44 21 64 42 21 65 45 22 66 46 22 67 44 22 68 47 23 69 48 23 70 46 23 71 49 24 72 50 24 73 48 24 74 51 25 75 52 25 76 50 25 77 53 26 78 54 26 79 52 26 80 55 27 81 56 27 82 54 27 83 57 28 84 58 28 85 56 28 86 59 29 87 60 29 88 58 29 89 61 30 90 62 30 91 60 30 92 63 31 93 64 31 94 62 31 95 65 32 96 66 32 97 64 32 98 67 33 99 68 33 100 66 33 101 69 34 102 70 34 103 68 34 104 71 35 105 72 35 106 70 35 107 73 36 108 74 36 109 72 36 110 75 37 111 76 37 112 74 37 113 77 38 114 78 38 115 76 38 116 79 39 117 80 39 118 78 39 119 81 40 120 82 40 121 80 40 122 83 41 123 84 41 124 82 41 125 85 42 126 86 42 127 84 42 128 87 43 129 88 43 130 86 43 131 89 44 132 90 44 133 88 44 134 91 45 135 92 45 136 90 45 137 85 46 138 69 46 139 37 46 140 93 47 141 94 47 142 92 47 143 95 48 144 0 48 145 94 48 146 62 49 147 78 49 148 94 49 149 1 0 150 3 0 151 2 0 152 3 1 153 5 1 154 4 1 155 5 50 156 7 50 157 6 50 158 7 51 159 9 51 160 8 51 161 9 52 162 11 52 163 10 52 164 11 5 165 13 5 166 12 5 167 13 6 168 15 6 169 14 6 170 15 53 171 17 53 172 16 53 173 17 8 174 19 8 175 18 8 176 19 9 177 21 9 178 20 9 179 21 54 180 23 54 181 22 54 182 23 11 183 25 11 184 24 11 185 25 12 186 27 12 187 26 12 188 27 55 189 29 55 190 28 55 191 29 14 192 31 14 193 30 14 194 31 15 195 33 15 196 32 15 197 33 56 198 35 56 199 34 56 200 35 17 201 37 17 202 36 17 203 37 18 204 39 18 205 38 18 206 39 57 207 41 57 208 40 57 209 41 58 210 43 58 211 42 58 212 43 59 213 45 59 214 44 59 215 45 22 216 47 22 217 46 22 218 47 23 219 49 23 220 48 23 221 49 24 222 51 24 223 50 24 224 51 25 225 53 25 226 52 25 227 53 60 228 55 60 229 54 60 230 55 61 231 57 61 232 56 61 233 57 62 234 59 62 235 58 62 236 59 29 237 61 29 238 60 29 239 61 30 240 63 30 241 62 30 242 63 63 243 65 63 244 64 63 245 65 32 246 67 32 247 66 32 248 67 33 249 69 33 250 68 33 251 69 64 252 71 64 253 70 64 254 71 35 255 73 35 256 72 35 257 73 36 258 75 36 259 74 36 260 75 65 261 77 65 262 76 65 263 77 38 264 79 38 265 78 38 266 79 39 267 81 39 268 80 39 269 81 66 270 83 66 271 82 66 272 83 41 273 85 41 274 84 41 275 85 42 276 87 42 277 86 42 278 87 67 279 89 67 280 88 67 281 89 68 282 91 68 283 90 68 284 91 69 285 93 69 286 92 69 287 5 46 288 3 46 289 1 46 290 1 46 291 95 46 292 93 46 293 93 46 294 91 46 295 89 46 296 89 70 297 87 70 298 85 70 299 85 71 300 83 71 301 81 71 302 81 72 303 79 72 304 77 72 305 77 46 306 75 46 307 73 46 308 73 46 309 71 46 310 69 46 311 69 72 312 67 72 313 65 72 314 65 71 315 63 71 316 61 71 317 61 73 318 59 73 319 57 73 320 57 46 321 55 46 322 53 46 323 53 46 324 51 46 325 49 46 326 49 46 327 47 46 328 45 46 329 45 46 330 43 46 331 41 46 332 41 74 333 39 74 334 37 74 335 37 75 336 35 75 337 33 75 338 33 76 339 31 76 340 29 76 341 29 46 342 27 46 343 25 46 344 25 46 345 23 46 346 21 46 347 21 76 348 19 76 349 17 76 350 17 75 351 15 75 352 13 75 353 13 77 354 11 77 355 9 77 356 9 46 357 7 46 358 5 46 359 5 46 360 1 46 361 93 46 362 93 46 363 89 46 364 5 46 365 89 46 366 85 46 367 5 46 368 85 46 369 81 46 370 77 46 371 77 78 372 73 78 373 85 78 374 73 79 375 69 79 376 85 79 377 69 46 378 65 46 379 61 46 380 61 80 381 57 80 382 53 80 383 53 46 384 49 46 385 45 46 386 45 46 387 41 46 388 53 46 389 41 46 390 37 46 391 53 46 392 37 46 393 33 46 394 29 46 395 29 81 396 25 81 397 37 81 398 25 82 399 21 82 400 37 82 401 21 46 402 17 46 403 13 46 404 13 83 405 9 83 406 5 83 407 69 46 408 61 46 409 37 46 410 61 46 411 53 46 412 37 46 413 21 46 414 13 46 415 37 46 416 13 84 417 5 84 418 37 84 419 5 85 420 85 85 421 37 85 422 93 47 423 95 47 424 94 47 425 95 48 426 1 48 427 0 48 428 94 86 429 0 86 430 6 86 431 0 86 432 2 86 433 6 86 434 2 87 435 4 87 436 6 87 437 6 88 438 8 88 439 10 88 440 10 89 441 12 89 442 14 89 443 14 90 444 16 90 445 18 90 446 18 91 447 20 91 448 22 91 449 22 86 450 24 86 451 30 86 452 24 86 453 26 86 454 30 86 455 26 91 456 28 91 457 30 91 458 30 86 459 32 86 460 38 86 461 32 86 462 34 86 463 38 86 464 34 89 465 36 89 466 38 89 467 38 86 468 40 86 469 46 86 470 40 92 471 42 92 472 46 92 473 42 87 474 44 87 475 46 87 476 46 86 477 48 86 478 54 86 479 48 86 480 50 86 481 54 86 482 50 93 483 52 93 484 54 93 485 54 94 486 56 94 487 58 94 488 58 90 489 60 90 490 62 90 491 62 89 492 64 89 493 66 89 494 66 95 495 68 95 496 70 95 497 70 86 498 72 86 499 78 86 500 72 86 501 74 86 502 78 86 503 74 95 504 76 95 505 78 95 506 78 86 507 80 86 508 86 86 509 80 86 510 82 86 511 86 86 512 82 90 513 84 90 514 86 90 515 86 86 516 88 86 517 94 86 518 88 96 519 90 96 520 94 96 521 90 93 522 92 93 523 94 93 524 6 86 525 10 86 526 94 86 527 10 86 528 14 86 529 94 86 530 14 86 531 18 86 532 30 86 533 18 97 534 22 97 535 30 97 536 54 86 537 58 86 538 46 86 539 58 86 540 62 86 541 46 86 542 62 86 543 66 86 544 78 86 545 66 98 546 70 98 547 78 98 548 30 86 549 38 86 550 62 86 551 38 86 552 46 86 553 62 86 554 78 99 555 86 99 556 94 99 557 94 100 558 14 100 559 62 100 560 14 86 561 30 86 562 62 86 563</p>
        </triangles>
      </mesh>
    </geometry>
  </library_geometries>
  <library_visual_scenes>
    <visual_scene id="Scene" name="Scene">
      <node id="pad_fixed" name="pad_fixed" type="NODE">
        <matrix sid="transform">1 0 0 0 0 1 0 0 0 0 1 0 0 0 0 1</matrix>
        <instance_geometry url="#Cube_099-mesh" name="pad_fixed">
          <bind_material>
            <technique_common>
              <instance_material symbol="g_pad-material" target="#g_pad-material">
                <bind_vertex_input semantic="UVMap" input_semantic="TEXCOORD" input_set="0"/>
              </instance_material>
            </technique_common>
          </bind_material>
        </instance_geometry>
      </node>
      <node id="jaw_fixed" name="jaw_fixed" type="NODE">
        <matrix sid="transform">1 0 0 0.05393583 0 1 0 0 0 0 1 0 0 0 0 1</matrix>
        <instance_geometry url="#Cube_088-mesh" name="jaw_fixed">
          <bind_material>
            <technique_common>
              <instance_material symbol="g_metal-material" target="#g_metal-material">
                <bind_vertex_input semantic="UVMap" input_semantic="TEXCOORD" input_set="0"/>
              </instance_material>
            </technique_common>
          </bind_material>
        </instance_geometry>
      </node>
      <node id="body" name="body" type="NODE">
        <matrix sid="transform">0.4049383 0 0 0 0 0.6074074 0 0 0 0 0.6074074 0.05245037 0 0 0 1</matrix>
        <instance_geometry url="#Cube_071-mesh" name="body">
          <bind_material>
            <technique_common>
              <instance_material symbol="g_dark-material" target="#g_dark-material">
                <bind_vertex_input semantic="UVMap" input_semantic="TEXCOORD" input_set="0"/>
              </instance_material>
            </technique_common>
          </bind_material>
        </instance_geometry>
      </node>
      <node id="flange" name="flange" type="NODE">
        <matrix sid="transform">0.6074074 0 0 0 0 0.6074074 0 0 0 0 0.6074074 0.1336087 0 0 0 1</matrix>
        <instance_geometry url="#Cylinder_004-mesh" name="flange">
          <bind_material>
            <technique_common>
              <instance_material symbol="g_metal-material" target="#g_metal-material">
                <bind_vertex_input semantic="UVMap" input_semantic="TEXCOORD" input_set="0"/>
              </instance_material>
            </technique_common>
          </bind_material>
        </instance_geometry>
      </node>
    </visual_scene>
  </library_visual_scenes>
  <scene>
    <instance_visual_scene url="#Scene"/>
  </scene>
</COLLADA>