<?xml version="1.0" encoding="utf-8"?>
<COLLADA xmlns="http://www.collada.org/2005/11/COLLADASchema" version="1.4.1" xmlns:xsi="http://www.w3.org/2001/XMLSchema-instance">
  <asset>
    <contributor>
      <author>Blender User</author>
      <authoring_tool>Blender 3.6.23 commit date:2025-06-16, commit time:11:52, hash:e467db79ca8c</authoring_tool>
    </contributor>
    <created>2026-07-28T17:00:23</created>
    <modified>2026-07-28T17:00:23</modified>
    <unit name="meter" meter="1"/>
    <up_axis>Z_UP</up_axis>
  </asset>
  <library_effects>
    <effect id="Red-effect">
      <profile_COMMON>
        <technique sid="common">
          <lambert>
            <emission>
              <color sid="emission">1 0.0625 0.0625 1</color>
            </emission>
            <diffuse>
              <color sid="diffuse">0.8 0.05 0.05 1</color>
            </diffuse>
            <index_of_refraction>
              <float sid="ior">1.45</float>
            </index_of_refraction>
          </lambert>
        </technique>
      </profile_COMMON>
    </effect>
    <effect id="Yellow-effect">
      <profile_COMMON>
        <technique sid="common">
          <lambert>
            <emission>
              <color sid="emission">1 0.8333334 0.05555556 1</color>
            </emission>
            <diffuse>
              <color sid="diffuse">0.9 0.75 0.05 1</color>
            </diffuse>
            <index_of_refraction>
              <float sid="ior">1.45</float>
            </index_of_refraction>
          </lambert>
        </technique>
      </profile_COMMON>
    </effect>
    <effect id="Green-effect">
      <profile_COMMON>
        <technique sid="common">
          <lambert>
            <emission>
              <color sid="emission">0.07142857 1 0.1714286 1</color>
            </emission>
            <diffuse>
              <color sid="diffuse">0.05 0.7 0.12 1</color>
            </diffuse>
            <index_of_refraction>
              <float sid="ior">1.45</float>
            </index_of_refraction>
          </lambert>
        </technique>
      </profile_COMMON>
    </effect>
    <effect id="Alu_Brushed-effect">
      <profile_COMMON>
        <technique sid="common">
          <lambert>
            <emission>
              <color sid="emission">0 0 0 1</color>
            </emission>
            <diffuse>
              <color sid="diffuse">0.42 0.43 0.45 1</color>
            </diffuse>
            <reflectivity>
              <float sid="specular">0.85</float>
            </reflectivity>
            <index_of_refraction>
              <float sid="ior">1.45</float>
            </index_of_refraction>
          </lambert>
        </technique>
      </profile_COMMON>
    </effect>
    <effect id="Machine_Cream-effect">
      <profile_COMMON>
        <technique sid="common">
          <lambert>
            <emission>
              <color sid="emission">0 0 0 1</color>
            </emission>
            <diffuse>
              <color sid="diffuse">0.82 0.79 0.72 1</color>
            </diffuse>
            <index_of_refraction>
              <float sid="ior">1.45</float>
            </index_of_refraction>
          </lambert>
        </technique>
      </profile_COMMON>
    </effect>
    <effect id="Screen-effect">
      <profile_COMMON>
        <technique sid="common">
          <lambert>
            <emission>
              <color sid="emission">0 0 0 1</color>
            </emission>
            <diffuse>
              <color sid="diffuse">0.05 0.06 0.08 1</color>
            </diffuse>
            <index_of_refraction>
              <float sid="ior">1.45</float>
            </index_of_refraction>
          </lambert>
        </technique>
      </profile_COMMON>
    </effect>
  </library_effects>
  <library_images/>
  <library_materials>
    <material id="Red-material" name="Red">
      <instance_effect url="#Red-effect"/>
    </material>
    <material id="Yellow-material" name="Yellow">
      <instance_effect url="#Yellow-effect"/>
    </material>
    <material id="Green-material" name="Green">
      <instance_effect url="#Green-effect"/>
    </material>
    <material id="Alu_Brushed-material" name="Alu_Brushed">
      <instance_effect url="#Alu_Brushed-effect"/>
    </material>
    <material id="Machine_Cream-material" name="Machine_Cream">
      <instance_effect url="#Machine_Cream-effect"/>
    </material>
    <material id="Screen-material" name="Screen">
      <instance_effect url="#Screen-effect"/>
    </material>
  </library_materials>
  <library_geometries>
    <geometry id="Cylinder_004-mesh" name="Cylinder.004">
      <mesh>
        <source id="Cylinder_004-mesh-positions">
          <float_array id="Cylinder_004-mesh-positions-array" count="96">0 0.03499996 -0.02499997 0 0.03499996 0.02499997 0.01339387 0.03233575 -0.02499997 0.01339387 0.03233575 0.02499997 0.02474874 0.02474874 -0.02499997 0.02474874 0.02474874 0.02499997 0.03233575 0.01339387 -0.02499997 0.03233575 0.01339387 0.02499997 0.03499996 0 -0.02499997 0.03499996 0 0.02499997 0.03233575 -0.01339387 -0.02499997 0.03233575 -0.01339387 0.02499997 0.02474874 -0.02474874 -0.02499997 0.02474874 -0.02474874 0.02499997 0.01339387 -0.03233575 -0.02499997 0.01339387 -0.03233575 0.02499997 0 -0.03499996 -0.02499997 0 -0.03499996 0.02499997 -0.01339387 -0.03233575 -0.02499997 -0.01339387 -0.03233575 0.02499997 -0.02474874 -0.02474874 -0.02499997 -0.02474874 -0.02474874 0.02499997 -0.03233575 -0.01339387 -0.02499997 -0.03233575 -0.01339387 0.02499997 -0.03499996 0 -0.02499997 -0.03499996 0 0.02499997 -0.03233575 0.01339387 -0.02499997 -0.03233575 0.01339387 0.02499997 -0.02474874 0.02474874 -0.02499997 -0.02474874 0.02474874 0.02499997 -0.01339387 0.03233575 -0.02499997 -0.01339387 0.03233575 0.02499997</float_array>
          <technique_common>
            <accessor source="#Cylinder_004-mesh-positions-array" count="32" stride="3">
              <param name="X" type="float"/>
              <param name="Y" type="float"/>
              <param name="Z" type="float"/>
            </accessor>
          </technique_common>
        </source>
        <source id="Cylinder_004-mesh-normals">
          <float_array id="Cylinder_004-mesh-normals-array" count="90">0.1950902 0.9807854 0 0.5555704 0.8314695 0 0.8314697 0.5555704 0 0.9807854 0.1950902 0 0.9807854 -0.1950902 0 0.8314697 -0.5555704 0 0.5555703 -0.8314696 0 0.1950902 -0.9807854 0 -0.1950902 -0.9807854 0 -0.5555704 -0.8314695 0 -0.8314697 -0.5555704 0 -0.9807854 -0.1950902 0 -0.9807854 0.1950902 0 -0.8314697 0.5555704 0 0 0 1 -0.5555703 0.8314696 0 -0.1950902 0.9807854 0 -1.90066e-7 0 -1 0.5555703 0.8314696 0 0.5555704 -0.8314695 0 -0.5555703 -0.8314696 0 -0.5555704 0.8314695 0 0 0 -1 8.15592e-7 0 -1 -5.72795e-7 0 -1 -6.1999e-7 0 -1 -8.15592e-7 0 -1 5.72795e-7 0 -1 6.1999e-7 0 -1 1.90066e-7 0 -1</float_array>
          <technique_common>
            <accessor source="#Cylinder_004-mesh-normals-array" count="30" stride="3">
              <param name="X" type="float"/>
              <param name="Y" type="float"/>
              <param name="Z" type="float"/>
            </accessor>
          </technique_common>
        </source>
        <source id="Cylinder_004-mesh-map-0">
          <float_array id="Cylinder_004-mesh-map-0-array" count="360">1 1 0.9375 0.5 1 0.5 0.9375 1 0.875 0.5 0.9375 0.5 0.875 1 0.8125 0.5 0.875 0.5 0.8125 1 0.75 0.5 0.8125 0.5 0.75 1 0.6875 0.5 0.75 0.5 0.6875 1 0.625 0.5 0.6875 0.5 0.625 1 0.5625 0.5 0.625 0.5 0.5625 1 0.5 0.5 0.5625 0.5 0.5 1 0.4375 0.5 0.5 0.5 0.4375 1 0.375 0.5 0.4375 0.5 0.375 1 0.3125 0.5 0.375 0.5 0.3125 1 0.25 0.5 0.3125 0.5 0.25 1 0.1875 0.5 0.25 0.5 0.1875 1 0.125 0.5 0.1875 0.5 0.08029437 0.08029437 0.4197056 0.08029437 0.4197056 0.4197056 0.125 1 0.0625 0.5 0.125 0.5 0.0625 1 0 0.5 0.0625 0.5 0.658156 0.02826887 0.5282689 0.1581559 0.658156 0.4717311 1 1 0.9375 1 0.9375 0.5 0.9375 1 0.875 1 0.875 0.5 0.875 1 0.8125 1 0.8125 0.5 0.8125 1 0.75 1 0.75 0.5 0.75 1 0.6875 1 0.6875 0.5 0.6875 1 0.625 1 0.625 0.5 0.625 1 0.5625 1 0.5625 0.5 0.5625 1 0.5 1 0.5 0.5 0.5 1 0.4375 1 0.4375 0.5 0.4375 1 0.375 1 0.375 0.5 0.375 1 0.3125 1 0.3125 0.5 0.3125 1 0.25 1 0.25 0.5 0.25 1 0.1875 1 0.1875 0.5 0.1875 1 0.125 1 0.125 0.5 0.4197056 0.4197056 0.341844 0.4717311 0.25 0.49 0.25 0.49 0.1581559 0.4717311 0.08029437 0.4197056 0.08029437 0.4197056 0.02826887 0.341844 0.00999999 0.25 0.00999999 0.25 0.02826887 0.1581559 0.08029437 0.08029437 0.08029437 0.08029437 0.1581559 0.02826887 0.25 0.00999999 0.25 0.00999999 0.341844 0.02826887 0.4197056 0.08029437 0.4197056 0.08029437 0.4717311 0.1581559 0.49 0.25 0.49 0.25 0.4717311 0.341844 0.4197056 0.4197056 0.4197056 0.4197056 0.25 0.49 0.08029437 0.4197056 0.08029437 0.4197056 0.00999999 0.25 0.08029437 0.08029437 0.08029437 0.08029437 0.25 0.00999999 0.4197056 0.08029437 0.4197056 0.08029437 0.49 0.25 0.4197056 0.4197056 0.4197056 0.4197056 0.08029437 0.4197056 0.08029437 0.08029437 0.125 1 0.0625 1 0.0625 0.5 0.0625 1 0 1 0 0.5 0.658156 0.4717311 0.75 0.49 0.841844 0.4717311 0.841844 0.4717311 0.9197056 0.4197056 0.9717311 0.341844 0.9717311 0.341844 0.99 0.25 0.9717311 0.1581559 0.9717311 0.1581559 0.9197056 0.08029437 0.9717311 0.341844 0.9197056 0.08029437 0.841844 0.02826887 0.9717311 0.341844 0.841844 0.02826887 0.75 0.00999999 0.658156 0.02826887 0.658156 0.02826887 0.5802944 0.08029437 0.5282689 0.1581559 0.5282689 0.1581559 0.51 0.25 0.5282689 0.341844 0.5282689 0.341844 0.5802944 0.4197056 0.5282689 0.1581559 0.5802944 0.4197056 0.658156 0.4717311 0.5282689 0.1581559 0.658156 0.4717311 0.841844 0.4717311 0.841844 0.02826887 0.841844 0.4717311 0.9717311 0.341844 0.841844 0.02826887 0.841844 0.02826887 0.658156 0.02826887 0.658156 0.4717311</float_array>
          <technique_common>
            <accessor source="#Cylinder_004-mesh-map-0-array" count="180" stride="2">
              <param name="S" type="float"/>
              <param name="T" type="float"/>
            </accessor>
          </technique_common>
        </source>
        <vertices id="Cylinder_004-mesh-vertices">
          <input semantic="POSITION" source="#Cylinder_004-mesh-positions"/>
        </vertices>
        <triangles material="Red-material" count="60">
          <input semantic="VERTEX" source="#Cylinder_004-mesh-vertices" offset="0"/>
          <input semantic="NORMAL" source="#Cylinder_004-mesh-normals" offset="1"/>
          <input semantic="TEXCOORD" source="#Cylinder_004-mesh-map-0" offset="2" set="0"/>
          <p>1 0 0 2 0 1 0 0 2 3 1 3 4 1 4 2 1 5 5 2 6 6 2 7 4 2 8 7 3 9 8 3 10 6 3 11 9 4 12 10 4 13 8 4 14 11 5 15 12 5 16 10 5 17 13 6 18 14 6 19 12 6 20 15 7 21 16 7 22 14 7 23 17 8 24 18 8 25 16 8 26 19 9 27 20 9 28 18 9 29 21 10 30 22 10 31 20 10 32 23 11 33 24 11 34 22 11 35 25 12 36 26 12 37 24 12 38 27 13 39 28 13 40 26 13 41 21 14 42 13 14 43 5 14 44 29 15 45 30 15 46 28 15 47 31 16 48 0 16 49 30 16 50 18 17 51 22 17 52 30 17 53 1 0 54 3 0 55 2 0 56 3 18 57 5 18 58 4 18 59 5 2 60 7 2 61 6 2 62 7 3 63 9 3 64 8 3 65 9 4 66 11 4 67 10 4 68 11 5 69 13 5 70 12 5 71 13 19 72 15 19 73 14 19 74 15 7 75 17 7 76 16 7 77 17 8 78 19 8 79 18 8 80 19 20 81 21 20 82 20 20 83 21 10 84 23 10 85 22 10 86 23 11 87 25 11 88 24 11 89 25 12 90 27 12 91 26 12 92 27 13 93 29 13 94 28 13 95 5 14 96 3 14 97 1 14 98 1 14 99 31 14 100 29 14 101 29 14 102 27 14 103 25 14 104 25 14 105 23 14 106 21 14 107 21 14 108 19 14 109 17 14 110 17 14 111 15 14 112 13 14 113 13 14 114 11 14 115 9 14 116 9 14 117 7 14 118 5 14 119 5 14 120 1 14 121 29 14 122 29 14 123 25 14 124 21 14 125 21 14 126 17 14 127 13 14 128 13 14 129 9 14 130 5 14 131 5 14 132 29 14 133 21 14 134 29 21 135 31 21 136 30 21 137 31 16 138 1 16 139 0 16 140 30 22 141 0 22 142 2 22 143 2 23 144 4 23 145 6 23 146 6 22 147 8 22 148 10 22 149 10 24 150 12 24 151 6 24 152 12 25 153 14 25 154 6 25 155 14 22 156 16 22 157 18 22 158 18 26 159 20 26 160 22 26 161 22 22 162 24 22 163 26 22 164 26 27 165 28 27 166 22 27 167 28 28 168 30 28 169 22 28 170 30 22 171 2 22 172 14 22 173 2 29 174 6 29 175 14 29 176 14 22 177 18 22 178 30 22 179</p>
        </triangles>
      </mesh>
    </geometry>
    <geometry id="Cylinder_003-mesh" name="Cylinder.003">
      <mesh>
        <source id="Cylinder_003-mesh-positions">
          <float_array id="Cylinder_003-mesh-positions-array" count="96">0 0.03499996 -0.02499997 0 0.03499996 0.02499997 0.01339387 0.03233575 -0.02499997 0.01339387 0.03233575 0.02499997 0.02474874 0.02474874 -0.02499997 0.02474874 0.02474874 0.02499997 0.03233575 0.01339387 -0.02499997 0.03233575 0.01339387 0.02499997 0.03499996 0 -0.02499997 0.03499996 0 0.02499997 0.03233575 -0.01339387 -0.02499997 0.03233575 -0.01339387 0.02499997 0.02474874 -0.02474874 -0.02499997 0.02474874 -0.02474874 0.02499997 0.01339387 -0.03233575 -0.02499997 0.01339387 -0.03233575 0.02499997 0 -0.03499996 -0.02499997 0 -0.03499996 0.02499997 -0.01339387 -0.03233575 -0.02499997 -0.01339387 -0.03233575 0.02499997 -0.02474874 -0.02474874 -0.02499997 -0.02474874 -0.02474874 0.02499997 -0.03233575 -0.01339387 -0.02499997 -0.03233575 -0.01339387 0.02499997 -0.03499996 0 -0.02499997 -0.03499996 0 0.02499997 -0.03233575 0.01339387 -0.02499997 -0.03233575 0.01339387 0.02499997 -0.02474874 0.02474874 -0.02499997 -0.02474874 0.02474874 0.02499997 -0.01339387 0.03233575 -0.02499997 -0.01339387 0.03233575 0.02499997</float_array>
          <technique_common>
            <accessor source="#Cylinder_003-mesh-positions-array" count="32" stride="3">
              <param name="X" type="float"/>
              <param name="Y" type="float"/>
              <param name="Z" type="float"/>
            </accessor>
          </technique_common>
        </source>
        <source id="Cylinder_003-mesh-normals">
          <float_array id="Cylinder_003-mesh-normals-array" count="90">0.1950902 0.9807854 0 0.5555704 0.8314695 0 0.8314697 0.5555704 0 0.9807854 0.1950902 0 0.9807854 -0.1950902 0 0.8314697 -0.5555704 0 0.5555703 -0.8314696 0 0.1950902 -0.9807854 0 -0.1950902 -0.9807854 0 -0.5555704 -0.8314695 0 -0.8314697 -0.5555704 0 -0.9807854 -0.1950902 0 -0.9807854 0.1950902 0 -0.8314697 0.5555704 0 0 0 1 -0.5555703 0.8314696 0 -0.1950902 0.9807854 0 -1.90066e-7 0 -1 0.5555703 0.8314696 0 0.5555704 -0.8314695 0 -0.5555703 -0.8314696 0 -0.5555704 0.8314695 0 0 0 -1 8.15592e-7 0 -1 -5.72795e-7 0 -1 -6.1999e-7 0 -1 -8.15592e-7 0 -1 5.72795e-7 0 -1 6.1999e-7 0 -1 1.90066e-7 0 -1</float_array>
          <technique_common>
            <accessor source="#Cylinder_003-mesh-normals-array" count="30" stride="3">
              <param name="X" type="float"/>
              <param name="Y" type="float"/>
              <param name="Z" type="float"/>
            </accessor>
          </technique_common>
        </source>
        <source id="Cylinder_003-mesh-map-0">
          <float_array id="Cylinder_003-mesh-map-0-array" count="360">1 1 0.9375 0.5 1 0.5 0.9375 1 0.875 0.5 0.9375 0.5 0.875 1 0.8125 0.5 0.875 0.5 0.8125 1 0.75 0.5 0.8125 0.5 0.75 1 0.6875 0.5 0.75 0.5 0.6875 1 0.625 0.5 0.6875 0.5 0.625 1 0.5625 0.5 0.625 0.5 0.5625 1 0.5 0.5 0.5625 0.5 0.5 1 0.4375 0.5 0.5 0.5 0.4375 1 0.375 0.5 0.4375 0.5 0.375 1 0.3125 0.5 0.375 0.5 0.3125 1 0.25 0.5 0.3125 0.5 0.25 1 0.1875 0.5 0.25 0.5 0.1875 1 0.125 0.5 0.1875 0.5 0.08029437 0.08029437 0.4197056 0.08029437 0.4197056 0.4197056 0.125 1 0.0625 0.5 0.125 0.5 0.0625 1 0 0.5 0.0625 0.5 0.658156 0.02826887 0.5282689 0.1581559 0.658156 0.4717311 1 1 0.9375 1 0.9375 0.5 0.9375 1 0.875 1 0.875 0.5 0.875 1 0.8125 1 0.8125 0.5 0.8125 1 0.75 1 0.75 0.5 0.75 1 0.6875 1 0.6875 0.5 0.6875 1 0.625 1 0.625 0.5 0.625 1 0.5625 1 0.5625 0.5 0.5625 1 0.5 1 0.5 0.5 0.5 1 0.4375 1 0.4375 0.5 0.4375 1 0.375 1 0.375 0.5 0.375 1 0.3125 1 0.3125 0.5 0.3125 1 0.25 1 0.25 0.5 0.25 1 0.1875 1 0.1875 0.5 0.1875 1 0.125 1 0.125 0.5 0.4197056 0.4197056 0.341844 0.4717311 0.25 0.49 0.25 0.49 0.1581559 0.4717311 0.08029437 0.4197056 0.08029437 0.4197056 0.02826887 0.341844 0.00999999 0.25 0.00999999 0.25 0.02826887 0.1581559 0.08029437 0.08029437 0.08029437 0.08029437 0.1581559 0.02826887 0.25 0.00999999 0.25 0.00999999 0.341844 0.02826887 0.4197056 0.08029437 0.4197056 0.08029437 0.4717311 0.1581559 0.49 0.25 0.49 0.25 0.4717311 0.341844 0.4197056 0.4197056 0.4197056 0.4197056 0.25 0.49 0.08029437 0.4197056 0.08029437 0.4197056 0.00999999 0.25 0.08029437 0.08029437 0.08029437 0.08029437 0.25 0.00999999 0.4197056 0.08029437 0.4197056 0.08029437 0.49 0.25 0.4197056 0.4197056 0.4197056 0.4197056 0.08029437 0.4197056 0.08029437 0.08029437 0.125 1 0.0625 1 0.0625 0.5 0.0625 1 0 1 0 0.5 0.658156 0.4717311 0.75 0.49 0.841844 0.4717311 0.841844 0.4717311 0.9197056 0.4197056 0.9717311 0.341844 0.9717311 0.341844 0.99 0.25 0.9717311 0.1581559 0.9717311 0.1581559 0.9197056 0.08029437 0.9717311 0.341844 0.9197056 0.08029437 0.841844 0.02826887 0.9717311 0.341844 0.841844 0.02826887 0.75 0.00999999 0.658156 0.02826887 0.658156 0.02826887 0.5802944 0.08029437 0.5282689 0.1581559 0.5282689 0.1581559 0.51 0.25 0.5282689 0.341844 0.5282689 0.341844 0.5802944 0.4197056 0.5282689 0.1581559 0.5802944 0.4197056 0.658156 0.4717311 0.5282689 0.1581559 0.658156 0.4717311 0.841844 0.4717311 0.841844 0.02826887 0.841844 0.4717311 0.9717311 0.341844 0.841844 0.02826887 0.841844 0.02826887 0.658156 0.02826887 0.658156 0.4717311</float_array>
          <technique_common>
            <accessor source="#Cylinder_003-mesh-map-0-array" count="180" stride="2">
              <param name="S" type="float"/>
              <param name="T" type="float"/>
            </accessor>
          </technique_common>
        </source>
        <vertices id="Cylinder_003-mesh-vertices">
          <input semantic="POSITION" source="#Cylinder_003-mesh-positions"/>
        </vertices>
        <triangles material="Yellow-material" count="60">
          <input semantic="VERTEX" source="#Cylinder_003-mesh-vertices" offset="0"/>
          <input semantic="NORMAL" source="#Cylinder_003-mesh-normals" offset="1"/>
          <input semantic="TEXCOORD" source="#Cylinder_003-mesh-map-0" offset="2" set="0"/>
          <p>1 0 0 2 0 1 0 0 2 3 1 3 4 1 4 2 1 5 5 2 6 6 2 7 4 2 8 7 3 9 8 3 10 6 3 11 9 4 12 10 4 13 8 4 14 11 5 15 12 5 16 10 5 17 13 6 18 14 6 19 12 6 20 15 7 21 16 7 22 14 7 23 17 8 24 18 8 25 16 8 26 19 9 27 20 9 28 18 9 29 21 10 30 22 10 31 20 10 32 23 11 33 24 11 34 22 11 35 25 12 36 26 12 37 24 12 38 27 13 39 28 13 40 26 13 41 21 14 42 13 14 43 5 14 44 29 15 45 30 15 46 28 15 47 31 16 48 0 16 49 30 16 50 18 17 51 22 17 52 30 17 53 1 0 54 3 0 55 2 0 56 3 18 57 5 18 58 4 18 59 5 2 60 7 2 61 6 2 62 7 3 63 9 3 64 8 3 65 9 4 66 11 4 67 10 4 68 11 5 69 13 5 70 12 5 71 13 19 72 15 19 73 14 19 74 15 7 75 17 7 76 16 7 77 17 8 78 19 8 79 18 8 80 19 20 81 21 20 82 20 20 83 21 10 84 23 10 85 22 10 86 23 11 87 25 11 88 24 11 89 25 12 90 27 12 91 26 12 92 27 13 93 29 13 94 28 13 95 5 14 96 3 14 97 1 14 98 1 14 99 31 14 100 29 14 101 29 14 102 27 14 103 25 14 104 25 14 105 23 14 106 21 14 107 21 14 108 19 14 109 17 14 110 17 14 111 15 14 112 13 14 113 13 14 114 11 14 115 9 14 116 9 14 117 7 14 118 5 14 119 5 14 120 1 14 121 29 14 122 29 14 123 25 14 124 21 14 125 21 14 126 17 14 127 13 14 128 13 14 129 9 14 130 5 14 131 5 14 132 29 14 133 21 14 134 29 21 135 31 21 136 30 21 137 31 16 138 1 16 139 0 16 140 30 22 141 0 22 142 2 22 143 2 23 144 4 23 145 6 23 146 6 22 147 8 22 148 10 22 149 10 24 150 12 24 151 6 24 152 12 25 153 14 25 154 6 25 155 14 22 156 16 22 157 18 22 158 18 26 159 20 26 160 22 26 161 22 22 162 24 22 163 26 22 164 26 27 165 28 27 166 22 27 167 28 28 168 30 28 169 22 28 170 30 22 171 2 22 172 14 22 173 2 29 174 6 29 175 14 29 176 14 22 177 18 22 178 30 22 179</p>
        </triangles>
      </mesh>
    </geometry>
    <geometry id="Cylinder_002-mesh" name="Cylinder.002">
      <mesh>
        <source id="Cylinder_002-mesh-positions">
          <float_array id="Cylinder_002-mesh-positions-array" count="96">0 0.03499996 -0.02499997 0 0.03499996 0.02499997 0.01339387 0.03233575 -0.02499997 0.01339387 0.03233575 0.02499997 0.02474874 0.02474874 -0.02499997 0.02474874 0.02474874 0.02499997 0.03233575 0.01339387 -0.02499997 0.03233575 0.01339387 0.02499997 0.03499996 0 -0.02499997 0.03499996 0 0.02499997 0.03233575 -0.01339387 -0.02499997 0.03233575 -0.01339387 0.02499997 0.02474874 -0.02474874 -0.02499997 0.02474874 -0.02474874 0.02499997 0.01339387 -0.03233575 -0.02499997 0.01339387 -0.03233575 0.02499997 0 -0.03499996 -0.02499997 0 -0.03499996 0.02499997 -0.01339387 -0.03233575 -0.02499997 -0.01339387 -0.03233575 0.02499997 -0.02474874 -0.02474874 -0.02499997 -0.02474874 -0.02474874 0.02499997 -0.03233575 -0.01339387 -0.02499997 -0.03233575 -0.01339387 0.02499997 -0.03499996 0 -0.02499997 -0.03499996 0 0.02499997 -0.03233575 0.01339387 -0.02499997 -0.03233575 0.01339387 0.02499997 -0.02474874 0.02474874 -0.02499997 -0.02474874 0.02474874 0.02499997 -0.01339387 0.03233575 -0.02499997 -0.01339387 0.03233575 0.02499997</float_array>
          <technique_common>
            <accessor source="#Cylinder_002-mesh-positions-array" count="32" stride="3">
              <param name="X" type="float"/>
              <param name="Y" type="float"/>
              <param name="Z" type="float"/>
            </accessor>
          </technique_common>
        </source>
        <source id="Cylinder_002-mesh-normals">
          <float_array id="Cylinder_002-mesh-normals-array" count="90">0.1950902 0.9807854 0 0.5555704 0.8314695 0 0.8314697 0.5555704 0 0.9807854 0.1950902 0 0.9807854 -0.1950902 0 0.8314697 -0.5555704 0 0.5555703 -0.8314696 0 0.1950902 -0.9807854 0 -0.1950902 -0.9807854 0 -0.5555704 -0.8314695 0 -0.8314697 -0.5555704 0 -0.9807854 -0.1950902 0 -0.9807854 0.1950902 0 -0.8314697 0.5555704 0 0 0 1 -0.5555703 0.8314696 0 -0.1950902 0.9807854 0 -1.90066e-7 0 -1 0.5555703 0.8314696 0 0.5555704 -0.8314695 0 -0.5555703 -0.8314696 0 -0.5555704 0.8314695 0 0 0 -1 8.15592e-7 0 -1 -5.72795e-7 0 -1 -6.1999e-7 0 -1 -8.15592e-7 0 -1 5.72795e-7 0 -1 6.1999e-7 0 -1 1.90066e-7 0 -1</float_array>
          <technique_common>
            <accessor source="#Cylinder_002-mesh-normals-array" count="30" stride="3">
              <param name="X" type="float"/>
              <param name="Y" type="float"/>
              <param name="Z" type="float"/>
            </accessor>
          </technique_common>
        </source>
        <source id="Cylinder_002-mesh-map-0">
          <float_array id="Cylinder_002-mesh-map-0-array" count="360">1 1 0.9375 0.5 1 0.5 0.9375 1 0.875 0.5 0.9375 0.5 0.875 1 0.8125 0.5 0.875 0.5 0.8125 1 0.75 0.5 0.8125 0.5 0.75 1 0.6875 0.5 0.75 0.5 0.6875 1 0.625 0.5 0.6875 0.5 0.625 1 0.5625 0.5 0.625 0.5 0.5625 1 0.5 0.5 0.5625 0.5 0.5 1 0.4375 0.5 0.5 0.5 0.4375 1 0.375 0.5 0.4375 0.5 0.375 1 0.3125 0.5 0.375 0.5 0.3125 1 0.25 0.5 0.3125 0.5 0.25 1 0.1875 0.5 0.25 0.5 0.1875 1 0.125 0.5 0.1875 0.5 0.08029437 0.08029437 0.4197056 0.08029437 0.4197056 0.4197056 0.125 1 0.0625 0.5 0.125 0.5 0.0625 1 0 0.5 0.0625 0.5 0.658156 0.02826887 0.5282689 0.1581559 0.658156 0.4717311 1 1 0.9375 1 0.9375 0.5 0.9375 1 0.875 1 0.875 0.5 0.875 1 0.8125 1 0.8125 0.5 0.8125 1 0.75 1 0.75 0.5 0.75 1 0.6875 1 0.6875 0.5 0.6875 1 0.625 1 0.625 0.5 0.625 1 0.5625 1 0.5625 0.5 0.5625 1 0.5 1 0.5 0.5 0.5 1 0.4375 1 0.4375 0.5 0.4375 1 0.375 1 0.375 0.5 0.375 1 0.3125 1 0.3125 0.5 0.3125 1 0.25 1 0.25 0.5 0.25 1 0.1875 1 0.1875 0.5 0.1875 1 0.125 1 0.125 0.5 0.4197056 0.4197056 0.341844 0.4717311 0.25 0.49 0.25 0.49 0.1581559 0.4717311 0.08029437 0.4197056 0.08029437 0.4197056 0.02826887 0.341844 0.00999999 0.25 0.00999999 0.25 0.02826887 0.1581559 0.08029437 0.08029437 0.08029437 0.08029437 0.1581559 0.02826887 0.25 0.00999999 0.25 0.00999999 0.341844 0.02826887 0.4197056 0.08029437 0.4197056 0.08029437 0.4717311 0.1581559 0.49 0.25 0.49 0.25 0.4717311 0.341844 0.4197056 0.4197056 0.4197056 0.4197056 0.25 0.49 0.08029437 0.4197056 0.08029437 0.4197056 0.00999999 0.25 0.08029437 0.08029437 0.08029437 0.08029437 0.25 0.00999999 0.4197056 0.08029437 0.4197056 0.08029437 0.49 0.25 0.4197056 0.4197056 0.4197056 0.4197056 0.08029437 0.4197056 0.08029437 0.08029437 0.125 1 0.0625 1 0.0625 0.5 0.0625 1 0 1 0 0.5 0.658156 0.4717311 0.75 0.49 0.841844 0.4717311 0.841844 0.4717311 0.9197056 0.4197056 0.9717311 0.341844 0.9717311 0.341844 0.99 0.25 0.9717311 0.1581559 0.9717311 0.1581559 0.9197056 0.08029437 0.9717311 0.341844 0.9197056 0.08029437 0.841844 0.02826887 0.9717311 0.341844 0.841844 0.02826887 0.75 0.00999999 0.658156 0.02826887 0.658156 0.02826887 0.5802944 0.08029437 0.5282689 0.1581559 0.5282689 0.1581559 0.51 0.25 0.5282689 0.341844 0.5282689 0.341844 0.5802944 0.4197056 0.5282689 0.1581559 0.5802944 0.4197056 0.658156 0.4717311 0.5282689 0.1581559 0.658156 0.4717311 0.841844 0.4717311 0.841844 0.02826887 0.841844 0.4717311 0.9717311 0.341844 0.841844 0.02826887 0.841844 0.02826887 0.658156 0.02826887 0.658156 0.4717311</float_array>
          <technique_common>
            <accessor source="#Cylinder_002-mesh-map-0-array" count="180" stride="2">
              <param name="S" type="float"/>
              <param name="T" type="float"/>
            </accessor>
          </technique_common>
        </source>
        <vertices id="Cylinder_002-mesh-vertices">
          <input semantic="POSITION" source="#Cylinder_002-mesh-positions"/>
        </vertices>
        <triangles material="Green-material" count="60">
          <input semantic="VERTEX" source="#Cylinder_002-mesh-vertices" offset="0"/>
          <input semantic="NORMAL" source="#Cylinder_002-mesh-normals" offset="1"/>
          <input semantic="TEXCOORD" source="#Cylinder_002-mesh-map-0" offset="2" set="0"/>
          <p>1 0 0 2 0 1 0 0 2 3 1 3 4 1 4 2 1 5 5 2 6 6 2 7 4 2 8 7 3 9 8 3 10 6 3 11 9 4 12 10 4 13 8 4 14 11 5 15 12 5 16 10 5 17 13 6 18 14 6 19 12 6 20 15 7 21 16 7 22 14 7 23 17 8 24 18 8 25 16 8 26 19 9 27 20 9 28 18 9 29 21 10 30 22 10 31 20 10 32 23 11 33 24 11 34 22 11 35 25 12 36 26 12 37 24 12 38 27 13 39 28 13 40 26 13 41 21 14 42 13 14 43 5 14 44 29 15 45 30 15 46 28 15 47 31 16 48 0 16 49 30 16 50 18 17 51 22 17 52 30 17 53 1 0 54 3 0 55 2 0 56 3 18 57 5 18 58 4 18 59 5 2 60 7 2 61 6 2 62 7 3 63 9 3 64 8 3 65 9 4 66 11 4 67 10 4 68 11 5 69 13 5 70 12 5 71 13 19 72 15 19 73 14 19 74 15 7 75 17 7 76 16 7 77 17 8 78 19 8 79 18 8 80 19 20 81 21 20 82 20 20 83 21 10 84 23 10 85 22 10 86 23 11 87 25 11 88 24 11 89 25 12 90 27 12 91 26 12 92 27 13 93 29 13 94 28 13 95 5 14 96 3 14 97 1 14 98 1 14 99 31 14 100 29 14 101 29 14 102 27 14 103 25 14 104 25 14 105 23 14 106 21 14 107 21 14 108 19 14 109 17 14 110 17 14 111 15 14 112 13 14 113 13 14 114 11 14 115 9 14 116 9 14 117 7 14 118 5 14 119 5 14 120 1 14 121 29 14 122 29 14 123 25 14 124 21 14 125 21 14 126 17 14 127 13 14 128 13 14 129 9 14 130 5 14 131 5 14 132 29 14 133 21 14 134 29 21 135 31 21 136 30 21 137 31 16 138 1 16 139 0 16 140 30 22 141 0 22 142 2 22 143 2 23 144 4 23 145 6 23 146 6 22 147 8 22 148 10 22 149 10 24 150 12 24 151 6 24 152 12 25 153 14 25 154 6 25 155 14 22 156 16 22 157 18 22 158 18 26 159 20 26 160 22 26 161 22 22 162 24 22 163 26 22 164 26 27 165 28 27 166 22 27 167 28 28 168 30 28 169 22 28 170 30 22 171 2 22 172 14 22 173 2 29 174 6 29 175 14 29 176 14 22 177 18 22 178 30 22 179</p>
        </triangles>
      </mesh>
    </geometry>
    <geometry id="Cylinder_001-mesh" name="Cylinder.001">
      <mesh>
        <source id="Cylinder_001-mesh-positions">
          <float_array id="Cylinder_001-mesh-positions-array" count="96">0 0.01199996 -0.11 0 0.01199996 0.11 0.00459218 0.01108652 -0.11 0.00459218 0.01108652 0.11 0.008485257 0.008485257 -0.11 0.008485257 0.008485257 0.11 0.01108652 0.00459218 -0.11 0.01108652 0.00459218 0.11 0.01199996 0 -0.11 0.01199996 0 0.11 0.01108652 -0.00459218 -0.11 0.01108652 -0.00459218 0.11 0.008485257 -0.008485257 -0.11 0.008485257 -0.008485257 0.11 0.00459218 -0.01108652 -0.11 0.00459218 -0.01108652 0.11 0 -0.01199996 -0.11 0 -0.01199996 0.11 -0.00459218 -0.01108652 -0.11 -0.00459218 -0.01108652 0.11 -0.008485257 -0.008485257 -0.11 -0.008485257 -0.008485257 0.11 -0.01108652 -0.00459218 -0.11 -0.01108652 -0.00459218 0.11 -0.01199996 0 -0.11 -0.01199996 0 0.11 -0.01108652 0.00459218 -0.11 -0.01108652 0.00459218 0.11 -0.008485257 0.008485257 -0.11 -0.008485257 0.008485257 0.11 -0.00459218 0.01108652 -0.11 -0.00459218 0.01108652 0.11</float_array>
          <technique_common>
            <accessor source="#Cylinder_001-mesh-positions-array" count="32" stride="3">
              <param name="X" type="float"/>
              <param name="Y" type="float"/>
              <param name="Z" type="float"/>
            </accessor>
          </technique_common>
        </source>
        <source id="Cylinder_001-mesh-normals">
          <float_array id="Cylinder_001-mesh-normals-array" count="96">0.1950903 0.9807853 0 0.5555705 0.8314695 0 0.8314697 0.5555704 0 0.9807853 0.1950907 0 0.9807853 -0.1950902 0 0.8314697 -0.5555704 0 0.5555704 -0.8314697 0 0.1950903 -0.9807853 0 -0.1950903 -0.9807853 0 -0.5555705 -0.8314695 0 -0.8314697 -0.5555704 0 -0.9807853 -0.1950907 0 -0.9807853 0.1950902 0 -0.8314697 0.5555704 0 0 0 1 -0.5555704 0.8314697 0 -0.1950903 0.9807853 0 1.61688e-6 0 -1 0.5555704 0.8314697 0 0.9807853 0.1950902 0 0.9807853 -0.1950907 0 0.5555705 -0.8314695 0 -0.5555704 -0.8314697 0 -0.9807853 -0.1950902 0 -0.9807853 0.1950907 0 -3.4691e-6 0 1 3.4691e-6 0 1 -0.5555705 0.8314695 0 0 0 -1 -9.74548e-6 0 -1 9.74548e-6 0 -1 -1.61688e-6 0 -1</float_array>
          <technique_common>
            <accessor source="#Cylinder_001-mesh-normals-array" count="32" stride="3">
              <param name="X" type="float"/>
              <param name="Y" type="float"/>
              <param name="Z" type="float"/>
            </accessor>
          </technique_common>
        </source>
        <source id="Cylinder_001-mesh-map-0">
          <float_array id="Cylinder_001-mesh-map-0-array" count="360">1 1 0.9375 0.5 1 0.5 0.9375 1 0.875 0.5 0.9375 0.5 0.875 1 0.8125 0.5 0.875 0.5 0.8125 1 0.75 0.5 0.8125 0.5 0.75 1 0.6875 0.5 0.75 0.5 0.6875 1 0.625 0.5 0.6875 0.5 0.625 1 0.5625 0.5 0.625 0.5 0.5625 1 0.5 0.5 0.5625 0.5 0.5 1 0.4375 0.5 0.5 0.5 0.4375 1 0.375 0.5 0.4375 0.5 0.375 1 0.3125 0.5 0.375 0.5 0.3125 1 0.25 0.5 0.3125 0.5 0.25 1 0.1875 0.5 0.25 0.5 0.1875 1 0.125 0.5 0.1875 0.5 0.08029437 0.08029437 0.4197056 0.08029437 0.4197056 0.4197056 0.125 1 0.0625 0.5 0.125 0.5 0.0625 1 0 0.5 0.0625 0.5 0.658156 0.02826887 0.5282689 0.1581559 0.658156 0.4717311 1 1 0.9375 1 0.9375 0.5 0.9375 1 0.875 1 0.875 0.5 0.875 1 0.8125 1 0.8125 0.5 0.8125 1 0.75 1 0.75 0.5 0.75 1 0.6875 1 0.6875 0.5 0.6875 1 0.625 1 0.625 0.5 0.625 1 0.5625 1 0.5625 0.5 0.5625 1 0.5 1 0.5 0.5 0.5 1 0.4375 1 0.4375 0.5 0.4375 1 0.375 1 0.375 0.5 0.375 1 0.3125 1 0.3125 0.5 0.3125 1 0.25 1 0.25 0.5 0.25 1 0.1875 1 0.1875 0.5 0.1875 1 0.125 1 0.125 0.5 0.4197056 0.4197056 0.341844 0.4717311 0.25 0.49 0.25 0.49 0.1581559 0.4717311 0.08029437 0.4197056 0.08029437 0.4197056 0.02826887 0.341844 0.00999999 0.25 0.00999999 0.25 0.02826887 0.1581559 0.08029437 0.08029437 0.08029437 0.08029437 0.1581559 0.02826887 0.25 0.00999999 0.25 0.00999999 0.341844 0.02826887 0.4197056 0.08029437 0.4197056 0.08029437 0.4717311 0.1581559 0.49 0.25 0.49 0.25 0.4717311 0.341844 0.4197056 0.4197056 0.4197056 0.4197056 0.25 0.49 0.08029437 0.4197056 0.08029437 0.4197056 0.00999999 0.25 0.08029437 0.08029437 0.08029437 0.08029437 0.25 0.00999999 0.4197056 0.08029437 0.4197056 0.08029437 0.49 0.25 0.4197056 0.4197056 0.4197056 0.4197056 0.08029437 0.4197056 0.08029437 0.08029437 0.125 1 0.0625 1 0.0625 0.5 0.0625 1 0 1 0 0.5 0.658156 0.4717311 0.75 0.49 0.841844 0.4717311 0.841844 0.4717311 0.9197056 0.4197056 0.9717311 0.341844 0.9717311 0.341844 0.99 0.25 0.9717311 0.1581559 0.9717311 0.1581559 0.9197056 0.08029437 0.9717311 0.341844 0.9197056 0.08029437 0.841844 0.02826887 0.9717311 0.341844 0.841844 0.02826887 0.75 0.00999999 0.658156 0.02826887 0.658156 0.02826887 0.5802944 0.08029437 0.5282689 0.1581559 0.5282689 0.1581559 0.51 0.25 0.5282689 0.341844 0.5282689 0.341844 0.5802944 0.4197056 0.5282689 0.1581559 0.5802944 0.4197056 0.658156 0.4717311 0.5282689 0.1581559 0.658156 0.4717311 0.841844 0.4717311 0.841844 0.02826887 0.841844 0.4717311 0.9717311 0.341844 0.841844 0.02826887 0.841844 0.02826887 0.658156 0.02826887 0.658156 0.4717311</float_array>
          <technique_common>
            <accessor source="#Cylinder_001-mesh-map-0-array" count="180" stride="2">
              <param name="S" type="float"/>
              <param name="T" type="float"/>
            </accessor>
          </technique_common>
        </source>
        <vertices id="Cylinder_001-mesh-vertices">
          <input semantic="POSITION" source="#Cylinder_001-mesh-positions"/>
        </vertices>
        <triangles material="Alu_Brushed-material" count="60">
          <input semantic="VERTEX" source="#Cylinder_001-mesh-vertices" offset="0"/>
          <input semantic="NORMAL" source="#Cylinder_001-mesh-normals" offset="1"/>
          <input semantic="TEXCOORD" source="#Cylinder_001-mesh-map-0" offset="2" set="0"/>
          <p>1 0 0 2 0 1 0 0 2 3 1 3 4 1 4 2 1 5 5 2 6 6 2 7 4 2 8 7 3 9 8 3 10 6 3 11 9 4 12 10 4 13 8 4 14 11 5 15 12 5 16 10 5 17 13 6 18 14 6 19 12 6 20 15 7 21 16 7 22 14 7 23 17 8 24 18 8 25 16 8 26 19 9 27 20 9 28 18 9 29 21 10 30 22 10 31 20 10 32 23 11 33 24 11 34 22 11 35 25 12 36 26 12 37 24 12 38 27 13 39 28 13 40 26 13 41 21 14 42 13 14 43 5 14 44 29 15 45 30 15 46 28 15 47 31 16 48 0 16 49 30 16 50 18 17 51 22 17 52 30 17 53 1 0 54 3 0 55 2 0 56 3 18 57 5 18 58 4 18 59 5 2 60 7 2 61 6 2 62 7 19 63 9 19 64 8 19 65 9 20 66 11 20 67 10 20 68 11 5 69 13 5 70 12 5 71 13 21 72 15 21 73 14 21 74 15 7 75 17 7 76 16 7 77 17 8 78 19 8 79 18 8 80 19 22 81 21 22 82 20 22 83 21 10 84 23 10 85 22 10 86 23 23 87 25 23 88 24 23 89 25 24 90 27 24 91 26 24 92 27 13 93 29 13 94 28 13 95 5 25 96 3 25 97 1 25 98 1 14 99 31 14 100 29 14 101 29 14 102 27 14 103 25 14 104 25 14 105 23 14 106 21 14 107 21 26 108 19 26 109 17 26 110 17 14 111 15 14 112 13 14 113 13 14 114 11 14 115 9 14 116 9 14 117 7 14 118 5 14 119 5 14 120 1 14 121 29 14 122 29 14 123 25 14 124 21 14 125 21 14 126 17 14 127 13 14 128 13 14 129 9 14 130 5 14 131 5 14 132 29 14 133 21 14 134 29 27 135 31 27 136 30 27 137 31 16 138 1 16 139 0 16 140 30 28 141 0 28 142 2 28 143 2 28 144 4 28 145 6 28 146 6 28 147 8 28 148 10 28 149 10 29 150 12 29 151 6 29 152 12 28 153 14 28 154 6 28 155 14 28 156 16 28 157 18 28 158 18 28 159 20 28 160 22 28 161 22 28 162 24 28 163 26 28 164 26 30 165 28 30 166 22 30 167 28 28 168 30 28 169 22 28 170 30 28 171 2 28 172 14 28 173 2 31 174 6 31 175 14 31 176 14 28 177 18 28 178 30 28 179</p>
        </triangles>
      </mesh>
    </geometry>
    <geometry id="Cube_003-mesh" name="Cube.003">
      <mesh>
        <source id="Cube_003-mesh-positions">
          <float_array id="Cube_003-mesh-positions-array" count="24">-0.5 -0.5 -0.5 -0.5 -0.5 0.5 -0.5 0.5 -0.5 -0.5 0.5 0.5 0.5 -0.5 -0.5 0.5 -0.5 0.5 0.5 0.5 -0.5 0.5 0.5 0.5</float_array>
          <technique_common>
            <accessor source="#Cube_003-mesh-positions-array" count="8" stride="3">
              <param name="X" type="float"/>
              <param name="Y" type="float"/>
              <param name="Z" type="float"/>
            </accessor>
          </technique_common>
        </source>
        <source id="Cube_003-mesh-normals">
          <float_array id="Cube_003-mesh-normals-array" count="18">-1 0 0 0 1 0 1 0 0 0 -1 0 0 0 -1 0 0 1</float_array>
          <technique_common>
            <accessor source="#Cube_003-mesh-normals-array" count="6" stride="3">
              <param name="X" type="float"/>
              <param name="Y" type="float"/>
              <param name="Z" type="float"/>
            </accessor>
          </technique_common>
        </source>
        <source id="Cube_003-mesh-map-0">
          <float_array id="Cube_003-mesh-map-0-array" count="72">0.625 0 0.375 0.25 0.375 0 0.625 0.25 0.375 0.5 0.375 0.25 0.625 0.5 0.375 0.75 0.375 0.5 0.625 0.75 0.375 1 0.375 0.75 0.375 0.5 0.125 0.75 0.125 0.5 0.875 0.5 0.625 0.75 0.625 0.5 0.625 0 0.625 0.25 0.375 0.25 0.625 0.25 0.625 0.5 0.375 0.5 0.625 0.5 0.625 0.75 0.375 0.75 0.625 0.75 0.625 1 0.375 1 0.375 0.5 0.375 0.75 0.125 0.75 0.875 0.5 0.875 0.75 0.625 0.75</float_array>
          <technique_common>
            <accessor source="#Cube_003-mesh-map-0-array" count="36" stride="2">
              <param name="S" type="float"/>
              <param name="T" type="float"/>
            </accessor>
          </technique_common>
        </source>
        <vertices id="Cube_003-mesh-vertices">
          <input semantic="POSITION" source="#Cube_003-mesh-positions"/>
        </vertices>
        <triangles material="Machine_Cream-material" count="12">
          <input semantic="VERTEX" source="#Cube_003-mesh-vertices" offset="0"/>
          <input semantic="NORMAL" source="#Cube_003-mesh-normals" offset="1"/>
          <input semantic="TEXCOORD" source="#Cube_003-mesh-map-0" offset="2" set="0"/>
          <p>1 0 0 2 0 1 0 0 2 3 1 3 6 1 4 2 1 5 7 2 6 4 2 7 6 2 8 5 3 9 0 3 10 4 3 11 6 4 12 0 4 13 2 4 14 3 5 15 5 5 16 7 5 17 1 0 18 3 0 19 2 0 20 3 1 21 7 1 22 6 1 23 7 2 24 5 2 25 4 2 26 5 3 27 1 3 28 0 3 29 6 4 30 4 4 31 0 4 32 3 5 33 1 5 34 5 5 35</p>
        </triangles>
      </mesh>
    </geometry>
    <geometry id="Cube_002-mesh" name="Cube.002">
      <mesh>
        <source id="Cube_002-mesh-positions">
          <float_array id="Cube_002-mesh-positions-array" count="24">-0.5 -0.5 -0.5 -0.5 -0.5 0.5 -0.5 0.5 -0.5 -0.5 0.5 0.5 0.5 -0.5 -0.5 0.5 -0.5 0.5 0.5 0.5 -0.5 0.5 0.5 0.5</float_array>
          <technique_common>
            <accessor source="#Cube_002-mesh-positions-array" count="8" stride="3">
              <param name="X" type="float"/>
              <param name="Y" type="float"/>
              <param name="Z" type="float"/>
            </accessor>
          </technique_common>
        </source>
        <source id="Cube_002-mesh-normals">
          <float_array id="Cube_002-mesh-normals-array" count="18">-1 0 0 0 1 0 1 0 0 0 -1 0 0 0 -1 0 0 1</float_array>
          <technique_common>
            <accessor source="#Cube_002-mesh-normals-array" count="6" stride="3">
              <param name="X" type="float"/>
              <param name="Y" type="float"/>
              <param name="Z" type="float"/>
            </accessor>
          </technique_common>
        </source>
        <source id="Cube_002-mesh-map-0">
          <float_array id="Cube_002-mesh-map-0-array" count="72">0.625 0 0.375 0.25 0.375 0 0.625 0.25 0.375 0.5 0.375 0.25 0.625 0.5 0.375 0.75 0.375 0.5 0.625 0.75 0.375 1 0.375 0.75 0.375 0.5 0.125 0.75 0.125 0.5 0.875 0.5 0.625 0.75 0.625 0.5 0.625 0 0.625 0.25 0.375 0.25 0.625 0.25 0.625 0.5 0.375 0.5 0.625 0.5 0.625 0.75 0.375 0.75 0.625 0.75 0.625 1 0.375 1 0.375 0.5 0.375 0.75 0.125 0.75 0.875 0.5 0.875 0.75 0.625 0.75</float_array>
          <technique_common>
            <accessor source="#Cube_002-mesh-map-0-array" count="36" stride="2">
              <param name="S" type="float"/>
              <param name="T" type="float"/>
            </accessor>
          </technique_common>
        </source>
        <vertices id="Cube_002-mesh-vertices">
          <input semantic="POSITION" source="#Cube_002-mesh-positions"/>
        </vertices>
        <triangles material="Machine_Cream-material" count="12">
          <input semantic="VERTEX" source="#Cube_002-mesh-vertices" offset="0"/>
          <input semantic="NORMAL" source="#Cube_002-mesh-normals" offset="1"/>
          <input semantic="TEXCOORD" source="#Cube_002-mesh-map-0" offset="2" set="0"/>
          <p>1 0 0 2 0 1 0 0 2 3 1 3 6 1 4 2 1 5 7 2 6 4 2 7 6 2 8 5 3 9 0 3 10 4 3 11 6 4 12 0 4 13 2 4 14 3 5 15 5 5 16 7 5 17 1 0 18 3 0 19 2 0 20 3 1 21 7 1 22 6 1 23 7 2 24 5 2 25 4 2 26 5 3 27 1 3 28 0 3 29 6 4 30 4 4 31 0 4 32 3 5 33 1 5 34 5 5 35</p>
        </triangles>
      </mesh>
    </geometry>
    <geometry id="Cube_I-mesh" name="Cube_I">
      <mesh>
        <source id="Cube_I-mesh-positions">
          <float_array id="Cube_I-mesh-positions-array" count="24">-0.476 -0.06878948 -0.1175 -0.476 -0.06878948 0.1175 -0.476 0.06878948 -0.1175 -0.476 0.06878948 0.1175 0.476 -0.06878948 -0.1175 0.476 -0.06878948 0.1175 0.476 0.06878948 -0.1175 0.476 0.06878948 0.1175</float_array>
          <technique_common>
            <accessor source="#Cube_I-mesh-positions-array" count="8" stride="3">
              <param name="X" type="float"/>
              <param name="Y" type="float"/>
              <param name="Z" type="float"/>
            </accessor>
          </technique_common>
        </source>
        <source id="Cube_I-mesh-normals">
          <float_array id="Cube_I-mesh-normals-array" count="18">-1 0 0 0 1 0 1 0 0 0 -1 0 0 0 -1 0 0 1</float_array>
          <technique_common>
            <accessor source="#Cube_I-mesh-normals-array" count="6" stride="3">
              <param name="X" type="float"/>
              <param name="Y" type="float"/>
              <param name="Z" type="float"/>
            </accessor>
          </technique_common>
        </source>
        <vertices id="Cube_I-mesh-vertices">
          <input semantic="POSITION" source="#Cube_I-mesh-positions"/>
        </vertices>
        <triangles material="Machine_Cream-material" count="12">
          <input semantic="VERTEX" source="#Cube_I-mesh-vertices" offset="0"/>
          <input semantic="NORMAL" source="#Cube_I-mesh-normals" offset="1"/>
          <p>1 0 2 0 0 0 3 1 6 1 2 1 7 2 4 2 6 2 5 3 0 3 4 3 6 4 0 4 2 4 3 5 5 5 7 5 1 0 3 0 2 0 3 1 7 1 6 1 7 2 5 2 4 2 5 3 1 3 0 3 6 4 4 4 0 4 3 5 1 5 5 5</p>
        </triangles>
      </mesh>
    </geometry>
    <geometry id="Cube_H_R-mesh" name="Cube_H_R">
      <mesh>
        <source id="Cube_H_R-mesh-positions">
          <float_array id="Cube_H_R-mesh-positions-array" count="24">-0.128 -0.007499992 -0.006499946 -0.128 -0.007499992 0.006499946 -0.128 0.007499992 -0.006499946 -0.128 0.007499992 0.006499946 0.128 -0.007499992 -0.006499946 0.128 -0.007499992 0.006499946 0.128 0.007499992 -0.006499946 0.128 0.007499992 0.006499946</float_array>
          <technique_common>
            <accessor source="#Cube_H_R-mesh-positions-array" count="8" stride="3">
              <param name="X" type="float"/>
              <param name="Y" type="float"/>
              <param name="Z" type="float"/>
            </accessor>
          </technique_common>
        </source>
        <source id="Cube_H_R-mesh-normals">
          <float_array id="Cube_H_R-mesh-normals-array" count="18">-1 0 0 0 1 0 1 0 0 0 -1 0 0 0 -1 0 0 1</float_array>
          <technique_common>
            <accessor source="#Cube_H_R-mesh-normals-array" count="6" stride="3">
              <param name="X" type="float"/>
              <param name="Y" type="float"/>
              <param name="Z" type="float"/>
            </accessor>
          </technique_common>
        </source>
        <vertices id="Cube_H_R-mesh-vertices">
          <input semantic="POSITION" source="#Cube_H_R-mesh-positions"/>
        </vertices>
        <triangles material="Alu_Brushed-material" count="12">
          <input semantic="VERTEX" source="#Cube_H_R-mesh-vertices" offset="0"/>
          <input semantic="NORMAL" source="#Cube_H_R-mesh-normals" offset="1"/>
          <p>1 0 2 0 0 0 3 1 6 1 2 1 7 2 4 2 6 2 5 3 0 3 4 3 6 4 0 4 2 4 3 5 5 5 7 5 1 0 3 0 2 0 3 1 7 1 6 1 7 2 5 2 4 2 5 3 1 3 0 3 6 4 4 4 0 4 3 5 1 5 5 5</p>
        </triangles>
      </mesh>
    </geometry>
    <geometry id="Cube_H_L-mesh" name="Cube_H_L">
      <mesh>
        <source id="Cube_H_L-mesh-positions">
          <float_array id="Cube_H_L-mesh-positions-array" count="24">-0.128 -0.007499992 -0.006499946 -0.128 -0.007499992 0.006499946 -0.128 0.007499992 -0.006499946 -0.128 0.007499992 0.006499946 0.128 -0.007499992 -0.006499946 0.128 -0.007499992 0.006499946 0.128 0.007499992 -0.006499946 0.128 0.007499992 0.006499946</float_array>
          <technique_common>
            <accessor source="#Cube_H_L-mesh-positions-array" count="8" stride="3">
              <param name="X" type="float"/>
              <param name="Y" type="float"/>
              <param name="Z" type="float"/>
            </accessor>
          </technique_common>
        </source>
        <source id="Cube_H_L-mesh-normals">
          <float_array id="Cube_H_L-mesh-normals-array" count="18">-1 0 0 0 1 0 1 0 0 0 -1 0 0 0 -1 0 0 1</float_array>
          <technique_common>
            <accessor source="#Cube_H_L-mesh-normals-array" count="6" stride="3">
              <param name="X" type="float"/>
              <param name="Y" type="float"/>
              <param name="Z" type="float"/>
            </accessor>
          </technique_common>
        </source>
        <vertices id="Cube_H_L-mesh-vertices">
          <input semantic="POSITION" source="#Cube_H_L-mesh-positions"/>
        </vertices>
        <triangles material="Alu_Brushed-material" count="12">
          <input semantic="VERTEX" source="#Cube_H_L-mesh-vertices" offset="0"/>
          <input semantic="NORMAL" source="#Cube_H_L-mesh-normals" offset="1"/>
          <p>1 0 2 0 0 0 3 1 6 1 2 1 7 2 4 2 6 2 5 3 0 3 4 3 6 4 0 4 2 4 3 5 5 5 7 5 1 0 3 0 2 0 3 1 7 1 6 1 7 2 5 2 4 2 5 3 1 3 0 3 6 4 4 4 0 4 3 5 1 5 5 5</p>
        </triangles>
      </mesh>
    </geometry>
    <geometry id="Cube_G_R-mesh" name="Cube_G_R">
      <mesh>
        <source id="Cube_G_R-mesh-positions">
          <float_array id="Cube_G_R-mesh-positions-array" count="24">-0.128 -0.007499992 -0.006499946 -0.128 -0.007499992 0.006499946 -0.128 0.007499992 -0.006499946 -0.128 0.007499992 0.006499946 0.128 -0.007499992 -0.006499946 0.128 -0.007499992 0.006499946 0.128 0.007499992 -0.006499946 0.128 0.007499992 0.006499946</float_array>
          <technique_common>
            <accessor source="#Cube_G_R-mesh-positions-array" count="8" stride="3">
              <param name="X" type="float"/>
              <param name="Y" type="float"/>
              <param name="Z" type="float"/>
            </accessor>
          </technique_common>
        </source>
        <source id="Cube_G_R-mesh-normals">
          <float_array id="Cube_G_R-mesh-normals-array" count="18">-1 0 0 0 1 0 1 0 0 0 -1 0 0 0 -1 0 0 1</float_array>
          <technique_common>
            <accessor source="#Cube_G_R-mesh-normals-array" count="6" stride="3">
              <param name="X" type="float"/>
              <param name="Y" type="float"/>
              <param name="Z" type="float"/>
            </accessor>
          </technique_common>
        </source>
        <vertices id="Cube_G_R-mesh-vertices">
          <input semantic="POSITION" source="#Cube_G_R-mesh-positions"/>
        </vertices>
        <triangles material="Alu_Brushed-material" count="12">
          <input semantic="VERTEX" source="#Cube_G_R-mesh-vertices" offset="0"/>
          <input semantic="NORMAL" source="#Cube_G_R-mesh-normals" offset="1"/>
          <p>1 0 2 0 0 0 3 1 6 1 2 1 7 2 4 2 6 2 5 3 0 3 4 3 6 4 0 4 2 4 3 5 5 5 7 5 1 0 3 0 2 0 3 1 7 1 6 1 7 2 5 2 4 2 5 3 1 3 0 3 6 4 4 4 0 4 3 5 1 5 5 5</p>
        </triangles>
      </mesh>
    </geometry>
    <geometry id="Cube_G_L-mesh" name="Cube_G_L">
      <mesh>
        <source id="Cube_G_L-mesh-positions">
          <float_array id="Cube_G_L-mesh-positions-array" count="24">-0.128 -0.007499992 -0.006499946 -0.128 -0.007499992 0.006499946 -0.128 0.007499992 -0.006499946 -0.128 0.007499992 0.006499946 0.128 -0.007499992 -0.006499946 0.128 -0.007499992 0.006499946 0.128 0.007499992 -0.006499946 0.128 0.007499992 0.006499946</float_array>
          <technique_common>
            <accessor source="#Cube_G_L-mesh-positions-array" count="8" stride="3">
              <param name="X" type="float"/>
              <param name="Y" type="float"/>
              <param name="Z" type="float"/>
            </accessor>
          </technique_common>
        </source>
        <source id="Cube_G_L-mesh-normals">
          <float_array id="Cube_G_L-mesh-normals-array" count="18">-1 0 0 0 1 0 1 0 0 0 -1 0 0 0 -1 0 0 1</float_array>
          <technique_common>
            <accessor source="#Cube_G_L-mesh-normals-array" count="6" stride="3">
              <param name="X" type="float"/>
              <param name="Y" type="float"/>
              <param name="Z" type="float"/>
            </accessor>
          </technique_common>
        </source>
        <vertices id="Cube_G_L-mesh-vertices">
          <input semantic="POSITION" source="#Cube_G_L-mesh-positions"/>
        </vertices>
        <triangles material="Alu_Brushed-material" count="12">
          <input semantic="VERTEX" source="#Cube_G_L-mesh-vertices" offset="0"/>
          <input semantic="NORMAL" source="#Cube_G_L-mesh-normals" offset="1"/>
          <p>1 0 2 0 0 0 3 1 6 1 2 1 7 2 4 2 6 2 5 3 0 3 4 3 6 4 0 4 2 4 3 5 5 5 7 5 1 0 3 0 2 0 3 1 7 1 6 1 7 2 5 2 4 2 5 3 1 3 0 3 6 4 4 4 0 4 3 5 1 5 5 5</p>
        </triangles>
      </mesh>
    </geometry>
    <geometry id="Cube_D-mesh" name="Cube_D">
      <mesh>
        <source id="Cube_D-mesh-positions">
          <float_array id="Cube_D-mesh-positions-array" count="24">-0.22 -0.03243714 -0.1 -0.22 -0.03243714 0.1 -0.22 0.1899999 -0.1 -0.22 0.1899999 0.1 0.22 -0.03243714 -0.1 0.22 -0.03243714 0.1 0.22 0.1899999 -0.1 0.22 0.1899999 0.1</float_array>
          <technique_common>
            <accessor source="#Cube_D-mesh-positions-array" count="8" stride="3">
              <param name="X" type="float"/>
              <param name="Y" type="float"/>
              <param name="Z" type="float"/>
            </accessor>
          </technique_common>
        </source>
        <source id="Cube_D-mesh-normals">
          <float_array id="Cube_D-mesh-normals-array" count="18">-1 0 0 0 1 0 1 0 0 0 -1 0 0 0 -1 0 0 1</float_array>
          <technique_common>
            <accessor source="#Cube_D-mesh-normals-array" count="6" stride="3">
              <param name="X" type="float"/>
              <param name="Y" type="float"/>
              <param name="Z" type="float"/>
            </accessor>
          </technique_common>
        </source>
        <vertices id="Cube_D-mesh-vertices">
          <input semantic="POSITION" source="#Cube_D-mesh-positions"/>
        </vertices>
        <triangles material="Machine_Cream-material" count="12">
          <input semantic="VERTEX" source="#Cube_D-mesh-vertices" offset="0"/>
          <input semantic="NORMAL" source="#Cube_D-mesh-normals" offset="1"/>
          <p>1 0 2 0 0 0 3 1 6 1 2 1 7 2 4 2 6 2 5 3 0 3 4 3 6 4 0 4 2 4 3 5 5 5 7 5 1 0 3 0 2 0 3 1 7 1 6 1 7 2 5 2 4 2 5 3 1 3 0 3 6 4 4 4 0 4 3 5 1 5 5 5</p>
        </triangles>
      </mesh>
    </geometry>
    <geometry id="Cube_F_001-mesh" name="Cube_F.001">
      <mesh>
        <source id="Cube_F_001-mesh-positions">
          <float_array id="Cube_F_001-mesh-positions-array" count="36">-0.15 -0.04999995 -0.15 -0.15 -0.04999995 0.15 -0.15 0.04999995 -0.15 -0.15 0.04999995 0.15 0.15 -0.04999995 -0.15 0.15 -0.04999995 0.15 0.15 0.04999995 -0.15 0.15 0.04999995 0.15 0.1252512 -0.04999995 -0.1252512 0.1252512 -0.04999995 0.1252512 -0.1252512 -0.04999995 0.1252512 -0.1252512 -0.04999995 -0.1252512</float_array>
          <technique_common>
            <accessor source="#Cube_F_001-mesh-positions-array" count="12" stride="3">
              <param name="X" type="float"/>
              <param name="Y" type="float"/>
              <param name="Z" type="float"/>
            </accessor>
          </technique_common>
        </source>
        <source id="Cube_F_001-mesh-normals">
          <float_array id="Cube_F_001-mesh-normals-array" count="18">-1 0 0 0 1 0 1 0 0 0 -1 0 0 0 -1 0 0 1</float_array>
          <technique_common>
            <accessor source="#Cube_F_001-mesh-normals-array" count="6" stride="3">
              <param name="X" type="float"/>
              <param name="Y" type="float"/>
              <param name="Z" type="float"/>
            </accessor>
          </technique_common>
        </source>
        <vertices id="Cube_F_001-mesh-vertices">
          <input semantic="POSITION" source="#Cube_F_001-mesh-positions"/>
        </vertices>
        <triangles material="Machine_Cream-material" count="18">
          <input semantic="VERTEX" source="#Cube_F_001-mesh-vertices" offset="0"/>
          <input semantic="NORMAL" source="#Cube_F_001-mesh-normals" offset="1"/>
          <p>1 0 2 0 0 0 3 1 6 1 2 1 7 2 4 2 6 2 6 4 0 4 2 4 3 5 5 5 7 5 5 3 8 3 4 3 1 3 9 3 5 3 0 3 10 3 1 3 4 3 11 3 0 3 1 0 3 0 2 0 3 1 7 1 6 1 7 2 5 2 4 2 6 4 4 4 0 4 3 5 1 5 5 5 5 3 9 3 8 3 1 3 10 3 9 3 0 3 11 3 10 3 4 3 8 3 11 3</p>
        </triangles>
        <triangles material="Screen-material" count="2">
          <input semantic="VERTEX" source="#Cube_F_001-mesh-vertices" offset="0"/>
          <input semantic="NORMAL" source="#Cube_F_001-mesh-normals" offset="1"/>
          <p>9 3 11 3 8 3 9 3 10 3 11 3</p>
        </triangles>
      </mesh>
    </geometry>
    <geometry id="Cube_006-mesh" name="Cube.006">
      <mesh>
        <source id="Cube_006-mesh-positions">
          <float_array id="Cube_006-mesh-positions-array" count="48">-0.476 0.26 1.01 -0.476 0.26 1.16 0.476 0.26 1.01 0.476 0.26 1.16 0.22 0.06 1.01 -0.22 0.06 1.01 -0.22 0.06 1.16 0.22 0.06 1.16 -0.476 -0.12 1.16 -0.476 -0.12 1.01 0.476 -0.12 1.16 0.476 -0.12 1.01 -0.22 -0.12 1.01 0.22 -0.12 1.01 0.22 -0.12 1.16 -0.22 -0.12 1.16</float_array>
          <technique_common>
            <accessor source="#Cube_006-mesh-positions-array" count="16" stride="3">
              <param name="X" type="float"/>
              <param name="Y" type="float"/>
              <param name="Z" type="float"/>
            </accessor>
          </technique_common>
        </source>
        <source id="Cube_006-mesh-normals">
          <float_array id="Cube_006-mesh-normals-array" count="24">-1 0 0 0 1 0 1 0 0 0 0 -1 0 0 1 0 -1 0 3.06356e-7 0 1 -6.12712e-7 0 1</float_array>
          <technique_common>
            <accessor source="#Cube_006-mesh-normals-array" count="8" stride="3">
              <param name="X" type="float"/>
              <param name="Y" type="float"/>
              <param name="Z" type="float"/>
            </accessor>
          </technique_common>
        </source>
        <source id="Cube_006-mesh-map-0">
          <float_array id="Cube_006-mesh-map-0-array" count="168">0.625 0.25 0.375 0.06730765 0.625 0.06730765 0.625 0.25 0.375 0.5 0.375 0.25 0.375 0.5 0.625 0.6826923 0.375 0.6826924 0.1922268 0.5961538 0.125 0.5 0.375 0.5 0.6922269 0.5961538 0.625 0.5 0.875 0.5 0.6102941 0.25 0.3897058 0.1136363 0.3897058 0.25 0.3897058 0.25 0.6102941 0.5 0.6102941 0.25 0.3897058 0.5 0.6102941 0.6363636 0.6102941 0.5 0.5937501 0.2758333 0.40625 0.3291667 0.5937501 0.3291667 0.40625 0.4741667 0.59375 0.4208333 0.40625 0.4208334 0.625 0.25 0.375 0.25 0.375 0.06730765 0.625 0.25 0.625 0.5 0.375 0.5 0.375 0.5 0.625 0.5 0.625 0.6826923 0.375 0.6826924 0.3077731 0.6826923 0.3077731 0.5961539 0.1922268 0.5961538 0.1922268 0.6826923 0.125 0.6826924 0.375 0.5 0.375 0.6826924 0.3077731 0.5961539 0.1922268 0.5961538 0.125 0.6826924 0.125 0.5 0.375 0.5 0.3077731 0.5961539 0.1922268 0.5961538 0.875 0.6826923 0.8077731 0.6826923 0.8077731 0.5961539 0.6922269 0.5961538 0.6922269 0.6826923 0.625 0.6826923 0.875 0.5 0.875 0.6826923 0.8077731 0.5961539 0.6922269 0.5961538 0.625 0.6826923 0.625 0.5 0.875 0.5 0.8077731 0.5961539 0.6922269 0.5961538 0.6102941 0.25 0.6102941 0.1136363 0.3897058 0.1136363 0.3897058 0.25 0.3897058 0.5 0.6102941 0.5 0.3897058 0.5 0.3897058 0.6363636 0.6102941 0.6363636 0.5937501 0.2758333 0.40625 0.2758333 0.40625 0.3291667 0.40625 0.4741667 0.5937501 0.4741667 0.59375 0.4208333</float_array>
          <technique_common>
            <accessor source="#Cube_006-mesh-map-0-array" count="84" stride="2">
              <param name="S" type="float"/>
              <param name="T" type="float"/>
            </accessor>
          </technique_common>
        </source>
        <vertices id="Cube_006-mesh-vertices">
          <input semantic="POSITION" source="#Cube_006-mesh-positions"/>
        </vertices>
        <triangles material="Alu_Brushed-material" count="28">
          <input semantic="VERTEX" source="#Cube_006-mesh-vertices" offset="0"/>
          <input semantic="NORMAL" source="#Cube_006-mesh-normals" offset="1"/>
          <input semantic="TEXCOORD" source="#Cube_006-mesh-map-0" offset="2" set="0"/>
          <p>1 0 0 9 0 1 8 0 2 1 1 3 2 1 4 0 1 5 2 2 6 10 2 7 11 2 8 5 3 9 0 3 10 2 3 11 7 4 12 3 4 13 1 4 14 6 2 15 12 2 16 5 2 17 5 5 18 7 5 19 6 5 20 4 0 21 14 0 22 7 0 23 8 5 24 12 5 25 15 5 26 11 5 27 14 5 28 13 5 29 1 0 30 0 0 31 9 0 32 1 1 33 3 1 34 2 1 35 2 2 36 3 2 37 10 2 38 11 3 39 13 3 40 4 3 41 5 3 42 12 3 43 9 3 44 2 3 45 11 3 46 4 3 47 5 3 48 9 3 49 0 3 50 2 3 51 4 3 52 5 3 53 8 4 54 15 4 55 6 4 56 7 4 57 14 4 58 10 4 59 1 6 60 8 6 61 6 6 62 7 7 63 10 7 64 3 7 65 1 4 66 6 4 67 7 4 68 6 2 69 15 2 70 12 2 71 5 5 72 4 5 73 7 5 74 4 0 75 13 0 76 14 0 77 8 5 78 9 5 79 12 5 80 11 5 81 10 5 82 14 5 83</p>
        </triangles>
      </mesh>
    </geometry>
    <geometry id="Cube_004-mesh" name="Cube.004">
      <mesh>
        <source id="Cube_004-mesh-positions">
          <float_array id="Cube_004-mesh-positions-array" count="24">-0.476 0.1224213 1.54 -0.476 0.26 1.36 -0.476 0.26 1.54 0.476 0.1224213 1.36 0.476 0.26 1.36 0.476 0.26 1.54 -0.476 0.1224213 1.36 0.476 0.1224213 1.54</float_array>
          <technique_common>
            <accessor source="#Cube_004-mesh-positions-array" count="8" stride="3">
              <param name="X" type="float"/>
              <param name="Y" type="float"/>
              <param name="Z" type="float"/>
            </accessor>
          </technique_common>
        </source>
        <source id="Cube_004-mesh-normals">
          <float_array id="Cube_004-mesh-normals-array" count="18">-1 0 0 0 1 0 1 0 0 0 0 -1 0 0 1 0 -1 0</float_array>
          <technique_common>
            <accessor source="#Cube_004-mesh-normals-array" count="6" stride="3">
              <param name="X" type="float"/>
              <param name="Y" type="float"/>
              <param name="Z" type="float"/>
            </accessor>
          </technique_common>
        </source>
        <source id="Cube_004-mesh-map-0">
          <float_array id="Cube_004-mesh-map-0-array" count="72">0.625 0 0.375 0.25 0.375 0 0.625 0.25 0.375 0.5 0.375 0.25 0.625 0.5 0.375 0.75 0.375 0.5 0.375 0.5 0.125 0.75 0.125 0.5 0.875 0.5 0.625 0.75 0.625 0.5 0.625 0.75 0.375 1 0.375 0.75 0.625 0 0.625 0.25 0.375 0.25 0.625 0.25 0.625 0.5 0.375 0.5 0.625 0.5 0.625 0.75 0.375 0.75 0.375 0.5 0.375 0.75 0.125 0.75 0.875 0.5 0.875 0.75 0.625 0.75 0.625 0.75 0.625 1 0.375 1</float_array>
          <technique_common>
            <accessor source="#Cube_004-mesh-map-0-array" count="36" stride="2">
              <param name="S" type="float"/>
              <param name="T" type="float"/>
            </accessor>
          </technique_common>
        </source>
        <vertices id="Cube_004-mesh-vertices">
          <input semantic="POSITION" source="#Cube_004-mesh-positions"/>
        </vertices>
        <triangles material="Machine_Cream-material" count="12">
          <input semantic="VERTEX" source="#Cube_004-mesh-vertices" offset="0"/>
          <input semantic="NORMAL" source="#Cube_004-mesh-normals" offset="1"/>
          <input semantic="TEXCOORD" source="#Cube_004-mesh-map-0" offset="2" set="0"/>
          <p>0 0 0 1 0 1 6 0 2 2 1 3 4 1 4 1 1 5 5 2 6 3 2 7 4 2 8 4 3 9 6 3 10 1 3 11 2 4 12 7 4 13 5 4 14 7 5 15 6 5 16 3 5 17 0 0 18 2 0 19 1 0 20 2 1 21 5 1 22 4 1 23 5 2 24 7 2 25 3 2 26 4 3 27 3 3 28 6 3 29 2 4 30 0 4 31 7 4 32 7 5 33 0 5 34 6 5 35</p>
        </triangles>
      </mesh>
    </geometry>
    <geometry id="Cube_001-mesh" name="Cube.001">
      <mesh>
        <source id="Cube_001-mesh-positions">
          <float_array id="Cube_001-mesh-positions-array" count="60">-0.22 -0.12 0.89 -0.22 -0.12 1.125 -0.22 0.26 0.89 -0.22 0.26 1.125 0.22 -0.12 0.89 0.22 -0.12 1.125 0.22 0.26 0.89 0.22 0.26 1.125 -0.22 -0.12 0.89 -0.22 -0.12 1.125 0.22 -0.12 1.125 0.22 -0.12 0.89 -0.22 -0.12 0.89 -0.22 -0.12 1.125 0.22 -0.12 1.125 0.22 -0.12 0.89 -0.22 -0.2600001 0.89 -0.22 -0.2600001 1.125 0.22 -0.2600001 1.125 0.22 -0.2600001 0.89</float_array>
          <technique_common>
            <accessor source="#Cube_001-mesh-positions-array" count="20" stride="3">
              <param name="X" type="float"/>
              <param name="Y" type="float"/>
              <param name="Z" type="float"/>
            </accessor>
          </technique_common>
        </source>
        <source id="Cube_001-mesh-normals">
          <float_array id="Cube_001-mesh-normals-array" count="18">-1 0 0 0 1 0 1 0 0 0 0 1 0 0 -1 0 -1 0</float_array>
          <technique_common>
            <accessor source="#Cube_001-mesh-normals-array" count="6" stride="3">
              <param name="X" type="float"/>
              <param name="Y" type="float"/>
              <param name="Z" type="float"/>
            </accessor>
          </technique_common>
        </source>
        <source id="Cube_001-mesh-map-0">
          <float_array id="Cube_001-mesh-map-0-array" count="216">0.625 0 0.375 0.25 0.375 0 0.625 0.25 0.375 0.5 0.375 0.25 0.625 0.5 0.375 0.75 0.375 0.5 0.875 0.75 0.625 0.75 0.625 0.75 0.375 0.5 0.125 0.75 0.125 0.5 0.875 0.5 0.625 0.75 0.625 0.5 0.625 0.75 0.375 0.75 0.375 0.75 0.625 0.75 0.375 0.75 0.375 0.75 0.375 0 0.625 0 0.625 0 0.375 0.75 0.125 0.75 0.125 0.75 0.375 0.75 0.125 0.75 0.125 0.75 0.375 0.75 0.125 0.75 0.125 0.75 0.375 0 0.625 0 0.625 0 0.875 0.75 0.625 0.75 0.625 0.75 0.625 0.75 0.375 1 0.375 0.75 0.375 0 0.625 0 0.625 0 0.875 0.75 0.625 0.75 0.625 0.75 0.625 0.75 0.375 0.75 0.375 0.75 0.625 0 0.625 0.25 0.375 0.25 0.625 0.25 0.625 0.5 0.375 0.5 0.625 0.5 0.625 0.75 0.375 0.75 0.875 0.75 0.875 0.75 0.625 0.75 0.375 0.5 0.375 0.75 0.125 0.75 0.875 0.5 0.875 0.75 0.625 0.75 0.625 0.75 0.625 0.75 0.375 0.75 0.625 0.75 0.625 0.75 0.375 0.75 0.375 0 0.375 0 0.625 0 0.375 0.75 0.375 0.75 0.125 0.75 0.375 0.75 0.375 0.75 0.125 0.75 0.375 0.75 0.375 0.75 0.125 0.75 0.375 0 0.375 0 0.625 0 0.875 0.75 0.875 0.75 0.625 0.75 0.625 0.75 0.625 1 0.375 1 0.375 0 0.375 0 0.625 0 0.875 0.75 0.875 0.75 0.625 0.75 0.625 0.75 0.625 0.75 0.375 0.75</float_array>
          <technique_common>
            <accessor source="#Cube_001-mesh-map-0-array" count="108" stride="2">
              <param name="S" type="float"/>
              <param name="T" type="float"/>
            </accessor>
          </technique_common>
        </source>
        <vertices id="Cube_001-mesh-vertices">
          <input semantic="POSITION" source="#Cube_001-mesh-positions"/>
        </vertices>
        <triangles material="Machine_Cream-material" count="36">
          <input semantic="VERTEX" source="#Cube_001-mesh-vertices" offset="0"/>
          <input semantic="NORMAL" source="#Cube_001-mesh-normals" offset="1"/>
          <input semantic="TEXCOORD" source="#Cube_001-mesh-map-0" offset="2" set="0"/>
          <p>1 0 0 2 0 1 0 0 2 3 1 3 6 1 4 2 1 5 7 2 6 4 2 7 6 2 8 1 3 9 10 3 10 5 3 11 6 4 12 0 4 13 2 4 14 3 3 15 5 3 16 7 3 17 10 3 18 15 3 19 11 3 20 5 3 21 11 3 22 4 3 23 0 3 24 9 3 25 1 3 26 4 3 27 8 3 28 0 3 29 15 4 30 16 4 31 12 4 32 11 3 33 12 3 34 8 3 35 8 3 36 13 3 37 9 3 38 9 3 39 14 3 40 10 3 41 18 5 42 16 5 43 19 5 44 12 0 45 17 0 46 13 0 47 13 3 48 18 3 49 14 3 50 14 2 51 19 2 52 15 2 53 1 0 54 3 0 55 2 0 56 3 1 57 7 1 58 6 1 59 7 2 60 5 2 61 4 2 62 1 3 63 9 3 64 10 3 65 6 4 66 4 4 67 0 4 68 3 3 69 1 3 70 5 3 71 10 3 72 14 3 73 15 3 74 5 3 75 10 3 76 11 3 77 0 3 78 8 3 79 9 3 80 4 3 81 11 3 82 8 3 83 15 4 84 19 4 85 16 4 86 11 3 87 15 3 88 12 3 89 8 3 90 12 3 91 13 3 92 9 3 93 13 3 94 14 3 95 18 5 96 17 5 97 16 5 98 12 0 99 16 0 100 17 0 101 13 3 102 17 3 103 18 3 104 14 2 105 18 2 106 19 2 107</p>
        </triangles>
      </mesh>
    </geometry>
    <geometry id="Cube-mesh" name="Cube">
      <mesh>
        <source id="Cube-mesh-positions">
          <float_array id="Cube-mesh-positions-array" count="24">-0.5 -0.5 -0.5 -0.5 -0.5 0.5 -0.5 0.5 -0.5 -0.5 0.5 0.5 0.5 -0.5 -0.5 0.5 -0.5 0.5 0.5 0.5 -0.5 0.5 0.5 0.5</float_array>
          <technique_common>
            <accessor source="#Cube-mesh-positions-array" count="8" stride="3">
              <param name="X" type="float"/>
              <param name="Y" type="float"/>
              <param name="Z" type="float"/>
            </accessor>
          </technique_common>
        </source>
        <source id="Cube-mesh-normals">
          <float_array id="Cube-mesh-normals-array" count="18">-1 0 0 0 1 0 1 0 0 0 -1 0 0 0 -1 0 0 1</float_array>
          <technique_common>
            <accessor source="#Cube-mesh-normals-array" count="6" stride="3">
              <param name="X" type="float"/>
              <param name="Y" type="float"/>
              <param name="Z" type="float"/>
            </accessor>
          </technique_common>
        </source>
        <source id="Cube-mesh-map-0">
          <float_array id="Cube-mesh-map-0-array" count="72">0.625 0 0.375 0.25 0.375 0 0.625 0.25 0.375 0.5 0.375 0.25 0.625 0.5 0.375 0.75 0.375 0.5 0.625 0.75 0.375 1 0.375 0.75 0.375 0.5 0.125 0.75 0.125 0.5 0.875 0.5 0.625 0.75 0.625 0.5 0.625 0 0.625 0.25 0.375 0.25 0.625 0.25 0.625 0.5 0.375 0.5 0.625 0.5 0.625 0.75 0.375 0.75 0.625 0.75 0.625 1 0.375 1 0.375 0.5 0.375 0.75 0.125 0.75 0.875 0.5 0.875 0.75 0.625 0.75</float_array>
          <technique_common>
            <accessor source="#Cube-mesh-map-0-array" count="36" stride="2">
              <param name="S" type="float"/>
              <param name="T" type="float"/>
            </accessor>
          </technique_common>
        </source>
        <vertices id="Cube-mesh-vertices">
          <input semantic="POSITION" source="#Cube-mesh-positions"/>
        </vertices>
        <triangles material="Machine_Cream-material" count="10">
          <input semantic="VERTEX" source="#Cube-mesh-vertices" offset="0"/>
          <input semantic="NORMAL" source="#Cube-mesh-normals" offset="1"/>
          <input semantic="TEXCOORD" source="#Cube-mesh-map-0" offset="2" set="0"/>
          <p>1 0 0 2 0 1 0 0 2 3 1 3 6 1 4 2 1 5 7 2 6 4 2 7 6 2 8 5 3 9 0 3 10 4 3 11 6 4 12 0 4 13 2 4 14 1 0 18 3 0 19 2 0 20 3 1 21 7 1 22 6 1 23 7 2 24 5 2 25 4 2 26 5 3 27 1 3 28 0 3 29 6 4 30 4 4 31 0 4 32</p>
        </triangles>
        <triangles material="Alu_Brushed-material" count="2">
          <input semantic="VERTEX" source="#Cube-mesh-vertices" offset="0"/>
          <input semantic="NORMAL" source="#Cube-mesh-normals" offset="1"/>
          <input semantic="TEXCOORD" source="#Cube-mesh-map-0" offset="2" set="0"/>
          <p>3 5 15 5 5 16 7 5 17 3 5 33 1 5 34 5 5 35</p>
        </triangles>
      </mesh>
    </geometry>
  </library_geometries>
  <library_visual_scenes>
    <visual_scene id="Scene" name="Scene">
      <node id="Beacon_Red" name="Beacon_Red" type="NODE">
        <matrix sid="transform">1 0 0 -0.18 0 1 0 0.74 0 0 1 2 0 0 0 1</matrix>
        <instance_geometry url="#Cylinder_004-mesh" name="Beacon_Red">
          <bind_material>
            <technique_common>
              <instance_material symbol="Red-material" target="#Red-material">
                <bind_vertex_input semantic="UVMap" input_semantic="TEXCOORD" input_set="0"/>
              </instance_material>
            </technique_common>
          </bind_material>
        </instance_geometry>
      </node>
      <node id="Beacon_Yellow" name="Beacon_Yellow" type="NODE">
        <matrix sid="transform">1 0 0 -0.18 0 1 0 0.74 0 0 1 1.95 0 0 0 1</matrix>
        <instance_geometry url="#Cylinder_003-mesh" name="Beacon_Yellow">
          <bind_material>
            <technique_common>
              <instance_material symbol="Yellow-material" target="#Yellow-material">
                <bind_vertex_input semantic="UVMap" input_semantic="TEXCOORD" input_set="0"/>
              </instance_material>
            </technique_common>
          </bind_material>
        </instance_geometry>
      </node>
      <node id="Beacon_Green" name="Beacon_Green" type="NODE">
        <matrix sid="transform">1 0 0 -0.18 0 1 0 0.74 0 0 1 1.9 0 0 0 1</matrix>
        <instance_geometry url="#Cylinder_002-mesh" name="Beacon_Green">
          <bind_material>
            <technique_common>
              <instance_material symbol="Green-material" target="#Green-material">
                <bind_vertex_input semantic="UVMap" input_semantic="TEXCOORD" input_set="0"/>
              </instance_material>
            </technique_common>
          </bind_material>
        </instance_geometry>
      </node>
      <node id="Beacon_pole" name="Beacon_pole" type="NODE">
        <matrix sid="transform">1 0 0 -0.18 0 1 0 0.74 0 0 1.909091 1.665 0 0 0 1</matrix>
        <instance_geometry url="#Cylinder_001-mesh" name="Beacon_pole">
          <bind_material>
            <technique_common>
              <instance_material symbol="Alu_Brushed-material" target="#Alu_Brushed-material">
                <bind_vertex_input semantic="UVMap" input_semantic="TEXCOORD" input_set="0"/>
              </instance_material>
            </technique_common>
          </bind_material>
        </instance_geometry>
      </node>
      <node id="Cube_B_back" name="Cube_B_back" type="NODE">
        <matrix sid="transform">0.44 0 0 0 0 0.52 0 0.52 0 0 0.565 1.1725 0 0 0 1</matrix>
        <instance_geometry url="#Cube_003-mesh" name="Cube_B_back">
          <bind_material>
            <technique_common>
              <instance_material symbol="Machine_Cream-material" target="#Machine_Cream-material">
                <bind_vertex_input semantic="UVMap" input_semantic="TEXCOORD" input_set="0"/>
              </instance_material>
            </technique_common>
          </bind_material>
        </instance_geometry>
      </node>
      <node id="Cube_A_back" name="Cube_A_back" type="NODE">
        <matrix sid="transform">0.952 0 0 0 0 0.52 0 0.52 0 0 0.89 0.445 0 0 0 1</matrix>
        <instance_geometry url="#Cube_002-mesh" name="Cube_A_back">
          <bind_material>
            <technique_common>
              <instance_material symbol="Machine_Cream-material" target="#Machine_Cream-material">
                <bind_vertex_input semantic="UVMap" input_semantic="TEXCOORD" input_set="0"/>
              </instance_material>
            </technique_common>
          </bind_material>
        </instance_geometry>
      </node>
      <node id="Cube_I" name="Cube_I" type="NODE">
        <matrix sid="transform">1 0 0 0 0 1 0 0.1912105 0 0 1 1.0075 0 0 0 1</matrix>
        <instance_geometry url="#Cube_I-mesh" name="Cube_I">
          <bind_material>
            <technique_common>
              <instance_material symbol="Machine_Cream-material" target="#Machine_Cream-material"/>
            </technique_common>
          </bind_material>
        </instance_geometry>
      </node>
      <node id="Cube_H_R" name="Cube_H_R" type="NODE">
        <matrix sid="transform">1 0 0 0.348 0 1 0 -0.1125 0 0 1 0.8965 0 0 0 1</matrix>
        <instance_geometry url="#Cube_H_R-mesh" name="Cube_H_R">
          <bind_material>
            <technique_common>
              <instance_material symbol="Alu_Brushed-material" target="#Alu_Brushed-material"/>
            </technique_common>
          </bind_material>
        </instance_geometry>
      </node>
      <node id="Cube_H_L" name="Cube_H_L" type="NODE">
        <matrix sid="transform">1 0 0 -0.348 0 1 0 -0.1125 0 0 1 0.8965 0 0 0 1</matrix>
        <instance_geometry url="#Cube_H_L-mesh" name="Cube_H_L">
          <bind_material>
            <technique_common>
              <instance_material symbol="Alu_Brushed-material" target="#Alu_Brushed-material"/>
            </technique_common>
          </bind_material>
        </instance_geometry>
      </node>
      <node id="Cube_G_R" name="Cube_G_R" type="NODE">
        <matrix sid="transform">1 0 0 0.348 0 1 0 -0.1125 0 0 1 1.2815 0 0 0 1</matrix>
        <instance_geometry url="#Cube_G_R-mesh" name="Cube_G_R">
          <bind_material>
            <technique_common>
              <instance_material symbol="Alu_Brushed-material" target="#Alu_Brushed-material"/>
            </technique_common>
          </bind_material>
        </instance_geometry>
      </node>
      <node id="Cube_G_L" name="Cube_G_L" type="NODE">
        <matrix sid="transform">1 0 0 -0.348 0 1 0 -0.1125 0 0 1 1.2815 0 0 0 1</matrix>
        <instance_geometry url="#Cube_G_L-mesh" name="Cube_G_L">
          <bind_material>
            <technique_common>
              <instance_material symbol="Alu_Brushed-material" target="#Alu_Brushed-material"/>
            </technique_common>
          </bind_material>
        </instance_geometry>
      </node>
      <node id="Cube_D" name="Cube_D" type="NODE">
        <matrix sid="transform">1 0 0 0 0 1 0 0.07 0 0 1 1.375 0 0 0 1</matrix>
        <instance_geometry url="#Cube_D-mesh" name="Cube_D">
          <bind_material>
            <technique_common>
              <instance_material symbol="Machine_Cream-material" target="#Machine_Cream-material"/>
            </technique_common>
          </bind_material>
        </instance_geometry>
      </node>
      <node id="Cube_F" name="Cube_F" type="NODE">
        <matrix sid="transform">1 0 0 0 0 1 0 0.21 0 0 1 1.625 0 0 0 1</matrix>
        <instance_geometry url="#Cube_F_001-mesh" name="Cube_F">
          <bind_material>
            <technique_common>
              <instance_material symbol="Machine_Cream-material" target="#Machine_Cream-material"/>
              <instance_material symbol="Screen-material" target="#Screen-material"/>
            </technique_common>
          </bind_material>
        </instance_geometry>
      </node>
      <node id="Cube_C" name="Cube_C" type="NODE">
        <matrix sid="transform">1 0 0 0 0 1 0 0 0 0 1 0.115 0 0 0 1</matrix>
        <instance_geometry url="#Cube_006-mesh" name="Cube_C">
          <bind_material>
            <technique_common>
              <instance_material symbol="Alu_Brushed-material" target="#Alu_Brushed-material">
                <bind_vertex_input semantic="UVMap" input_semantic="TEXCOORD" input_set="0"/>
              </instance_material>
            </technique_common>
          </bind_material>
        </instance_geometry>
      </node>
      <node id="Cube_E" name="Cube_E" type="NODE">
        <matrix sid="transform">1 0 0 0 0 1 0 0 0 0 1 -0.085 0 0 0 1</matrix>
        <instance_geometry url="#Cube_004-mesh" name="Cube_E">
          <bind_material>
            <technique_common>
              <instance_material symbol="Machine_Cream-material" target="#Machine_Cream-material">
                <bind_vertex_input semantic="UVMap" input_semantic="TEXCOORD" input_set="0"/>
              </instance_material>
            </technique_common>
          </bind_material>
        </instance_geometry>
      </node>
      <node id="Cube_B" name="Cube_B" type="NODE">
        <matrix sid="transform">1 0 0 0 0 1 0 0 0 0 1 0 0 0 0 1</matrix>
        <instance_geometry url="#Cube_001-mesh" name="Cube_B">
          <bind_material>
            <technique_common>
              <instance_material symbol="Machine_Cream-material" target="#Machine_Cream-material">
                <bind_vertex_input semantic="UVMap" input_semantic="TEXCOORD" input_set="0"/>
              </instance_material>
            </technique_common>
          </bind_material>
        </instance_geometry>
      </node>
      <node id="Cube_A" name="Cube_A" type="NODE">
        <matrix sid="transform">0.952 0 0 0 0 0.52 0 0 0 0 0.89 0.445 0 0 0 1</matrix>
        <instance_geometry url="#Cube-mesh" name="Cube_A">
          <bind_material>
            <technique_common>
              <instance_material symbol="Machine_Cream-material" target="#Machine_Cream-material">
                <bind_vertex_input semantic="UVMap" input_semantic="TEXCOORD" input_set="0"/>
              </instance_material>
              <instance_material symbol="Alu_Brushed-material" target="#Alu_Brushed-material">
                <bind_vertex_input semantic="UVMap" input_semantic="TEXCOORD" input_set="0"/>
              </instance_material>
            </technique_common>
          </bind_material>
        </instance_geometry>
      </node>
    </visual_scene>
  </library_visual_scenes>
  <scene>
    <instance_visual_scene url="#Scene"/>
  </scene>
</COLLADA>