<?xml version="1.0" encoding="utf-8"?>
<COLLADA xmlns="http://www.collada.org/2005/11/COLLADASchema" version="1.4.1" xmlns:xsi="http://www.w3.org/2001/XMLSchema-instance">
  <asset>
    <contributor>
      <author>Blender User</author>
      <authoring_tool>Blender 3.6.23 commit date:2025-06-16, commit time:11:52, hash:e467db79ca8c</authoring_tool>
    </contributor>
    <created>2026-07-02T14:40:58</created>
    <modified>2026-07-02T14:40:58</modified>
    <unit name="meter" meter="1"/>
    <up_axis>Z_UP</up_axis>
  </asset>
  <library_effects>
    <effect id="black_stainless-effect">
      <profile_COMMON>
        <technique sid="common">
          <lambert>
            <emission>
              <color sid="emission">0 0 0 1</color>
            </emission>
            <diffuse>
              <!-- matched to wirebonder body (Ivory) so it is visible in Gazebo -->
              <color sid="diffuse">0.93 0.9 0.78 1</color>
            </diffuse>
            <reflectivity>
              <float sid="specular">1</float>
            </reflectivity>
            <index_of_refraction>
              <float sid="ior">1.45</float>
            </index_of_refraction>
          </lambert>
        </technique>
      </profile_COMMON>
    </effect>
    <effect id="screen-effect">
      <profile_COMMON>
        <technique sid="common">
          <lambert>
            <emission>
              <color sid="emission">0.0024 0.0036 0.006 1</color>
            </emission>
            <diffuse>
              <color sid="diffuse">0.004 0.006 0.01 1</color>
            </diffuse>
            <index_of_refraction>
              <float sid="ior">1.45</float>
            </index_of_refraction>
          </lambert>
        </technique>
      </profile_COMMON>
    </effect>
  </library_effects>
  <library_images/>
  <library_materials>
    <material id="black_stainless-material" name="black_stainless">
      <instance_effect url="#black_stainless-effect"/>
    </material>
    <material id="screen-material" name="screen">
      <instance_effect url="#screen-effect"/>
    </material>
  </library_materials>
  <library_geometries>
    <geometry id="Cube_008-mesh" name="Cube.008">
      <mesh>
        <source id="Cube_008-mesh-positions">
          <float_array id="Cube_008-mesh-positions-array" count="213">0.25 0.34 0.1899999 0.765 0.735 0.04500007 0.25 0.34 0.3899999 0.255 0.265 0.03999996 0.25 0.66 0.1899999 0.595 0.735 -0.05699998 0.25 0.66 0.3899999 0.255 0.265 0.1449999 0.595 0.735 0.04499995 0.257 0.5 -0.055 0.765 0.498 -0.05699998 0.765 0.498 0.04499995 0.255 0.5 0.03999996 0.765 0.735 -0.05699998 0.255 0.5 0.1449999 0.765 0.265 0.04500007 0.765 0.735 0.04499995 0.257 0.733 -0.055 0.765 0.265 0.03999996 0.765 0.265 0.1449999 0.255 0.735 0.04500007 0.765 0.5 0.03999996 0.765 0.5 0.1449999 0.255 0.265 0.04500007 0.257 0.5 0.04500007 0.257 0.733 0.04500007 0.763 0.733 0.04500007 0.763 0.5 0.04500007 0.765 0.5 0.04500007 0.255 0.5 0.04500007 0.2792862 0.5 0.04500007 0.257 0.5 0.03999996 0.268371 0.5 0.0427528 0.595 0.733 -0.055 0.763 0.733 0.04499995 0.595 0.733 0.04499995 0.763 0.5 0.04499995 0.595 0.5 -0.055 0.595 0.5 0.03999996 0.595 0.5 0.04499995 0.765 0.498 0.03999996 0.765 0.6644999 -0.05699998 0.765 0.5 0.04499995 0.7649999 0.735 0.04499989 0.765 0.5 0.0441392 0.765 0.6806634 -0.03361457 0.765 0.5091646 0.04019498 0.255 0.735 -0.115 -0.255 0.265 -0.115 0.255 0.265 -0.115 -0.255 0.735 -0.115 0.765 0.735 -0.115 0.255 0.265 -0.115 0.765 0.265 -0.115 0.255 0.735 -0.115 -0.255 0.735 0.435 -0.255 0.265 0.435 0.255 0.265 0.435 0.255 0.735 0.435 0.15 0.265 0.05000001 0.15 0.265 0.2700001 -0.15 0.265 0.05000001 -0.15 0.265 0.2700001 0.255 0.37 0.3899999 0.255 0.63 0.1899999 0.255 0.63 0.3899999 0.255 0.37 0.1899999 0.255 0.34 0.3899999 0.255 0.66 0.3899999 0.255 0.66 0.1899999 0.255 0.34 0.1899999</float_array>
          <technique_common>
            <accessor source="#Cube_008-mesh-positions-array" count="71" stride="3">
              <param name="X" type="float"/>
              <param name="Y" type="float"/>
              <param name="Z" type="float"/>
            </accessor>
          </technique_common>
        </source>
        <source id="Cube_008-mesh-normals">
          <float_array id="Cube_008-mesh-normals-array" count="87">0 0 1 1.76478e-6 0 1 0 -1 0 -1 0 0 1 0 0 1 -6.90494e-6 0 0 1 0 0 0.9910819 -0.1332544 0 0 -1 0 0 -1 -2.14921e-6 0 1 2.86561e-6 0 -1 -1.76483e-6 0 1 -1 0 0 1 2.68861e-6 0 1 1.43182e-6 0 1 0 0 0 0.6476485 -0.7619393 0 1 2.01503e-6 1 0 0 0 -0.5345492 -0.8451374 0 1 -5.8436e-7 1 2.73315e-7 0 0 0 -1 1 -3.6124e-7 0 1 1.8062e-7 0 0 -1 -1.32809e-7 5.82077e-7 0 1 -2.32831e-6 0 -1</float_array>
          <technique_common>
            <accessor source="#Cube_008-mesh-normals-array" count="29" stride="3">
              <param name="X" type="float"/>
              <param name="Y" type="float"/>
              <param name="Z" type="float"/>
            </accessor>
          </technique_common>
        </source>
        <source id="Cube_008-mesh-map-0">
          <float_array id="Cube_008-mesh-map-0-array" count="804">0 0 0 0 0 0 0.875 0.625 0.8740196 0.5010638 0.875 0.5 0.625 0.625 0.6259803 0.5010638 0.6259804 0.6250001 0.625 0.5 0.8740196 0.5010638 0.6259803 0.5010638 0.625 0.75 0.6231618 1 0.6231618 0.75 0.6231618 0.125 0.625 0.125 0.625 0.25 0.6231618 0 0.625 0.125 0.6231618 0.125 0.625 0.5 0.625 0.625 0.625 0.5 0.6232334 0.6201252 0.6231618 0.625 0.5875 0.6260638 0.5875 0.5375 0.5875 0.5 0.5960975 0.5289025 0.6246835 0.625 0.6231618 0.625 0.6232334 0.6201252 0.625 0.6260638 0.625 0.625 0.625 0.75 0.6231618 0.6260638 0.6231618 0.625 0.6246835 0.625 0.625 0.25 0.625 0.4166667 0.5875 0.4166667 0.625 0.5 0.625 0.5 0.5875 0.5 0.625 0.4166667 0.625 0.5 0.625 0.5 0.5416668 0.25 0.5416668 0 0.5333334 0 0.5416669 0.416996 0.5416668 0.25 0.375 0.416996 0.5416668 0.5 0.5416667 0.75 0.5416668 0.75 0.5333334 1 0.375 0.833004 0.375 1 0.5416668 0.9889891 0.5379214 0.9943819 0.5416668 1 0.5333334 1 0.5416668 1 0.5379214 0.9943819 0.125 0.75 0.2919961 0.5 0.125 0.5 0.625 0.25 0.386905 0 0.625 0 0.386905 0.261905 0.386905 0.2509804 0.625 0.25 0.625 0.5 0.386905 0.75 0.386905 0.5 0.625 0.75 0.386905 1 0.386905 0.75 0.875 0.5 0.625 0.75 0.625 0.5 0.3799019 0.2478902 0.3799019 0.002109646 0.6127451 0.002109646 0.8750001 0.5021097 0.6279411 0.7478903 0.6279411 0.5021097 0.5661765 1 0.6231618 0.75 0.6231618 1 0.6231618 0.75 0.5661765 0.75 0.5875 0.6260638 0 0 0 0 0 0 0 0 0 0 0 0 0.4773622 0.5 0.5374016 0.5558511 0.5374016 0.694149 0.5767717 0.694149 0.5856299 0.5 0.5856299 0.75 0.5856299 0.25 0.4773622 0.5 0.4773622 0.25 0.5856299 0.75 0.5531497 0.9485294 0.5531497 0.8014705 0.5098425 0.9485294 0.4773622 1 0.4773622 0.75 0.5856299 0 0.4773622 0.25 0.4773622 0 0.625 0.75 0.375 1 0.375 0.75 0.375 0.25 0.625 0 0.375 0 0.625 0.25 0.375 0.375 0.625 0.375 0.625 1 0.375 0.875 0.375 1 0.25 0.7265625 0.25 0.5234375 0.125 0.5 0.7500001 0.5234375 0.75 0.7265625 0.875 0.75 0 0 0 0 0 0 0.875 0.625 0.8740196 0.625 0.8740196 0.5010638 0.625 0.625 0.625 0.5 0.6259803 0.5010638 0.625 0.5 0.875 0.5 0.8740196 0.5010638 0.625 0.75 0.625 1 0.6231618 1 0.625 0.25 0.5661764 0.25 0.6231618 0.125 0.5661764 0.25 0.5661765 0 0.6231618 0.125 0.5661765 0 0.6231618 0 0.6231618 0.125 0.6231618 0 0.625 0 0.625 0.125 0.625 0.5 0.625 0.625 0.625 0.625 0.5960975 0.5289025 0.5875 0.5 0.625 0.5 0.625 0.5 0.625 0.625 0.6232334 0.6201252 0.625 0.625 0.6246835 0.625 0.6232334 0.6201252 0.5875 0.6260638 0.5875 0.5375 0.6232334 0.6201252 0.5875 0.5375 0.5960975 0.5289025 0.6232334 0.6201252 0.5960975 0.5289025 0.625 0.5 0.6232334 0.6201252 0.6231618 0.625 0.6231618 0.6260638 0.5875 0.6260638 0.625 0.75 0.6231618 0.75 0.6231618 0.6260638 0.625 0.6260638 0.625 0.625 0.625 0.625 0.625 0.75 0.6231618 0.6260638 0.625 0.6260638 0.6246835 0.625 0.625 0.625 0.625 0.6260638 0.625 0.6260638 0.6231618 0.6260638 0.6246835 0.625 0.625 0.25 0.625 0.5 0.625 0.4166667 0.625 0.5 0.625 0.5 0.625 0.4166667 0.5661764 0.5 0.5661764 0.25 0.5875 0.4166667 0.5661764 0.25 0.625 0.25 0.5875 0.4166667 0.5875 0.4166667 0.5875 0.5 0.5661764 0.5 0.625 0.5 0.5875 0.5 0.5875 0.4166667 0.5875 0.4166667 0.625 0.4166667 0.625 0.5 0.5333334 0 0.375 0 0.375 0.25 0.375 0.25 0.5416668 0.25 0.5333334 0 0.5416669 0.416996 0.5416668 0.5 0.5416668 0.5 0.5416668 0.25 0.375 0.25 0.375 0.416996 0.5416669 0.416996 0.5416668 0.5 0.5416668 0.25 0.5416668 0.5 0.5416668 0.5 0.5416667 0.75 0.5333334 1 0.5333334 0.833004 0.375 0.833004 0.5416668 0.9889891 0.5416668 0.75 0.5416668 0.833004 0.5416668 0.75 0.5416667 0.75 0.5416668 0.833004 0.5416668 0.833004 0.5333334 0.833004 0.5416668 0.9889891 0.5333334 0.833004 0.5333334 1 0.5416668 0.9889891 0.5416668 0.9889891 0.5333334 1 0.5379214 0.9943819 0.125 0.75 0.291996 0.75 0.2919961 0.5 0.625 0.25 0.386905 0.25 0.386905 0 0.386905 0.2509804 0.386905 0.25 0.625 0.25 0.625 0.25 0.625 0.5 0.386905 0.261905 0.625 0.5 0.386905 0.5 0.386905 0.4990196 0.625 0.5 0.386905 0.4990196 0.386905 0.261905 0.625 0.5 0.625 0.75 0.386905 0.75 0.625 0.75 0.625 1 0.386905 1 0.875 0.5 0.875 0.75 0.625 0.75 0.6127451 0.002109646 0.625 0.002109646 0.625 0.2478902 0.625 0.2478902 0.3799019 0.2478902 0.6127451 0.002109646 0.8750001 0.5021097 0.875 0.7478903 0.6279411 0.7478903 0.5661765 1 0.5661765 0.75 0.6231618 0.75 0.5661765 0.75 0.5661764 0.5 0.5875 0.6260638 0.5661764 0.5 0.5875 0.5 0.5875 0.5375 0.5661764 0.5 0.5875 0.5375 0.5875 0.6260638 0.6231618 0.6260638 0.6231618 0.75 0.5875 0.6260638 0 0 0 0 0 0 0 0 0 0 0 0 0.5767716 0.7101064 0.5767717 0.694149 0.5856299 0.75 0.5856299 0.5 0.5767717 0.5558511 0.5767717 0.5398936 0.5856299 0.5 0.5767717 0.5398936 0.5374016 0.5398936 0.5767716 0.7101064 0.5856299 0.75 0.5374016 0.7101064 0.5856299 0.75 0.4773622 0.75 0.5374016 0.7101064 0.4773622 0.5 0.5856299 0.5 0.5374016 0.5398936 0.4773622 0.5 0.5374016 0.5398936 0.5374016 0.5558511 0.5374016 0.7101064 0.4773622 0.75 0.5374016 0.694149 0.4773622 0.75 0.4773622 0.5 0.5374016 0.694149 0.5767717 0.694149 0.5767717 0.5558511 0.5856299 0.5 0.5856299 0.25 0.5856299 0.5 0.4773622 0.5 0.5856299 0.75 0.5856299 1 0.5531497 0.9485294 0.5098425 0.9485294 0.5531497 0.9485294 0.5856299 1 0.4773622 0.75 0.5856299 0.75 0.5098425 0.8014706 0.5856299 0.75 0.5531497 0.8014705 0.5098425 0.8014706 0.5098425 0.9485294 0.5856299 1 0.4773622 1 0.4773622 0.75 0.5098425 0.8014706 0.5098425 0.9485294 0.5856299 0 0.5856299 0.25 0.4773622 0.25 0.625 0.75 0.625 1 0.375 1 0.375 0.25 0.625 0.25 0.625 0 0.625 0.25 0.375 0.25 0.375 0.375 0.625 1 0.625 0.875 0.375 0.875 0.125 0.5 0.125 0.75 0.25 0.7265625 0.125 0.75 0.25 0.75 0.25 0.7265625 0.25 0.5234375 0.25 0.5 0.125 0.5 0.75 0.7265625 0.75 0.75 0.875 0.75 0.875 0.75 0.875 0.5 0.7500001 0.5234375 0.875 0.5 0.75 0.5 0.7500001 0.5234375</float_array>
          <technique_common>
            <accessor source="#Cube_008-mesh-map-0-array" count="402" stride="2">
              <param name="S" type="float"/>
              <param name="T" type="float"/>
            </accessor>
          </technique_common>
        </source>
        <vertices id="Cube_008-mesh-vertices">
          <input semantic="POSITION" source="#Cube_008-mesh-positions"/>
        </vertices>
        <triangles material="black_stainless-material" count="132">
          <input semantic="VERTEX" source="#Cube_008-mesh-vertices" offset="0"/>
          <input semantic="NORMAL" source="#Cube_008-mesh-normals" offset="1"/>
          <input semantic="TEXCOORD" source="#Cube_008-mesh-map-0" offset="2" set="0"/>
          <p>58 0 0 56 0 1 57 0 2 29 1 3 25 1 4 20 1 5 28 0 6 26 0 7 27 0 8 1 0 9 25 0 10 26 0 11 15 2 12 3 2 13 18 2 14 12 3 15 29 3 16 20 3 17 3 3 18 29 3 19 12 3 20 1 4 21 42 4 22 16 4 23 46 4 24 21 4 25 10 4 26 41 4 27 13 4 28 45 4 29 44 5 30 21 5 31 46 5 32 11 4 33 28 4 34 15 4 35 40 4 36 21 4 37 44 4 38 20 6 39 8 6 40 5 6 41 43 2 42 16 2 43 13 2 44 8 7 45 16 7 46 43 7 47 25 4 48 24 4 49 31 4 50 35 2 51 25 2 52 33 2 53 26 3 54 36 3 55 27 3 56 31 6 57 37 6 58 9 6 59 30 6 60 32 6 61 24 6 62 31 6 63 24 6 64 32 6 65 9 0 66 33 0 67 17 0 68 14 3 69 23 3 70 7 3 71 30 6 72 24 6 73 14 6 74 22 4 75 15 4 76 28 4 77 19 2 78 23 2 79 15 2 80 14 0 81 19 0 82 22 0 83 33 3 84 37 3 85 38 3 86 35 0 87 36 0 88 34 0 89 52 2 90 18 2 91 3 2 92 18 4 93 53 4 94 10 4 95 54 8 96 53 8 97 52 8 98 49 9 99 50 9 100 47 9 101 47 4 102 64 4 103 66 4 104 63 4 105 58 4 106 57 4 107 55 6 108 47 6 109 50 6 110 57 2 111 62 2 112 60 2 113 61 2 114 48 2 115 49 2 116 56 3 117 50 3 118 48 3 119 60 2 120 61 2 121 59 2 122 6 2 126 69 2 127 68 2 128 2 6 129 70 6 130 0 6 131 66 10 132 64 10 133 4 10 134 65 11 135 63 11 136 2 11 137 58 0 138 55 0 139 56 0 140 29 0 141 24 0 142 25 0 143 28 12 144 1 12 145 26 12 146 1 0 147 20 0 148 25 0 149 15 2 150 23 2 151 3 2 152 20 3 153 54 3 154 12 3 155 54 13 156 52 13 157 12 13 158 52 3 159 3 3 160 12 3 161 3 3 162 23 3 163 29 3 164 1 4 165 28 4 166 42 4 167 45 14 168 13 14 169 16 14 170 16 4 171 42 4 172 46 4 173 42 4 174 44 4 175 46 4 176 10 4 177 41 4 178 46 4 179 41 15 180 45 15 181 46 15 182 45 16 183 16 16 184 46 16 185 21 4 186 40 4 187 10 4 188 15 4 189 18 4 190 40 4 191 11 4 192 42 4 193 28 4 194 15 4 195 40 4 196 11 4 197 44 4 198 42 4 199 11 4 200 11 4 201 40 4 202 44 4 203 20 17 204 1 17 205 8 17 206 1 6 207 16 6 208 8 6 209 51 18 210 54 18 211 5 18 212 54 6 213 20 6 214 5 6 215 5 6 216 13 6 217 51 6 218 43 6 219 13 6 220 5 6 221 5 6 222 8 6 223 43 6 224 31 4 225 9 4 226 17 4 227 17 19 228 25 19 229 31 19 230 35 2 231 34 2 232 26 2 233 25 2 234 17 2 235 33 2 236 35 20 237 26 20 238 25 20 239 26 3 240 34 3 241 36 3 242 31 6 243 38 6 244 37 6 245 30 6 246 27 6 247 39 6 248 27 6 249 36 6 250 39 6 251 39 6 252 38 6 253 30 6 254 38 6 255 31 6 256 30 6 257 30 6 258 31 6 259 32 6 260 9 0 261 37 0 262 33 0 263 14 3 264 29 3 265 23 3 266 24 6 267 29 6 268 14 6 269 14 21 270 22 21 271 30 21 272 22 6 273 28 6 274 27 6 275 22 6 276 27 6 277 30 6 278 22 4 279 19 4 280 15 4 281 19 2 282 7 2 283 23 2 284 14 0 285 7 0 286 19 0 287 38 3 288 39 3 289 35 3 290 35 3 291 33 3 292 38 3 293 35 0 294 39 0 295 36 0 296 52 2 297 53 2 298 18 2 299 53 22 300 51 22 301 10 22 302 51 4 303 13 4 304 41 4 305 51 4 306 41 4 307 10 4 308 40 4 309 18 4 310 10 4 311 54 23 312 51 23 313 53 23 314 49 9 315 48 9 316 50 9 317 67 4 318 63 4 319 57 4 320 58 4 321 65 4 322 68 4 323 58 4 324 68 4 325 69 4 326 67 4 327 57 4 328 70 4 329 57 24 330 49 24 331 70 24 332 47 25 333 58 25 334 69 25 335 47 4 336 69 4 337 64 4 338 70 4 339 49 4 340 66 4 341 49 4 342 47 4 343 66 4 344 63 4 345 65 4 346 58 4 347 55 6 348 58 6 349 47 6 350 57 26 351 56 26 352 62 26 353 61 2 354 62 2 355 56 2 356 49 2 357 57 2 358 59 2 359 57 2 360 60 2 361 59 2 362 61 2 363 56 2 364 48 2 365 49 2 366 59 2 367 61 2 368 56 3 369 55 3 370 50 3 371 60 2 372 62 2 373 61 2 374 6 2 378 4 2 379 69 2 380 2 6 381 67 6 382 70 6 383 4 27 384 0 27 385 66 27 386 0 0 387 70 0 388 66 0 389 64 0 390 69 0 391 4 0 392 63 9 393 67 9 394 2 9 395 2 28 396 6 28 397 65 28 398 6 9 399 68 9 400 65 9 401</p>
        </triangles>
        <triangles material="screen-material" count="2">
          <input semantic="VERTEX" source="#Cube_008-mesh-vertices" offset="0"/>
          <input semantic="NORMAL" source="#Cube_008-mesh-normals" offset="1"/>
          <input semantic="TEXCOORD" source="#Cube_008-mesh-map-0" offset="2" set="0"/>
          <p>4 4 123 2 4 124 0 4 125 4 4 375 6 4 376 2 4 377</p>
        </triangles>
      </mesh>
    </geometry>
    <geometry id="Cube_001-mesh" name="Cube.001">
      <mesh>
        <source id="Cube_001-mesh-positions">
          <float_array id="Cube_001-mesh-positions-array" count="144">1 1 1 -0.9999997 -1 0.9852939 0.3333336 1 0.6999998 -0.9999997 -1 1.294117 0.3333336 1 0.9999998 -0.9921564 0 0.7058821 1 1 -1 1 -0.008510589 0.6999998 1 -0.008510589 0.9999998 -0.9999997 0 0.9852939 1 1 0.6999998 -0.9999997 0 1.294117 1 -1 1 1 1 0.9999998 -0.9921564 0.9914894 0.7058821 1 -1 0.9852939 1 -1 1.294117 1 -1 -1 -0.9999997 1 1 1 0 0.9852939 1 0 1.294117 -0.9999997 1 -1 -0.9999997 -1 1 -0.9999997 -1 -1 -0.9921564 0 1 -0.9921564 0.9914894 1 0.9921573 0.9914894 1 0.9921573 0 1 1 0 1 -0.9999997 0 1 -0.90476 0 1 -0.9921564 0 0.9852939 -0.9475643 0 0.9933905 0.3333336 0.9914894 0.7058821 0.9921573 0.9914894 0.9999998 0.3333336 0.9914894 0.9999998 0.9921573 0 0.9999998 0.3333336 0 0.7058821 0.3333336 0 0.9852939 0.3333336 0 0.9999998 1 -0.008510589 0.9852939 1 0.6999998 0.6999998 1 1 0.9999998 1 0 0.9999998 1 1 0.9999996 1 0 0.9974681 1 0.7687804 0.7687804 1 0.03899824 0.9858674</float_array>
          <technique_common>
            <accessor source="#Cube_001-mesh-positions-array" count="48" stride="3">
              <param name="X" type="float"/>
              <param name="Y" type="float"/>
              <param name="Z" type="float"/>
            </accessor>
          </technique_common>
        </source>
        <source id="Cube_001-mesh-normals">
          <float_array id="Cube_001-mesh-normals-array" count="36">0 0 1 0 -1 0 -1 0 0 0 0 -1 1 0 0 1 2.94242e-6 0 0 1 0 0 0.7071066 -0.707107 1 -4.57608e-7 0 1 0 0 0 1 5.96047e-7 1 0 0</float_array>
          <technique_common>
            <accessor source="#Cube_001-mesh-normals-array" count="12" stride="3">
              <param name="X" type="float"/>
              <param name="Y" type="float"/>
              <param name="Z" type="float"/>
            </accessor>
          </technique_common>
        </source>
        <source id="Cube_001-mesh-map-0">
          <float_array id="Cube_001-mesh-map-0-array" count="552">0.875 0.625 0.8740196 0.5010638 0.875 0.5 0.625 0.625 0.6259803 0.5010638 0.6259804 0.6250001 0.625 0.5 0.8740196 0.5010638 0.6259803 0.5010638 0.375 1 0.6231618 0.75 0.6231618 1 0.625 0.75 0.6231618 1 0.6231618 0.75 0.6231618 0.125 0.625 0.25 0.375 0.25 0.6231618 0 0.625 0.125 0.6231618 0.125 0.375 0.5 0.125 0.75 0.125 0.5 0.375 0.5 0.5875 0.5375 0.5875 0.6260638 0.625 0.5 0.625 0.625 0.625 0.5 0.6232334 0.6201252 0.6231618 0.625 0.5875 0.6260638 0.5875 0.5375 0.5875 0.5 0.5960975 0.5289025 0.6246835 0.625 0.6231618 0.625 0.6232334 0.6201252 0.625 0.75 0.6231618 0.6260638 0.625 0.6260638 0.6246835 0.625 0.625 0.6260638 0.6231618 0.6260638 0.5875 0.4166667 0.375 0.25 0.625 0.25 0.625 0.5 0.625 0.5 0.625 0.5 0.625 0.4166666 0.625 0.5 0.625 0.5 0.5416668 0.25 0.5416668 0 0.5333334 0 0.5416669 0.416996 0.5416668 0.5 0.5416668 0.25 0.5416668 0.5 0.5416667 0.75 0.5416668 0.75 0.5333334 1 0.375 0.833004 0.375 1 0.5416668 0.9889891 0.5379214 0.9943819 0.5416668 1 0.5333334 1 0.5379214 0.9943819 0.5416668 0.9889891 0.125 0.75 0.2919961 0.5 0.125 0.5 0.625 0.25 0.386905 0 0.625 0 0.386905 0.261905 0.386905 0.2509804 0.625 0.25 0.625 0.5 0.386905 0.75 0.386905 0.5 0.625 0.75 0.386905 1 0.386905 0.75 0.875 0.5 0.625 0.75 0.625 0.5 0.3799019 0.2478902 0.3799019 0.002109646 0.6127451 0.002109646 0.8750001 0.5021097 0.6279411 0.7478903 0.6279411 0.5021097 0.875 0.625 0.8740196 0.625 0.8740196 0.5010638 0.625 0.625 0.625 0.5 0.6259803 0.5010638 0.625 0.5 0.875 0.5 0.8740196 0.5010638 0.375 1 0.375 0.75 0.6231618 0.75 0.625 0.75 0.625 1 0.6231618 1 0.375 0.25 0.375 0 0.6231618 0.125 0.375 0 0.6231618 0 0.6231618 0.125 0.6231618 0.125 0.625 0.125 0.625 0.25 0.6231618 0 0.625 0 0.625 0.125 0.375 0.5 0.375 0.75 0.125 0.75 0.5875 0.6260638 0.6231618 0.6260638 0.6231618 0.75 0.6231618 0.75 0.375 0.75 0.5875 0.6260638 0.375 0.75 0.375 0.5 0.5875 0.6260638 0.375 0.5 0.5875 0.5 0.5875 0.5375 0.625 0.5 0.625 0.625 0.625 0.625 0.5960975 0.5289025 0.5875 0.5 0.625 0.5 0.625 0.5 0.625 0.625 0.6232334 0.6201252 0.625 0.625 0.6246835 0.625 0.6232334 0.6201252 0.5875 0.6260638 0.5875 0.5375 0.6232334 0.6201252 0.5875 0.5375 0.5960975 0.5289025 0.6232334 0.6201252 0.5960975 0.5289025 0.625 0.5 0.6232334 0.6201252 0.6231618 0.625 0.6231618 0.6260638 0.5875 0.6260638 0.625 0.6260638 0.625 0.625 0.625 0.625 0.625 0.75 0.6231618 0.75 0.6231618 0.6260638 0.625 0.6260638 0.625 0.625 0.625 0.75 0.6231618 0.6260638 0.6231618 0.625 0.6246835 0.625 0.6246835 0.625 0.625 0.625 0.625 0.6260638 0.5875 0.5 0.375 0.5 0.5875 0.4166667 0.375 0.5 0.375 0.25 0.5875 0.4166667 0.625 0.25 0.625 0.5 0.625 0.5 0.625 0.25 0.625 0.5 0.625 0.5 0.625 0.25 0.625 0.5 0.625 0.4166666 0.625 0.4166666 0.5875 0.4166667 0.625 0.25 0.625 0.5 0.5875 0.5 0.625 0.5 0.5875 0.5 0.5875 0.4166667 0.625 0.5 0.5875 0.4166667 0.625 0.4166666 0.625 0.5 0.5333334 0 0.375 0 0.375 0.25 0.375 0.25 0.5416668 0.25 0.5333334 0 0.5416669 0.416996 0.5416668 0.5 0.5416668 0.5 0.5416668 0.25 0.375 0.25 0.5416669 0.416996 0.375 0.25 0.375 0.416996 0.5416669 0.416996 0.5416668 0.5 0.5416668 0.5 0.5416667 0.75 0.5333334 1 0.5333334 0.833004 0.375 0.833004 0.5333334 1 0.5416668 1 0.5379214 0.9943819 0.5416668 0.9889891 0.5416668 0.75 0.5416668 0.833004 0.5416668 0.75 0.5416667 0.75 0.5416668 0.833004 0.5416668 0.833004 0.5333334 0.833004 0.5416668 0.9889891 0.5333334 0.833004 0.5333334 1 0.5416668 0.9889891 0.125 0.75 0.291996 0.75 0.2919961 0.5 0.625 0.25 0.386905 0.25 0.386905 0 0.386905 0.2509804 0.386905 0.25 0.625 0.25 0.625 0.25 0.625 0.5 0.386905 0.261905 0.625 0.5 0.386905 0.5 0.386905 0.4990196 0.625 0.5 0.386905 0.4990196 0.386905 0.261905 0.625 0.5 0.625 0.75 0.386905 0.75 0.625 0.75 0.625 1 0.386905 1 0.875 0.5 0.875 0.75 0.625 0.75 0.6127451 0.002109646 0.625 0.002109646 0.625 0.2478902 0.625 0.2478902 0.3799019 0.2478902 0.6127451 0.002109646 0.8750001 0.5021097 0.875 0.7478903 0.6279411 0.7478903</float_array>
          <technique_common>
            <accessor source="#Cube_001-mesh-map-0-array" count="276" stride="2">
              <param name="S" type="float"/>
              <param name="T" type="float"/>
            </accessor>
          </technique_common>
        </source>
        <vertices id="Cube_001-mesh-vertices">
          <input semantic="POSITION" source="#Cube_001-mesh-positions"/>
        </vertices>
        <triangles material="black_stainless-material" count="92">
          <input semantic="VERTEX" source="#Cube_001-mesh-vertices" offset="0"/>
          <input semantic="NORMAL" source="#Cube_001-mesh-normals" offset="1"/>
          <input semantic="TEXCOORD" source="#Cube_001-mesh-map-0" offset="2" set="0"/>
          <p>29 0 0 25 0 1 18 0 2 28 0 3 26 0 4 27 0 5 0 0 6 25 0 7 26 0 8 23 1 9 15 1 10 1 1 11 12 1 12 1 1 13 15 1 14 9 2 15 18 2 16 21 2 17 1 2 18 29 2 19 9 2 20 6 3 21 23 3 22 21 3 23 6 4 24 41 4 25 7 4 26 0 4 27 43 4 28 13 4 29 47 4 30 19 4 31 7 4 32 41 4 33 10 4 34 46 4 35 45 5 36 19 5 37 47 5 38 12 4 39 40 4 40 8 4 41 45 4 42 8 4 43 40 4 44 2 6 45 21 6 46 18 6 47 13 6 48 44 6 49 42 6 50 4 7 51 42 7 52 44 7 53 25 4 54 24 4 55 31 4 56 35 1 57 26 1 58 25 1 59 26 2 60 36 2 61 27 2 62 31 6 63 37 6 64 5 6 65 30 6 66 32 6 67 24 6 68 31 6 69 32 6 70 30 6 71 5 0 72 33 0 73 14 0 74 11 2 75 22 2 76 3 2 77 30 6 78 24 6 79 11 6 80 20 4 81 12 4 82 28 4 83 16 1 84 22 1 85 12 1 86 11 0 87 16 0 88 20 0 89 33 2 90 37 2 91 38 2 92 35 0 93 36 0 94 34 0 95 29 0 96 24 0 97 25 0 98 28 0 99 0 0 100 26 0 101 0 0 102 18 0 103 25 0 104 23 1 105 17 1 106 15 1 107 12 1 108 22 1 109 1 1 110 21 2 111 23 2 112 9 2 113 23 2 114 1 2 115 9 2 116 9 2 117 29 2 118 18 2 119 1 2 120 22 2 121 29 2 122 6 3 123 17 3 124 23 3 125 7 4 126 40 4 127 15 4 128 15 4 129 17 4 130 7 4 131 17 4 132 6 4 133 7 4 134 6 4 135 10 4 136 41 4 137 0 4 138 28 4 139 43 4 140 46 4 141 10 4 142 13 4 143 13 4 144 43 4 145 47 4 146 43 4 147 45 4 148 47 4 149 7 4 150 41 4 151 47 4 152 41 8 153 46 8 154 47 8 155 46 9 156 13 9 157 47 9 158 19 4 159 40 4 160 7 4 161 8 4 162 43 4 163 28 4 164 12 4 165 15 4 166 40 4 167 8 4 168 28 4 169 12 4 170 40 4 171 19 4 172 45 4 173 45 4 174 43 4 175 8 4 176 10 6 177 6 6 178 2 6 179 6 6 180 21 6 181 2 6 182 18 6 183 0 6 184 13 6 185 18 6 186 13 6 187 42 6 188 18 6 189 42 6 190 4 6 191 4 6 192 2 6 193 18 6 194 13 6 195 10 6 196 44 6 197 10 10 198 2 10 199 44 10 200 2 6 201 4 6 202 44 6 203 31 4 204 5 4 205 14 4 206 14 11 207 25 11 208 31 11 209 35 1 210 34 1 211 26 1 212 25 1 213 14 1 214 35 1 215 14 1 216 33 1 217 35 1 218 26 2 219 34 2 220 36 2 221 31 6 222 38 6 223 37 6 224 31 6 225 24 6 226 32 6 227 30 6 228 27 6 229 39 6 230 27 6 231 36 6 232 39 6 233 39 6 234 38 6 235 30 6 236 38 6 237 31 6 238 30 6 239 5 0 240 37 0 241 33 0 242 11 2 243 29 2 244 22 2 245 24 6 246 29 6 247 11 6 248 11 6 249 20 6 250 30 6 251 20 6 252 28 6 253 27 6 254 20 6 255 27 6 256 30 6 257 20 4 258 16 4 259 12 4 260 16 1 261 3 1 262 22 1 263 11 0 264 3 0 265 16 0 266 38 2 267 39 2 268 35 2 269 35 2 270 33 2 271 38 2 272 35 0 273 39 0 274 36 0 275</p>
        </triangles>
      </mesh>
    </geometry>
    <geometry id="Cube-mesh" name="Cube">
      <mesh>
        <source id="Cube-mesh-positions">
          <float_array id="Cube-mesh-positions-array" count="132">1 1 0.9999997 0.9803922 -0.6808511 0.3149606 0.9803922 -0.6808511 0.7559055 0.9803922 -0.5531915 0.3937007 0.9803922 0.6808511 0.3149606 -0.5882353 -1 -0.1732283 0.9803922 0.6808511 0.7559055 0.9803922 0.5531915 0.3937007 1 1 -0.9999997 1 -0.5531915 0.8346456 1 0.5531915 0.8346456 -0.5882353 -1 0.1732283 1 -1 0.9999997 -0.5882353 -0.9787234 -0.1732283 1 -1 -0.9999997 0.5882353 -1 -0.1732283 -0.5882353 -0.9787234 0.1732283 0.5882353 -1 0.1732283 -1 1 0.9999997 -1 1 -0.9999997 -1 -1 0.9999997 0.5882353 -0.9787234 -0.1732283 -1 -1 -0.9999997 0.5882353 -0.9787234 0.1732283 0.5882353 -1 -0.1732283 0.5882353 -1 0.1732283 -0.5882353 -1 -0.1732283 -0.5882353 -1 0.1732283 0.5882353 -0.9787234 -0.1732283 -0.5882353 -0.9787234 -0.1732283 0.5882353 -0.9787234 0.1732283 -0.5882353 -0.9787234 0.1732283 1 -0.5531915 0.8346455 1 0.5531915 0.8346455 0.9803922 0.5531915 0.3937007 0.9803922 -0.5531915 0.3937007 1 -0.6808511 0.3149606 1 -0.6808511 0.7559055 1 0.6808511 0.7559055 1 0.6808511 0.3149606 1 0.5531915 0.7559055 1 -0.5531915 0.7559055 0.9803922 -0.4376903 0.3937007 0.9803922 -0.4376901 0.3937007</float_array>
          <technique_common>
            <accessor source="#Cube-mesh-positions-array" count="44" stride="3">
              <param name="X" type="float"/>
              <param name="Y" type="float"/>
              <param name="Z" type="float"/>
            </accessor>
          </technique_common>
        </source>
        <source id="Cube-mesh-normals">
          <float_array id="Cube-mesh-normals-array" count="36">0 0 1 0 -1 0 -1 0 0 0 0 -1 1 0 0 0 1 0 0 -1 -2.45117e-7 0 -1 2.45117e-7 1 -1.86761e-7 0 1 3.73523e-7 0 0.9879196 0.1549677 0 1 -5.29435e-7 0</float_array>
          <technique_common>
            <accessor source="#Cube-mesh-normals-array" count="12" stride="3">
              <param name="X" type="float"/>
              <param name="Y" type="float"/>
              <param name="Z" type="float"/>
            </accessor>
          </technique_common>
        </source>
        <source id="Cube-mesh-map-0">
          <float_array id="Cube-mesh-map-0-array" count="480">0.875 0.5 0.625 0.75 0.625 0.5 0.4783465 0.9485294 0.4783465 0.9485294 0.375 1 0.5216535 0.8014706 0.5216535 0.9485294 0.5216535 0.8014706 0.4783465 0.9485294 0.4783465 0.8014706 0.4783465 0.9485294 0.375 1 0.5216535 0.9485294 0.625 1 0.625 0 0.375 0.25 0.375 0 0.375 0.5 0.125 0.75 0.125 0.5 0.375 0.75 0.375 0.5 0.5393701 0.7101064 0.625 0.5 0.625 0.75 0.6043307 0.694149 0.6043307 0.694149 0.6043307 0.5558511 0.6043307 0.694149 0.625 0.25 0.375 0.5 0.375 0.25 0.375 0.25 0.625 0.25 0.375 0.2499997 0.375 0.5 0.625 0.25 0.375 0.25 0.375 0.5 0.625 0.5000002 0.625 0.5 0.375 0.5 0.125 0.5 0.375 0.5 0.875 0.5 0.625 0.5000002 0.875 0.5000002 0.625 0.5000002 0.375 0.25 0.625 0.25 0.375 1 0.625 0.75 0.625 1 0.375 0.25 0.375 0.02609884 0.375 0.02609884 0.375 0 0.375 0.02609884 0.375 0.02609884 0.625 0.5 0.5803572 0.75 0.5803571 0.5 0.375 0.25 0.4196428 0.2265625 0.4196428 0.04464274 0.4196428 0.0446428 0.4196428 0.2265625 0.625 0.25 0.625 0.25 0.375 0.3750002 0.625 0.3750002 0.375 1 0.625 0.8749998 0.375 0.8749998 0.125 0.5 0.2500002 0.75 0.2500002 0.5 0.875 0.5 0.7499998 0.5234375 0.7499998 0.7265625 0.875 0.5 0.875 0.75 0.625 0.75 0.625 1 0.5216535 0.9485294 0.5216535 0.9485294 0.625 1 0.5216535 0.9485294 0.5216535 0.8014706 0.625 0.75 0.625 1 0.5216535 0.8014706 0.625 0.75 0.5216535 0.8014706 0.5216535 0.8014706 0.625 0.75 0.5216535 0.8014706 0.4783465 0.8014706 0.625 0.75 0.4783465 0.8014706 0.375 0.75 0.4783465 0.8014706 0.4783465 0.8014706 0.375 0.75 0.375 0.75 0.4783465 0.8014706 0.4783465 0.9485294 0.375 1 0.375 0.75 0.4783465 0.9485294 0.5216535 0.8014706 0.5216535 0.9485294 0.5216535 0.9485294 0.4783465 0.9485294 0.4783465 0.8014706 0.4783465 0.8014706 0.375 1 0.4783465 0.9485294 0.5216535 0.9485294 0.625 0 0.625 0.25 0.375 0.25 0.375 0.5 0.375 0.75 0.125 0.75 0.5944883 0.7101065 0.5944882 0.694149 0.6043307 0.694149 0.625 0.5 0.6043307 0.5558511 0.5944883 0.5398937 0.6043307 0.5558511 0.5944882 0.5558511 0.5944883 0.5398937 0.5944883 0.7101065 0.6043307 0.694149 0.625 0.75 0.5393701 0.7101064 0.5944883 0.7101065 0.625 0.75 0.375 0.5 0.625 0.5 0.5393701 0.5398936 0.625 0.5 0.5944883 0.5398937 0.5393701 0.5398936 0.5393701 0.7101064 0.625 0.75 0.375 0.75 0.375 0.5 0.5393701 0.5398936 0.5393701 0.7101064 0.6043307 0.5558511 0.6043307 0.5558511 0.625 0.5 0.625 0.75 0.6043307 0.694149 0.6043307 0.694149 0.6043307 0.694149 0.6043307 0.5558511 0.625 0.5 0.6043307 0.694149 0.6043307 0.5558511 0.6043307 0.5558511 0.625 0.25 0.625 0.5 0.375 0.5 0.375 0.25 0.625 0.25 0.625 0.25 0.375 0.5 0.625 0.5 0.625 0.25 0.375 0.5 0.375 0.5 0.625 0.5000002 0.375 0.5 0.125 0.5 0.125 0.5 0.875 0.5 0.625 0.5 0.625 0.5000002 0.625 0.5000002 0.375 0.5 0.375 0.25 0.375 1 0.375 0.75 0.625 0.75 0.375 0.25 0.375 0.25 0.375 0.02609884 0.375 0 0.375 0 0.375 0.02609884 0.625 0.5 0.625 0.75 0.5803572 0.75 0.4196428 0.04464274 0.4196428 0.0234375 0.375 0 0.375 0 0.375 0.25 0.4196428 0.04464274 0.375 0 0.4196428 0.0234375 0.4196428 0.0234375 0.625 0 0.375 0 0.4196428 0.0234375 0.4196428 0.2265625 0.375 0.25 0.4196428 0.2265625 0.375 0.25 0.625 0.25 0.4196428 0.2265625 0.625 0.25 0.625 0 0.4196428 0.0446428 0.625 0 0.4196428 0.0234375 0.4196428 0.0446428 0.625 0.25 0.375 0.25 0.375 0.3750002 0.375 1 0.625 1 0.625 0.8749998 0.125 0.5 0.125 0.75 0.2500002 0.75 0.7499998 0.75 0.875 0.75 0.7499998 0.7265625 0.875 0.75 0.875 0.5 0.7499998 0.7265625 0.875 0.5 0.7499998 0.5 0.7499998 0.5234375</float_array>
          <technique_common>
            <accessor source="#Cube-mesh-map-0-array" count="240" stride="2">
              <param name="S" type="float"/>
              <param name="T" type="float"/>
            </accessor>
          </technique_common>
        </source>
        <vertices id="Cube-mesh-vertices">
          <input semantic="POSITION" source="#Cube-mesh-positions"/>
        </vertices>
        <triangles material="black_stainless-material" count="66">
          <input semantic="VERTEX" source="#Cube-mesh-vertices" offset="0"/>
          <input semantic="NORMAL" source="#Cube-mesh-normals" offset="1"/>
          <input semantic="TEXCOORD" source="#Cube-mesh-map-0" offset="2" set="0"/>
          <p>18 0 0 12 0 1 0 0 2 5 0 3 26 0 4 22 0 5 17 1 6 27 1 7 25 1 8 5 1 9 24 1 10 26 1 11 22 1 12 27 1 13 20 1 14 20 2 15 19 2 16 22 2 17 8 3 18 22 3 19 19 3 20 14 4 21 8 4 22 36 4 23 0 4 24 12 4 25 9 4 26 32 4 27 10 4 28 9 4 29 18 5 30 8 5 31 19 5 32 13 4 33 31 4 34 29 4 35 21 1 36 16 1 37 13 1 38 21 2 39 30 2 40 23 2 41 21 0 42 29 0 43 28 0 44 16 0 45 30 0 46 31 0 47 30 5 48 29 5 49 31 5 50 26 1 51 25 1 52 27 1 53 33 4 60 41 4 61 40 4 62 6 1 69 39 1 70 38 1 71 1 5 72 37 5 73 36 5 74 4 0 75 36 0 76 39 0 77 6 3 78 40 3 79 41 3 80 18 0 81 20 0 82 12 0 83 20 5 84 27 5 85 11 5 86 20 6 87 11 6 88 17 6 89 12 1 90 20 1 91 17 1 92 12 5 93 17 5 94 25 5 95 12 1 96 25 1 97 24 1 98 12 1 99 24 1 100 14 1 101 24 0 102 15 0 103 14 0 104 14 7 105 15 7 106 5 7 107 22 1 108 14 1 109 5 1 110 17 1 111 11 1 112 27 1 113 5 1 114 15 1 115 24 1 116 22 1 117 26 1 118 27 1 119 20 2 120 18 2 121 19 2 122 8 3 123 14 3 124 22 3 125 37 4 126 41 4 127 32 4 128 0 4 129 33 4 130 38 4 131 33 4 132 40 4 133 38 4 134 37 4 135 32 4 136 12 4 137 36 4 138 37 4 139 12 4 140 8 8 141 0 8 142 39 8 143 0 4 144 38 4 145 39 4 146 36 9 147 12 9 148 14 9 149 8 4 150 39 4 151 36 4 152 10 0 153 33 0 154 0 0 155 12 0 156 32 0 157 9 0 158 9 4 159 10 4 160 0 4 161 32 0 162 33 0 163 10 0 164 18 5 165 0 5 166 8 5 167 13 4 168 16 4 169 31 4 170 21 1 171 23 1 172 16 1 173 21 2 174 28 2 175 30 2 176 21 0 177 13 0 178 29 0 179 16 0 180 23 0 181 30 0 182 30 5 183 28 5 184 29 5 185 26 1 186 24 1 187 25 1 188 33 4 195 32 4 196 41 4 197 6 1 222 4 1 223 39 1 224 1 5 225 2 5 226 37 5 227 4 0 228 1 0 229 36 0 230 37 3 231 2 3 232 41 3 233 2 3 234 6 3 235 41 3 236 6 3 237 38 3 238 40 3 239</p>
        </triangles>
        <triangles material="screen-material" count="14">
          <input semantic="VERTEX" source="#Cube-mesh-vertices" offset="0"/>
          <input semantic="NORMAL" source="#Cube-mesh-normals" offset="1"/>
          <input semantic="TEXCOORD" source="#Cube-mesh-map-0" offset="2" set="0"/>
          <p>7 4 54 43 4 55 42 4 56 35 4 57 42 4 58 43 4 59 4 4 63 7 4 64 42 4 65 43 4 66 34 4 67 6 4 68 7 4 189 34 4 190 43 4 191 35 0 192 3 0 193 42 0 194 42 4 198 3 4 199 1 4 200 1 4 201 4 4 202 42 4 203 1 10 204 3 10 205 35 10 206 2 11 207 1 11 208 35 11 209 7 4 210 4 4 211 34 4 212 4 4 213 6 4 214 34 4 215 6 4 216 2 4 217 43 4 218 2 4 219 35 4 220 43 4 221</p>
        </triangles>
      </mesh>
    </geometry>
  </library_geometries>
  <library_visual_scenes>
    <visual_scene id="Scene" name="Scene">
      <node id="Cube_pair" name="Cube_pair" type="NODE">
        <matrix sid="transform">1 0 0 0 0 1 0 -0.5 0 0 1 0.75 0 0 0 1</matrix>
        <instance_geometry url="#Cube_008-mesh" name="Cube_pair">
          <bind_material>
            <technique_common>
              <instance_material symbol="black_stainless-material" target="#black_stainless-material">
                <bind_vertex_input semantic="UVMap" input_semantic="TEXCOORD" input_set="0"/>
              </instance_material>
              <instance_material symbol="screen-material" target="#screen-material">
                <bind_vertex_input semantic="UVMap" input_semantic="TEXCOORD" input_set="0"/>
              </instance_material>
            </technique_common>
          </bind_material>
        </instance_geometry>
      </node>
      <node id="Cube_001" name="Cube.001" type="NODE">
        <matrix sid="transform">0.255 0 0 0.5099999 0 0.235 0 0 0 0 0.34 -0.2949999 0 0 0 1</matrix>
        <instance_geometry url="#Cube_001-mesh" name="Cube.001">
          <bind_material>
            <technique_common>
              <instance_material symbol="black_stainless-material" target="#black_stainless-material">
                <bind_vertex_input semantic="UVMap" input_semantic="TEXCOORD" input_set="0"/>
              </instance_material>
              <instance_material symbol="screen-material" target="#screen-material">
                <bind_vertex_input semantic="UVMap" input_semantic="TEXCOORD" input_set="0"/>
              </instance_material>
            </technique_common>
          </bind_material>
        </instance_geometry>
      </node>
      <node id="Cube_big" name="Cube_big" type="NODE">
        <matrix sid="transform">0.255 0 0 0 0 0.235 0 0 0 0 0.635 0 0 0 0 1</matrix>
        <instance_geometry url="#Cube-mesh" name="Cube_big">
          <bind_material>
            <technique_common>
              <instance_material symbol="black_stainless-material" target="#black_stainless-material">
                <bind_vertex_input semantic="UVMap" input_semantic="TEXCOORD" input_set="0"/>
              </instance_material>
              <instance_material symbol="screen-material" target="#screen-material">
                <bind_vertex_input semantic="UVMap" input_semantic="TEXCOORD" input_set="0"/>
              </instance_material>
            </technique_common>
          </bind_material>
        </instance_geometry>
      </node>
    </visual_scene>
  </library_visual_scenes>
  <scene>
    <instance_visual_scene url="#Scene"/>
  </scene>
</COLLADA>