<?xml version="1.0" encoding="utf-8"?>
<COLLADA xmlns="http://www.collada.org/2005/11/COLLADASchema" version="1.4.1" xmlns:xsi="http://www.w3.org/2001/XMLSchema-instance">
  <asset>
    <contributor>
      <author>Blender User</author>
      <authoring_tool>Blender 3.6.23 commit date:2025-06-16, commit time:11:52, hash:e467db79ca8c</authoring_tool>
    </contributor>
    <created>2026-06-18T15:52:56</created>
    <modified>2026-06-18T15:52:56</modified>
    <unit name="meter" meter="1"/>
    <up_axis>Z_UP</up_axis>
  </asset>
  <library_effects>
    <effect id="g_pad-effect">
      <profile_COMMON>
        <technique sid="common">
          <lambert>
            <emission>
              <color sid="emission">0 0 0 1</color>
            </emission>
            <diffuse>
              <color sid="diffuse">0.04 0.04 0.04 1</color>
            </diffuse>
            <index_of_refraction>
              <float sid="ior">1.45</float>
            </index_of_refraction>
          </lambert>
        </technique>
      </profile_COMMON>
    </effect>
    <effect id="g_metal-effect">
      <profile_COMMON>
        <technique sid="common">
          <lambert>
            <emission>
              <color sid="emission">0 0 0 1</color>
            </emission>
            <diffuse>
              <color sid="diffuse">0.6 0.62 0.65 1</color>
            </diffuse>
            <reflectivity>
              <float sid="specular">0.9</float>
            </reflectivity>
            <index_of_refraction>
              <float sid="ior">1.45</float>
            </index_of_refraction>
          </lambert>
        </technique>
      </profile_COMMON>
    </effect>
    <effect id="g_dark-effect">
      <profile_COMMON>
        <technique sid="common">
          <lambert>
            <emission>
              <color sid="emission">0 0 0 1</color>
            </emission>
            <diffuse>
              <color sid="diffuse">0.11 0.11 0.12 1</color>
            </diffuse>
            <reflectivity>
              <float sid="specular">0.5</float>
            </reflectivity>
            <index_of_refraction>
              <float sid="ior">1.45</float>
            </index_of_refraction>
          </lambert>
        </technique>
      </profile_COMMON>
    </effect>
  </library_effects>
  <library_images/>
  <library_materials>
    <material id="g_pad-material" name="g_pad">
      <instance_effect url="#g_pad-effect"/>
    </material>
    <material id="g_metal-material" name="g_metal">
      <instance_effect url="#g_metal-effect"/>
    </material>
    <material id="g_dark-material" name="g_dark">
      <instance_effect url="#g_dark-effect"/>
    </material>
  </library_materials>
  <library_geometries>
    <geometry id="Cube_099-mesh" name="Cube.099">
      <mesh>
        <source id="Cube_099-mesh-positions">
          <float_array id="Cube_099-mesh-positions-array" count="24">0.08939999 -0.03999996 0.05799996 0.08939999 -0.03999996 0.1019999 0.08939999 0.03999996 0.05799996 0.08939999 0.03999996 0.1019999 0.09439998 -0.03999996 0.05799996 0.09439998 -0.03999996 0.1019999 0.09439998 0.03999996 0.05799996 0.09439998 0.03999996 0.1019999</float_array>
          <technique_common>
            <accessor source="#Cube_099-mesh-positions-array" count="8" stride="3">
              <param name="X" type="float"/>
              <param name="Y" type="float"/>
              <param name="Z" type="float"/>
            </accessor>
          </technique_common>
        </source>
        <source id="Cube_099-mesh-normals">
          <float_array id="Cube_099-mesh-normals-array" count="18">-1 0 0 0 1 0 1 0 0 0 -1 0 0 0 -1 0 0 1</float_array>
          <technique_common>
            <accessor source="#Cube_099-mesh-normals-array" count="6" stride="3">
              <param name="X" type="float"/>
              <param name="Y" type="float"/>
              <param name="Z" type="float"/>
            </accessor>
          </technique_common>
        </source>
        <source id="Cube_099-mesh-map-0">
          <float_array id="Cube_099-mesh-map-0-array" count="72">0.625 0 0.375 0.25 0.375 0 0.625 0.25 0.375 0.5 0.375 0.25 0.625 0.5 0.375 0.75 0.375 0.5 0.625 0.75 0.375 1 0.375 0.75 0.375 0.5 0.125 0.75 0.125 0.5 0.875 0.5 0.625 0.75 0.625 0.5 0.625 0 0.625 0.25 0.375 0.25 0.625 0.25 0.625 0.5 0.375 0.5 0.625 0.5 0.625 0.75 0.375 0.75 0.625 0.75 0.625 1 0.375 1 0.375 0.5 0.375 0.75 0.125 0.75 0.875 0.5 0.875 0.75 0.625 0.75</float_array>
          <technique_common>
            <accessor source="#Cube_099-mesh-map-0-array" count="36" stride="2">
              <param name="S" type="float"/>
              <param name="T" type="float"/>
            </accessor>
          </technique_common>
        </source>
        <vertices id="Cube_099-mesh-vertices">
          <input semantic="POSITION" source="#Cube_099-mesh-positions"/>
        </vertices>
        <triangles material="g_pad-material" count="12">
          <input semantic="VERTEX" source="#Cube_099-mesh-vertices" offset="0"/>
          <input semantic="NORMAL" source="#Cube_099-mesh-normals" offset="1"/>
          <input semantic="TEXCOORD" source="#Cube_099-mesh-map-0" offset="2" set="0"/>
          <p>1 0 0 2 0 1 0 0 2 3 1 3 6 1 4 2 1 5 7 2 6 4 2 7 6 2 8 5 3 9 0 3 10 4 3 11 6 4 12 0 4 13 2 4 14 3 5 15 5 5 16 7 5 17 1 0 18 3 0 19 2 0 20 3 1 21 7 1 22 6 1 23 7 2 24 5 2 25 4 2 26 5 3 27 1 3 28 0 3 29 6 4 30 4 4 31 0 4 32 3 5 33 1 5 34 5 5 35</p>
        </triangles>
      </mesh>
    </geometry>
    <geometry id="Cube_088-mesh" name="Cube.088">
      <mesh>
        <source id="Cube_088-mesh-positions">
          <float_array id="Cube_088-mesh-positions-array" count="201">0.04049998 -0.04559999 0.05499994 0.04049998 -0.04559999 0.115 0.04049998 0.04559999 0.05499994 0.04049998 0.04559999 0.115 0.0532 -0.04559999 0.05499994 0.0532 -0.04559999 0.105 0.0532 -0.04559999 0.115 0.05319994 -0.04559999 0.115 0.0532 0.04559999 0.105 0.0532 0.04559999 0.05499994 0.05319994 0.04559999 0.115 0.0532 0.04559999 0.115 0.04049998 0.04559999 0.105 0.05319994 0.04559999 0.105 0.04049998 -0.04559999 0.105 0.05319994 -0.04559999 0.105 0.04165452 -0.04559999 0.105 0.04049998 -0.04559999 0.1087555 0.05319994 0.04559999 0.1121742 0.05287092 0.04559999 0.1121501 0.0412271 -0.04559999 0.1087023 0.0532 -0.04559999 0.115 0.04049998 0.04559999 0.115 0.05319994 0.04559999 0.115 0.0532 0.04559999 0.115 0.04049998 0.04559999 0.105 0.0532 0.04559999 0.105 0.05319994 0.04559999 0.105 0.04049998 -0.04559999 0.105 0.05319994 0.04559999 0.1121742 0.0532 -0.04559999 0.115 0.04049998 -0.04559999 0.115 0.05319994 -0.04559999 0.115 0.04049998 -0.04559999 0.105 0.0532 -0.04559999 0.105 0.05319994 -0.04559999 0.105 0.04049998 -0.04559999 0.1087555 0.0532 -0.04559999 0.115 0.0532 0.04559999 0.115 0.04049998 -0.04559999 0.105 0.04049998 0.04559999 0.105 -0.05042219 0.04559999 0.115 -0.05042219 0.04559999 0.115 -0.06312221 0.04559999 0.115 -0.05042219 0.04559999 0.115 -0.1484222 0.04559999 0.115 -0.06312221 0.04559999 0.105 -0.05042219 0.04559999 0.105 -0.05042219 0.04559999 0.105 -0.1484222 0.04559999 0.105 -0.1484222 0.04559999 0.105 -0.05042219 0.04559999 0.1121742 -0.06312221 0.04559999 0.105 -0.1484222 -0.04559999 0.105 -0.1484222 -0.04559999 0.115 -0.1484222 -0.04559999 0.105 -0.05042219 -0.04559999 0.115 -0.06312221 -0.04559999 0.115 -0.05042219 -0.04559999 0.115 -0.06312221 -0.04559999 0.105 -0.05042219 -0.04559999 0.105 -0.05042219 -0.04559999 0.105 -0.06312221 -0.04559999 0.1087555 -0.1484222 -0.04559999 0.115 -0.1484222 0.04559999 0.115 -0.05042219 -0.04559999 0.115 -0.06312221 -0.04559999 0.105</float_array>
          <technique_common>
            <accessor source="#Cube_088-mesh-positions-array" count="67" stride="3">
              <param name="X" type="float"/>
              <param name="Y" type="float"/>
              <param name="Z" type="float"/>
            </accessor>
          </technique_common>
        </source>
        <source id="Cube_088-mesh-normals">
          <float_array id="Cube_088-mesh-normals-array" count="42">0 0 1 0 1 0 1 0 0 0 -1 0 0 0 -1 -1 0 0 1 0 0 0 -0.8431298 0.5377102 -1 0 0 0 1 -5.0258e-7 0 -1 4.54854e-7 0 1 0 0 -1 0 0 -0.980432 -0.1968583</float_array>
          <technique_common>
            <accessor source="#Cube_088-mesh-normals-array" count="14" stride="3">
              <param name="X" type="float"/>
              <param name="Y" type="float"/>
              <param name="Z" type="float"/>
            </accessor>
          </technique_common>
        </source>
        <source id="Cube_088-mesh-map-0">
          <float_array id="Cube_088-mesh-map-0-array" count="780">0.375 0.75 0.3043558 0.75 0.3043558 0.75 0.4688873 0.8438873 0.375 0.8438873 0.375 0.8438873 0.5543559 0.4293558 0.5537537 0.4287536 0.625 0.4293558 0.5537537 0.4287536 0.5543559 0.4293558 0.375 0.4293558 0.625 0.5 0.375 0.75 0.375 0.5 0.625 0.75 0.625 0.75 0.625 0.75 0.375 0.8438873 0.4675564 0.8425565 0.4688873 0.8438873 0.625 0.8438873 0.4688873 0.8438873 0.4675564 0.8425565 0.375 0.75 0.3043558 0.5 0.375 0.5 0.625 0.4293558 0.5543559 0.4293558 0.5543559 0.4293558 0.375 0.5 0.625 0.5 0.625 0.5 0.375 0.25 0.6022727 0 0.6022727 0.25 0.375 0.5 0.6022727 0.25 0.6022727 0.5 0.375 0.75 0.6022727 0.5 0.6022727 0.75 0.375 0.75 0.6022727 0.75 0.6022727 0.9772727 0.375 0.5 0.125 0.75 0.125 0.5 0.625 0.8206443 0.625 0.8438873 0.625 0.8438873 0.3043558 0.75 0.375 0.75 0.3043558 0.75 0.625 0.5 0.625 0.75 0.625 0.75 0.6022727 0 0.6022727 0 0.6022727 0 0.5543559 0.4293558 0.375 0.4293558 0.375 0.4293558 0.625 0.5 0.625 0.75 0.625 0.75 0.375 0.4061127 0.625 0.4061127 0.625 0.4061127 0.625 0.4061127 0.625 0.4293558 0.625 0.4293558 0.6022727 0 0.6022727 0.25 0.6022727 0.25 0.3043558 0.5 0.375 0.5 0.375 0.5 0.625 0.4061127 0.625 0.4293558 0.625 0.4293558 0.375 0.5 0.625 0.5 0.625 0.5 0.6022727 0 0.6022727 0.25 0.6022727 0.25 0.625 0.8438873 0.625 0.8206443 0.625 0.8438873 0.6022727 0.25 0.6022727 0.25 0.6022727 0.25 0.5543559 0.4293558 0.375 0.4293558 0.375 0.4293558 0.625 0.75 0.375 0.75 0.375 0.75 0.625 0.5 0.625 0.5 0.625 0.5 0.625 0.5 0.625 0.75 0.625 0.75 0.4688873 0.8438873 0.375 0.8438873 0.375 0.8438873 0.625 0.75 0.375 0.75 0.375 0.75 0.6022727 0 0.6022727 0.25 0.6022727 0.25 0.625 0.8438873 0.4688873 0.8438873 0.4688873 0.8438873 0.375 0.8206442 0.625 0.8206443 0.625 0.8206443 0.625 0.4061127 0.625 0.25 0.625 0.5 0.375 0.4061127 0.375 0.25 0.375 0.25 0.625 1 0.375 1 0.375 1 0.375 1 0.375 0.8438873 0.375 0.8438873 0.625 0.75 0.625 1 0.625 0.8438873 0.625 0 0.375 0.25 0.375 0 0.125 0.75 0.2811127 0.5 0.2811127 0.75 0.875 0.5 0.625 0.75 0.625 0.5 0.625 0.75 0.625 1 0.625 1 0.375 0.25 0.625 0.25 0.625 0.25 0.625 0.25 0.625 0.5 0.625 0.5 0.6022727 0 0.6022727 0 0.6022727 0 0.625 0.8438873 0.4688873 0.8438873 0.4688873 0.8438873 0.375 0.4061127 0.625 0.4061127 0.625 0.4061127 0.625 0.4293558 0.5543559 0.4293558 0.5543559 0.4293558 0.375 0.8206442 0.625 0.8206443 0.625 0.8206443 0.625 0.75 0.625 0.75 0.625 0.75 0.3043558 0.5 0.375 0.5 0.375 0.5 0.375 0.75 0.375 0.75 0.3043558 0.75 0.4688873 0.8438873 0.4688873 0.8438873 0.375 0.8438873 0.375 0.4293558 0.375 0.4061127 0.5537537 0.4287536 0.375 0.4061127 0.625 0.4061127 0.5537537 0.4287536 0.625 0.4061127 0.625 0.4293558 0.5537537 0.4287536 0.625 0.5 0.625 0.75 0.375 0.75 0.625 0.75 0.625 0.75 0.625 0.75 0.375 0.8438873 0.375 0.8417742 0.4675564 0.8425565 0.4675564 0.8425565 0.375 0.8417742 0.375 0.8206442 0.375 0.8206442 0.625 0.8206443 0.4675564 0.8425565 0.625 0.8206443 0.625 0.8438873 0.4675564 0.8425565 0.375 0.75 0.3043558 0.75 0.3043558 0.5 0.625 0.4293558 0.625 0.4293558 0.5543559 0.4293558 0.375 0.5 0.375 0.5 0.625 0.5 0.375 0.25 0.375 0 0.6022727 0 0.375 0.5 0.375 0.25 0.6022727 0.25 0.375 0.75 0.375 0.5 0.6022727 0.5 0.6022727 0.9772727 0.6022727 1 0.375 1 0.375 1 0.375 0.75 0.6022727 0.9772727 0.375 0.5 0.375 0.75 0.125 0.75 0.625 0.8206443 0.625 0.8206443 0.625 0.8438873 0.3043558 0.75 0.375 0.75 0.375 0.75 0.625 0.5 0.625 0.5 0.625 0.75 0.6022727 0 0.6022727 0 0.6022727 0 0.5543559 0.4293558 0.5543559 0.4293558 0.375 0.4293558 0.625 0.5 0.625 0.5 0.625 0.75 0.375 0.4061127 0.375 0.4061127 0.625 0.4061127 0.625 0.4061127 0.625 0.4061127 0.625 0.4293558 0.6022727 0 0.6022727 0 0.6022727 0.25 0.3043558 0.5 0.3043558 0.5 0.375 0.5 0.625 0.4061127 0.625 0.4061127 0.625 0.4293558 0.375 0.5 0.375 0.5 0.625 0.5 0.6022727 0 0.6022727 0 0.6022727 0.25 0.625 0.8438873 0.625 0.8206443 0.625 0.8206443 0.6022727 0.25 0.6022727 0.25 0.6022727 0.25 0.5543559 0.4293558 0.5543559 0.4293558 0.375 0.4293558 0.625 0.75 0.625 0.75 0.375 0.75 0.625 0.5 0.625 0.5 0.625 0.5 0.625 0.5 0.625 0.5 0.625 0.75 0.4688873 0.8438873 0.4688873 0.8438873 0.375 0.8438873 0.625 0.75 0.625 0.75 0.375 0.75 0.6022727 0 0.6022727 0 0.6022727 0.25 0.625 0.8438873 0.625 0.8438873 0.4688873 0.8438873 0.375 0.8206442 0.375 0.8206442 0.625 0.8206443 0.625 0.4061127 0.375 0.4061127 0.375 0.25 0.625 0.5 0.375 0.5 0.5543559 0.4293558 0.375 0.5 0.375 0.4293558 0.5543559 0.4293558 0.625 0.4061127 0.375 0.25 0.625 0.25 0.625 0.5 0.5543559 0.4293558 0.625 0.4293558 0.625 0.4293558 0.625 0.4061127 0.625 0.5 0.375 0.4061127 0.375 0.4061127 0.375 0.25 0.625 1 0.625 1 0.375 1 0.375 1 0.375 1 0.375 0.8438873 0.375 0.8206442 0.375 0.75 0.625 0.8206443 0.375 0.75 0.625 0.75 0.625 0.8206443 0.625 1 0.375 1 0.4688873 0.8438873 0.375 1 0.375 0.8438873 0.4688873 0.8438873 0.625 1 0.4688873 0.8438873 0.625 0.8438873 0.625 0.8438873 0.625 0.8206443 0.625 0.75 0.625 0 0.625 0.25 0.375 0.25 0.125 0.75 0.125 0.5 0.2811127 0.5 0.875 0.5 0.875 0.75 0.625 0.75 0.625 0.75 0.625 0.75 0.625 1 0.375 0.25 0.375 0.25 0.625 0.25 0.625 0.25 0.625 0.25 0.625 0.5 0.6022727 0 0.6022727 0 0.6022727 0 0.625 0.8438873 0.625 0.8438873 0.4688873 0.8438873 0.375 0.4061127 0.375 0.4061127 0.625 0.4061127 0.625 0.4293558 0.625 0.4293558 0.5543559 0.4293558 0.375 0.8206442 0.375 0.8206442 0.625 0.8206443 0.625 0.75 0.625 0.75 0.625 0.75 0.3043558 0.5 0.3043558 0.5 0.375 0.5</float_array>
          <technique_common>
            <accessor source="#Cube_088-mesh-map-0-array" count="390" stride="2">
              <param name="S" type="float"/>
              <param name="T" type="float"/>
            </accessor>
          </technique_common>
        </source>
        <vertices id="Cube_088-mesh-vertices">
          <input semantic="POSITION" source="#Cube_088-mesh-positions"/>
        </vertices>
        <triangles material="g_metal-material" count="130">
          <input semantic="VERTEX" source="#Cube_088-mesh-vertices" offset="0"/>
          <input semantic="NORMAL" source="#Cube_088-mesh-normals" offset="1"/>
          <input semantic="TEXCOORD" source="#Cube_088-mesh-map-0" offset="2" set="0"/>
          <p>5 0 0 35 0 1 15 0 2 17 0 3 33 0 4 14 0 5 18 1 6 19 1 7 10 1 8 19 1 9 18 1 10 13 1 11 11 2 12 5 2 13 8 2 14 21 0 15 30 0 16 6 0 17 14 3 18 20 3 19 17 3 20 1 3 21 17 3 22 20 3 23 5 4 24 13 4 25 8 4 26 10 0 27 29 0 28 18 0 29 8 0 30 24 0 31 11 0 32 2 5 33 14 5 34 12 5 35 9 1 36 12 1 37 13 1 38 4 6 39 13 6 40 15 6 41 4 3 42 15 3 43 16 3 44 9 4 45 0 4 46 2 4 47 7 0 48 31 0 49 1 0 50 35 0 51 60 0 52 61 0 53 24 0 54 37 0 55 21 0 56 14 0 57 39 0 58 28 0 59 18 0 60 27 0 61 13 0 62 11 0 63 21 0 64 6 0 65 12 0 66 22 0 67 3 0 68 22 0 69 44 0 70 23 0 71 14 0 72 25 0 73 12 0 74 13 0 75 26 0 76 8 0 77 3 0 78 23 0 79 10 0 80 26 1 81 41 1 82 24 1 83 39 4 84 52 4 85 40 4 86 31 0 87 58 0 88 57 0 89 40 0 90 46 0 91 25 0 92 29 3 93 48 3 94 27 3 95 30 3 96 60 3 97 34 3 98 24 0 99 42 0 100 38 0 101 38 0 102 65 0 103 37 0 104 36 3 105 59 3 106 33 3 107 6 0 108 34 0 109 5 0 110 28 0 111 40 0 112 25 0 113 1 0 114 36 0 115 17 0 116 15 0 117 32 0 118 7 0 119 43 1 120 45 1 121 41 1 122 46 0 123 49 0 124 50 0 125 54 0 126 55 0 127 53 0 128 53 0 129 66 0 130 59 0 131 56 7 132 54 7 133 57 7 134 63 8 135 49 8 136 55 8 137 55 4 138 52 4 139 66 4 140 64 0 141 65 0 142 42 0 143 56 0 144 63 0 145 54 0 146 50 0 147 64 0 148 45 0 149 45 0 150 42 0 151 41 0 152 33 0 153 66 0 154 39 0 155 31 3 156 62 3 157 36 3 158 25 1 159 43 1 160 22 1 161 23 3 162 51 3 163 29 3 164 35 1 165 58 1 166 32 1 167 37 0 168 56 0 169 30 0 170 27 0 171 47 0 172 26 0 173 5 0 174 34 0 175 35 0 176 17 0 177 36 0 178 33 0 179 13 1 180 12 1 181 19 1 182 12 1 183 3 1 184 19 1 185 3 9 186 10 9 187 19 9 188 11 2 189 6 2 190 5 2 191 21 0 192 37 0 193 30 0 194 14 3 195 16 3 196 20 3 197 20 3 198 16 3 199 15 3 200 15 3 201 7 3 202 20 3 203 7 10 204 1 10 205 20 10 206 5 4 207 15 4 208 13 4 209 10 0 210 23 0 211 29 0 212 8 0 213 26 0 214 24 0 215 2 5 216 0 5 217 14 5 218 9 11 219 2 11 220 12 11 221 4 6 222 9 6 223 13 6 224 16 12 225 14 12 226 0 12 227 0 3 228 4 3 229 16 3 230 9 4 231 4 4 232 0 4 233 7 0 234 32 0 235 31 0 236 35 0 237 34 0 238 60 0 239 24 0 240 38 0 241 37 0 242 14 0 243 33 0 244 39 0 245 18 0 246 29 0 247 27 0 248 11 0 249 24 0 250 21 0 251 12 0 252 25 0 253 22 0 254 22 0 255 43 0 256 44 0 257 14 0 258 28 0 259 25 0 260 13 0 261 27 0 262 26 0 263 3 0 264 22 0 265 23 0 266 26 1 267 47 1 268 41 1 269 39 4 270 66 4 271 52 4 272 31 0 273 32 0 274 58 0 275 40 0 276 52 0 277 46 0 278 29 3 279 51 3 280 48 3 281 30 3 282 56 3 283 60 3 284 24 0 285 41 0 286 42 0 287 38 0 288 42 0 289 65 0 290 36 3 291 62 3 292 59 3 293 6 0 294 30 0 295 34 0 296 28 0 297 39 0 298 40 0 299 1 0 300 31 0 301 36 0 302 15 0 303 35 0 304 32 0 305 43 1 306 46 1 307 50 1 308 41 1 309 47 1 310 51 1 311 47 1 312 48 1 313 51 1 314 43 1 315 50 1 316 45 1 317 41 1 318 51 1 319 44 1 320 44 1 321 43 1 322 41 1 323 46 0 324 52 0 325 49 0 326 54 0 327 63 0 328 55 0 329 53 0 330 55 0 331 66 0 332 61 0 333 60 0 334 58 0 335 60 3 336 56 3 337 58 3 338 54 3 339 53 3 340 62 3 341 53 3 342 59 3 343 62 3 344 54 3 345 62 3 346 57 3 347 57 13 348 58 13 349 56 13 350 63 8 351 64 8 352 49 8 353 55 4 354 49 4 355 52 4 356 64 0 357 63 0 358 65 0 359 56 0 360 65 0 361 63 0 362 50 0 363 49 0 364 64 0 365 45 0 366 64 0 367 42 0 368 33 0 369 59 0 370 66 0 371 31 3 372 57 3 373 62 3 374 25 1 375 46 1 376 43 1 377 23 3 378 44 3 379 51 3 380 35 1 381 61 1 382 58 1 383 37 0 384 65 0 385 56 0 386 27 0 387 48 0 388 47 0 389</p>
        </triangles>
      </mesh>
    </geometry>
    <geometry id="Cube_071-mesh" name="Cube.071">
      <mesh>
        <source id="Cube_071-mesh-positions">
          <float_array id="Cube_071-mesh-positions-array" count="282">-0.15 -0.07499998 0.1029 -0.15 -0.07499998 0.1229 -0.15 0.07499998 0.1029 -0.15 0.07499998 0.1229 0.15 0.07499998 0.1229 0.15 0.07499998 0.1229 0.15 -0.07499998 0.1229 0.15 -0.07499998 0.1229 -0.15 0.07499998 0.1029 -0.15 -0.07499998 0.1029 -0.15 -0.07499998 0.1229 -0.15 0.07499998 0.1229 0.15 -0.07499998 0.1029 0.15 0.07499998 0.1029 0.15 -0.07499998 0.1029 0.15 -0.07499998 0.1229 -0.15 0.07499998 0.1229 -0.15 -0.07499998 0.1229 -0.15 -0.07499998 0.1029 -0.15 0.07499998 0.1029 -0.15 0.07499998 0.1229 -0.15 -0.07499998 0.1229 -0.15 -0.07499998 0.1029 -0.15 0.07499998 0.1029 0.15 -0.07499998 0.1229 0.15 0.07499998 0.1029 0.15 0.07499998 0.1229 0.15 0.07499998 0.1229 0.15 -0.07499998 0.1229 0.15 -0.07499998 0.1029 0.15 0.07499998 0.1229 0.15 0.07499998 0.1029 -0.15 0.07499998 0.1029 -0.15 0.07499998 0.1229 0.15 0.07499998 0.1029 0.15 0.07499998 0.1229 0.15 -0.07499998 0.1029 -0.15 -0.07499998 0.1029 -0.15 -0.07499998 0.1229 0.15 -0.07499998 0.1229 -0.15 -0.07499998 0.1029 -0.15 -0.07499998 0.1229 -0.15 0.07499998 0.1029 -0.15 0.07499998 0.1229 0.15 -0.07499998 0.1229 0.15 -0.07499998 0.1029 0.15 -0.07499998 0.1229 0.15 -0.07499998 0.1229 0.15 -0.07499998 0.1029 0.15 -0.07499998 0.1029 0.15 -0.07499998 0.1229 0.15 0.07499998 0.1229 0.15 -0.07499998 0.1229 0.15 0.07499998 0.1229 0.15 -0.07499998 0.1229 0.15 0.07499998 0.1229 0.15 -0.07499998 0.1229 0.15 0.07499998 0.1229 0.15 0.07499998 0.1229 0.15 0.07499998 0.1029 0.15 -0.07499998 0.1229 0.15 -0.07499998 0.1029 0.15 -0.07499998 0.1029 0.15 -0.07499998 0.1229 0.15 0.07499998 0.1029 0.15 0.07499998 0.1229 0.15 -0.07499998 0.1229 0.15 -0.07499998 0.1229 0.15 0.07499998 0.1229 0.15 0.07499998 0.1229 0.15 0.07499998 0.1229 0.15 0.07499998 0.1229 0.15 0.07499998 0.1029 0.15 0.07499998 0.1029 0.15 -0.07499998 0.1229 0.15 -0.07499998 0.1229 0.15 -0.07499998 0.1029 0.15 -0.07499998 0.1029 0.15 -0.07499998 0.1029 0.15 -0.07499998 0.1029 0.15 0.07499998 0.1029 0.15 0.07499998 0.1029 0.15 -0.07499998 0.1029 0.15 -0.07499998 0.1229 0.15 0.07499998 0.1029 0.15 0.07499998 0.1229 0.15 -0.07499998 0.1229 0.15 0.07499998 0.1029 0.15 0.07499998 0.1229 0.15 -0.07499998 0.1029 0.1748337 0.07499998 0.1229 0.1748337 0.07499998 0.1029 0.1748337 -0.07499998 0.1029 0.1748337 -0.07499998 0.1229</float_array>
          <technique_common>
            <accessor source="#Cube_071-mesh-positions-array" count="94" stride="3">
              <param name="X" type="float"/>
              <param name="Y" type="float"/>
              <param name="Z" type="float"/>
            </accessor>
          </technique_common>
        </source>
        <source id="Cube_071-mesh-normals">
          <float_array id="Cube_071-mesh-normals-array" count="18">1 0 0 0 0 1 -1 0 0 0 0 -1 0 -1 0 0 1 0</float_array>
          <technique_common>
            <accessor source="#Cube_071-mesh-normals-array" count="6" stride="3">
              <param name="X" type="float"/>
              <param name="Y" type="float"/>
              <param name="Z" type="float"/>
            </accessor>
          </technique_common>
        </source>
        <source id="Cube_071-mesh-map-0">
          <float_array id="Cube_071-mesh-map-0-array" count="1080">0.375 0.25 0.625 0 0.375 0 0.625 0.75 0.625 0.75 0.625 0.75 0.375 0.5 0.625 0.5 0.625 0.5 0.625 0.5 0.625 0.75 0.625 0.75 0.625 0.75 0.625 0.75 0.625 0.75 0.625 0 0.375 0.25 0.375 0 0.625 0.5 0.625 0.5 0.625 0.5 0.625 0.75 0.625 0.75 0.625 0.75 0.375 0.75 0.375 0.5 0.375 0.5 0.625 0.75 0.625 0.5 0.625 0.5 0.625 0.75 0.375 0.75 0.375 0.75 0.375 0.5 0.375 0.75 0.375 0.75 0.375 0.5 0.625 0.5 0.625 0.5 0.625 0.5 0.625 0.75 0.625 0.75 0.625 0.75 0.625 0.5 0.625 0.5 0.625 0.5 0.375 0.5 0.375 0.5 0.875 0.5 0.625 0.75 0.625 0.5 0.375 0.5 0.125 0.75 0.125 0.5 0.375 0.5 0.625 0.25 0.375 0.25 0.375 1 0.625 0.75 0.375 0.75 0.125 0.75 0.375 0.5 0.125 0.5 0.625 0.75 0.875 0.5 0.625 0.5 0.625 0.25 0.375 0.5 0.375 0.25 0.625 0.75 0.375 1 0.375 0.75 0.375 0.25 0.625 0.25 0.625 0.25 0.625 0 0.625 0.25 0.625 0.25 0.375 0 0.375 0.25 0.375 0.25 0.625 0.25 0.625 0 0.625 0 0.375 0 0.625 0 0.625 0 0.625 0.25 0.375 0.25 0.375 0.25 0.625 0 0.375 0 0.375 0 0.375 0.25 0.375 0 0.375 0 0.375 0.75 0.375 0.75 0.375 0.75 0.625 0.75 0.375 0.75 0.375 0.75 0.625 0.75 0.625 0.75 0.625 0.75 0.625 0.75 0.625 0.5 0.625 0.5 0.625 0.5 0.625 0.75 0.625 0.75 0.625 0.75 0.625 0.75 0.625 0.75 0.375 0.75 0.625 0.75 0.625 0.75 0.625 0.5 0.625 0.5 0.625 0.5 0.375 0.75 0.375 0.75 0.375 0.75 0.375 0.75 0.375 0.75 0.375 0.75 0.625 0.5 0.375 0.5 0.375 0.5 0.625 0.75 0.625 0.75 0.625 0.75 0.625 0.5 0.625 0.5 0.625 0.5 0.375 0.75 0.625 0.75 0.625 0.75 0.375 0.75 0.625 0.75 0.625 0.75 0.375 0.75 0.625 0.75 0.625 0.75 0.375 0.75 0.625 0.75 0.625 0.75 0.625 0.75 0.625 0.75 0.625 0.75 0.625 0.75 0.625 0.5 0.625 0.5 0.625 0.5 0.625 0.5 0.625 0.5 0.625 0.5 0.375 0.5 0.375 0.5 0.625 0.75 0.625 0.5 0.625 0.5 0.625 0 0.625 0.25 0.625 0.25 0.375 0.25 0.625 0.25 0.625 0.25 0.375 0.25 0.375 0 0.375 0 0.625 0 0.375 0 0.375 0 0.625 0.25 0.375 0.25 0.375 0.25 0.375 0 0.625 0 0.625 0 0.625 0.25 0.625 0 0.625 0 0.375 0 0.375 0.25 0.375 0.25 0.375 0.5 0.375 0.75 0.375 0.75 0.625 0.75 0.625 0.5 0.625 0.5 0.375 0.75 0.375 0.5 0.375 0.5 0.625 0.75 0.375 0.75 0.375 0.75 0.375 0.5 0.625 0.5 0.625 0.5 0.375 0.75 0.625 0.5 0.375 0.5 0.375 0.5 0.375 0.5 0.375 0.5 0.625 0.5 0.625 0.75 0.625 0.75 0.375 0.75 0.375 0.75 0.375 0.75 0.375 0.5 0.375 0.75 0.375 0.75 0.625 0.5 0.625 0.75 0.625 0.75 0.375 0.5 0.625 0.5 0.625 0.5 0.625 0.75 0.625 0.5 0.625 0.5 0.625 0.75 0.375 0.75 0.375 0.75 0.625 0.5 0.375 0.5 0.375 0.5 0.375 0.75 0.375 0.5 0.375 0.5 0.625 0.5 0.375 0.5 0.375 0.5 0.625 0.75 0.625 0.5 0.625 0.5 0.625 0.5 0.625 0.75 0.625 0.75 0.375 0.5 0.625 0.5 0.625 0.5 0.375 0.5 0.375 0.75 0.375 0.75 0.625 0.75 0.375 0.75 0.375 0.75 0.625 0.5 0.625 0.75 0.625 0.75 0.375 0.75 0.375 0.5 0.375 0.5 0.625 0.5 0.375 0.75 0.375 0.5 0.625 0.5 0.375 0.5 0.375 0.5 0.375 0.75 0.625 0.75 0.625 0.75 0.375 0.5 0.375 0.75 0.375 0.75 0.375 0.25 0.625 0.25 0.625 0 0.625 0.75 0.625 0.75 0.625 0.75 0.375 0.5 0.375 0.5 0.625 0.5 0.625 0.5 0.625 0.5 0.625 0.75 0.625 0.75 0.625 0.75 0.625 0.75 0.625 0 0.625 0.25 0.375 0.25 0.625 0.5 0.625 0.5 0.625 0.5 0.625 0.75 0.625 0.75 0.625 0.75 0.375 0.75 0.375 0.75 0.375 0.5 0.625 0.75 0.625 0.75 0.625 0.5 0.625 0.75 0.625 0.75 0.375 0.75 0.375 0.5 0.375 0.5 0.375 0.75 0.375 0.5 0.375 0.5 0.625 0.5 0.625 0.5 0.625 0.5 0.625 0.75 0.625 0.75 0.625 0.75 0.625 0.5 0.625 0.5 0.625 0.5 0.375 0.5 0.875 0.5 0.875 0.75 0.625 0.75 0.375 0.5 0.375 0.75 0.125 0.75 0.375 0.5 0.625 0.5 0.625 0.25 0.375 1 0.625 1 0.625 0.75 0.125 0.75 0.375 0.75 0.375 0.5 0.625 0.75 0.875 0.75 0.875 0.5 0.625 0.25 0.625 0.5 0.375 0.5 0.625 0.75 0.625 1 0.375 1 0.375 0.25 0.375 0.25 0.625 0.25 0.625 0 0.625 0 0.625 0.25 0.375 0 0.375 0 0.375 0.25 0.625 0.25 0.625 0.25 0.625 0 0.375 0 0.375 0 0.625 0 0.625 0.25 0.625 0.25 0.375 0.25 0.625 0 0.625 0 0.375 0 0.375 0.25 0.375 0.25 0.375 0 0.375 0.75 0.375 0.75 0.375 0.75 0.625 0.75 0.625 0.75 0.375 0.75 0.625 0.75 0.625 0.75 0.625 0.75 0.625 0.75 0.625 0.75 0.625 0.5 0.625 0.5 0.625 0.5 0.625 0.75 0.625 0.75 0.625 0.75 0.625 0.75 0.375 0.75 0.375 0.75 0.625 0.75 0.625 0.5 0.625 0.5 0.625 0.5 0.375 0.75 0.375 0.75 0.375 0.75 0.375 0.75 0.375 0.75 0.375 0.75 0.625 0.5 0.625 0.5 0.375 0.5 0.625 0.75 0.625 0.75 0.625 0.75 0.625 0.5 0.625 0.5 0.625 0.5 0.375 0.75 0.375 0.75 0.625 0.75 0.375 0.75 0.375 0.75 0.625 0.75 0.375 0.75 0.375 0.75 0.625 0.75 0.375 0.75 0.375 0.75 0.625 0.75 0.625 0.75 0.625 0.75 0.625 0.75 0.625 0.75 0.625 0.75 0.625 0.5 0.625 0.5 0.625 0.5 0.625 0.5 0.625 0.5 0.625 0.5 0.375 0.5 0.625 0.75 0.625 0.75 0.625 0.5 0.625 0 0.625 0 0.625 0.25 0.375 0.25 0.375 0.25 0.625 0.25 0.375 0.25 0.375 0.25 0.375 0 0.625 0 0.625 0 0.375 0 0.625 0.25 0.625 0.25 0.375 0.25 0.375 0 0.375 0 0.625 0 0.625 0.25 0.625 0.25 0.625 0 0.375 0 0.375 0 0.375 0.25 0.375 0.5 0.375 0.5 0.375 0.75 0.625 0.75 0.625 0.75 0.625 0.5 0.375 0.75 0.375 0.75 0.375 0.5 0.625 0.75 0.625 0.75 0.375 0.75 0.375 0.5 0.375 0.5 0.625 0.5 0.375 0.75 0.625 0.75 0.625 0.5 0.375 0.5 0.375 0.5 0.375 0.5 0.625 0.5 0.625 0.5 0.625 0.75 0.375 0.75 0.375 0.75 0.375 0.75 0.375 0.5 0.375 0.5 0.375 0.75 0.625 0.5 0.625 0.5 0.625 0.75 0.375 0.5 0.375 0.5 0.625 0.5 0.625 0.75 0.625 0.75 0.625 0.5 0.625 0.75 0.625 0.75 0.375 0.75 0.625 0.5 0.625 0.5 0.375 0.5 0.375 0.75 0.375 0.75 0.375 0.5 0.625 0.5 0.625 0.5 0.375 0.5 0.625 0.75 0.625 0.75 0.625 0.5 0.625 0.5 0.625 0.5 0.625 0.75 0.375 0.5 0.375 0.5 0.625 0.5 0.375 0.5 0.375 0.5 0.375 0.75 0.625 0.75 0.625 0.75 0.375 0.75 0.625 0.5 0.625 0.5 0.625 0.75 0.375 0.75 0.375 0.75 0.375 0.5 0.625 0.5 0.625 0.75 0.375 0.75 0.625 0.5 0.625 0.5 0.375 0.5 0.375 0.75 0.375 0.75 0.625 0.75 0.375 0.5 0.375 0.5 0.375 0.75</float_array>
          <technique_common>
            <accessor source="#Cube_071-mesh-map-0-array" count="540" stride="2">
              <param name="S" type="float"/>
              <param name="T" type="float"/>
            </accessor>
          </technique_common>
        </source>
        <vertices id="Cube_071-mesh-vertices">
          <input semantic="POSITION" source="#Cube_071-mesh-positions"/>
        </vertices>
        <triangles material="g_dark-material" count="180">
          <input semantic="VERTEX" source="#Cube_071-mesh-vertices" offset="0"/>
          <input semantic="NORMAL" source="#Cube_071-mesh-normals" offset="1"/>
          <input semantic="TEXCOORD" source="#Cube_071-mesh-map-0" offset="2" set="0"/>
          <p>2 0 0 1 0 1 0 0 2 15 1 3 44 1 4 83 1 5 73 1 6 65 1 7 70 1 8 69 1 9 6 1 10 66 1 11 83 1 12 60 1 13 75 1 14 10 2 15 8 2 16 9 2 17 69 1 18 57 1 19 4 1 20 67 1 21 50 1 22 7 1 23 36 1 24 13 1 25 34 1 26 75 1 27 58 1 28 71 1 29 39 1 30 12 1 31 36 1 32 31 1 33 14 1 34 29 1 35 34 1 36 26 1 37 35 1 38 35 1 39 24 1 40 39 1 41 28 1 42 27 1 43 30 1 44 30 1 45 25 1 46 31 1 47 43 1 48 28 1 49 30 1 50 31 3 51 40 3 52 42 3 53 34 4 54 33 4 55 32 4 56 37 5 57 39 5 58 36 5 59 37 1 60 34 1 61 32 1 62 39 3 63 33 3 64 35 3 65 43 5 66 31 5 67 42 5 68 28 4 69 40 4 70 29 4 71 2 1 72 20 1 73 3 1 74 10 1 75 16 1 76 11 1 77 0 1 78 23 1 79 2 1 80 3 1 81 21 1 82 1 1 83 9 1 84 17 1 85 10 1 86 11 1 87 19 1 88 8 1 89 1 1 90 22 1 91 0 1 92 8 1 93 18 1 94 9 1 95 77 1 96 61 1 97 76 1 98 74 1 99 62 1 100 77 1 101 66 1 102 52 1 103 67 1 104 7 1 105 51 1 106 5 1 107 70 1 108 63 1 109 74 1 110 28 1 111 47 1 112 15 1 113 29 1 114 46 1 115 28 1 116 68 1 117 55 1 118 69 1 119 82 1 120 48 1 121 14 1 122 14 1 123 49 1 124 29 1 125 71 1 126 59 1 127 72 1 128 6 1 129 54 1 130 66 1 131 5 1 132 53 1 133 68 1 134 48 1 135 44 1 136 47 1 137 45 1 138 60 1 139 44 1 140 61 1 141 63 1 142 60 1 143 49 1 144 47 1 145 46 1 146 52 1 147 56 1 148 50 1 149 50 1 150 57 1 151 51 1 152 51 1 153 55 1 154 53 1 155 58 1 156 64 1 157 59 1 158 60 1 159 65 1 160 58 1 161 17 1 162 43 1 163 16 1 164 23 1 165 33 1 166 20 1 167 19 1 168 40 1 169 18 1 170 21 1 171 37 1 172 22 1 173 16 1 174 42 1 175 19 1 176 18 1 177 41 1 178 17 1 179 20 1 180 38 1 181 21 1 182 22 1 183 32 1 184 23 1 185 72 1 186 77 1 187 76 1 188 74 1 189 90 1 190 70 1 191 79 1 192 81 1 193 80 1 194 67 1 195 78 1 196 79 1 197 80 1 198 5 1 199 68 1 200 78 2 201 5 2 202 81 2 203 72 1 204 64 1 205 73 1 206 68 1 207 66 1 208 67 1 209 76 1 210 45 1 211 82 1 212 84 1 213 76 1 214 82 1 215 85 1 216 67 1 217 86 1 218 87 1 219 68 1 220 85 1 221 83 1 222 71 1 223 88 1 224 86 1 225 79 1 226 89 1 227 88 1 228 72 1 229 84 1 230 89 1 231 80 1 232 87 1 233 27 1 234 84 1 235 25 1 236 15 1 237 88 1 238 27 1 239 26 1 240 86 1 241 24 1 242 13 1 243 85 1 244 26 1 245 25 1 246 82 1 247 14 1 248 24 1 249 89 1 250 12 1 251 4 1 252 56 1 253 6 1 254 12 1 255 87 1 256 13 1 257 90 0 258 92 0 259 91 0 260 70 5 261 91 5 262 73 5 263 77 4 264 93 4 265 74 4 266 73 3 267 92 3 268 77 3 269 2 0 270 3 0 271 1 0 272 15 1 273 47 1 274 44 1 275 73 1 276 64 1 277 65 1 278 69 1 279 4 1 280 6 1 281 83 1 282 44 1 283 60 1 284 10 2 285 11 2 286 8 2 287 69 1 288 55 1 289 57 1 290 67 1 291 52 1 292 50 1 293 36 1 294 12 1 295 13 1 296 75 1 297 60 1 298 58 1 299 39 1 300 24 1 301 12 1 302 31 1 303 25 1 304 14 1 305 34 1 306 13 1 307 26 1 308 35 1 309 26 1 310 24 1 311 28 1 312 15 1 313 27 1 314 30 1 315 27 1 316 25 1 317 43 1 318 41 1 319 28 1 320 31 3 321 29 3 322 40 3 323 34 4 324 35 4 325 33 4 326 37 5 327 38 5 328 39 5 329 37 1 330 36 1 331 34 1 332 39 3 333 38 3 334 33 3 335 43 5 336 30 5 337 31 5 338 28 4 339 41 4 340 40 4 341 2 1 342 23 1 343 20 1 344 10 1 345 17 1 346 16 1 347 0 1 348 22 1 349 23 1 350 3 1 351 20 1 352 21 1 353 9 1 354 18 1 355 17 1 356 11 1 357 16 1 358 19 1 359 1 1 360 21 1 361 22 1 362 8 1 363 19 1 364 18 1 365 77 1 366 62 1 367 61 1 368 74 1 369 63 1 370 62 1 371 66 1 372 54 1 373 52 1 374 7 1 375 50 1 376 51 1 377 70 1 378 65 1 379 63 1 380 28 1 381 46 1 382 47 1 383 29 1 384 49 1 385 46 1 386 68 1 387 53 1 388 55 1 389 82 1 390 45 1 391 48 1 392 14 1 393 48 1 394 49 1 395 71 1 396 58 1 397 59 1 398 6 1 399 56 1 400 54 1 401 5 1 402 51 1 403 53 1 404 48 1 405 45 1 406 44 1 407 45 1 408 61 1 409 60 1 410 61 1 411 62 1 412 63 1 413 49 1 414 48 1 415 47 1 416 52 1 417 54 1 418 56 1 419 50 1 420 56 1 421 57 1 422 51 1 423 57 1 424 55 1 425 58 1 426 65 1 427 64 1 428 60 1 429 63 1 430 65 1 431 17 1 432 41 1 433 43 1 434 23 1 435 32 1 436 33 1 437 19 1 438 42 1 439 40 1 440 21 1 441 38 1 442 37 1 443 16 1 444 43 1 445 42 1 446 18 1 447 40 1 448 41 1 449 20 1 450 33 1 451 38 1 452 22 1 453 37 1 454 32 1 455 72 1 456 73 1 457 77 1 458 74 1 459 93 1 460 90 1 461 79 1 462 78 1 463 81 1 464 67 1 465 7 1 466 78 1 467 80 1 468 81 1 469 5 1 470 78 2 471 7 2 472 5 2 473 72 1 474 59 1 475 64 1 476 68 1 477 69 1 478 66 1 479 76 1 480 61 1 481 45 1 482 84 1 483 72 1 484 76 1 485 85 1 486 68 1 487 67 1 488 87 1 489 80 1 490 68 1 491 83 1 492 75 1 493 71 1 494 86 1 495 67 1 496 79 1 497 88 1 498 71 1 499 72 1 500 89 1 501 79 1 502 80 1 503 27 1 504 88 1 505 84 1 506 15 1 507 83 1 508 88 1 509 26 1 510 85 1 511 86 1 512 13 1 513 87 1 514 85 1 515 25 1 516 84 1 517 82 1 518 24 1 519 86 1 520 89 1 521 4 1 522 57 1 523 56 1 524 12 1 525 89 1 526 87 1 527 90 0 528 93 0 529 92 0 530 70 5 531 90 5 532 91 5 533 77 4 534 92 4 535 93 4 536 73 3 537 91 3 538 92 3 539</p>
        </triangles>
      </mesh>
    </geometry>
    <geometry id="Cylinder_004-mesh" name="Cylinder.004">
      <mesh>
        <source id="Cylinder_004-mesh-positions">
          <float_array id="Cylinder_004-mesh-positions-array" count="288">0 0.06749999 -0.01071423 0 0.06749999 0.01071423 0.00881046 0.06692248 -0.01071423 0.00881046 0.06692248 0.01071423 0.01747024 0.06519997 -0.01071423 0.01747024 0.06519997 0.01071423 0.0258311 0.06236183 -0.01071423 0.0258311 0.06236183 0.01071423 0.03374999 0.05845665 -0.01071423 0.03374999 0.05845665 0.01071423 0.04109138 0.05355131 -0.01071423 0.04109138 0.05355131 0.01071423 0.04772967 0.04772967 -0.01071423 0.04772967 0.04772967 0.01071423 0.05355131 0.04109138 -0.01071423 0.05355131 0.04109138 0.01071423 0.05845665 0.03374999 -0.01071423 0.05845665 0.03374999 0.01071423 0.06236183 0.0258311 -0.01071423 0.06236183 0.0258311 0.01071423 0.06519997 0.01747024 -0.01071423 0.06519997 0.01747024 0.01071423 0.06692248 0.00881046 -0.01071423 0.06692248 0.00881046 0.01071423 0.06749999 0 -0.01071423 0.06749999 0 0.01071423 0.06692248 -0.00881046 -0.01071423 0.06692248 -0.00881046 0.01071423 0.06519997 -0.01747024 -0.01071423 0.06519997 -0.01747024 0.01071423 0.06236183 -0.0258311 -0.01071423 0.06236183 -0.0258311 0.01071423 0.05845665 -0.03374999 -0.01071423 0.05845665 -0.03374999 0.01071423 0.05355131 -0.04109138 -0.01071423 0.05355131 -0.04109138 0.01071423 0.04772967 -0.04772967 -0.01071423 0.04772967 -0.04772967 0.01071423 0.04109138 -0.05355131 -0.01071423 0.04109138 -0.05355131 0.01071423 0.03374999 -0.05845665 -0.01071423 0.03374999 -0.05845665 0.01071423 0.0258311 -0.06236183 -0.01071423 0.0258311 -0.06236183 0.01071423 0.01747024 -0.06519997 -0.01071423 0.01747024 -0.06519997 0.01071423 0.00881046 -0.06692248 -0.01071423 0.00881046 -0.06692248 0.01071423 0 -0.06749999 -0.01071423 0 -0.06749999 0.01071423 -0.00881046 -0.06692248 -0.01071423 -0.00881046 -0.06692248 0.01071423 -0.01747024 -0.06519997 -0.01071423 -0.01747024 -0.06519997 0.01071423 -0.0258311 -0.06236183 -0.01071423 -0.0258311 -0.06236183 0.01071423 -0.03374999 -0.05845665 -0.01071423 -0.03374999 -0.05845665 0.01071423 -0.04109138 -0.05355131 -0.01071423 -0.04109138 -0.05355131 0.01071423 -0.04772967 -0.04772967 -0.01071423 -0.04772967 -0.04772967 0.01071423 -0.05355131 -0.04109138 -0.01071423 -0.05355131 -0.04109138 0.01071423 -0.05845665 -0.03374999 -0.01071423 -0.05845665 -0.03374999 0.01071423 -0.06236183 -0.0258311 -0.01071423 -0.06236183 -0.0258311 0.01071423 -0.06519997 -0.01747024 -0.01071423 -0.06519997 -0.01747024 0.01071423 -0.06692248 -0.00881046 -0.01071423 -0.06692248 -0.00881046 0.01071423 -0.06749999 0 -0.01071423 -0.06749999 0 0.01071423 -0.06692248 0.00881046 -0.01071423 -0.06692248 0.00881046 0.01071423 -0.06519997 0.01747024 -0.01071423 -0.06519997 0.01747024 0.01071423 -0.06236183 0.0258311 -0.01071423 -0.06236183 0.0258311 0.01071423 -0.05845665 0.03374999 -0.01071423 -0.05845665 0.03374999 0.01071423 -0.05355131 0.04109138 -0.01071423 -0.05355131 0.04109138 0.01071423 -0.04772967 0.04772967 -0.01071423 -0.04772967 0.04772967 0.01071423 -0.04109138 0.05355131 -0.01071423 -0.04109138 0.05355131 0.01071423 -0.03374999 0.05845665 -0.01071423 -0.03374999 0.05845665 0.01071423 -0.0258311 0.06236183 -0.01071423 -0.0258311 0.06236183 0.01071423 -0.01747024 0.06519997 -0.01071423 -0.01747024 0.06519997 0.01071423 -0.00881046 0.06692248 -0.01071423 -0.00881046 0.06692248 0.01071423</float_array>
          <technique_common>
            <accessor source="#Cylinder_004-mesh-positions-array" count="96" stride="3">
              <param name="X" type="float"/>
              <param name="Y" type="float"/>
              <param name="Z" type="float"/>
            </accessor>
          </technique_common>
        </source>
        <source id="Cylinder_004-mesh-normals">
          <float_array id="Cylinder_004-mesh-normals-array" count="303">0.06540232 0.997859 0 0.1950905 0.9807853 0 0.3214396 0.9469301 0 0.4422888 0.8968727 0 0.5555701 0.8314698 0 0.6593461 0.7518397 0 0.7518395 0.6593461 0 0.8314699 0.5555698 0 0.8968726 0.442289 0 0.9469302 0.3214396 0 0.9807855 0.1950897 0 0.997859 0.06540232 0 0.997859 -0.06540232 0 0.9807852 -0.1950909 0 0.9469302 -0.3214396 0 0.8968726 -0.442289 0 0.8314693 -0.5555707 0 0.7518395 -0.6593461 0 0.6593461 -0.7518397 0 0.5555703 -0.8314696 0 0.4422891 -0.8968726 0 0.3214398 -0.9469301 0 0.1950905 -0.9807853 0 0.06540232 -0.997859 0 -0.06540232 -0.997859 0 -0.1950905 -0.9807853 0 -0.3214396 -0.9469301 0 -0.4422888 -0.8968727 0 -0.5555701 -0.8314698 0 -0.6593461 -0.7518397 0 -0.7518395 -0.6593461 0 -0.8314699 -0.5555698 0 -0.8968726 -0.442289 0 -0.9469302 -0.3214396 0 -0.9807855 -0.1950897 0 -0.997859 -0.06540232 0 -0.997859 0.06540232 0 -0.9807852 0.1950909 0 -0.9469302 0.3214396 0 -0.8968726 0.442289 0 -0.8314693 0.5555707 0 -0.7518395 0.6593461 0 -0.6593461 0.7518397 0 -0.5555703 0.8314696 0 -0.4422891 0.8968726 0 -0.3214398 0.9469301 0 0 0 1 -0.1950905 0.9807853 0 -0.06540232 0.997859 0 0 0 -1 0.3214398 0.9469301 0 0.4422891 0.8968726 0 0.5555703 0.8314696 0 0.8314693 0.5555707 0 0.9807852 0.1950909 0 0.9807855 -0.1950897 0 0.8314699 -0.5555698 0 0.5555701 -0.8314698 0 0.4422888 -0.8968727 0 0.3214396 -0.9469301 0 -0.3214398 -0.9469301 0 -0.4422891 -0.8968726 0 -0.5555703 -0.8314696 0 -0.8314693 -0.5555707 0 -0.9807852 -0.1950909 0 -0.9807855 0.1950897 0 -0.8314699 0.5555698 0 -0.5555701 0.8314698 0 -0.4422888 0.8968727 0 -0.3214396 0.9469301 0 -1.43008e-6 0 1 -1.43007e-6 0 1 -1.43007e-6 0 1 -7.15042e-7 0 1 1.43008e-6 0 1 1.43007e-6 0 1 1.43007e-6 0 1 7.15042e-7 0 1 4.94093e-7 0 1 2.55762e-7 0 1 -1.81076e-7 0 1 -4.94093e-7 0 1 -2.55762e-7 0 1 1.81076e-7 0 1 0 0 1 0 0 1 0 0 -1 3.57519e-7 0 -1 7.15033e-7 0 -1 1.43008e-6 0 -1 -1.43008e-6 0 -1 -1.43007e-6 0 -1 2.39712e-7 0 -1 -3.57519e-7 0 -1 -7.15033e-7 0 -1 1.43007e-6 0 -1 -2.39712e-7 0 -1 -2.47046e-7 0 -1 2.47046e-7 0 -1 0 0 -1 0 0 -1</float_array>
          <technique_common>
            <accessor source="#Cylinder_004-mesh-normals-array" count="101" stride="3">
              <param name="X" type="float"/>
              <param name="Y" type="float"/>
              <param name="Z" type="float"/>
            </accessor>
          </technique_common>
        </source>
        <source id="Cylinder_004-mesh-map-0">
          <float_array id="Cylinder_004-mesh-map-0-array" count="1128">1 1 0.9791667 0.5 1 0.5 0.9791667 1 0.9583334 0.5 0.9791667 0.5 0.9583334 1 0.9375001 0.5 0.9583334 0.5 0.9375001 1 0.9166668 0.5 0.9375001 0.5 0.9166668 1 0.8958334 0.5 0.9166668 0.5 0.8958334 1 0.8750001 0.5 0.8958334 0.5 0.8750001 1 0.8541668 0.5 0.8750001 0.5 0.8541668 1 0.8333335 0.5 0.8541668 0.5 0.8333335 1 0.8125002 0.5 0.8333335 0.5 0.8125002 1 0.7916669 0.5 0.8125002 0.5 0.7916669 1 0.7708336 0.5 0.7916669 0.5 0.7708336 1 0.7500002 0.5 0.7708336 0.5 0.7500002 1 0.7291669 0.5 0.7500002 0.5 0.7291669 1 0.7083336 0.5 0.7291669 0.5 0.7083336 1 0.6875003 0.5 0.7083336 0.5 0.6875003 1 0.666667 0.5 0.6875003 0.5 0.666667 1 0.6458337 0.5 0.666667 0.5 0.6458337 1 0.6250004 0.5 0.6458337 0.5 0.6250004 1 0.6041671 0.5 0.6250004 0.5 0.6041671 1 0.5833337 0.5 0.6041671 0.5 0.5833337 1 0.5625004 0.5 0.5833337 0.5 0.5625004 1 0.5416671 0.5 0.5625004 0.5 0.5416671 1 0.5208338 0.5 0.5416671 0.5 0.5208338 1 0.5000005 0.5 0.5208338 0.5 0.5000005 1 0.4791671 0.5 0.5000005 0.5 0.4791671 1 0.4583338 0.5 0.4791671 0.5 0.4583338 1 0.4375004 0.5 0.4583338 0.5 0.4375004 1 0.4166671 0.5 0.4375004 0.5 0.4166671 1 0.3958337 0.5 0.4166671 0.5 0.3958337 1 0.3750004 0.5 0.3958337 0.5 0.3750004 1 0.3541671 0.5 0.3750004 0.5 0.3541671 1 0.3333337 0.5 0.3541671 0.5 0.3333337 1 0.3125004 0.5 0.3333337 0.5 0.3125004 1 0.2916671 0.5 0.3125004 0.5 0.2916671 1 0.2708337 0.5 0.2916671 0.5 0.2708337 1 0.2500004 0.5 0.2708337 0.5 0.2500004 1 0.229167 0.5 0.2500004 0.5 0.229167 1 0.2083337 0.5 0.229167 0.5 0.2083337 1 0.1875004 0.5 0.2083337 0.5 0.1875004 1 0.166667 0.5 0.1875004 0.5 0.166667 1 0.1458337 0.5 0.166667 0.5 0.1458337 1 0.1250004 0.5 0.1458337 0.5 0.1250004 1 0.1041671 0.5 0.1250004 0.5 0.1041671 1 0.08333367 0.5 0.1041671 0.5 0.08333367 1 0.06250035 0.5 0.08333367 0.5 0.06250035 1 0.04166704 0.5 0.06250035 0.5 0.08029437 0.4197056 0.0181778 0.1878834 0.4197056 0.08029437 0.04166704 1 0.02083367 0.5 0.04166704 0.5 0.02083367 1 3.76254e-7 0.5 0.02083367 0.5 0.5595952 0.1038972 0.5282689 0.341844 0.7186737 0.4879468 1 1 0.9791667 1 0.9791667 0.5 0.9791667 1 0.9583334 1 0.9583334 0.5 0.9583334 1 0.9375001 1 0.9375001 0.5 0.9375001 1 0.9166668 1 0.9166668 0.5 0.9166668 1 0.8958334 1 0.8958334 0.5 0.8958334 1 0.8750001 1 0.8750001 0.5 0.8750001 1 0.8541668 1 0.8541668 0.5 0.8541668 1 0.8333335 1 0.8333335 0.5 0.8333335 1 0.8125002 1 0.8125002 0.5 0.8125002 1 0.7916669 1 0.7916669 0.5 0.7916669 1 0.7708336 1 0.7708336 0.5 0.7708336 1 0.7500002 1 0.7500002 0.5 0.7500002 1 0.7291669 1 0.7291669 0.5 0.7291669 1 0.7083336 1 0.7083336 0.5 0.7083336 1 0.6875003 1 0.6875003 0.5 0.6875003 1 0.666667 1 0.666667 0.5 0.666667 1 0.6458337 1 0.6458337 0.5 0.6458337 1 0.6250004 1 0.6250004 0.5 0.6250004 1 0.6041671 1 0.6041671 0.5 0.6041671 1 0.5833337 1 0.5833337 0.5 0.5833337 1 0.5625004 1 0.5625004 0.5 0.5625004 1 0.5416671 1 0.5416671 0.5 0.5416671 1 0.5208338 1 0.5208338 0.5 0.5208338 1 0.5000005 1 0.5000005 0.5 0.5000005 1 0.4791671 1 0.4791671 0.5 0.4791671 1 0.4583338 1 0.4583338 0.5 0.4583338 1 0.4375004 1 0.4375004 0.5 0.4375004 1 0.4166671 1 0.4166671 0.5 0.4166671 1 0.3958337 1 0.3958337 0.5 0.3958337 1 0.3750004 1 0.3750004 0.5 0.3750004 1 0.3541671 1 0.3541671 0.5 0.3541671 1 0.3333337 1 0.3333337 0.5 0.3333337 1 0.3125004 1 0.3125004 0.5 0.3125004 1 0.2916671 1 0.2916671 0.5 0.2916671 1 0.2708337 1 0.2708337 0.5 0.2708337 1 0.2500004 1 0.2500004 0.5 0.2500004 1 0.229167 1 0.229167 0.5 0.229167 1 0.2083337 1 0.2083337 0.5 0.2083337 1 0.1875004 1 0.1875004 0.5 0.1875004 1 0.166667 1 0.166667 0.5 0.166667 1 0.1458337 1 0.1458337 0.5 0.1458337 1 0.1250004 1 0.1250004 0.5 0.1250004 1 0.1041671 1 0.1041671 0.5 0.1041671 1 0.08333367 1 0.08333367 0.5 0.08333367 1 0.06250035 1 0.06250035 0.5 0.06250035 1 0.04166704 1 0.04166704 0.5 0.3121166 0.4818222 0.2813263 0.4879468 0.25 0.49 0.25 0.49 0.2186737 0.4879468 0.1878834 0.4818222 0.1878834 0.4818222 0.1581559 0.4717311 0.1299999 0.4578461 0.1299999 0.4578461 0.1038972 0.4404048 0.08029437 0.4197056 0.08029437 0.4197056 0.05959516 0.3961027 0.04215389 0.37 0.04215389 0.37 0.02826893 0.341844 0.0181778 0.3121166 0.0181778 0.3121166 0.01205319 0.2813263 0.00999999 0.25 0.00999999 0.25 0.01205319 0.2186737 0.0181778 0.1878834 0.0181778 0.1878834 0.02826893 0.1581559 0.04215389 0.1299999 0.04215389 0.1299999 0.05959516 0.1038972 0.08029437 0.08029437 0.08029437 0.08029437 0.1038972 0.05959516 0.1299999 0.04215389 0.1299999 0.04215389 0.1581559 0.02826893 0.1878834 0.0181778 0.1878834 0.0181778 0.2186737 0.01205319 0.25 0.00999999 0.25 0.00999999 0.2813263 0.01205319 0.3121166 0.0181778 0.3121166 0.0181778 0.341844 0.02826893 0.37 0.04215389 0.37 0.04215389 0.3961027 0.05959516 0.4197056 0.08029437 0.4197056 0.08029437 0.4404048 0.1038972 0.4578461 0.1299999 0.4578461 0.1299999 0.4717311 0.1581559 0.4818222 0.1878834 0.4818222 0.1878834 0.4879468 0.2186737 0.49 0.25 0.49 0.25 0.4879468 0.2813263 0.4818222 0.3121166 0.4818222 0.3121166 0.4717311 0.341844 0.4578461 0.37 0.4578461 0.37 0.4404048 0.3961027 0.4197056 0.4197056 0.4197056 0.4197056 0.3961027 0.4404048 0.37 0.4578461 0.37 0.4578461 0.341844 0.4717311 0.3121166 0.4818222 0.3121166 0.4818222 0.25 0.49 0.1878834 0.4818222 0.1878834 0.4818222 0.1299999 0.4578461 0.3121166 0.4818222 0.1299999 0.4578461 0.08029437 0.4197056 0.3121166 0.4818222 0.08029437 0.4197056 0.04215389 0.37 0.0181778 0.3121166 0.0181778 0.3121166 0.00999999 0.25 0.08029437 0.4197056 0.00999999 0.25 0.0181778 0.1878834 0.08029437 0.4197056 0.0181778 0.1878834 0.04215389 0.1299999 0.08029437 0.08029437 0.08029437 0.08029437 0.1299999 0.04215389 0.1878834 0.0181778 0.1878834 0.0181778 0.25 0.00999999 0.3121166 0.0181778 0.3121166 0.0181778 0.37 0.04215389 0.1878834 0.0181778 0.37 0.04215389 0.4197056 0.08029437 0.1878834 0.0181778 0.4197056 0.08029437 0.4578461 0.1299999 0.4818222 0.1878834 0.4818222 0.1878834 0.49 0.25 0.4197056 0.08029437 0.49 0.25 0.4818222 0.3121166 0.4197056 0.08029437 0.4818222 0.3121166 0.4578461 0.37 0.4197056 0.4197056 0.4197056 0.4197056 0.37 0.4578461 0.3121166 0.4818222 0.0181778 0.1878834 0.08029437 0.08029437 0.4197056 0.08029437 0.08029437 0.08029437 0.1878834 0.0181778 0.4197056 0.08029437 0.4818222 0.3121166 0.4197056 0.4197056 0.4197056 0.08029437 0.4197056 0.4197056 0.3121166 0.4818222 0.4197056 0.08029437 0.3121166 0.4818222 0.08029437 0.4197056 0.4197056 0.08029437 0.04166704 1 0.02083367 1 0.02083367 0.5 0.02083367 1 3.76254e-7 1 3.76254e-7 0.5 0.7186737 0.4879468 0.75 0.49 0.841844 0.4717311 0.75 0.49 0.7813263 0.4879468 0.841844 0.4717311 0.7813263 0.4879468 0.8121166 0.4818222 0.841844 0.4717311 0.841844 0.4717311 0.87 0.4578461 0.8961027 0.4404048 0.8961027 0.4404048 0.9197056 0.4197056 0.9404048 0.3961027 0.9404048 0.3961027 0.9578461 0.37 0.9717311 0.341844 0.9717311 0.341844 0.9818222 0.3121166 0.9879468 0.2813263 0.9879468 0.2813263 0.99 0.25 0.9717311 0.1581559 0.99 0.25 0.9879468 0.2186737 0.9717311 0.1581559 0.9879468 0.2186737 0.9818222 0.1878834 0.9717311 0.1581559 0.9717311 0.1581559 0.9578461 0.1299999 0.8961027 0.05959516 0.9578461 0.1299999 0.9404048 0.1038972 0.8961027 0.05959516 0.9404048 0.1038972 0.9197056 0.08029437 0.8961027 0.05959516 0.8961027 0.05959516 0.87 0.04215389 0.7813263 0.01205319 0.87 0.04215389 0.841844 0.02826893 0.7813263 0.01205319 0.841844 0.02826893 0.8121166 0.0181778 0.7813263 0.01205319 0.7813263 0.01205319 0.75 0.00999999 0.658156 0.02826893 0.75 0.00999999 0.7186737 0.01205319 0.658156 0.02826893 0.7186737 0.01205319 0.6878834 0.0181778 0.658156 0.02826893 0.658156 0.02826893 0.63 0.04215389 0.6038973 0.05959516 0.6038973 0.05959516 0.5802944 0.08029437 0.5595952 0.1038972 0.5595952 0.1038972 0.542154 0.1299999 0.5282689 0.1581559 0.5282689 0.1581559 0.5181778 0.1878834 0.5120533 0.2186737 0.5120533 0.2186737 0.51 0.25 0.5282689 0.341844 0.51 0.25 0.5120533 0.2813263 0.5282689 0.341844 0.5120533 0.2813263 0.5181778 0.3121166 0.5282689 0.341844 0.5282689 0.341844 0.542154 0.37 0.6038973 0.4404048 0.542154 0.37 0.5595952 0.3961027 0.6038973 0.4404048 0.5595952 0.3961027 0.5802944 0.4197056 0.6038973 0.4404048 0.6038973 0.4404048 0.63 0.4578461 0.7186737 0.4879468 0.63 0.4578461 0.658156 0.4717311 0.7186737 0.4879468 0.658156 0.4717311 0.6878834 0.4818222 0.7186737 0.4879468 0.841844 0.4717311 0.8961027 0.4404048 0.7186737 0.4879468 0.8961027 0.4404048 0.9404048 0.3961027 0.7186737 0.4879468 0.9404048 0.3961027 0.9717311 0.341844 0.9717311 0.1581559 0.9717311 0.341844 0.9879468 0.2813263 0.9717311 0.1581559 0.658156 0.02826893 0.6038973 0.05959516 0.7813263 0.01205319 0.6038973 0.05959516 0.5595952 0.1038972 0.7813263 0.01205319 0.5595952 0.1038972 0.5282689 0.1581559 0.5282689 0.341844 0.5282689 0.1581559 0.5120533 0.2186737 0.5282689 0.341844 0.9717311 0.1581559 0.8961027 0.05959516 0.5595952 0.1038972 0.8961027 0.05959516 0.7813263 0.01205319 0.5595952 0.1038972 0.5282689 0.341844 0.6038973 0.4404048 0.7186737 0.4879468 0.7186737 0.4879468 0.9404048 0.3961027 0.5595952 0.1038972 0.9404048 0.3961027 0.9717311 0.1581559 0.5595952 0.1038972</float_array>
          <technique_common>
            <accessor source="#Cylinder_004-mesh-map-0-array" count="564" stride="2">
              <param name="S" type="float"/>
              <param name="T" type="float"/>
            </accessor>
          </technique_common>
        </source>
        <vertices id="Cylinder_004-mesh-vertices">
          <input semantic="POSITION" source="#Cylinder_004-mesh-positions"/>
        </vertices>
        <triangles material="g_metal-material" count="188">
          <input semantic="VERTEX" source="#Cylinder_004-mesh-vertices" offset="0"/>
          <input semantic="NORMAL" source="#Cylinder_004-mesh-normals" offset="1"/>
          <input semantic="TEXCOORD" source="#Cylinder_004-mesh-map-0" offset="2" set="0"/>
          <p>1 0 0 2 0 1 0 0 2 3 1 3 4 1 4 2 1 5 5 2 6 6 2 7 4 2 8 7 3 9 8 3 10 6 3 11 9 4 12 10 4 13 8 4 14 11 5 15 12 5 16 10 5 17 13 6 18 14 6 19 12 6 20 15 7 21 16 7 22 14 7 23 17 8 24 18 8 25 16 8 26 19 9 27 20 9 28 18 9 29 21 10 30 22 10 31 20 10 32 23 11 33 24 11 34 22 11 35 25 12 36 26 12 37 24 12 38 27 13 39 28 13 40 26 13 41 29 14 42 30 14 43 28 14 44 31 15 45 32 15 46 30 15 47 33 16 48 34 16 49 32 16 50 35 17 51 36 17 52 34 17 53 37 18 54 38 18 55 36 18 56 39 19 57 40 19 58 38 19 59 41 20 60 42 20 61 40 20 62 43 21 63 44 21 64 42 21 65 45 22 66 46 22 67 44 22 68 47 23 69 48 23 70 46 23 71 49 24 72 50 24 73 48 24 74 51 25 75 52 25 76 50 25 77 53 26 78 54 26 79 52 26 80 55 27 81 56 27 82 54 27 83 57 28 84 58 28 85 56 28 86 59 29 87 60 29 88 58 29 89 61 30 90 62 30 91 60 30 92 63 31 93 64 31 94 62 31 95 65 32 96 66 32 97 64 32 98 67 33 99 68 33 100 66 33 101 69 34 102 70 34 103 68 34 104 71 35 105 72 35 106 70 35 107 73 36 108 74 36 109 72 36 110 75 37 111 76 37 112 74 37 113 77 38 114 78 38 115 76 38 116 79 39 117 80 39 118 78 39 119 81 40 120 82 40 121 80 40 122 83 41 123 84 41 124 82 41 125 85 42 126 86 42 127 84 42 128 87 43 129 88 43 130 86 43 131 89 44 132 90 44 133 88 44 134 91 45 135 92 45 136 90 45 137 85 46 138 69 46 139 37 46 140 93 47 141 94 47 142 92 47 143 95 48 144 0 48 145 94 48 146 62 49 147 78 49 148 94 49 149 1 0 150 3 0 151 2 0 152 3 1 153 5 1 154 4 1 155 5 50 156 7 50 157 6 50 158 7 51 159 9 51 160 8 51 161 9 52 162 11 52 163 10 52 164 11 5 165 13 5 166 12 5 167 13 6 168 15 6 169 14 6 170 15 53 171 17 53 172 16 53 173 17 8 174 19 8 175 18 8 176 19 9 177 21 9 178 20 9 179 21 54 180 23 54 181 22 54 182 23 11 183 25 11 184 24 11 185 25 12 186 27 12 187 26 12 188 27 55 189 29 55 190 28 55 191 29 14 192 31 14 193 30 14 194 31 15 195 33 15 196 32 15 197 33 56 198 35 56 199 34 56 200 35 17 201 37 17 202 36 17 203 37 18 204 39 18 205 38 18 206 39 57 207 41 57 208 40 57 209 41 58 210 43 58 211 42 58 212 43 59 213 45 59 214 44 59 215 45 22 216 47 22 217 46 22 218 47 23 219 49 23 220 48 23 221 49 24 222 51 24 223 50 24 224 51 25 225 53 25 226 52 25 227 53 60 228 55 60 229 54 60 230 55 61 231 57 61 232 56 61 233 57 62 234 59 62 235 58 62 236 59 29 237 61 29 238 60 29 239 61 30 240 63 30 241 62 30 242 63 63 243 65 63 244 64 63 245 65 32 246 67 32 247 66 32 248 67 33 249 69 33 250 68 33 251 69 64 252 71 64 253 70 64 254 71 35 255 73 35 256 72 35 257 73 36 258 75 36 259 74 36 260 75 65 261 77 65 262 76 65 263 77 38 264 79 38 265 78 38 266 79 39 267 81 39 268 80 39 269 81 66 270 83 66 271 82 66 272 83 41 273 85 41 274 84 41 275 85 42 276 87 42 277 86 42 278 87 67 279 89 67 280 88 67 281 89 68 282 91 68 283 90 68 284 91 69 285 93 69 286 92 69 287 5 46 288 3 46 289 1 46 290 1 46 291 95 46 292 93 46 293 93 46 294 91 46 295 89 46 296 89 70 297 87 70 298 85 70 299 85 71 300 83 71 301 81 71 302 81 72 303 79 72 304 77 72 305 77 46 306 75 46 307 73 46 308 73 46 309 71 46 310 69 46 311 69 72 312 67 72 313 65 72 314 65 71 315 63 71 316 61 71 317 61 73 318 59 73 319 57 73 320 57 46 321 55 46 322 53 46 323 53 46 324 51 46 325 49 46 326 49 46 327 47 46 328 45 46 329 45 46 330 43 46 331 41 46 332 41 74 333 39 74 334 37 74 335 37 75 336 35 75 337 33 75 338 33 76 339 31 76 340 29 76 341 29 46 342 27 46 343 25 46 344 25 46 345 23 46 346 21 46 347 21 76 348 19 76 349 17 76 350 17 75 351 15 75 352 13 75 353 13 77 354 11 77 355 9 77 356 9 46 357 7 46 358 5 46 359 5 46 360 1 46 361 93 46 362 93 46 363 89 46 364 5 46 365 89 46 366 85 46 367 5 46 368 85 46 369 81 46 370 77 46 371 77 78 372 73 78 373 85 78 374 73 79 375 69 79 376 85 79 377 69 46 378 65 46 379 61 46 380 61 80 381 57 80 382 53 80 383 53 46 384 49 46 385 45 46 386 45 46 387 41 46 388 53 46 389 41 46 390 37 46 391 53 46 392 37 46 393 33 46 394 29 46 395 29 81 396 25 81 397 37 81 398 25 82 399 21 82 400 37 82 401 21 46 402 17 46 403 13 46 404 13 83 405 9 83 406 5 83 407 69 46 408 61 46 409 37 46 410 61 46 411 53 46 412 37 46 413 21 46 414 13 46 415 37 46 416 13 84 417 5 84 418 37 84 419 5 85 420 85 85 421 37 85 422 93 47 423 95 47 424 94 47 425 95 48 426 1 48 427 0 48 428 94 86 429 0 86 430 6 86 431 0 86 432 2 86 433 6 86 434 2 87 435 4 87 436 6 87 437 6 88 438 8 88 439 10 88 440 10 89 441 12 89 442 14 89 443 14 90 444 16 90 445 18 90 446 18 91 447 20 91 448 22 91 449 22 86 450 24 86 451 30 86 452 24 86 453 26 86 454 30 86 455 26 91 456 28 91 457 30 91 458 30 86 459 32 86 460 38 86 461 32 86 462 34 86 463 38 86 464 34 89 465 36 89 466 38 89 467 38 86 468 40 86 469 46 86 470 40 92 471 42 92 472 46 92 473 42 87 474 44 87 475 46 87 476 46 86 477 48 86 478 54 86 479 48 86 480 50 86 481 54 86 482 50 93 483 52 93 484 54 93 485 54 94 486 56 94 487 58 94 488 58 90 489 60 90 490 62 90 491 62 89 492 64 89 493 66 89 494 66 95 495 68 95 496 70 95 497 70 86 498 72 86 499 78 86 500 72 86 501 74 86 502 78 86 503 74 95 504 76 95 505 78 95 506 78 86 507 80 86 508 86 86 509 80 86 510 82 86 511 86 86 512 82 90 513 84 90 514 86 90 515 86 86 516 88 86 517 94 86 518 88 96 519 90 96 520 94 96 521 90 93 522 92 93 523 94 93 524 6 86 525 10 86 526 94 86 527 10 86 528 14 86 529 94 86 530 14 86 531 18 86 532 30 86 533 18 97 534 22 97 535 30 97 536 54 86 537 58 86 538 46 86 539 58 86 540 62 86 541 46 86 542 62 86 543 66 86 544 78 86 545 66 98 546 70 98 547 78 98 548 30 86 549 38 86 550 62 86 551 38 86 552 46 86 553 62 86 554 78 99 555 86 99 556 94 99 557 94 100 558 14 100 559 62 100 560 14 86 561 30 86 562 62 86 563</p>
        </triangles>
      </mesh>
    </geometry>
  </library_geometries>
  <library_visual_scenes>
    <visual_scene id="Scene" name="Scene">
      <node id="pad_fixed" name="pad_fixed" type="NODE">
        <matrix sid="transform">1 0 0 0.07380001 0 1 0 0 0 0 1 0 0 0 0 1</matrix>
        <instance_geometry url="#Cube_099-mesh" name="pad_fixed">
          <bind_material>
            <technique_common>
              <instance_material symbol="g_pad-material" target="#g_pad-material">
                <bind_vertex_input semantic="UVMap" input_semantic="TEXCOORD" input_set="0"/>
              </instance_material>
            </technique_common>
          </bind_material>
        </instance_geometry>
      </node>
      <node id="jaw_fixed" name="jaw_fixed" type="NODE">
        <matrix sid="transform">1 0 0 0.1277291 0 1 0 0 0 0 1 0 0 0 0 1</matrix>
        <instance_geometry url="#Cube_088-mesh" name="jaw_fixed">
          <bind_material>
            <technique_common>
              <instance_material symbol="g_metal-material" target="#g_metal-material">
                <bind_vertex_input semantic="UVMap" input_semantic="TEXCOORD" input_set="0"/>
              </instance_material>
            </technique_common>
          </bind_material>
        </instance_geometry>
      </node>
      <node id="body" name="body" type="NODE">
        <matrix sid="transform">0.4049383 0 0 0 0 0.6074074 0 0 0 0 0.6074074 0.05245037 0 0 0 1</matrix>
        <instance_geometry url="#Cube_071-mesh" name="body">
          <bind_material>
            <technique_common>
              <instance_material symbol="g_dark-material" target="#g_dark-material">
                <bind_vertex_input semantic="UVMap" input_semantic="TEXCOORD" input_set="0"/>
              </instance_material>
            </technique_common>
          </bind_material>
        </instance_geometry>
      </node>
      <node id="flange" name="flange" type="NODE">
        <matrix sid="transform">0.6074074 0 0 0 0 0.6074074 0 0 0 0 0.6074074 0.1336087 0 0 0 1</matrix>
        <instance_geometry url="#Cylinder_004-mesh" name="flange">
          <bind_material>
            <technique_common>
              <instance_material symbol="g_metal-material" target="#g_metal-material">
                <bind_vertex_input semantic="UVMap" input_semantic="TEXCOORD" input_set="0"/>
              </instance_material>
            </technique_common>
          </bind_material>
        </instance_geometry>
      </node>
    </visual_scene>
  </library_visual_scenes>
  <scene>
    <instance_visual_scene url="#Scene"/>
  </scene>
</COLLADA>