<?xml version="1.0" encoding="utf-8"?>
<COLLADA xmlns="http://www.collada.org/2005/11/COLLADASchema" version="1.4.1" xmlns:xsi="http://www.w3.org/2001/XMLSchema-instance">
  <asset>
    <contributor>
      <author>Blender User</author>
      <authoring_tool>Blender 3.6.23 commit date:2025-06-16, commit time:11:52, hash:e467db79ca8c</authoring_tool>
    </contributor>
    <created>2026-06-24T16:07:26</created>
    <modified>2026-06-24T16:07:26</modified>
    <unit name="meter" meter="1"/>
    <up_axis>Z_UP</up_axis>
  </asset>
  <library_effects>
    <effect id="g_dark-effect">
      <profile_COMMON>
        <technique sid="common">
          <lambert>
            <emission>
              <color sid="emission">0 0 0 1</color>
            </emission>
            <diffuse>
              <color sid="diffuse">0.11 0.11 0.12 1</color>
            </diffuse>
            <reflectivity>
              <float sid="specular">0.5</float>
            </reflectivity>
            <index_of_refraction>
              <float sid="ior">1.45</float>
            </index_of_refraction>
          </lambert>
        </technique>
      </profile_COMMON>
    </effect>
  </library_effects>
  <library_images/>
  <library_materials>
    <material id="g_dark-material" name="g_dark">
      <instance_effect url="#g_dark-effect"/>
    </material>
  </library_materials>
  <library_geometries>
    <geometry id="Cube_071-mesh" name="Cube.071">
      <mesh>
        <source id="Cube_071-mesh-positions">
          <float_array id="Cube_071-mesh-positions-array" count="282">-0.15 -0.07499998 0.1029 -0.15 -0.07499998 0.1229 -0.15 0.07499998 0.1029 -0.15 0.07499998 0.1229 0.15 0.07499998 0.1229 0.15 0.07499998 0.1229 0.15 -0.07499998 0.1229 0.15 -0.07499998 0.1229 -0.15 0.07499998 0.1029 -0.15 -0.07499998 0.1029 -0.15 -0.07499998 0.1229 -0.15 0.07499998 0.1229 0.15 -0.07499998 0.1029 0.15 0.07499998 0.1029 0.15 -0.07499998 0.1029 0.15 -0.07499998 0.1229 -0.15 0.07499998 0.1229 -0.15 -0.07499998 0.1229 -0.15 -0.07499998 0.1029 -0.15 0.07499998 0.1029 -0.15 0.07499998 0.1229 -0.15 -0.07499998 0.1229 -0.15 -0.07499998 0.1029 -0.15 0.07499998 0.1029 0.15 -0.07499998 0.1229 0.15 0.07499998 0.1029 0.15 0.07499998 0.1229 0.15 0.07499998 0.1229 0.15 -0.07499998 0.1229 0.15 -0.07499998 0.1029 0.15 0.07499998 0.1229 0.15 0.07499998 0.1029 -0.15 0.07499998 0.1029 -0.15 0.07499998 0.1229 0.15 0.07499998 0.1029 0.15 0.07499998 0.1229 0.15 -0.07499998 0.1029 -0.15 -0.07499998 0.1029 -0.15 -0.07499998 0.1229 0.15 -0.07499998 0.1229 -0.15 -0.07499998 0.1029 -0.15 -0.07499998 0.1229 -0.15 0.07499998 0.1029 -0.15 0.07499998 0.1229 0.15 -0.07499998 0.1229 0.15 -0.07499998 0.1029 0.15 -0.07499998 0.1229 0.15 -0.07499998 0.1229 0.15 -0.07499998 0.1029 0.15 -0.07499998 0.1029 0.15 -0.07499998 0.1229 0.15 0.07499998 0.1229 0.15 -0.07499998 0.1229 0.15 0.07499998 0.1229 0.15 -0.07499998 0.1229 0.15 0.07499998 0.1229 0.15 -0.07499998 0.1229 0.15 0.07499998 0.1229 0.15 0.07499998 0.1229 0.15 0.07499998 0.1029 0.15 -0.07499998 0.1229 0.15 -0.07499998 0.1029 0.15 -0.07499998 0.1029 0.15 -0.07499998 0.1229 0.15 0.07499998 0.1029 0.15 0.07499998 0.1229 0.15 -0.07499998 0.1229 0.15 -0.07499998 0.1229 0.15 0.07499998 0.1229 0.15 0.07499998 0.1229 0.15 0.07499998 0.1229 0.15 0.07499998 0.1229 0.15 0.07499998 0.1029 0.15 0.07499998 0.1029 0.15 -0.07499998 0.1229 0.15 -0.07499998 0.1229 0.15 -0.07499998 0.1029 0.15 -0.07499998 0.1029 0.15 -0.07499998 0.1029 0.15 -0.07499998 0.1029 0.15 0.07499998 0.1029 0.15 0.07499998 0.1029 0.15 -0.07499998 0.1029 0.15 -0.07499998 0.1229 0.15 0.07499998 0.1029 0.15 0.07499998 0.1229 0.15 -0.07499998 0.1229 0.15 0.07499998 0.1029 0.15 0.07499998 0.1229 0.15 -0.07499998 0.1029 0.1748337 0.07499998 0.1229 0.1748337 0.07499998 0.1029 0.1748337 -0.07499998 0.1029 0.1748337 -0.07499998 0.1229</float_array>
          <technique_common>
            <accessor source="#Cube_071-mesh-positions-array" count="94" stride="3">
              <param name="X" type="float"/>
              <param name="Y" type="float"/>
              <param name="Z" type="float"/>
            </accessor>
          </technique_common>
        </source>
        <source id="Cube_071-mesh-normals">
          <float_array id="Cube_071-mesh-normals-array" count="18">1 0 0 0 0 1 -1 0 0 0 0 -1 0 -1 0 0 1 0</float_array>
          <technique_common>
            <accessor source="#Cube_071-mesh-normals-array" count="6" stride="3">
              <param name="X" type="float"/>
              <param name="Y" type="float"/>
              <param name="Z" type="float"/>
            </accessor>
          </technique_common>
        </source>
        <source id="Cube_071-mesh-map-0">
          <float_array id="Cube_071-mesh-map-0-array" count="1080">0.375 0.25 0.625 0 0.375 0 0.625 0.75 0.625 0.75 0.625 0.75 0.375 0.5 0.625 0.5 0.625 0.5 0.625 0.5 0.625 0.75 0.625 0.75 0.625 0.75 0.625 0.75 0.625 0.75 0.625 0 0.375 0.25 0.375 0 0.625 0.5 0.625 0.5 0.625 0.5 0.625 0.75 0.625 0.75 0.625 0.75 0.375 0.75 0.375 0.5 0.375 0.5 0.625 0.75 0.625 0.5 0.625 0.5 0.625 0.75 0.375 0.75 0.375 0.75 0.375 0.5 0.375 0.75 0.375 0.75 0.375 0.5 0.625 0.5 0.625 0.5 0.625 0.5 0.625 0.75 0.625 0.75 0.625 0.75 0.625 0.5 0.625 0.5 0.625 0.5 0.375 0.5 0.375 0.5 0.875 0.5 0.625 0.75 0.625 0.5 0.375 0.5 0.125 0.75 0.125 0.5 0.375 0.5 0.625 0.25 0.375 0.25 0.375 1 0.625 0.75 0.375 0.75 0.125 0.75 0.375 0.5 0.125 0.5 0.625 0.75 0.875 0.5 0.625 0.5 0.625 0.25 0.375 0.5 0.375 0.25 0.625 0.75 0.375 1 0.375 0.75 0.375 0.25 0.625 0.25 0.625 0.25 0.625 0 0.625 0.25 0.625 0.25 0.375 0 0.375 0.25 0.375 0.25 0.625 0.25 0.625 0 0.625 0 0.375 0 0.625 0 0.625 0 0.625 0.25 0.375 0.25 0.375 0.25 0.625 0 0.375 0 0.375 0 0.375 0.25 0.375 0 0.375 0 0.375 0.75 0.375 0.75 0.375 0.75 0.625 0.75 0.375 0.75 0.375 0.75 0.625 0.75 0.625 0.75 0.625 0.75 0.625 0.75 0.625 0.5 0.625 0.5 0.625 0.5 0.625 0.75 0.625 0.75 0.625 0.75 0.625 0.75 0.625 0.75 0.375 0.75 0.625 0.75 0.625 0.75 0.625 0.5 0.625 0.5 0.625 0.5 0.375 0.75 0.375 0.75 0.375 0.75 0.375 0.75 0.375 0.75 0.375 0.75 0.625 0.5 0.375 0.5 0.375 0.5 0.625 0.75 0.625 0.75 0.625 0.75 0.625 0.5 0.625 0.5 0.625 0.5 0.375 0.75 0.625 0.75 0.625 0.75 0.375 0.75 0.625 0.75 0.625 0.75 0.375 0.75 0.625 0.75 0.625 0.75 0.375 0.75 0.625 0.75 0.625 0.75 0.625 0.75 0.625 0.75 0.625 0.75 0.625 0.75 0.625 0.5 0.625 0.5 0.625 0.5 0.625 0.5 0.625 0.5 0.625 0.5 0.375 0.5 0.375 0.5 0.625 0.75 0.625 0.5 0.625 0.5 0.625 0 0.625 0.25 0.625 0.25 0.375 0.25 0.625 0.25 0.625 0.25 0.375 0.25 0.375 0 0.375 0 0.625 0 0.375 0 0.375 0 0.625 0.25 0.375 0.25 0.375 0.25 0.375 0 0.625 0 0.625 0 0.625 0.25 0.625 0 0.625 0 0.375 0 0.375 0.25 0.375 0.25 0.375 0.5 0.375 0.75 0.375 0.75 0.625 0.75 0.625 0.5 0.625 0.5 0.375 0.75 0.375 0.5 0.375 0.5 0.625 0.75 0.375 0.75 0.375 0.75 0.375 0.5 0.625 0.5 0.625 0.5 0.375 0.75 0.625 0.5 0.375 0.5 0.375 0.5 0.375 0.5 0.375 0.5 0.625 0.5 0.625 0.75 0.625 0.75 0.375 0.75 0.375 0.75 0.375 0.75 0.375 0.5 0.375 0.75 0.375 0.75 0.625 0.5 0.625 0.75 0.625 0.75 0.375 0.5 0.625 0.5 0.625 0.5 0.625 0.75 0.625 0.5 0.625 0.5 0.625 0.75 0.375 0.75 0.375 0.75 0.625 0.5 0.375 0.5 0.375 0.5 0.375 0.75 0.375 0.5 0.375 0.5 0.625 0.5 0.375 0.5 0.375 0.5 0.625 0.75 0.625 0.5 0.625 0.5 0.625 0.5 0.625 0.75 0.625 0.75 0.375 0.5 0.625 0.5 0.625 0.5 0.375 0.5 0.375 0.75 0.375 0.75 0.625 0.75 0.375 0.75 0.375 0.75 0.625 0.5 0.625 0.75 0.625 0.75 0.375 0.75 0.375 0.5 0.375 0.5 0.625 0.5 0.375 0.75 0.375 0.5 0.625 0.5 0.375 0.5 0.375 0.5 0.375 0.75 0.625 0.75 0.625 0.75 0.375 0.5 0.375 0.75 0.375 0.75 0.375 0.25 0.625 0.25 0.625 0 0.625 0.75 0.625 0.75 0.625 0.75 0.375 0.5 0.375 0.5 0.625 0.5 0.625 0.5 0.625 0.5 0.625 0.75 0.625 0.75 0.625 0.75 0.625 0.75 0.625 0 0.625 0.25 0.375 0.25 0.625 0.5 0.625 0.5 0.625 0.5 0.625 0.75 0.625 0.75 0.625 0.75 0.375 0.75 0.375 0.75 0.375 0.5 0.625 0.75 0.625 0.75 0.625 0.5 0.625 0.75 0.625 0.75 0.375 0.75 0.375 0.5 0.375 0.5 0.375 0.75 0.375 0.5 0.375 0.5 0.625 0.5 0.625 0.5 0.625 0.5 0.625 0.75 0.625 0.75 0.625 0.75 0.625 0.5 0.625 0.5 0.625 0.5 0.375 0.5 0.875 0.5 0.875 0.75 0.625 0.75 0.375 0.5 0.375 0.75 0.125 0.75 0.375 0.5 0.625 0.5 0.625 0.25 0.375 1 0.625 1 0.625 0.75 0.125 0.75 0.375 0.75 0.375 0.5 0.625 0.75 0.875 0.75 0.875 0.5 0.625 0.25 0.625 0.5 0.375 0.5 0.625 0.75 0.625 1 0.375 1 0.375 0.25 0.375 0.25 0.625 0.25 0.625 0 0.625 0 0.625 0.25 0.375 0 0.375 0 0.375 0.25 0.625 0.25 0.625 0.25 0.625 0 0.375 0 0.375 0 0.625 0 0.625 0.25 0.625 0.25 0.375 0.25 0.625 0 0.625 0 0.375 0 0.375 0.25 0.375 0.25 0.375 0 0.375 0.75 0.375 0.75 0.375 0.75 0.625 0.75 0.625 0.75 0.375 0.75 0.625 0.75 0.625 0.75 0.625 0.75 0.625 0.75 0.625 0.75 0.625 0.5 0.625 0.5 0.625 0.5 0.625 0.75 0.625 0.75 0.625 0.75 0.625 0.75 0.375 0.75 0.375 0.75 0.625 0.75 0.625 0.5 0.625 0.5 0.625 0.5 0.375 0.75 0.375 0.75 0.375 0.75 0.375 0.75 0.375 0.75 0.375 0.75 0.625 0.5 0.625 0.5 0.375 0.5 0.625 0.75 0.625 0.75 0.625 0.75 0.625 0.5 0.625 0.5 0.625 0.5 0.375 0.75 0.375 0.75 0.625 0.75 0.375 0.75 0.375 0.75 0.625 0.75 0.375 0.75 0.375 0.75 0.625 0.75 0.375 0.75 0.375 0.75 0.625 0.75 0.625 0.75 0.625 0.75 0.625 0.75 0.625 0.75 0.625 0.75 0.625 0.5 0.625 0.5 0.625 0.5 0.625 0.5 0.625 0.5 0.625 0.5 0.375 0.5 0.625 0.75 0.625 0.75 0.625 0.5 0.625 0 0.625 0 0.625 0.25 0.375 0.25 0.375 0.25 0.625 0.25 0.375 0.25 0.375 0.25 0.375 0 0.625 0 0.625 0 0.375 0 0.625 0.25 0.625 0.25 0.375 0.25 0.375 0 0.375 0 0.625 0 0.625 0.25 0.625 0.25 0.625 0 0.375 0 0.375 0 0.375 0.25 0.375 0.5 0.375 0.5 0.375 0.75 0.625 0.75 0.625 0.75 0.625 0.5 0.375 0.75 0.375 0.75 0.375 0.5 0.625 0.75 0.625 0.75 0.375 0.75 0.375 0.5 0.375 0.5 0.625 0.5 0.375 0.75 0.625 0.75 0.625 0.5 0.375 0.5 0.375 0.5 0.375 0.5 0.625 0.5 0.625 0.5 0.625 0.75 0.375 0.75 0.375 0.75 0.375 0.75 0.375 0.5 0.375 0.5 0.375 0.75 0.625 0.5 0.625 0.5 0.625 0.75 0.375 0.5 0.375 0.5 0.625 0.5 0.625 0.75 0.625 0.75 0.625 0.5 0.625 0.75 0.625 0.75 0.375 0.75 0.625 0.5 0.625 0.5 0.375 0.5 0.375 0.75 0.375 0.75 0.375 0.5 0.625 0.5 0.625 0.5 0.375 0.5 0.625 0.75 0.625 0.75 0.625 0.5 0.625 0.5 0.625 0.5 0.625 0.75 0.375 0.5 0.375 0.5 0.625 0.5 0.375 0.5 0.375 0.5 0.375 0.75 0.625 0.75 0.625 0.75 0.375 0.75 0.625 0.5 0.625 0.5 0.625 0.75 0.375 0.75 0.375 0.75 0.375 0.5 0.625 0.5 0.625 0.75 0.375 0.75 0.625 0.5 0.625 0.5 0.375 0.5 0.375 0.75 0.375 0.75 0.625 0.75 0.375 0.5 0.375 0.5 0.375 0.75</float_array>
          <technique_common>
            <accessor source="#Cube_071-mesh-map-0-array" count="540" stride="2">
              <param name="S" type="float"/>
              <param name="T" type="float"/>
            </accessor>
          </technique_common>
        </source>
        <vertices id="Cube_071-mesh-vertices">
          <input semantic="POSITION" source="#Cube_071-mesh-positions"/>
        </vertices>
        <triangles material="g_dark-material" count="180">
          <input semantic="VERTEX" source="#Cube_071-mesh-vertices" offset="0"/>
          <input semantic="NORMAL" source="#Cube_071-mesh-normals" offset="1"/>
          <input semantic="TEXCOORD" source="#Cube_071-mesh-map-0" offset="2" set="0"/>
          <p>2 0 0 1 0 1 0 0 2 15 1 3 44 1 4 83 1 5 73 1 6 65 1 7 70 1 8 69 1 9 6 1 10 66 1 11 83 1 12 60 1 13 75 1 14 10 2 15 8 2 16 9 2 17 69 1 18 57 1 19 4 1 20 67 1 21 50 1 22 7 1 23 36 1 24 13 1 25 34 1 26 75 1 27 58 1 28 71 1 29 39 1 30 12 1 31 36 1 32 31 1 33 14 1 34 29 1 35 34 1 36 26 1 37 35 1 38 35 1 39 24 1 40 39 1 41 28 1 42 27 1 43 30 1 44 30 1 45 25 1 46 31 1 47 43 1 48 28 1 49 30 1 50 31 3 51 40 3 52 42 3 53 34 4 54 33 4 55 32 4 56 37 5 57 39 5 58 36 5 59 37 1 60 34 1 61 32 1 62 39 3 63 33 3 64 35 3 65 43 5 66 31 5 67 42 5 68 28 4 69 40 4 70 29 4 71 2 1 72 20 1 73 3 1 74 10 1 75 16 1 76 11 1 77 0 1 78 23 1 79 2 1 80 3 1 81 21 1 82 1 1 83 9 1 84 17 1 85 10 1 86 11 1 87 19 1 88 8 1 89 1 1 90 22 1 91 0 1 92 8 1 93 18 1 94 9 1 95 77 1 96 61 1 97 76 1 98 74 1 99 62 1 100 77 1 101 66 1 102 52 1 103 67 1 104 7 1 105 51 1 106 5 1 107 70 1 108 63 1 109 74 1 110 28 1 111 47 1 112 15 1 113 29 1 114 46 1 115 28 1 116 68 1 117 55 1 118 69 1 119 82 1 120 48 1 121 14 1 122 14 1 123 49 1 124 29 1 125 71 1 126 59 1 127 72 1 128 6 1 129 54 1 130 66 1 131 5 1 132 53 1 133 68 1 134 48 1 135 44 1 136 47 1 137 45 1 138 60 1 139 44 1 140 61 1 141 63 1 142 60 1 143 49 1 144 47 1 145 46 1 146 52 1 147 56 1 148 50 1 149 50 1 150 57 1 151 51 1 152 51 1 153 55 1 154 53 1 155 58 1 156 64 1 157 59 1 158 60 1 159 65 1 160 58 1 161 17 1 162 43 1 163 16 1 164 23 1 165 33 1 166 20 1 167 19 1 168 40 1 169 18 1 170 21 1 171 37 1 172 22 1 173 16 1 174 42 1 175 19 1 176 18 1 177 41 1 178 17 1 179 20 1 180 38 1 181 21 1 182 22 1 183 32 1 184 23 1 185 72 1 186 77 1 187 76 1 188 74 1 189 90 1 190 70 1 191 79 1 192 81 1 193 80 1 194 67 1 195 78 1 196 79 1 197 80 1 198 5 1 199 68 1 200 78 2 201 5 2 202 81 2 203 72 1 204 64 1 205 73 1 206 68 1 207 66 1 208 67 1 209 76 1 210 45 1 211 82 1 212 84 1 213 76 1 214 82 1 215 85 1 216 67 1 217 86 1 218 87 1 219 68 1 220 85 1 221 83 1 222 71 1 223 88 1 224 86 1 225 79 1 226 89 1 227 88 1 228 72 1 229 84 1 230 89 1 231 80 1 232 87 1 233 27 1 234 84 1 235 25 1 236 15 1 237 88 1 238 27 1 239 26 1 240 86 1 241 24 1 242 13 1 243 85 1 244 26 1 245 25 1 246 82 1 247 14 1 248 24 1 249 89 1 250 12 1 251 4 1 252 56 1 253 6 1 254 12 1 255 87 1 256 13 1 257 90 0 258 92 0 259 91 0 260 70 5 261 91 5 262 73 5 263 77 4 264 93 4 265 74 4 266 73 3 267 92 3 268 77 3 269 2 0 270 3 0 271 1 0 272 15 1 273 47 1 274 44 1 275 73 1 276 64 1 277 65 1 278 69 1 279 4 1 280 6 1 281 83 1 282 44 1 283 60 1 284 10 2 285 11 2 286 8 2 287 69 1 288 55 1 289 57 1 290 67 1 291 52 1 292 50 1 293 36 1 294 12 1 295 13 1 296 75 1 297 60 1 298 58 1 299 39 1 300 24 1 301 12 1 302 31 1 303 25 1 304 14 1 305 34 1 306 13 1 307 26 1 308 35 1 309 26 1 310 24 1 311 28 1 312 15 1 313 27 1 314 30 1 315 27 1 316 25 1 317 43 1 318 41 1 319 28 1 320 31 3 321 29 3 322 40 3 323 34 4 324 35 4 325 33 4 326 37 5 327 38 5 328 39 5 329 37 1 330 36 1 331 34 1 332 39 3 333 38 3 334 33 3 335 43 5 336 30 5 337 31 5 338 28 4 339 41 4 340 40 4 341 2 1 342 23 1 343 20 1 344 10 1 345 17 1 346 16 1 347 0 1 348 22 1 349 23 1 350 3 1 351 20 1 352 21 1 353 9 1 354 18 1 355 17 1 356 11 1 357 16 1 358 19 1 359 1 1 360 21 1 361 22 1 362 8 1 363 19 1 364 18 1 365 77 1 366 62 1 367 61 1 368 74 1 369 63 1 370 62 1 371 66 1 372 54 1 373 52 1 374 7 1 375 50 1 376 51 1 377 70 1 378 65 1 379 63 1 380 28 1 381 46 1 382 47 1 383 29 1 384 49 1 385 46 1 386 68 1 387 53 1 388 55 1 389 82 1 390 45 1 391 48 1 392 14 1 393 48 1 394 49 1 395 71 1 396 58 1 397 59 1 398 6 1 399 56 1 400 54 1 401 5 1 402 51 1 403 53 1 404 48 1 405 45 1 406 44 1 407 45 1 408 61 1 409 60 1 410 61 1 411 62 1 412 63 1 413 49 1 414 48 1 415 47 1 416 52 1 417 54 1 418 56 1 419 50 1 420 56 1 421 57 1 422 51 1 423 57 1 424 55 1 425 58 1 426 65 1 427 64 1 428 60 1 429 63 1 430 65 1 431 17 1 432 41 1 433 43 1 434 23 1 435 32 1 436 33 1 437 19 1 438 42 1 439 40 1 440 21 1 441 38 1 442 37 1 443 16 1 444 43 1 445 42 1 446 18 1 447 40 1 448 41 1 449 20 1 450 33 1 451 38 1 452 22 1 453 37 1 454 32 1 455 72 1 456 73 1 457 77 1 458 74 1 459 93 1 460 90 1 461 79 1 462 78 1 463 81 1 464 67 1 465 7 1 466 78 1 467 80 1 468 81 1 469 5 1 470 78 2 471 7 2 472 5 2 473 72 1 474 59 1 475 64 1 476 68 1 477 69 1 478 66 1 479 76 1 480 61 1 481 45 1 482 84 1 483 72 1 484 76 1 485 85 1 486 68 1 487 67 1 488 87 1 489 80 1 490 68 1 491 83 1 492 75 1 493 71 1 494 86 1 495 67 1 496 79 1 497 88 1 498 71 1 499 72 1 500 89 1 501 79 1 502 80 1 503 27 1 504 88 1 505 84 1 506 15 1 507 83 1 508 88 1 509 26 1 510 85 1 511 86 1 512 13 1 513 87 1 514 85 1 515 25 1 516 84 1 517 82 1 518 24 1 519 86 1 520 89 1 521 4 1 522 57 1 523 56 1 524 12 1 525 89 1 526 87 1 527 90 0 528 93 0 529 92 0 530 70 5 531 90 5 532 91 5 533 77 4 534 92 4 535 93 4 536 73 3 537 91 3 538 92 3 539</p>
        </triangles>
      </mesh>
    </geometry>
  </library_geometries>
  <library_visual_scenes>
    <visual_scene id="Scene" name="Scene">
      <node id="body" name="body" type="NODE">
        <matrix sid="transform">0.4049383 0 0 0 0 0.6074074 0 0 0 0 0.6074074 0.05245037 0 0 0 1</matrix>
        <instance_geometry url="#Cube_071-mesh" name="body">
          <bind_material>
            <technique_common>
              <instance_material symbol="g_dark-material" target="#g_dark-material">
                <bind_vertex_input semantic="UVMap" input_semantic="TEXCOORD" input_set="0"/>
              </instance_material>
            </technique_common>
          </bind_material>
        </instance_geometry>
      </node>
    </visual_scene>
  </library_visual_scenes>
  <scene>
    <instance_visual_scene url="#Scene"/>
  </scene>
</COLLADA>