<?xml version="1.0" encoding="utf-8"?>
<COLLADA xmlns="http://www.collada.org/2005/11/COLLADASchema" version="1.4.1" xmlns:xsi="http://www.w3.org/2001/XMLSchema-instance">
  <asset>
    <contributor>
      <author>Blender User</author>
      <authoring_tool>Blender 3.6.23 commit date:2025-06-16, commit time:11:52, hash:e467db79ca8c</authoring_tool>
    </contributor>
    <created>2026-06-24T16:07:26</created>
    <modified>2026-06-24T16:07:26</modified>
    <unit name="meter" meter="1"/>
    <up_axis>Z_UP</up_axis>
  </asset>
  <library_effects>
    <effect id="g_metal-effect">
      <profile_COMMON>
        <technique sid="common">
          <lambert>
            <emission>
              <color sid="emission">0 0 0 1</color>
            </emission>
            <diffuse>
              <color sid="diffuse">0.6 0.62 0.65 1</color>
            </diffuse>
            <reflectivity>
              <float sid="specular">0.9</float>
            </reflectivity>
            <index_of_refraction>
              <float sid="ior">1.45</float>
            </index_of_refraction>
          </lambert>
        </technique>
      </profile_COMMON>
    </effect>
  </library_effects>
  <library_images/>
  <library_materials>
    <material id="g_metal-material" name="g_metal">
      <instance_effect url="#g_metal-effect"/>
    </material>
  </library_materials>
  <library_geometries>
    <geometry id="Cube_088-mesh" name="Cube.088">
      <mesh>
        <source id="Cube_088-mesh-positions">
          <float_array id="Cube_088-mesh-positions-array" count="201">0.06049996 -0.04559999 0.05499994 0.06049996 -0.04559999 0.115 0.06049996 0.04559999 0.05499994 0.06049996 0.04559999 0.115 0.07319998 -0.04559999 0.05499994 0.07319998 -0.04559999 0.105 0.07319998 -0.04559999 0.115 0.07319998 -0.04559999 0.115 0.07319998 0.04559999 0.105 0.07319998 0.04559999 0.05499994 0.07319998 0.04559999 0.115 0.07319998 0.04559999 0.115 0.06049996 0.04559999 0.105 0.07319998 0.04559999 0.105 0.06049996 -0.04559999 0.105 0.07319998 -0.04559999 0.105 0.0616545 -0.04559999 0.105 0.06049996 -0.04559999 0.1087555 0.07319998 0.04559999 0.1121742 0.07287096 0.04559999 0.1121501 0.06122708 -0.04559999 0.1087023 0.07319998 -0.04559999 0.115 0.06049996 0.04559999 0.115 0.07319998 0.04559999 0.115 0.07319998 0.04559999 0.115 0.06049996 0.04559999 0.105 0.07319998 0.04559999 0.105 0.07319998 0.04559999 0.105 0.06049996 -0.04559999 0.105 0.07319998 0.04559999 0.1121742 0.07319998 -0.04559999 0.115 0.06049996 -0.04559999 0.115 0.07319998 -0.04559999 0.115 0.06049996 -0.04559999 0.105 0.07319998 -0.04559999 0.105 0.07319998 -0.04559999 0.105 0.06049996 -0.04559999 0.1087555 0.07319998 -0.04559999 0.115 0.07319998 0.04559999 0.115 0.06049996 -0.04559999 0.105 0.06049996 0.04559999 0.105 -0.05042219 0.04559999 0.115 -0.05042219 0.04559999 0.115 -0.06312221 0.04559999 0.115 -0.05042219 0.04559999 0.115 -0.1484222 0.04559999 0.115 -0.06312221 0.04559999 0.105 -0.05042219 0.04559999 0.105 -0.05042219 0.04559999 0.105 -0.1484222 0.04559999 0.105 -0.1484222 0.04559999 0.105 -0.05042219 0.04559999 0.1121742 -0.06312221 0.04559999 0.105 -0.1484222 -0.04559999 0.105 -0.1484222 -0.04559999 0.115 -0.1484222 -0.04559999 0.105 -0.05042219 -0.04559999 0.115 -0.06312221 -0.04559999 0.115 -0.05042219 -0.04559999 0.115 -0.06312221 -0.04559999 0.105 -0.05042219 -0.04559999 0.105 -0.05042219 -0.04559999 0.105 -0.06312221 -0.04559999 0.1087555 -0.1484222 -0.04559999 0.115 -0.1484222 0.04559999 0.115 -0.05042219 -0.04559999 0.115 -0.06312221 -0.04559999 0.105</float_array>
          <technique_common>
            <accessor source="#Cube_088-mesh-positions-array" count="67" stride="3">
              <param name="X" type="float"/>
              <param name="Y" type="float"/>
              <param name="Z" type="float"/>
            </accessor>
          </technique_common>
        </source>
        <source id="Cube_088-mesh-normals">
          <float_array id="Cube_088-mesh-normals-array" count="39">0 0 1 0 1 0 1 0 0 0 -1 0 0 0 -1 -1 0 0 0 -0.8431298 0.5377102 -1 0 0 0 1 -7.53869e-7 0 -1 4.54854e-7 0 1 0 0 -1 0 0 -0.980432 -0.1968583</float_array>
          <technique_common>
            <accessor source="#Cube_088-mesh-normals-array" count="13" stride="3">
              <param name="X" type="float"/>
              <param name="Y" type="float"/>
              <param name="Z" type="float"/>
            </accessor>
          </technique_common>
        </source>
        <source id="Cube_088-mesh-map-0">
          <float_array id="Cube_088-mesh-map-0-array" count="780">0.375 0.75 0.3043558 0.75 0.3043558 0.75 0.4688873 0.8438873 0.375 0.8438873 0.375 0.8438873 0.5543559 0.4293558 0.5537537 0.4287536 0.625 0.4293558 0.5537537 0.4287536 0.5543559 0.4293558 0.375 0.4293558 0.625 0.5 0.375 0.75 0.375 0.5 0.625 0.75 0.625 0.75 0.625 0.75 0.375 0.8438873 0.4675564 0.8425565 0.4688873 0.8438873 0.625 0.8438873 0.4688873 0.8438873 0.4675564 0.8425565 0.375 0.75 0.3043558 0.5 0.375 0.5 0.625 0.4293558 0.5543559 0.4293558 0.5543559 0.4293558 0.375 0.5 0.625 0.5 0.625 0.5 0.375 0.25 0.6022727 0 0.6022727 0.25 0.375 0.5 0.6022727 0.25 0.6022727 0.5 0.375 0.75 0.6022727 0.5 0.6022727 0.75 0.375 0.75 0.6022727 0.75 0.6022727 0.9772727 0.375 0.5 0.125 0.75 0.125 0.5 0.625 0.8206443 0.625 0.8438873 0.625 0.8438873 0.3043558 0.75 0.375 0.75 0.3043558 0.75 0.625 0.5 0.625 0.75 0.625 0.75 0.6022727 0 0.6022727 0 0.6022727 0 0.5543559 0.4293558 0.375 0.4293558 0.375 0.4293558 0.625 0.5 0.625 0.75 0.625 0.75 0.375 0.4061127 0.625 0.4061127 0.625 0.4061127 0.625 0.4061127 0.625 0.4293558 0.625 0.4293558 0.6022727 0 0.6022727 0.25 0.6022727 0.25 0.3043558 0.5 0.375 0.5 0.375 0.5 0.625 0.4061127 0.625 0.4293558 0.625 0.4293558 0.375 0.5 0.625 0.5 0.625 0.5 0.6022727 0 0.6022727 0.25 0.6022727 0.25 0.625 0.8438873 0.625 0.8206443 0.625 0.8438873 0.6022727 0.25 0.6022727 0.25 0.6022727 0.25 0.5543559 0.4293558 0.375 0.4293558 0.375 0.4293558 0.625 0.75 0.375 0.75 0.375 0.75 0.625 0.5 0.625 0.5 0.625 0.5 0.625 0.5 0.625 0.75 0.625 0.75 0.4688873 0.8438873 0.375 0.8438873 0.375 0.8438873 0.625 0.75 0.375 0.75 0.375 0.75 0.6022727 0 0.6022727 0.25 0.6022727 0.25 0.625 0.8438873 0.4688873 0.8438873 0.4688873 0.8438873 0.375 0.8206442 0.625 0.8206443 0.625 0.8206443 0.625 0.4061127 0.625 0.25 0.625 0.5 0.375 0.4061127 0.375 0.25 0.375 0.25 0.625 1 0.375 1 0.375 1 0.375 1 0.375 0.8438873 0.375 0.8438873 0.625 0.75 0.625 1 0.625 0.8438873 0.625 0 0.375 0.25 0.375 0 0.125 0.75 0.2811127 0.5 0.2811127 0.75 0.875 0.5 0.625 0.75 0.625 0.5 0.625 0.75 0.625 1 0.625 1 0.375 0.25 0.625 0.25 0.625 0.25 0.625 0.25 0.625 0.5 0.625 0.5 0.6022727 0 0.6022727 0 0.6022727 0 0.625 0.8438873 0.4688873 0.8438873 0.4688873 0.8438873 0.375 0.4061127 0.625 0.4061127 0.625 0.4061127 0.625 0.4293558 0.5543559 0.4293558 0.5543559 0.4293558 0.375 0.8206442 0.625 0.8206443 0.625 0.8206443 0.625 0.75 0.625 0.75 0.625 0.75 0.3043558 0.5 0.375 0.5 0.375 0.5 0.375 0.75 0.375 0.75 0.3043558 0.75 0.4688873 0.8438873 0.4688873 0.8438873 0.375 0.8438873 0.375 0.4293558 0.375 0.4061127 0.5537537 0.4287536 0.375 0.4061127 0.625 0.4061127 0.5537537 0.4287536 0.625 0.4061127 0.625 0.4293558 0.5537537 0.4287536 0.625 0.5 0.625 0.75 0.375 0.75 0.625 0.75 0.625 0.75 0.625 0.75 0.375 0.8438873 0.375 0.8417742 0.4675564 0.8425565 0.4675564 0.8425565 0.375 0.8417742 0.375 0.8206442 0.375 0.8206442 0.625 0.8206443 0.4675564 0.8425565 0.625 0.8206443 0.625 0.8438873 0.4675564 0.8425565 0.375 0.75 0.3043558 0.75 0.3043558 0.5 0.625 0.4293558 0.625 0.4293558 0.5543559 0.4293558 0.375 0.5 0.375 0.5 0.625 0.5 0.375 0.25 0.375 0 0.6022727 0 0.375 0.5 0.375 0.25 0.6022727 0.25 0.375 0.75 0.375 0.5 0.6022727 0.5 0.6022727 0.9772727 0.6022727 1 0.375 1 0.375 1 0.375 0.75 0.6022727 0.9772727 0.375 0.5 0.375 0.75 0.125 0.75 0.625 0.8206443 0.625 0.8206443 0.625 0.8438873 0.3043558 0.75 0.375 0.75 0.375 0.75 0.625 0.5 0.625 0.5 0.625 0.75 0.6022727 0 0.6022727 0 0.6022727 0 0.5543559 0.4293558 0.5543559 0.4293558 0.375 0.4293558 0.625 0.5 0.625 0.5 0.625 0.75 0.375 0.4061127 0.375 0.4061127 0.625 0.4061127 0.625 0.4061127 0.625 0.4061127 0.625 0.4293558 0.6022727 0 0.6022727 0 0.6022727 0.25 0.3043558 0.5 0.3043558 0.5 0.375 0.5 0.625 0.4061127 0.625 0.4061127 0.625 0.4293558 0.375 0.5 0.375 0.5 0.625 0.5 0.6022727 0 0.6022727 0 0.6022727 0.25 0.625 0.8438873 0.625 0.8206443 0.625 0.8206443 0.6022727 0.25 0.6022727 0.25 0.6022727 0.25 0.5543559 0.4293558 0.5543559 0.4293558 0.375 0.4293558 0.625 0.75 0.625 0.75 0.375 0.75 0.625 0.5 0.625 0.5 0.625 0.5 0.625 0.5 0.625 0.5 0.625 0.75 0.4688873 0.8438873 0.4688873 0.8438873 0.375 0.8438873 0.625 0.75 0.625 0.75 0.375 0.75 0.6022727 0 0.6022727 0 0.6022727 0.25 0.625 0.8438873 0.625 0.8438873 0.4688873 0.8438873 0.375 0.8206442 0.375 0.8206442 0.625 0.8206443 0.625 0.4061127 0.375 0.4061127 0.375 0.25 0.625 0.5 0.375 0.5 0.5543559 0.4293558 0.375 0.5 0.375 0.4293558 0.5543559 0.4293558 0.625 0.4061127 0.375 0.25 0.625 0.25 0.625 0.5 0.5543559 0.4293558 0.625 0.4293558 0.625 0.4293558 0.625 0.4061127 0.625 0.5 0.375 0.4061127 0.375 0.4061127 0.375 0.25 0.625 1 0.625 1 0.375 1 0.375 1 0.375 1 0.375 0.8438873 0.375 0.8206442 0.375 0.75 0.625 0.8206443 0.375 0.75 0.625 0.75 0.625 0.8206443 0.625 1 0.375 1 0.4688873 0.8438873 0.375 1 0.375 0.8438873 0.4688873 0.8438873 0.625 1 0.4688873 0.8438873 0.625 0.8438873 0.625 0.8438873 0.625 0.8206443 0.625 0.75 0.625 0 0.625 0.25 0.375 0.25 0.125 0.75 0.125 0.5 0.2811127 0.5 0.875 0.5 0.875 0.75 0.625 0.75 0.625 0.75 0.625 0.75 0.625 1 0.375 0.25 0.375 0.25 0.625 0.25 0.625 0.25 0.625 0.25 0.625 0.5 0.6022727 0 0.6022727 0 0.6022727 0 0.625 0.8438873 0.625 0.8438873 0.4688873 0.8438873 0.375 0.4061127 0.375 0.4061127 0.625 0.4061127 0.625 0.4293558 0.625 0.4293558 0.5543559 0.4293558 0.375 0.8206442 0.375 0.8206442 0.625 0.8206443 0.625 0.75 0.625 0.75 0.625 0.75 0.3043558 0.5 0.3043558 0.5 0.375 0.5</float_array>
          <technique_common>
            <accessor source="#Cube_088-mesh-map-0-array" count="390" stride="2">
              <param name="S" type="float"/>
              <param name="T" type="float"/>
            </accessor>
          </technique_common>
        </source>
        <vertices id="Cube_088-mesh-vertices">
          <input semantic="POSITION" source="#Cube_088-mesh-positions"/>
        </vertices>
        <triangles material="g_metal-material" count="130">
          <input semantic="VERTEX" source="#Cube_088-mesh-vertices" offset="0"/>
          <input semantic="NORMAL" source="#Cube_088-mesh-normals" offset="1"/>
          <input semantic="TEXCOORD" source="#Cube_088-mesh-map-0" offset="2" set="0"/>
          <p>5 0 0 35 0 1 15 0 2 17 0 3 33 0 4 14 0 5 18 1 6 19 1 7 10 1 8 19 1 9 18 1 10 13 1 11 11 2 12 5 2 13 8 2 14 21 0 15 30 0 16 6 0 17 14 3 18 20 3 19 17 3 20 1 3 21 17 3 22 20 3 23 5 4 24 13 4 25 8 4 26 10 0 27 29 0 28 18 0 29 8 0 30 24 0 31 11 0 32 2 5 33 14 5 34 12 5 35 9 1 36 12 1 37 13 1 38 4 2 39 13 2 40 15 2 41 4 3 42 15 3 43 16 3 44 9 4 45 0 4 46 2 4 47 7 0 48 31 0 49 1 0 50 35 4 51 60 4 52 61 4 53 24 0 54 37 0 55 21 0 56 14 0 57 39 0 58 28 0 59 18 0 60 27 0 61 13 0 62 11 0 63 21 0 64 6 0 65 12 0 66 22 0 67 3 0 68 22 0 69 44 0 70 23 0 71 14 0 72 25 0 73 12 0 74 13 0 75 26 0 76 8 0 77 3 0 78 23 0 79 10 0 80 26 1 81 41 1 82 24 1 83 39 4 84 52 4 85 40 4 86 31 0 87 58 0 88 57 0 89 40 0 90 46 0 91 25 0 92 29 3 93 48 3 94 27 3 95 30 3 96 60 3 97 34 3 98 24 0 99 42 0 100 38 0 101 38 0 102 65 0 103 37 0 104 36 3 105 59 3 106 33 3 107 6 0 108 34 0 109 5 0 110 28 0 111 40 0 112 25 0 113 1 0 114 36 0 115 17 0 116 15 0 117 32 0 118 7 0 119 43 1 120 45 1 121 41 1 122 46 0 123 49 0 124 50 0 125 54 0 126 55 0 127 53 0 128 53 0 129 66 0 130 59 0 131 56 6 132 54 6 133 57 6 134 63 7 135 49 7 136 55 7 137 55 4 138 52 4 139 66 4 140 64 0 141 65 0 142 42 0 143 56 0 144 63 0 145 54 0 146 50 0 147 64 0 148 45 0 149 45 0 150 42 0 151 41 0 152 33 0 153 66 0 154 39 0 155 31 3 156 62 3 157 36 3 158 25 1 159 43 1 160 22 1 161 23 3 162 51 3 163 29 3 164 35 1 165 58 1 166 32 1 167 37 0 168 56 0 169 30 0 170 27 0 171 47 0 172 26 0 173 5 0 174 34 0 175 35 0 176 17 0 177 36 0 178 33 0 179 13 1 180 12 1 181 19 1 182 12 1 183 3 1 184 19 1 185 3 8 186 10 8 187 19 8 188 11 2 189 6 2 190 5 2 191 21 0 192 37 0 193 30 0 194 14 3 195 16 3 196 20 3 197 20 3 198 16 3 199 15 3 200 15 3 201 7 3 202 20 3 203 7 9 204 1 9 205 20 9 206 5 4 207 15 4 208 13 4 209 10 0 210 23 0 211 29 0 212 8 0 213 26 0 214 24 0 215 2 5 216 0 5 217 14 5 218 9 10 219 2 10 220 12 10 221 4 2 222 9 2 223 13 2 224 16 11 225 14 11 226 0 11 227 0 3 228 4 3 229 16 3 230 9 4 231 4 4 232 0 4 233 7 0 234 32 0 235 31 0 236 35 0 237 34 0 238 60 0 239 24 0 240 38 0 241 37 0 242 14 0 243 33 0 244 39 0 245 18 0 246 29 0 247 27 0 248 11 0 249 24 0 250 21 0 251 12 0 252 25 0 253 22 0 254 22 0 255 43 0 256 44 0 257 14 0 258 28 0 259 25 0 260 13 0 261 27 0 262 26 0 263 3 0 264 22 0 265 23 0 266 26 1 267 47 1 268 41 1 269 39 4 270 66 4 271 52 4 272 31 0 273 32 0 274 58 0 275 40 0 276 52 0 277 46 0 278 29 3 279 51 3 280 48 3 281 30 3 282 56 3 283 60 3 284 24 0 285 41 0 286 42 0 287 38 0 288 42 0 289 65 0 290 36 3 291 62 3 292 59 3 293 6 0 294 30 0 295 34 0 296 28 0 297 39 0 298 40 0 299 1 0 300 31 0 301 36 0 302 15 0 303 35 0 304 32 0 305 43 1 306 46 1 307 50 1 308 41 1 309 47 1 310 51 1 311 47 1 312 48 1 313 51 1 314 43 1 315 50 1 316 45 1 317 41 1 318 51 1 319 44 1 320 44 1 321 43 1 322 41 1 323 46 0 324 52 0 325 49 0 326 54 0 327 63 0 328 55 0 329 53 0 330 55 0 331 66 0 332 61 0 333 60 0 334 58 0 335 60 3 336 56 3 337 58 3 338 54 3 339 53 3 340 62 3 341 53 3 342 59 3 343 62 3 344 54 3 345 62 3 346 57 3 347 57 12 348 58 12 349 56 12 350 63 7 351 64 7 352 49 7 353 55 4 354 49 4 355 52 4 356 64 0 357 63 0 358 65 0 359 56 0 360 65 0 361 63 0 362 50 0 363 49 0 364 64 0 365 45 0 366 64 0 367 42 0 368 33 0 369 59 0 370 66 0 371 31 3 372 57 3 373 62 3 374 25 1 375 46 1 376 43 1 377 23 3 378 44 3 379 51 3 380 35 1 381 61 1 382 58 1 383 37 0 384 65 0 385 56 0 386 27 4 387 48 4 388 47 4 389</p>
        </triangles>
      </mesh>
    </geometry>
  </library_geometries>
  <library_visual_scenes>
    <visual_scene id="Scene" name="Scene">
      <node id="jaw_fixed" name="jaw_fixed" type="NODE">
        <matrix sid="transform">1 0 0 0.1277291 0 1 0 0 0 0 1 0 0 0 0 1</matrix>
        <instance_geometry url="#Cube_088-mesh" name="jaw_fixed">
          <bind_material>
            <technique_common>
              <instance_material symbol="g_metal-material" target="#g_metal-material">
                <bind_vertex_input semantic="UVMap" input_semantic="TEXCOORD" input_set="0"/>
              </instance_material>
            </technique_common>
          </bind_material>
        </instance_geometry>
      </node>
    </visual_scene>
  </library_visual_scenes>
  <scene>
    <instance_visual_scene url="#Scene"/>
  </scene>
</COLLADA>