<?xml version="1.0" encoding="utf-8"?>
<COLLADA xmlns="http://www.collada.org/2005/11/COLLADASchema" version="1.4.1" xmlns:xsi="http://www.w3.org/2001/XMLSchema-instance">
  <asset>
    <contributor>
      <author>Blender User</author>
      <authoring_tool>Blender 3.6.23 commit date:2025-06-16, commit time:11:52, hash:e467db79ca8c</authoring_tool>
    </contributor>
    <created>2026-06-24T16:07:26</created>
    <modified>2026-06-24T16:07:26</modified>
    <unit name="meter" meter="1"/>
    <up_axis>Z_UP</up_axis>
  </asset>
  <library_effects>
    <effect id="g_metal-effect">
      <profile_COMMON>
        <technique sid="common">
          <lambert>
            <emission>
              <color sid="emission">0 0 0 1</color>
            </emission>
            <diffuse>
              <color sid="diffuse">0.6 0.62 0.65 1</color>
            </diffuse>
            <reflectivity>
              <float sid="specular">0.9</float>
            </reflectivity>
            <index_of_refraction>
              <float sid="ior">1.45</float>
            </index_of_refraction>
          </lambert>
        </technique>
      </profile_COMMON>
    </effect>
    <effect id="g_dark-effect">
      <profile_COMMON>
        <technique sid="common">
          <lambert>
            <emission>
              <color sid="emission">0 0 0 1</color>
            </emission>
            <diffuse>
              <color sid="diffuse">0.11 0.11 0.12 1</color>
            </diffuse>
            <reflectivity>
              <float sid="specular">0.5</float>
            </reflectivity>
            <index_of_refraction>
              <float sid="ior">1.45</float>
            </index_of_refraction>
          </lambert>
        </technique>
      </profile_COMMON>
    </effect>
  </library_effects>
  <library_images/>
  <library_materials>
    <material id="g_metal-material" name="g_metal">
      <instance_effect url="#g_metal-effect"/>
    </material>
    <material id="g_dark-material" name="g_dark">
      <instance_effect url="#g_dark-effect"/>
    </material>
  </library_materials>
  <library_geometries>
    <geometry id="Cube_096-mesh" name="Cube.096">
      <mesh>
        <source id="Cube_096-mesh-positions">
          <float_array id="Cube_096-mesh-positions-array" count="48">-0.0625 -0.03499996 0.05609995 -0.0625 -0.03499996 0.1061 -0.0625 0.03499996 0.05609995 -0.0625 0.03499996 0.1061 -0.04049998 -0.03499996 0.05609995 -0.04049998 -0.03499996 0.1061 -0.04049998 0.03499996 0.05609995 -0.04049998 0.03499996 0.1061 -0.06 -0.01999998 0.1061 -0.06 -0.01999998 0.1271 -0.06 0.01999998 0.1061 -0.06 0.01999998 0.1271 -0.04049998 -0.01999998 0.1061 -0.04049998 -0.01999998 0.1271 -0.04049998 0.01999998 0.1061 -0.04049998 0.01999998 0.1271</float_array>
          <technique_common>
            <accessor source="#Cube_096-mesh-positions-array" count="16" stride="3">
              <param name="X" type="float"/>
              <param name="Y" type="float"/>
              <param name="Z" type="float"/>
            </accessor>
          </technique_common>
        </source>
        <source id="Cube_096-mesh-normals">
          <float_array id="Cube_096-mesh-normals-array" count="18">-1 0 0 0 1 0 1 0 0 0 -1 0 0 0 -1 0 0 1</float_array>
          <technique_common>
            <accessor source="#Cube_096-mesh-normals-array" count="6" stride="3">
              <param name="X" type="float"/>
              <param name="Y" type="float"/>
              <param name="Z" type="float"/>
            </accessor>
          </technique_common>
        </source>
        <source id="Cube_096-mesh-map-0">
          <float_array id="Cube_096-mesh-map-0-array" count="144">0.625 0 0.375 0.25 0.375 0 0.625 0.25 0.375 0.5 0.375 0.25 0.625 0.5 0.375 0.75 0.375 0.5 0.625 0.75 0.375 1 0.375 0.75 0.375 0.5 0.125 0.75 0.125 0.5 0.875 0.5 0.625 0.75 0.625 0.5 0.625 0 0.375 0.25 0.375 0 0.625 0.25 0.375 0.5 0.375 0.25 0.625 0.5 0.375 0.75 0.375 0.5 0.625 0.75 0.375 1 0.375 0.75 0.375 0.5 0.125 0.75 0.125 0.5 0.875 0.5 0.625 0.75 0.625 0.5 0.625 0 0.625 0.25 0.375 0.25 0.625 0.25 0.625 0.5 0.375 0.5 0.625 0.5 0.625 0.75 0.375 0.75 0.625 0.75 0.625 1 0.375 1 0.375 0.5 0.375 0.75 0.125 0.75 0.875 0.5 0.875 0.75 0.625 0.75 0.625 0 0.625 0.25 0.375 0.25 0.625 0.25 0.625 0.5 0.375 0.5 0.625 0.5 0.625 0.75 0.375 0.75 0.625 0.75 0.625 1 0.375 1 0.375 0.5 0.375 0.75 0.125 0.75 0.875 0.5 0.875 0.75 0.625 0.75</float_array>
          <technique_common>
            <accessor source="#Cube_096-mesh-map-0-array" count="72" stride="2">
              <param name="S" type="float"/>
              <param name="T" type="float"/>
            </accessor>
          </technique_common>
        </source>
        <vertices id="Cube_096-mesh-vertices">
          <input semantic="POSITION" source="#Cube_096-mesh-positions"/>
        </vertices>
        <triangles material="g_metal-material" count="12">
          <input semantic="VERTEX" source="#Cube_096-mesh-vertices" offset="0"/>
          <input semantic="NORMAL" source="#Cube_096-mesh-normals" offset="1"/>
          <input semantic="TEXCOORD" source="#Cube_096-mesh-map-0" offset="2" set="0"/>
          <p>1 0 0 2 0 1 0 0 2 3 1 3 6 1 4 2 1 5 7 2 6 4 2 7 6 2 8 5 3 9 0 3 10 4 3 11 6 4 12 0 4 13 2 4 14 3 5 15 5 5 16 7 5 17 1 0 36 3 0 37 2 0 38 3 1 39 7 1 40 6 1 41 7 2 42 5 2 43 4 2 44 5 3 45 1 3 46 0 3 47 6 4 48 4 4 49 0 4 50 3 5 51 1 5 52 5 5 53</p>
        </triangles>
        <triangles material="g_dark-material" count="12">
          <input semantic="VERTEX" source="#Cube_096-mesh-vertices" offset="0"/>
          <input semantic="NORMAL" source="#Cube_096-mesh-normals" offset="1"/>
          <input semantic="TEXCOORD" source="#Cube_096-mesh-map-0" offset="2" set="0"/>
          <p>9 0 18 10 0 19 8 0 20 11 1 21 14 1 22 10 1 23 15 2 24 12 2 25 14 2 26 13 3 27 8 3 28 12 3 29 14 4 30 8 4 31 10 4 32 11 5 33 13 5 34 15 5 35 9 0 54 11 0 55 10 0 56 11 1 57 15 1 58 14 1 59 15 2 60 13 2 61 12 2 62 13 3 63 9 3 64 8 3 65 14 4 66 12 4 67 8 4 68 11 5 69 9 5 70 13 5 71</p>
        </triangles>
      </mesh>
    </geometry>
  </library_geometries>
  <library_visual_scenes>
    <visual_scene id="Scene" name="Scene">
      <node id="jaw_moving" name="jaw_moving" type="NODE">
        <matrix sid="transform">1 0 0 0.1377 0 1 0 0 0 0 1 0 0 0 0 1</matrix>
        <instance_geometry url="#Cube_096-mesh" name="jaw_moving">
          <bind_material>
            <technique_common>
              <instance_material symbol="g_metal-material" target="#g_metal-material">
                <bind_vertex_input semantic="UVMap" input_semantic="TEXCOORD" input_set="0"/>
              </instance_material>
              <instance_material symbol="g_dark-material" target="#g_dark-material">
                <bind_vertex_input semantic="UVMap" input_semantic="TEXCOORD" input_set="0"/>
              </instance_material>
            </technique_common>
          </bind_material>
        </instance_geometry>
      </node>
    </visual_scene>
  </library_visual_scenes>
  <scene>
    <instance_visual_scene url="#Scene"/>
  </scene>
</COLLADA>