<svg xmlns="http://www.w3.org/2000/svg" viewBox="0 0 1240 620" width="1240" height="620"
     font-family="system-ui, -apple-system, 'Noto Sans KR', 'Malgun Gothic', sans-serif">
  <defs>
    <marker id="a" viewBox="0 0 10 10" refX="9" refY="5" markerWidth="7" markerHeight="7" orient="auto-start-reverse">
      <path d="M0,0 L10,5 L0,10 z" fill="#171C24"/>
    </marker>
    <marker id="am" viewBox="0 0 10 10" refX="9" refY="5" markerWidth="7" markerHeight="7" orient="auto-start-reverse">
      <path d="M0,0 L10,5 L0,10 z" fill="#8593A2"/>
    </marker>
  </defs>

  <rect width="1240" height="620" fill="#FAFBFC"/>
  <text x="40" y="44" font-size="19" font-weight="600" fill="#171C24">cbirrt_p1p2_test.py --vision --run · 모듈 한눈에</text>
  <text x="40" y="66" font-size="11" fill="#6A7686">주황 태그 = 사전에 따로 띄워 둬야 하는 프로세스 · 점선 = 파일 / 읽기 전용</text>

  <text x="40" y="102" font-size="12" font-weight="650" fill="#0D6E77">① 비전</text>
  <text x="450" y="102" font-size="12" font-weight="650" fill="#0D6E77">② 오케스트레이터</text>
  <text x="860" y="102" font-size="12" font-weight="650" fill="#0D6E77">③ 계획 → 명령 → 실물</text>

  <!-- ── 열 ① ── -->
  <rect x="40" y="120" width="340" height="86" rx="4" fill="#FFFFFF" stroke="#3C4654" stroke-width="1.6"/>
  <text x="60" y="150" font-size="14" font-weight="650" fill="#171C24">test/vision_target.py</text>
  <text x="60" y="172" font-size="11" fill="#3C4654">비전 결과 → 호버 자세 q 계산</text>
  <text x="60" y="192" font-size="10.5" fill="#8593A2">로봇에 명령 안 보냄</text>

  <line x1="210" y1="206" x2="210" y2="224" stroke="#171C24" stroke-width="1.5" marker-end="url(#a)"/>

  <rect x="40" y="226" width="340" height="86" rx="4" fill="#FFFFFF" stroke="#3C4654" stroke-width="1.6"/>
  <text x="60" y="256" font-size="14" font-weight="650" fill="#171C24">vision_bridge/</text>
  <text x="60" y="278" font-size="11" fill="#3C4654">채택 게이트 + 로봇 base 좌표 변환</text>
  <text x="60" y="298" font-size="10.5" fill="#8593A2">client · gate · transform · config</text>

  <line x1="210" y1="312" x2="210" y2="330" stroke="#8593A2" stroke-width="1.4" stroke-dasharray="5 4" marker-start="url(#am)"/>

  <rect x="40" y="332" width="340" height="86" rx="4" fill="#F4F6F8" stroke="#8593A2" stroke-width="1.2" stroke-dasharray="5 4"/>
  <text x="60" y="362" font-size="14" font-weight="650" fill="#3C4654">handeye_calib/</text>
  <text x="60" y="384" font-size="11" fill="#3C4654">손눈 보정 X (flange ↔ cam)</text>
  <text x="60" y="404" font-size="10.5" fill="#8593A2">handeye_result.json · tool_to_T</text>

  <line x1="210" y1="418" x2="210" y2="436" stroke="#171C24" stroke-width="1.5"
        marker-start="url(#a)" marker-end="url(#a)"/>

  <rect x="40" y="438" width="340" height="86" rx="4" fill="#FFFFFF" stroke="#3C4654" stroke-width="1.6"/>
  <rect x="302" y="450" width="62" height="17" rx="8.5" fill="#FFF3E0" stroke="#B26B00" stroke-width="0.9"/>
  <text x="333" y="463" font-size="9.5" fill="#B26B00" text-anchor="middle">사전 실행</text>
  <text x="60" y="468" font-size="14" font-weight="650" fill="#171C24">vision_runner</text>
  <text x="60" y="490" font-size="11" fill="#3C4654">D405 카메라 소유 · 매거진 검출</text>
  <text x="60" y="510" font-size="10.5" fill="#8593A2">Jetson 호스트 · ZMQ 5555 / 5556</text>

  <!-- ── 열 ② ── -->
  <rect x="450" y="120" width="340" height="86" rx="4" fill="#FFFFFF" stroke="#171C24" stroke-width="2"/>
  <text x="470" y="150" font-size="14.5" font-weight="650" fill="#171C24">test/cbirrt_p1p2_test.py</text>
  <text x="470" y="172" font-size="11" fill="#3C4654">전체 순서 제어 (run_vision)</text>
  <text x="470" y="192" font-size="10.5" fill="#8593A2">obs → 비전 → hover → J6 → 하강 → 복귀</text>

  <line x1="620" y1="206" x2="620" y2="224" stroke="#171C24" stroke-width="1.5" marker-start="url(#a)"/>

  <rect x="450" y="226" width="340" height="86" rx="4" fill="#FFFFFF" stroke="#3C4654" stroke-width="1.6"/>
  <text x="470" y="256" font-size="14" font-weight="650" fill="#171C24">RealtimeMonitor</text>
  <text x="470" y="278" font-size="11" fill="#3C4654">30004 상태 감시 (읽기 전용)</text>
  <text x="470" y="298" font-size="10.5" fill="#8593A2">관절각 · tool_vector · 정지 · 충돌</text>

  <line x1="620" y1="312" x2="620" y2="330" stroke="#171C24" stroke-width="1.5" marker-end="url(#a)"/>

  <rect x="450" y="332" width="340" height="86" rx="4" fill="#FFFFFF" stroke="#3C4654" stroke-width="1.6"/>
  <text x="470" y="362" font-size="14" font-weight="650" fill="#171C24">Dashboard</text>
  <text x="470" y="384" font-size="11" fill="#3C4654">속도 · 충돌 레벨 · 에러 해제</text>
  <text x="470" y="404" font-size="10.5" fill="#B26B00">이동 전 1회 · --run 에서만</text>

  <line x1="620" y1="418" x2="620" y2="436" stroke="#8593A2" stroke-width="1.4" stroke-dasharray="5 4" marker-start="url(#am)"/>

  <rect x="450" y="438" width="340" height="86" rx="4" fill="#F4F6F8" stroke="#8593A2" stroke-width="1.2" stroke-dasharray="5 4"/>
  <text x="470" y="468" font-size="14" font-weight="650" fill="#3C4654">points.json · surfaces.json</text>
  <text x="470" y="490" font-size="11" fill="#3C4654">교시된 obs 자세 · 테이블/벽</text>
  <text x="470" y="510" font-size="10.5" fill="#8593A2">결과 → vision_hover_&lt;시각&gt;.json</text>

  <!-- ── 열 ③ ── -->
  <rect x="860" y="120" width="340" height="86" rx="4" fill="#FFFFFF" stroke="#3C4654" stroke-width="1.6"/>
  <text x="880" y="150" font-size="14" font-weight="650" fill="#171C24">cr7_pnp/</text>
  <text x="880" y="172" font-size="11" fill="#3C4654">CBiRRT 계획 · IK · 충돌 검사</text>
  <text x="880" y="192" font-size="10.5" fill="#8593A2">액션 클라이언트 (move_group 미사용)</text>

  <line x1="1030" y1="206" x2="1030" y2="224" stroke="#171C24" stroke-width="1.5" marker-end="url(#a)"/>

  <rect x="860" y="226" width="340" height="86" rx="4" fill="#FFFFFF" stroke="#3C4654" stroke-width="1.6"/>
  <rect x="1122" y="238" width="62" height="17" rx="8.5" fill="#FFF3E0" stroke="#B26B00" stroke-width="0.9"/>
  <text x="1153" y="251" font-size="9.5" fill="#B26B00" text-anchor="middle">사전 실행</text>
  <text x="880" y="256" font-size="14" font-weight="650" fill="#171C24">action_move_server</text>
  <text x="880" y="278" font-size="11" fill="#3C4654">FJT 액션 서버 → ServoJ 스트리밍</text>
  <text x="880" y="298" font-size="10.5" fill="#8593A2">패키지 dobot_moveit</text>

  <line x1="1030" y1="312" x2="1030" y2="330" stroke="#171C24" stroke-width="1.5" marker-end="url(#a)"/>

  <rect x="860" y="332" width="340" height="86" rx="4" fill="#FFFFFF" stroke="#3C4654" stroke-width="1.6"/>
  <rect x="1122" y="344" width="62" height="17" rx="8.5" fill="#FFF3E0" stroke="#B26B00" stroke-width="0.9"/>
  <text x="1153" y="357" font-size="9.5" fill="#B26B00" text-anchor="middle">사전 실행</text>
  <text x="880" y="362" font-size="14" font-weight="650" fill="#171C24">dobot_bringup_ros2</text>
  <text x="880" y="384" font-size="11" fill="#3C4654">ROS 서비스 ↔ 컨트롤러 TCP</text>
  <text x="880" y="404" font-size="10.5" fill="#8593A2">패키지 dobot_bringup_v4</text>

  <line x1="1030" y1="418" x2="1030" y2="436" stroke="#171C24" stroke-width="1.6" marker-end="url(#a)"/>

  <rect x="860" y="438" width="340" height="86" rx="4" fill="#F2F5F8" stroke="#3C4654" stroke-width="1.5"/>
  <text x="880" y="468" font-size="14" font-weight="650" fill="#171C24">CR7 실물 컨트롤러</text>
  <text x="880" y="490" font-size="11" fill="#3C4654">하드웨어</text>
  <text x="880" y="510" font-size="10.5" fill="#8593A2">접촉 정지 하강까지 포함 (검증 완료)</text>

  <!-- ── 열 사이 ── -->
  <line x1="448" y1="163" x2="384" y2="163" stroke="#171C24" stroke-width="1.6" marker-end="url(#a)"/>
  <text x="416" y="152" font-size="9.5" fill="#6A7686" text-anchor="middle">호출</text>
  <text x="416" y="180" font-size="9.5" fill="#0D6E77" text-anchor="middle">q 회신</text>

  <line x1="792" y1="163" x2="856" y2="163" stroke="#171C24" stroke-width="1.6" marker-end="url(#a)"/>
  <text x="824" y="152" font-size="9.5" fill="#6A7686" text-anchor="middle">호출</text>
  <text x="824" y="180" font-size="9.5" fill="#0D6E77" text-anchor="middle">경로 회신</text>

  <path d="M858,481 H820 V270 H792" fill="none" stroke="#8593A2" stroke-width="1.3"
        stroke-dasharray="5 4" marker-end="url(#am)"/>
  <text x="826" y="300" font-size="9.5" fill="#6A7686">30004</text>

  <text x="40" y="576" font-size="10.5" fill="#8593A2">--run 이 붙어야 실제로 모터가 돈다 (실행 전 y/N 확인). --vision 만 주면 계획·검증까지만 하고 끝난다.</text>
</svg>
