<?xml version="1.0" encoding="utf-8"?>
<COLLADA xmlns="http://www.collada.org/2005/11/COLLADASchema" version="1.4.1" xmlns:xsi="http://www.w3.org/2001/XMLSchema-instance">
  <asset>
    <contributor>
      <author>Blender User</author>
      <authoring_tool>Blender 3.6.23 commit date:2025-06-16, commit time:11:52, hash:e467db79ca8c</authoring_tool>
    </contributor>
    <created>2026-06-12T14:45:46</created>
    <modified>2026-06-12T14:45:46</modified>
    <unit name="meter" meter="1"/>
    <up_axis>Z_UP</up_axis>
  </asset>
  <library_effects>
    <effect id="board_002-effect">
      <profile_COMMON>
        <technique sid="common">
          <lambert>
            <emission>
              <color sid="emission">0 0 0 1</color>
            </emission>
            <diffuse>
              <color sid="diffuse">0.8000001 0.6820669 0.05740798 1</color>
            </diffuse>
            <index_of_refraction>
              <float sid="ior">1.45</float>
            </index_of_refraction>
          </lambert>
        </technique>
      </profile_COMMON>
    </effect>
    <effect id="metal_black_002-effect">
      <profile_COMMON>
        <technique sid="common">
          <lambert>
            <emission>
              <color sid="emission">0 0 0 1</color>
            </emission>
            <diffuse>
              <color sid="diffuse">0.01002163 0.01002163 0.01002163 1</color>
            </diffuse>
            <index_of_refraction>
              <float sid="ior">1.45</float>
            </index_of_refraction>
          </lambert>
        </technique>
      </profile_COMMON>
    </effect>
  </library_effects>
  <library_images/>
  <library_materials>
    <material id="board_002-material" name="board.002">
      <instance_effect url="#board_002-effect"/>
    </material>
    <material id="metal_black_002-material" name="metal_black.002">
      <instance_effect url="#metal_black_002-effect"/>
    </material>
  </library_materials>
  <library_geometries>
    <geometry id="Cube_032-mesh" name="Cube.032">
      <mesh>
        <source id="Cube_032-mesh-positions">
          <float_array id="Cube_032-mesh-positions-array" count="24">-1 -0.15 -0.008999943 -1 -0.15 0.008999943 -1 0.15 -0.008999943 -1 0.15 0.008999943 1 -0.15 -0.008999943 1 -0.15 0.008999943 1 0.15 -0.008999943 1 0.15 0.008999943</float_array>
          <technique_common>
            <accessor source="#Cube_032-mesh-positions-array" count="8" stride="3">
              <param name="X" type="float"/>
              <param name="Y" type="float"/>
              <param name="Z" type="float"/>
            </accessor>
          </technique_common>
        </source>
        <source id="Cube_032-mesh-normals">
          <float_array id="Cube_032-mesh-normals-array" count="18">-1 0 0 0 1 0 1 0 0 0 -1 0 0 0 -1 0 0 1</float_array>
          <technique_common>
            <accessor source="#Cube_032-mesh-normals-array" count="6" stride="3">
              <param name="X" type="float"/>
              <param name="Y" type="float"/>
              <param name="Z" type="float"/>
            </accessor>
          </technique_common>
        </source>
        <source id="Cube_032-mesh-map-0">
          <float_array id="Cube_032-mesh-map-0-array" count="72">0.625 0 0.375 0.25 0.375 0 0.625 0.25 0.375 0.5 0.375 0.25 0.625 0.5 0.375 0.75 0.375 0.5 0.625 0.75 0.375 1 0.375 0.75 0.375 0.5 0.125 0.75 0.125 0.5 0.8750001 0.5 0.625 0.75 0.625 0.5 0.625 0 0.625 0.25 0.375 0.25 0.625 0.25 0.625 0.5 0.375 0.5 0.625 0.5 0.625 0.75 0.375 0.75 0.625 0.75 0.625 1 0.375 1 0.375 0.5 0.375 0.75 0.125 0.75 0.8750001 0.5 0.8750001 0.75 0.625 0.75</float_array>
          <technique_common>
            <accessor source="#Cube_032-mesh-map-0-array" count="36" stride="2">
              <param name="S" type="float"/>
              <param name="T" type="float"/>
            </accessor>
          </technique_common>
        </source>
        <vertices id="Cube_032-mesh-vertices">
          <input semantic="POSITION" source="#Cube_032-mesh-positions"/>
        </vertices>
        <triangles material="board_002-material" count="12">
          <input semantic="VERTEX" source="#Cube_032-mesh-vertices" offset="0"/>
          <input semantic="NORMAL" source="#Cube_032-mesh-normals" offset="1"/>
          <input semantic="TEXCOORD" source="#Cube_032-mesh-map-0" offset="2" set="0"/>
          <p>1 0 0 2 0 1 0 0 2 3 1 3 6 1 4 2 1 5 7 2 6 4 2 7 6 2 8 5 3 9 0 3 10 4 3 11 6 4 12 0 4 13 2 4 14 3 5 15 5 5 16 7 5 17 1 0 18 3 0 19 2 0 20 3 1 21 7 1 22 6 1 23 7 2 24 5 2 25 4 2 26 5 3 27 1 3 28 0 3 29 6 4 30 4 4 31 0 4 32 3 5 33 1 5 34 5 5 35</p>
        </triangles>
      </mesh>
    </geometry>
    <geometry id="Cube_031-mesh" name="Cube.031">
      <mesh>
        <source id="Cube_031-mesh-positions">
          <float_array id="Cube_031-mesh-positions-array" count="24">-1 -0.15 -0.008999943 -1 -0.15 0.008999943 -1 0.15 -0.008999943 -1 0.15 0.008999943 1 -0.15 -0.008999943 1 -0.15 0.008999943 1 0.15 -0.008999943 1 0.15 0.008999943</float_array>
          <technique_common>
            <accessor source="#Cube_031-mesh-positions-array" count="8" stride="3">
              <param name="X" type="float"/>
              <param name="Y" type="float"/>
              <param name="Z" type="float"/>
            </accessor>
          </technique_common>
        </source>
        <source id="Cube_031-mesh-normals">
          <float_array id="Cube_031-mesh-normals-array" count="18">-1 0 0 0 1 0 1 0 0 0 -1 0 0 0 -1 0 0 1</float_array>
          <technique_common>
            <accessor source="#Cube_031-mesh-normals-array" count="6" stride="3">
              <param name="X" type="float"/>
              <param name="Y" type="float"/>
              <param name="Z" type="float"/>
            </accessor>
          </technique_common>
        </source>
        <source id="Cube_031-mesh-map-0">
          <float_array id="Cube_031-mesh-map-0-array" count="72">0.625 0 0.375 0.25 0.375 0 0.625 0.25 0.375 0.5 0.375 0.25 0.625 0.5 0.375 0.75 0.375 0.5 0.625 0.75 0.375 1 0.375 0.75 0.375 0.5 0.125 0.75 0.125 0.5 0.8750001 0.5 0.625 0.75 0.625 0.5 0.625 0 0.625 0.25 0.375 0.25 0.625 0.25 0.625 0.5 0.375 0.5 0.625 0.5 0.625 0.75 0.375 0.75 0.625 0.75 0.625 1 0.375 1 0.375 0.5 0.375 0.75 0.125 0.75 0.8750001 0.5 0.8750001 0.75 0.625 0.75</float_array>
          <technique_common>
            <accessor source="#Cube_031-mesh-map-0-array" count="36" stride="2">
              <param name="S" type="float"/>
              <param name="T" type="float"/>
            </accessor>
          </technique_common>
        </source>
        <vertices id="Cube_031-mesh-vertices">
          <input semantic="POSITION" source="#Cube_031-mesh-positions"/>
        </vertices>
        <triangles material="board_002-material" count="12">
          <input semantic="VERTEX" source="#Cube_031-mesh-vertices" offset="0"/>
          <input semantic="NORMAL" source="#Cube_031-mesh-normals" offset="1"/>
          <input semantic="TEXCOORD" source="#Cube_031-mesh-map-0" offset="2" set="0"/>
          <p>1 0 0 2 0 1 0 0 2 3 1 3 6 1 4 2 1 5 7 2 6 4 2 7 6 2 8 5 3 9 0 3 10 4 3 11 6 4 12 0 4 13 2 4 14 3 5 15 5 5 16 7 5 17 1 0 18 3 0 19 2 0 20 3 1 21 7 1 22 6 1 23 7 2 24 5 2 25 4 2 26 5 3 27 1 3 28 0 3 29 6 4 30 4 4 31 0 4 32 3 5 33 1 5 34 5 5 35</p>
        </triangles>
      </mesh>
    </geometry>
    <geometry id="Cube_030-mesh" name="Cube.030">
      <mesh>
        <source id="Cube_030-mesh-positions">
          <float_array id="Cube_030-mesh-positions-array" count="24">-1 -0.15 -0.008999943 -1 -0.15 0.008999943 -1 0.15 -0.008999943 -1 0.15 0.008999943 1 -0.15 -0.008999943 1 -0.15 0.008999943 1 0.15 -0.008999943 1 0.15 0.008999943</float_array>
          <technique_common>
            <accessor source="#Cube_030-mesh-positions-array" count="8" stride="3">
              <param name="X" type="float"/>
              <param name="Y" type="float"/>
              <param name="Z" type="float"/>
            </accessor>
          </technique_common>
        </source>
        <source id="Cube_030-mesh-normals">
          <float_array id="Cube_030-mesh-normals-array" count="18">-1 0 0 0 1 0 1 0 0 0 -1 0 0 0 -1 0 0 1</float_array>
          <technique_common>
            <accessor source="#Cube_030-mesh-normals-array" count="6" stride="3">
              <param name="X" type="float"/>
              <param name="Y" type="float"/>
              <param name="Z" type="float"/>
            </accessor>
          </technique_common>
        </source>
        <source id="Cube_030-mesh-map-0">
          <float_array id="Cube_030-mesh-map-0-array" count="72">0.625 0 0.375 0.25 0.375 0 0.625 0.25 0.375 0.5 0.375 0.25 0.625 0.5 0.375 0.75 0.375 0.5 0.625 0.75 0.375 1 0.375 0.75 0.375 0.5 0.125 0.75 0.125 0.5 0.8750001 0.5 0.625 0.75 0.625 0.5 0.625 0 0.625 0.25 0.375 0.25 0.625 0.25 0.625 0.5 0.375 0.5 0.625 0.5 0.625 0.75 0.375 0.75 0.625 0.75 0.625 1 0.375 1 0.375 0.5 0.375 0.75 0.125 0.75 0.8750001 0.5 0.8750001 0.75 0.625 0.75</float_array>
          <technique_common>
            <accessor source="#Cube_030-mesh-map-0-array" count="36" stride="2">
              <param name="S" type="float"/>
              <param name="T" type="float"/>
            </accessor>
          </technique_common>
        </source>
        <vertices id="Cube_030-mesh-vertices">
          <input semantic="POSITION" source="#Cube_030-mesh-positions"/>
        </vertices>
        <triangles material="board_002-material" count="12">
          <input semantic="VERTEX" source="#Cube_030-mesh-vertices" offset="0"/>
          <input semantic="NORMAL" source="#Cube_030-mesh-normals" offset="1"/>
          <input semantic="TEXCOORD" source="#Cube_030-mesh-map-0" offset="2" set="0"/>
          <p>1 0 0 2 0 1 0 0 2 3 1 3 6 1 4 2 1 5 7 2 6 4 2 7 6 2 8 5 3 9 0 3 10 4 3 11 6 4 12 0 4 13 2 4 14 3 5 15 5 5 16 7 5 17 1 0 18 3 0 19 2 0 20 3 1 21 7 1 22 6 1 23 7 2 24 5 2 25 4 2 26 5 3 27 1 3 28 0 3 29 6 4 30 4 4 31 0 4 32 3 5 33 1 5 34 5 5 35</p>
        </triangles>
      </mesh>
    </geometry>
    <geometry id="Cube_029-mesh" name="Cube.029">
      <mesh>
        <source id="Cube_029-mesh-positions">
          <float_array id="Cube_029-mesh-positions-array" count="24">-1 -0.15 -0.008999943 -1 -0.15 0.008999943 -1 0.15 -0.008999943 -1 0.15 0.008999943 1 -0.15 -0.008999943 1 -0.15 0.008999943 1 0.15 -0.008999943 1 0.15 0.008999943</float_array>
          <technique_common>
            <accessor source="#Cube_029-mesh-positions-array" count="8" stride="3">
              <param name="X" type="float"/>
              <param name="Y" type="float"/>
              <param name="Z" type="float"/>
            </accessor>
          </technique_common>
        </source>
        <source id="Cube_029-mesh-normals">
          <float_array id="Cube_029-mesh-normals-array" count="18">-1 0 0 0 1 0 1 0 0 0 -1 0 0 0 -1 0 0 1</float_array>
          <technique_common>
            <accessor source="#Cube_029-mesh-normals-array" count="6" stride="3">
              <param name="X" type="float"/>
              <param name="Y" type="float"/>
              <param name="Z" type="float"/>
            </accessor>
          </technique_common>
        </source>
        <source id="Cube_029-mesh-map-0">
          <float_array id="Cube_029-mesh-map-0-array" count="72">0.625 0 0.375 0.25 0.375 0 0.625 0.25 0.375 0.5 0.375 0.25 0.625 0.5 0.375 0.75 0.375 0.5 0.625 0.75 0.375 1 0.375 0.75 0.375 0.5 0.125 0.75 0.125 0.5 0.8750001 0.5 0.625 0.75 0.625 0.5 0.625 0 0.625 0.25 0.375 0.25 0.625 0.25 0.625 0.5 0.375 0.5 0.625 0.5 0.625 0.75 0.375 0.75 0.625 0.75 0.625 1 0.375 1 0.375 0.5 0.375 0.75 0.125 0.75 0.8750001 0.5 0.8750001 0.75 0.625 0.75</float_array>
          <technique_common>
            <accessor source="#Cube_029-mesh-map-0-array" count="36" stride="2">
              <param name="S" type="float"/>
              <param name="T" type="float"/>
            </accessor>
          </technique_common>
        </source>
        <vertices id="Cube_029-mesh-vertices">
          <input semantic="POSITION" source="#Cube_029-mesh-positions"/>
        </vertices>
        <triangles material="board_002-material" count="12">
          <input semantic="VERTEX" source="#Cube_029-mesh-vertices" offset="0"/>
          <input semantic="NORMAL" source="#Cube_029-mesh-normals" offset="1"/>
          <input semantic="TEXCOORD" source="#Cube_029-mesh-map-0" offset="2" set="0"/>
          <p>1 0 0 2 0 1 0 0 2 3 1 3 6 1 4 2 1 5 7 2 6 4 2 7 6 2 8 5 3 9 0 3 10 4 3 11 6 4 12 0 4 13 2 4 14 3 5 15 5 5 16 7 5 17 1 0 18 3 0 19 2 0 20 3 1 21 7 1 22 6 1 23 7 2 24 5 2 25 4 2 26 5 3 27 1 3 28 0 3 29 6 4 30 4 4 31 0 4 32 3 5 33 1 5 34 5 5 35</p>
        </triangles>
      </mesh>
    </geometry>
    <geometry id="Cube_027-mesh" name="Cube.027">
      <mesh>
        <source id="Cube_027-mesh-positions">
          <float_array id="Cube_027-mesh-positions-array" count="24">-0.01499992 -0.01499992 -0.475 -0.01499992 -0.01499998 0.8972223 -0.01499992 0.01499992 -0.475 -0.01499992 0.01499992 0.8972223 0.01499992 -0.01499992 -0.475 0.01500004 -0.01499998 0.8972223 0.01499992 0.01499992 -0.475 0.01500004 0.01499992 0.8972223</float_array>
          <technique_common>
            <accessor source="#Cube_027-mesh-positions-array" count="8" stride="3">
              <param name="X" type="float"/>
              <param name="Y" type="float"/>
              <param name="Z" type="float"/>
            </accessor>
          </technique_common>
        </source>
        <source id="Cube_027-mesh-normals">
          <float_array id="Cube_027-mesh-normals-array" count="27">-1 0 0 0 1 0 1 0 0 0 -1 0 0 0 -1 0 0 1 0 1 0 1 0 0 0 -1 0</float_array>
          <technique_common>
            <accessor source="#Cube_027-mesh-normals-array" count="9" stride="3">
              <param name="X" type="float"/>
              <param name="Y" type="float"/>
              <param name="Z" type="float"/>
            </accessor>
          </technique_common>
        </source>
        <source id="Cube_027-mesh-map-0">
          <float_array id="Cube_027-mesh-map-0-array" count="72">0.625 0 0.375 0.25 0.375 0 0.625 0.25 0.375 0.5 0.375 0.25 0.625 0.5 0.375 0.75 0.375 0.5 0.625 0.75 0.375 1 0.375 0.75 0.375 0.5 0.125 0.75 0.125 0.5 0.8750001 0.5 0.625 0.75 0.625 0.5 0.625 0 0.625 0.25 0.375 0.25 0.625 0.25 0.625 0.5 0.375 0.5 0.625 0.5 0.625 0.75 0.375 0.75 0.625 0.75 0.625 1 0.375 1 0.375 0.5 0.375 0.75 0.125 0.75 0.8750001 0.5 0.8750001 0.75 0.625 0.75</float_array>
          <technique_common>
            <accessor source="#Cube_027-mesh-map-0-array" count="36" stride="2">
              <param name="S" type="float"/>
              <param name="T" type="float"/>
            </accessor>
          </technique_common>
        </source>
        <vertices id="Cube_027-mesh-vertices">
          <input semantic="POSITION" source="#Cube_027-mesh-positions"/>
        </vertices>
        <triangles material="metal_black_002-material" count="12">
          <input semantic="VERTEX" source="#Cube_027-mesh-vertices" offset="0"/>
          <input semantic="NORMAL" source="#Cube_027-mesh-normals" offset="1"/>
          <input semantic="TEXCOORD" source="#Cube_027-mesh-map-0" offset="2" set="0"/>
          <p>1 0 0 2 0 1 0 0 2 3 1 3 6 1 4 2 1 5 7 2 6 4 2 7 6 2 8 5 3 9 0 3 10 4 3 11 6 4 12 0 4 13 2 4 14 3 5 15 5 5 16 7 5 17 1 0 18 3 0 19 2 0 20 3 6 21 7 6 22 6 6 23 7 7 24 5 7 25 4 7 26 5 8 27 1 8 28 0 8 29 6 4 30 4 4 31 0 4 32 3 5 33 1 5 34 5 5 35</p>
        </triangles>
      </mesh>
    </geometry>
    <geometry id="Cube_025-mesh" name="Cube.025">
      <mesh>
        <source id="Cube_025-mesh-positions">
          <float_array id="Cube_025-mesh-positions-array" count="24">-0.01499992 -0.01499992 -0.475 -0.01499992 -0.01499992 0.8972223 -0.01499992 0.01499992 -0.475 -0.01499992 0.01499998 0.8972223 0.01499992 -0.01499992 -0.475 0.01500004 -0.01499992 0.8972223 0.01499992 0.01499992 -0.475 0.01500004 0.01499998 0.8972223</float_array>
          <technique_common>
            <accessor source="#Cube_025-mesh-positions-array" count="8" stride="3">
              <param name="X" type="float"/>
              <param name="Y" type="float"/>
              <param name="Z" type="float"/>
            </accessor>
          </technique_common>
        </source>
        <source id="Cube_025-mesh-normals">
          <float_array id="Cube_025-mesh-normals-array" count="27">-1 0 0 0 1 0 1 0 0 0 -1 0 0 0 -1 0 0 1 0 1 0 1 0 0 0 -1 0</float_array>
          <technique_common>
            <accessor source="#Cube_025-mesh-normals-array" count="9" stride="3">
              <param name="X" type="float"/>
              <param name="Y" type="float"/>
              <param name="Z" type="float"/>
            </accessor>
          </technique_common>
        </source>
        <source id="Cube_025-mesh-map-0">
          <float_array id="Cube_025-mesh-map-0-array" count="72">0.625 0 0.375 0.25 0.375 0 0.625 0.25 0.375 0.5 0.375 0.25 0.625 0.5 0.375 0.75 0.375 0.5 0.625 0.75 0.375 1 0.375 0.75 0.375 0.5 0.125 0.75 0.125 0.5 0.8750001 0.5 0.625 0.75 0.625 0.5 0.625 0 0.625 0.25 0.375 0.25 0.625 0.25 0.625 0.5 0.375 0.5 0.625 0.5 0.625 0.75 0.375 0.75 0.625 0.75 0.625 1 0.375 1 0.375 0.5 0.375 0.75 0.125 0.75 0.8750001 0.5 0.8750001 0.75 0.625 0.75</float_array>
          <technique_common>
            <accessor source="#Cube_025-mesh-map-0-array" count="36" stride="2">
              <param name="S" type="float"/>
              <param name="T" type="float"/>
            </accessor>
          </technique_common>
        </source>
        <vertices id="Cube_025-mesh-vertices">
          <input semantic="POSITION" source="#Cube_025-mesh-positions"/>
        </vertices>
        <triangles material="metal_black_002-material" count="12">
          <input semantic="VERTEX" source="#Cube_025-mesh-vertices" offset="0"/>
          <input semantic="NORMAL" source="#Cube_025-mesh-normals" offset="1"/>
          <input semantic="TEXCOORD" source="#Cube_025-mesh-map-0" offset="2" set="0"/>
          <p>1 0 0 2 0 1 0 0 2 3 1 3 6 1 4 2 1 5 7 2 6 4 2 7 6 2 8 5 3 9 0 3 10 4 3 11 6 4 12 0 4 13 2 4 14 3 5 15 5 5 16 7 5 17 1 0 18 3 0 19 2 0 20 3 6 21 7 6 22 6 6 23 7 7 24 5 7 25 4 7 26 5 8 27 1 8 28 0 8 29 6 4 30 4 4 31 0 4 32 3 5 33 1 5 34 5 5 35</p>
        </triangles>
      </mesh>
    </geometry>
    <geometry id="Cube_024-mesh" name="Cube.024">
      <mesh>
        <source id="Cube_024-mesh-positions">
          <float_array id="Cube_024-mesh-positions-array" count="24">-0.01499992 -0.01499992 -0.475 -0.01500004 -0.01499998 0.8972223 -0.01499992 0.01499992 -0.475 -0.01500004 0.01499992 0.8972223 0.01499992 -0.01499992 -0.475 0.01499992 -0.01499998 0.8972223 0.01499992 0.01499992 -0.475 0.01499992 0.01499992 0.8972223</float_array>
          <technique_common>
            <accessor source="#Cube_024-mesh-positions-array" count="8" stride="3">
              <param name="X" type="float"/>
              <param name="Y" type="float"/>
              <param name="Z" type="float"/>
            </accessor>
          </technique_common>
        </source>
        <source id="Cube_024-mesh-normals">
          <float_array id="Cube_024-mesh-normals-array" count="27">-1 0 0 0 1 0 1 0 0 0 -1 0 0 0 -1 0 0 1 -1 0 0 0 1 0 0 -1 0</float_array>
          <technique_common>
            <accessor source="#Cube_024-mesh-normals-array" count="9" stride="3">
              <param name="X" type="float"/>
              <param name="Y" type="float"/>
              <param name="Z" type="float"/>
            </accessor>
          </technique_common>
        </source>
        <source id="Cube_024-mesh-map-0">
          <float_array id="Cube_024-mesh-map-0-array" count="72">0.625 0 0.375 0.25 0.375 0 0.625 0.25 0.375 0.5 0.375 0.25 0.625 0.5 0.375 0.75 0.375 0.5 0.625 0.75 0.375 1 0.375 0.75 0.375 0.5 0.125 0.75 0.125 0.5 0.8750001 0.5 0.625 0.75 0.625 0.5 0.625 0 0.625 0.25 0.375 0.25 0.625 0.25 0.625 0.5 0.375 0.5 0.625 0.5 0.625 0.75 0.375 0.75 0.625 0.75 0.625 1 0.375 1 0.375 0.5 0.375 0.75 0.125 0.75 0.8750001 0.5 0.8750001 0.75 0.625 0.75</float_array>
          <technique_common>
            <accessor source="#Cube_024-mesh-map-0-array" count="36" stride="2">
              <param name="S" type="float"/>
              <param name="T" type="float"/>
            </accessor>
          </technique_common>
        </source>
        <vertices id="Cube_024-mesh-vertices">
          <input semantic="POSITION" source="#Cube_024-mesh-positions"/>
        </vertices>
        <triangles material="metal_black_002-material" count="12">
          <input semantic="VERTEX" source="#Cube_024-mesh-vertices" offset="0"/>
          <input semantic="NORMAL" source="#Cube_024-mesh-normals" offset="1"/>
          <input semantic="TEXCOORD" source="#Cube_024-mesh-map-0" offset="2" set="0"/>
          <p>1 0 0 2 0 1 0 0 2 3 1 3 6 1 4 2 1 5 7 2 6 4 2 7 6 2 8 5 3 9 0 3 10 4 3 11 6 4 12 0 4 13 2 4 14 3 5 15 5 5 16 7 5 17 1 6 18 3 6 19 2 6 20 3 7 21 7 7 22 6 7 23 7 2 24 5 2 25 4 2 26 5 8 27 1 8 28 0 8 29 6 4 30 4 4 31 0 4 32 3 5 33 1 5 34 5 5 35</p>
        </triangles>
      </mesh>
    </geometry>
    <geometry id="Cube_023-mesh" name="Cube.023">
      <mesh>
        <source id="Cube_023-mesh-positions">
          <float_array id="Cube_023-mesh-positions-array" count="24">-0.01499992 -0.01499992 -0.475 -0.01500004 -0.01499992 0.8972223 -0.01499992 0.01499992 -0.475 -0.01500004 0.01499998 0.8972223 0.01499992 -0.01499992 -0.475 0.01499992 -0.01499992 0.8972223 0.01499992 0.01499992 -0.475 0.01499992 0.01499998 0.8972223</float_array>
          <technique_common>
            <accessor source="#Cube_023-mesh-positions-array" count="8" stride="3">
              <param name="X" type="float"/>
              <param name="Y" type="float"/>
              <param name="Z" type="float"/>
            </accessor>
          </technique_common>
        </source>
        <source id="Cube_023-mesh-normals">
          <float_array id="Cube_023-mesh-normals-array" count="27">-1 0 0 0 1 0 1 0 0 0 -1 0 0 0 -1 0 0 1 -1 0 0 0 1 0 0 -1 0</float_array>
          <technique_common>
            <accessor source="#Cube_023-mesh-normals-array" count="9" stride="3">
              <param name="X" type="float"/>
              <param name="Y" type="float"/>
              <param name="Z" type="float"/>
            </accessor>
          </technique_common>
        </source>
        <source id="Cube_023-mesh-map-0">
          <float_array id="Cube_023-mesh-map-0-array" count="72">0.625 0 0.375 0.25 0.375 0 0.625 0.25 0.375 0.5 0.375 0.25 0.625 0.5 0.375 0.75 0.375 0.5 0.625 0.75 0.375 1 0.375 0.75 0.375 0.5 0.125 0.75 0.125 0.5 0.8750001 0.5 0.625 0.75 0.625 0.5 0.625 0 0.625 0.25 0.375 0.25 0.625 0.25 0.625 0.5 0.375 0.5 0.625 0.5 0.625 0.75 0.375 0.75 0.625 0.75 0.625 1 0.375 1 0.375 0.5 0.375 0.75 0.125 0.75 0.8750001 0.5 0.8750001 0.75 0.625 0.75</float_array>
          <technique_common>
            <accessor source="#Cube_023-mesh-map-0-array" count="36" stride="2">
              <param name="S" type="float"/>
              <param name="T" type="float"/>
            </accessor>
          </technique_common>
        </source>
        <vertices id="Cube_023-mesh-vertices">
          <input semantic="POSITION" source="#Cube_023-mesh-positions"/>
        </vertices>
        <triangles material="metal_black_002-material" count="12">
          <input semantic="VERTEX" source="#Cube_023-mesh-vertices" offset="0"/>
          <input semantic="NORMAL" source="#Cube_023-mesh-normals" offset="1"/>
          <input semantic="TEXCOORD" source="#Cube_023-mesh-map-0" offset="2" set="0"/>
          <p>1 0 0 2 0 1 0 0 2 3 1 3 6 1 4 2 1 5 7 2 6 4 2 7 6 2 8 5 3 9 0 3 10 4 3 11 6 4 12 0 4 13 2 4 14 3 5 15 5 5 16 7 5 17 1 6 18 3 6 19 2 6 20 3 7 21 7 7 22 6 7 23 7 2 24 5 2 25 4 2 26 5 8 27 1 8 28 0 8 29 6 4 30 4 4 31 0 4 32 3 5 33 1 5 34 5 5 35</p>
        </triangles>
      </mesh>
    </geometry>
  </library_geometries>
  <library_visual_scenes>
    <visual_scene id="Scene" name="Scene">
      <node id="board_4" name="board_4" type="NODE">
        <matrix sid="transform">1 0 0 0 0 1 0 0 0 0 1 1.891 0 0 0 1</matrix>
        <instance_geometry url="#Cube_032-mesh" name="board_4">
          <bind_material>
            <technique_common>
              <instance_material symbol="board_002-material" target="#board_002-material">
                <bind_vertex_input semantic="Cube_003-mesh-map-0" input_semantic="TEXCOORD" input_set="0"/>
              </instance_material>
            </technique_common>
          </bind_material>
        </instance_geometry>
      </node>
      <node id="board_1" name="board_1" type="NODE">
        <matrix sid="transform">1 0 0 0 0 1 0 0 0 0 1 0.391 0 0 0 1</matrix>
        <instance_geometry url="#Cube_031-mesh" name="board_1">
          <bind_material>
            <technique_common>
              <instance_material symbol="board_002-material" target="#board_002-material">
                <bind_vertex_input semantic="Cube_001-mesh-map-0" input_semantic="TEXCOORD" input_set="0"/>
              </instance_material>
            </technique_common>
          </bind_material>
        </instance_geometry>
      </node>
      <node id="board_2" name="board_2" type="NODE">
        <matrix sid="transform">1 0 0 0 0 1 0 0 0 0 1 0.676 0 0 0 1</matrix>
        <instance_geometry url="#Cube_030-mesh" name="board_2">
          <bind_material>
            <technique_common>
              <instance_material symbol="board_002-material" target="#board_002-material">
                <bind_vertex_input semantic="Cube_002-mesh-map-0" input_semantic="TEXCOORD" input_set="0"/>
              </instance_material>
            </technique_common>
          </bind_material>
        </instance_geometry>
      </node>
      <node id="board_3" name="board_3" type="NODE">
        <matrix sid="transform">1 0 0 0 0 1 0 0 0 0 1 1.291 0 0 0 1</matrix>
        <instance_geometry url="#Cube_029-mesh" name="board_3">
          <bind_material>
            <technique_common>
              <instance_material symbol="board_002-material" target="#board_002-material">
                <bind_vertex_input semantic="Cube_003-mesh-map-0" input_semantic="TEXCOORD" input_set="0"/>
              </instance_material>
            </technique_common>
          </bind_material>
        </instance_geometry>
      </node>
      <node id="post_1" name="post_1" type="NODE">
        <matrix sid="transform">1.000001 0 0 0.9850001 0 1.000001 0 0.135 0 0 1.421053 0.675 0 0 0 1</matrix>
        <instance_geometry url="#Cube_027-mesh" name="post_1">
          <bind_material>
            <technique_common>
              <instance_material symbol="metal_black_002-material" target="#metal_black_002-material">
                <bind_vertex_input semantic="Cube_004-mesh-map-0" input_semantic="TEXCOORD" input_set="0"/>
              </instance_material>
            </technique_common>
          </bind_material>
        </instance_geometry>
      </node>
      <node id="post_2" name="post_2" type="NODE">
        <matrix sid="transform">1.000001 0 0 0.9850001 0 1.000001 0 -0.135 0 0 1.421053 0.675 0 0 0 1</matrix>
        <instance_geometry url="#Cube_025-mesh" name="post_2">
          <bind_material>
            <technique_common>
              <instance_material symbol="metal_black_002-material" target="#metal_black_002-material">
                <bind_vertex_input semantic="Cube_005-mesh-map-0" input_semantic="TEXCOORD" input_set="0"/>
              </instance_material>
            </technique_common>
          </bind_material>
        </instance_geometry>
      </node>
      <node id="post_3" name="post_3" type="NODE">
        <matrix sid="transform">1.000001 0 0 -0.9850001 0 1.000001 0 0.135 0 0 1.421053 0.675 0 0 0 1</matrix>
        <instance_geometry url="#Cube_024-mesh" name="post_3">
          <bind_material>
            <technique_common>
              <instance_material symbol="metal_black_002-material" target="#metal_black_002-material">
                <bind_vertex_input semantic="Cube_006-mesh-map-0" input_semantic="TEXCOORD" input_set="0"/>
              </instance_material>
            </technique_common>
          </bind_material>
        </instance_geometry>
      </node>
      <node id="post_4" name="post_4" type="NODE">
        <matrix sid="transform">1.000001 0 0 -0.9850001 0 1.000001 0 -0.135 0 0 1.421053 0.675 0 0 0 1</matrix>
        <instance_geometry url="#Cube_023-mesh" name="post_4">
          <bind_material>
            <technique_common>
              <instance_material symbol="metal_black_002-material" target="#metal_black_002-material">
                <bind_vertex_input semantic="Cube_007-mesh-map-0" input_semantic="TEXCOORD" input_set="0"/>
              </instance_material>
            </technique_common>
          </bind_material>
        </instance_geometry>
      </node>
    </visual_scene>
  </library_visual_scenes>
  <scene>
    <instance_visual_scene url="#Scene"/>
  </scene>
</COLLADA>