<?xml version="1.0" encoding="utf-8"?>
<COLLADA xmlns="http://www.collada.org/2005/11/COLLADASchema" version="1.4.1" xmlns:xsi="http://www.w3.org/2001/XMLSchema-instance">
  <asset>
    <contributor>
      <author>Blender User</author>
      <authoring_tool>Blender 3.6.23 commit date:2025-06-16, commit time:11:52, hash:e467db79ca8c</authoring_tool>
    </contributor>
    <created>2026-06-19T16:39:39</created>
    <modified>2026-06-19T16:39:39</modified>
    <unit name="meter" meter="1"/>
    <up_axis>Z_UP</up_axis>
  </asset>
  <library_effects>
    <effect id="Ivory-effect">
      <profile_COMMON>
        <technique sid="common">
          <lambert>
            <emission>
              <color sid="emission">0 0 0 1</color>
            </emission>
            <diffuse>
              <color sid="diffuse">0.93 0.9 0.78 1</color>
            </diffuse>
            <index_of_refraction>
              <float sid="ior">1.45</float>
            </index_of_refraction>
          </lambert>
        </technique>
      </profile_COMMON>
    </effect>
  </library_effects>
  <library_images/>
  <library_materials>
    <material id="Ivory-material" name="Ivory">
      <instance_effect url="#Ivory-effect"/>
    </material>
  </library_materials>
  <library_geometries>
    <geometry id="Cube_I-mesh" name="Cube_I">
      <mesh>
        <source id="Cube_I-mesh-positions">
          <float_array id="Cube_I-mesh-positions-array" count="24">-0.476 -0.06878948 -0.1175 -0.476 -0.06878948 0.1175 -0.476 0.06878948 -0.1175 -0.476 0.06878948 0.1175 0.476 -0.06878948 -0.1175 0.476 -0.06878948 0.1175 0.476 0.06878948 -0.1175 0.476 0.06878948 0.1175</float_array>
          <technique_common>
            <accessor source="#Cube_I-mesh-positions-array" count="8" stride="3">
              <param name="X" type="float"/>
              <param name="Y" type="float"/>
              <param name="Z" type="float"/>
            </accessor>
          </technique_common>
        </source>
        <source id="Cube_I-mesh-normals">
          <float_array id="Cube_I-mesh-normals-array" count="18">-1 0 0 0 1 0 1 0 0 0 -1 0 0 0 -1 0 0 1</float_array>
          <technique_common>
            <accessor source="#Cube_I-mesh-normals-array" count="6" stride="3">
              <param name="X" type="float"/>
              <param name="Y" type="float"/>
              <param name="Z" type="float"/>
            </accessor>
          </technique_common>
        </source>
        <vertices id="Cube_I-mesh-vertices">
          <input semantic="POSITION" source="#Cube_I-mesh-positions"/>
        </vertices>
        <triangles material="Ivory-material" count="12">
          <input semantic="VERTEX" source="#Cube_I-mesh-vertices" offset="0"/>
          <input semantic="NORMAL" source="#Cube_I-mesh-normals" offset="1"/>
          <p>1 0 2 0 0 0 3 1 6 1 2 1 7 2 4 2 6 2 5 3 0 3 4 3 6 4 0 4 2 4 3 5 5 5 7 5 1 0 3 0 2 0 3 1 7 1 6 1 7 2 5 2 4 2 5 3 1 3 0 3 6 4 4 4 0 4 3 5 1 5 5 5</p>
        </triangles>
      </mesh>
    </geometry>
    <geometry id="Cube_H_R-mesh" name="Cube_H_R">
      <mesh>
        <source id="Cube_H_R-mesh-positions">
          <float_array id="Cube_H_R-mesh-positions-array" count="24">-0.128 -0.007499992 -0.006499946 -0.128 -0.007499992 0.006499946 -0.128 0.007499992 -0.006499946 -0.128 0.007499992 0.006499946 0.128 -0.007499992 -0.006499946 0.128 -0.007499992 0.006499946 0.128 0.007499992 -0.006499946 0.128 0.007499992 0.006499946</float_array>
          <technique_common>
            <accessor source="#Cube_H_R-mesh-positions-array" count="8" stride="3">
              <param name="X" type="float"/>
              <param name="Y" type="float"/>
              <param name="Z" type="float"/>
            </accessor>
          </technique_common>
        </source>
        <source id="Cube_H_R-mesh-normals">
          <float_array id="Cube_H_R-mesh-normals-array" count="18">-1 0 0 0 1 0 1 0 0 0 -1 0 0 0 -1 0 0 1</float_array>
          <technique_common>
            <accessor source="#Cube_H_R-mesh-normals-array" count="6" stride="3">
              <param name="X" type="float"/>
              <param name="Y" type="float"/>
              <param name="Z" type="float"/>
            </accessor>
          </technique_common>
        </source>
        <vertices id="Cube_H_R-mesh-vertices">
          <input semantic="POSITION" source="#Cube_H_R-mesh-positions"/>
        </vertices>
        <triangles material="Ivory-material" count="12">
          <input semantic="VERTEX" source="#Cube_H_R-mesh-vertices" offset="0"/>
          <input semantic="NORMAL" source="#Cube_H_R-mesh-normals" offset="1"/>
          <p>1 0 2 0 0 0 3 1 6 1 2 1 7 2 4 2 6 2 5 3 0 3 4 3 6 4 0 4 2 4 3 5 5 5 7 5 1 0 3 0 2 0 3 1 7 1 6 1 7 2 5 2 4 2 5 3 1 3 0 3 6 4 4 4 0 4 3 5 1 5 5 5</p>
        </triangles>
      </mesh>
    </geometry>
    <geometry id="Cube_H_L-mesh" name="Cube_H_L">
      <mesh>
        <source id="Cube_H_L-mesh-positions">
          <float_array id="Cube_H_L-mesh-positions-array" count="24">-0.128 -0.007499992 -0.006499946 -0.128 -0.007499992 0.006499946 -0.128 0.007499992 -0.006499946 -0.128 0.007499992 0.006499946 0.128 -0.007499992 -0.006499946 0.128 -0.007499992 0.006499946 0.128 0.007499992 -0.006499946 0.128 0.007499992 0.006499946</float_array>
          <technique_common>
            <accessor source="#Cube_H_L-mesh-positions-array" count="8" stride="3">
              <param name="X" type="float"/>
              <param name="Y" type="float"/>
              <param name="Z" type="float"/>
            </accessor>
          </technique_common>
        </source>
        <source id="Cube_H_L-mesh-normals">
          <float_array id="Cube_H_L-mesh-normals-array" count="18">-1 0 0 0 1 0 1 0 0 0 -1 0 0 0 -1 0 0 1</float_array>
          <technique_common>
            <accessor source="#Cube_H_L-mesh-normals-array" count="6" stride="3">
              <param name="X" type="float"/>
              <param name="Y" type="float"/>
              <param name="Z" type="float"/>
            </accessor>
          </technique_common>
        </source>
        <vertices id="Cube_H_L-mesh-vertices">
          <input semantic="POSITION" source="#Cube_H_L-mesh-positions"/>
        </vertices>
        <triangles material="Ivory-material" count="12">
          <input semantic="VERTEX" source="#Cube_H_L-mesh-vertices" offset="0"/>
          <input semantic="NORMAL" source="#Cube_H_L-mesh-normals" offset="1"/>
          <p>1 0 2 0 0 0 3 1 6 1 2 1 7 2 4 2 6 2 5 3 0 3 4 3 6 4 0 4 2 4 3 5 5 5 7 5 1 0 3 0 2 0 3 1 7 1 6 1 7 2 5 2 4 2 5 3 1 3 0 3 6 4 4 4 0 4 3 5 1 5 5 5</p>
        </triangles>
      </mesh>
    </geometry>
    <geometry id="Cube_G_R-mesh" name="Cube_G_R">
      <mesh>
        <source id="Cube_G_R-mesh-positions">
          <float_array id="Cube_G_R-mesh-positions-array" count="24">-0.128 -0.007499992 -0.006499946 -0.128 -0.007499992 0.006499946 -0.128 0.007499992 -0.006499946 -0.128 0.007499992 0.006499946 0.128 -0.007499992 -0.006499946 0.128 -0.007499992 0.006499946 0.128 0.007499992 -0.006499946 0.128 0.007499992 0.006499946</float_array>
          <technique_common>
            <accessor source="#Cube_G_R-mesh-positions-array" count="8" stride="3">
              <param name="X" type="float"/>
              <param name="Y" type="float"/>
              <param name="Z" type="float"/>
            </accessor>
          </technique_common>
        </source>
        <source id="Cube_G_R-mesh-normals">
          <float_array id="Cube_G_R-mesh-normals-array" count="18">-1 0 0 0 1 0 1 0 0 0 -1 0 0 0 -1 0 0 1</float_array>
          <technique_common>
            <accessor source="#Cube_G_R-mesh-normals-array" count="6" stride="3">
              <param name="X" type="float"/>
              <param name="Y" type="float"/>
              <param name="Z" type="float"/>
            </accessor>
          </technique_common>
        </source>
        <vertices id="Cube_G_R-mesh-vertices">
          <input semantic="POSITION" source="#Cube_G_R-mesh-positions"/>
        </vertices>
        <triangles material="Ivory-material" count="12">
          <input semantic="VERTEX" source="#Cube_G_R-mesh-vertices" offset="0"/>
          <input semantic="NORMAL" source="#Cube_G_R-mesh-normals" offset="1"/>
          <p>1 0 2 0 0 0 3 1 6 1 2 1 7 2 4 2 6 2 5 3 0 3 4 3 6 4 0 4 2 4 3 5 5 5 7 5 1 0 3 0 2 0 3 1 7 1 6 1 7 2 5 2 4 2 5 3 1 3 0 3 6 4 4 4 0 4 3 5 1 5 5 5</p>
        </triangles>
      </mesh>
    </geometry>
    <geometry id="Cube_G_L-mesh" name="Cube_G_L">
      <mesh>
        <source id="Cube_G_L-mesh-positions">
          <float_array id="Cube_G_L-mesh-positions-array" count="24">-0.128 -0.007499992 -0.006499946 -0.128 -0.007499992 0.006499946 -0.128 0.007499992 -0.006499946 -0.128 0.007499992 0.006499946 0.128 -0.007499992 -0.006499946 0.128 -0.007499992 0.006499946 0.128 0.007499992 -0.006499946 0.128 0.007499992 0.006499946</float_array>
          <technique_common>
            <accessor source="#Cube_G_L-mesh-positions-array" count="8" stride="3">
              <param name="X" type="float"/>
              <param name="Y" type="float"/>
              <param name="Z" type="float"/>
            </accessor>
          </technique_common>
        </source>
        <source id="Cube_G_L-mesh-normals">
          <float_array id="Cube_G_L-mesh-normals-array" count="18">-1 0 0 0 1 0 1 0 0 0 -1 0 0 0 -1 0 0 1</float_array>
          <technique_common>
            <accessor source="#Cube_G_L-mesh-normals-array" count="6" stride="3">
              <param name="X" type="float"/>
              <param name="Y" type="float"/>
              <param name="Z" type="float"/>
            </accessor>
          </technique_common>
        </source>
        <vertices id="Cube_G_L-mesh-vertices">
          <input semantic="POSITION" source="#Cube_G_L-mesh-positions"/>
        </vertices>
        <triangles material="Ivory-material" count="12">
          <input semantic="VERTEX" source="#Cube_G_L-mesh-vertices" offset="0"/>
          <input semantic="NORMAL" source="#Cube_G_L-mesh-normals" offset="1"/>
          <p>1 0 2 0 0 0 3 1 6 1 2 1 7 2 4 2 6 2 5 3 0 3 4 3 6 4 0 4 2 4 3 5 5 5 7 5 1 0 3 0 2 0 3 1 7 1 6 1 7 2 5 2 4 2 5 3 1 3 0 3 6 4 4 4 0 4 3 5 1 5 5 5</p>
        </triangles>
      </mesh>
    </geometry>
    <geometry id="Cube_D-mesh" name="Cube_D">
      <mesh>
        <source id="Cube_D-mesh-positions">
          <float_array id="Cube_D-mesh-positions-array" count="24">-0.22 -0.03243714 -0.1 -0.22 -0.03243714 0.1 -0.22 0.1899999 -0.1 -0.22 0.1899999 0.1 0.22 -0.03243714 -0.1 0.22 -0.03243714 0.1 0.22 0.1899999 -0.1 0.22 0.1899999 0.1</float_array>
          <technique_common>
            <accessor source="#Cube_D-mesh-positions-array" count="8" stride="3">
              <param name="X" type="float"/>
              <param name="Y" type="float"/>
              <param name="Z" type="float"/>
            </accessor>
          </technique_common>
        </source>
        <source id="Cube_D-mesh-normals">
          <float_array id="Cube_D-mesh-normals-array" count="18">-1 0 0 0 1 0 1 0 0 0 -1 0 0 0 -1 0 0 1</float_array>
          <technique_common>
            <accessor source="#Cube_D-mesh-normals-array" count="6" stride="3">
              <param name="X" type="float"/>
              <param name="Y" type="float"/>
              <param name="Z" type="float"/>
            </accessor>
          </technique_common>
        </source>
        <vertices id="Cube_D-mesh-vertices">
          <input semantic="POSITION" source="#Cube_D-mesh-positions"/>
        </vertices>
        <triangles material="Ivory-material" count="12">
          <input semantic="VERTEX" source="#Cube_D-mesh-vertices" offset="0"/>
          <input semantic="NORMAL" source="#Cube_D-mesh-normals" offset="1"/>
          <p>1 0 2 0 0 0 3 1 6 1 2 1 7 2 4 2 6 2 5 3 0 3 4 3 6 4 0 4 2 4 3 5 5 5 7 5 1 0 3 0 2 0 3 1 7 1 6 1 7 2 5 2 4 2 5 3 1 3 0 3 6 4 4 4 0 4 3 5 1 5 5 5</p>
        </triangles>
      </mesh>
    </geometry>
    <geometry id="Cube_F_001-mesh" name="Cube_F.001">
      <mesh>
        <source id="Cube_F_001-mesh-positions">
          <float_array id="Cube_F_001-mesh-positions-array" count="24">-0.15 -0.04999995 -0.15 -0.15 -0.04999995 0.15 -0.15 0.04999995 -0.15 -0.15 0.04999995 0.15 0.15 -0.04999995 -0.15 0.15 -0.04999995 0.15 0.15 0.04999995 -0.15 0.15 0.04999995 0.15</float_array>
          <technique_common>
            <accessor source="#Cube_F_001-mesh-positions-array" count="8" stride="3">
              <param name="X" type="float"/>
              <param name="Y" type="float"/>
              <param name="Z" type="float"/>
            </accessor>
          </technique_common>
        </source>
        <source id="Cube_F_001-mesh-normals">
          <float_array id="Cube_F_001-mesh-normals-array" count="18">-1 0 0 0 1 0 1 0 0 0 -1 0 0 0 -1 0 0 1</float_array>
          <technique_common>
            <accessor source="#Cube_F_001-mesh-normals-array" count="6" stride="3">
              <param name="X" type="float"/>
              <param name="Y" type="float"/>
              <param name="Z" type="float"/>
            </accessor>
          </technique_common>
        </source>
        <vertices id="Cube_F_001-mesh-vertices">
          <input semantic="POSITION" source="#Cube_F_001-mesh-positions"/>
        </vertices>
        <triangles material="Ivory-material" count="12">
          <input semantic="VERTEX" source="#Cube_F_001-mesh-vertices" offset="0"/>
          <input semantic="NORMAL" source="#Cube_F_001-mesh-normals" offset="1"/>
          <p>1 0 2 0 0 0 3 1 6 1 2 1 7 2 4 2 6 2 5 3 0 3 4 3 6 4 0 4 2 4 3 5 5 5 7 5 1 0 3 0 2 0 3 1 7 1 6 1 7 2 5 2 4 2 5 3 1 3 0 3 6 4 4 4 0 4 3 5 1 5 5 5</p>
        </triangles>
      </mesh>
    </geometry>
    <geometry id="Cube_006-mesh" name="Cube.006">
      <mesh>
        <source id="Cube_006-mesh-positions">
          <float_array id="Cube_006-mesh-positions-array" count="48">-0.476 0.26 1.01 -0.476 0.26 1.16 0.476 0.26 1.01 0.476 0.26 1.16 0.22 0.06 1.01 -0.22 0.06 1.01 -0.22 0.06 1.16 0.22 0.06 1.16 -0.476 -0.12 1.16 -0.476 -0.12 1.01 0.476 -0.12 1.16 0.476 -0.12 1.01 -0.22 -0.12 1.01 0.22 -0.12 1.01 0.22 -0.12 1.16 -0.22 -0.12 1.16</float_array>
          <technique_common>
            <accessor source="#Cube_006-mesh-positions-array" count="16" stride="3">
              <param name="X" type="float"/>
              <param name="Y" type="float"/>
              <param name="Z" type="float"/>
            </accessor>
          </technique_common>
        </source>
        <source id="Cube_006-mesh-normals">
          <float_array id="Cube_006-mesh-normals-array" count="24">-1 0 0 0 1 0 1 0 0 0 0 -1 0 0 1 0 -1 0 3.06356e-7 0 1 -6.12712e-7 0 1</float_array>
          <technique_common>
            <accessor source="#Cube_006-mesh-normals-array" count="8" stride="3">
              <param name="X" type="float"/>
              <param name="Y" type="float"/>
              <param name="Z" type="float"/>
            </accessor>
          </technique_common>
        </source>
        <source id="Cube_006-mesh-map-0">
          <float_array id="Cube_006-mesh-map-0-array" count="168">0.625 0.25 0.375 0.06730765 0.625 0.06730765 0.625 0.25 0.375 0.5 0.375 0.25 0.375 0.5 0.625 0.6826923 0.375 0.6826924 0.1922268 0.5961538 0.125 0.5 0.375 0.5 0.6922269 0.5961538 0.625 0.5 0.875 0.5 0.6102941 0.25 0.3897058 0.1136363 0.3897058 0.25 0.3897058 0.25 0.6102941 0.5 0.6102941 0.25 0.3897058 0.5 0.6102941 0.6363636 0.6102941 0.5 0.5937501 0.2758333 0.40625 0.3291667 0.5937501 0.3291667 0.40625 0.4741667 0.59375 0.4208333 0.40625 0.4208334 0.625 0.25 0.375 0.25 0.375 0.06730765 0.625 0.25 0.625 0.5 0.375 0.5 0.375 0.5 0.625 0.5 0.625 0.6826923 0.375 0.6826924 0.3077731 0.6826923 0.3077731 0.5961539 0.1922268 0.5961538 0.1922268 0.6826923 0.125 0.6826924 0.375 0.5 0.375 0.6826924 0.3077731 0.5961539 0.1922268 0.5961538 0.125 0.6826924 0.125 0.5 0.375 0.5 0.3077731 0.5961539 0.1922268 0.5961538 0.875 0.6826923 0.8077731 0.6826923 0.8077731 0.5961539 0.6922269 0.5961538 0.6922269 0.6826923 0.625 0.6826923 0.875 0.5 0.875 0.6826923 0.8077731 0.5961539 0.6922269 0.5961538 0.625 0.6826923 0.625 0.5 0.875 0.5 0.8077731 0.5961539 0.6922269 0.5961538 0.6102941 0.25 0.6102941 0.1136363 0.3897058 0.1136363 0.3897058 0.25 0.3897058 0.5 0.6102941 0.5 0.3897058 0.5 0.3897058 0.6363636 0.6102941 0.6363636 0.5937501 0.2758333 0.40625 0.2758333 0.40625 0.3291667 0.40625 0.4741667 0.5937501 0.4741667 0.59375 0.4208333</float_array>
          <technique_common>
            <accessor source="#Cube_006-mesh-map-0-array" count="84" stride="2">
              <param name="S" type="float"/>
              <param name="T" type="float"/>
            </accessor>
          </technique_common>
        </source>
        <vertices id="Cube_006-mesh-vertices">
          <input semantic="POSITION" source="#Cube_006-mesh-positions"/>
        </vertices>
        <triangles material="Ivory-material" count="28">
          <input semantic="VERTEX" source="#Cube_006-mesh-vertices" offset="0"/>
          <input semantic="NORMAL" source="#Cube_006-mesh-normals" offset="1"/>
          <input semantic="TEXCOORD" source="#Cube_006-mesh-map-0" offset="2" set="0"/>
          <p>1 0 0 9 0 1 8 0 2 1 1 3 2 1 4 0 1 5 2 2 6 10 2 7 11 2 8 5 3 9 0 3 10 2 3 11 7 4 12 3 4 13 1 4 14 6 2 15 12 2 16 5 2 17 5 5 18 7 5 19 6 5 20 4 0 21 14 0 22 7 0 23 8 5 24 12 5 25 15 5 26 11 5 27 14 5 28 13 5 29 1 0 30 0 0 31 9 0 32 1 1 33 3 1 34 2 1 35 2 2 36 3 2 37 10 2 38 11 3 39 13 3 40 4 3 41 5 3 42 12 3 43 9 3 44 2 3 45 11 3 46 4 3 47 5 3 48 9 3 49 0 3 50 2 3 51 4 3 52 5 3 53 8 4 54 15 4 55 6 4 56 7 4 57 14 4 58 10 4 59 1 6 60 8 6 61 6 6 62 7 7 63 10 7 64 3 7 65 1 4 66 6 4 67 7 4 68 6 2 69 15 2 70 12 2 71 5 5 72 4 5 73 7 5 74 4 0 75 13 0 76 14 0 77 8 5 78 9 5 79 12 5 80 11 5 81 10 5 82 14 5 83</p>
        </triangles>
      </mesh>
    </geometry>
    <geometry id="Cube_004-mesh" name="Cube.004">
      <mesh>
        <source id="Cube_004-mesh-positions">
          <float_array id="Cube_004-mesh-positions-array" count="24">-0.476 0.1224213 1.54 -0.476 0.26 1.36 -0.476 0.26 1.54 0.476 0.1224213 1.36 0.476 0.26 1.36 0.476 0.26 1.54 -0.476 0.1224213 1.36 0.476 0.1224213 1.54</float_array>
          <technique_common>
            <accessor source="#Cube_004-mesh-positions-array" count="8" stride="3">
              <param name="X" type="float"/>
              <param name="Y" type="float"/>
              <param name="Z" type="float"/>
            </accessor>
          </technique_common>
        </source>
        <source id="Cube_004-mesh-normals">
          <float_array id="Cube_004-mesh-normals-array" count="18">-1 0 0 0 1 0 1 0 0 0 0 -1 0 0 1 0 -1 0</float_array>
          <technique_common>
            <accessor source="#Cube_004-mesh-normals-array" count="6" stride="3">
              <param name="X" type="float"/>
              <param name="Y" type="float"/>
              <param name="Z" type="float"/>
            </accessor>
          </technique_common>
        </source>
        <source id="Cube_004-mesh-map-0">
          <float_array id="Cube_004-mesh-map-0-array" count="72">0.625 0 0.375 0.25 0.375 0 0.625 0.25 0.375 0.5 0.375 0.25 0.625 0.5 0.375 0.75 0.375 0.5 0.375 0.5 0.125 0.75 0.125 0.5 0.875 0.5 0.625 0.75 0.625 0.5 0.625 0.75 0.375 1 0.375 0.75 0.625 0 0.625 0.25 0.375 0.25 0.625 0.25 0.625 0.5 0.375 0.5 0.625 0.5 0.625 0.75 0.375 0.75 0.375 0.5 0.375 0.75 0.125 0.75 0.875 0.5 0.875 0.75 0.625 0.75 0.625 0.75 0.625 1 0.375 1</float_array>
          <technique_common>
            <accessor source="#Cube_004-mesh-map-0-array" count="36" stride="2">
              <param name="S" type="float"/>
              <param name="T" type="float"/>
            </accessor>
          </technique_common>
        </source>
        <vertices id="Cube_004-mesh-vertices">
          <input semantic="POSITION" source="#Cube_004-mesh-positions"/>
        </vertices>
        <triangles material="Ivory-material" count="12">
          <input semantic="VERTEX" source="#Cube_004-mesh-vertices" offset="0"/>
          <input semantic="NORMAL" source="#Cube_004-mesh-normals" offset="1"/>
          <input semantic="TEXCOORD" source="#Cube_004-mesh-map-0" offset="2" set="0"/>
          <p>0 0 0 1 0 1 6 0 2 2 1 3 4 1 4 1 1 5 5 2 6 3 2 7 4 2 8 4 3 9 6 3 10 1 3 11 2 4 12 7 4 13 5 4 14 7 5 15 6 5 16 3 5 17 0 0 18 2 0 19 1 0 20 2 1 21 5 1 22 4 1 23 5 2 24 7 2 25 3 2 26 4 3 27 3 3 28 6 3 29 2 4 30 0 4 31 7 4 32 7 5 33 0 5 34 6 5 35</p>
        </triangles>
      </mesh>
    </geometry>
    <geometry id="Cube_001-mesh" name="Cube.001">
      <mesh>
        <source id="Cube_001-mesh-positions">
          <float_array id="Cube_001-mesh-positions-array" count="60">-0.22 -0.12 0.89 -0.22 -0.12 1.125 -0.22 0.26 0.89 -0.22 0.26 1.125 0.22 -0.12 0.89 0.22 -0.12 1.125 0.22 0.26 0.89 0.22 0.26 1.125 -0.22 -0.12 0.89 -0.22 -0.12 1.125 0.22 -0.12 1.125 0.22 -0.12 0.89 -0.22 -0.12 0.89 -0.22 -0.12 1.125 0.22 -0.12 1.125 0.22 -0.12 0.89 -0.22 -0.2600001 0.89 -0.22 -0.2600001 1.125 0.22 -0.2600001 1.125 0.22 -0.2600001 0.89</float_array>
          <technique_common>
            <accessor source="#Cube_001-mesh-positions-array" count="20" stride="3">
              <param name="X" type="float"/>
              <param name="Y" type="float"/>
              <param name="Z" type="float"/>
            </accessor>
          </technique_common>
        </source>
        <source id="Cube_001-mesh-normals">
          <float_array id="Cube_001-mesh-normals-array" count="18">-1 0 0 0 1 0 1 0 0 0 0 1 0 0 -1 0 -1 0</float_array>
          <technique_common>
            <accessor source="#Cube_001-mesh-normals-array" count="6" stride="3">
              <param name="X" type="float"/>
              <param name="Y" type="float"/>
              <param name="Z" type="float"/>
            </accessor>
          </technique_common>
        </source>
        <source id="Cube_001-mesh-map-0">
          <float_array id="Cube_001-mesh-map-0-array" count="216">0.625 0 0.375 0.25 0.375 0 0.625 0.25 0.375 0.5 0.375 0.25 0.625 0.5 0.375 0.75 0.375 0.5 0.875 0.75 0.625 0.75 0.625 0.75 0.375 0.5 0.125 0.75 0.125 0.5 0.875 0.5 0.625 0.75 0.625 0.5 0.625 0.75 0.375 0.75 0.375 0.75 0.625 0.75 0.375 0.75 0.375 0.75 0.375 0 0.625 0 0.625 0 0.375 0.75 0.125 0.75 0.125 0.75 0.375 0.75 0.125 0.75 0.125 0.75 0.375 0.75 0.125 0.75 0.125 0.75 0.375 0 0.625 0 0.625 0 0.875 0.75 0.625 0.75 0.625 0.75 0.625 0.75 0.375 1 0.375 0.75 0.375 0 0.625 0 0.625 0 0.875 0.75 0.625 0.75 0.625 0.75 0.625 0.75 0.375 0.75 0.375 0.75 0.625 0 0.625 0.25 0.375 0.25 0.625 0.25 0.625 0.5 0.375 0.5 0.625 0.5 0.625 0.75 0.375 0.75 0.875 0.75 0.875 0.75 0.625 0.75 0.375 0.5 0.375 0.75 0.125 0.75 0.875 0.5 0.875 0.75 0.625 0.75 0.625 0.75 0.625 0.75 0.375 0.75 0.625 0.75 0.625 0.75 0.375 0.75 0.375 0 0.375 0 0.625 0 0.375 0.75 0.375 0.75 0.125 0.75 0.375 0.75 0.375 0.75 0.125 0.75 0.375 0.75 0.375 0.75 0.125 0.75 0.375 0 0.375 0 0.625 0 0.875 0.75 0.875 0.75 0.625 0.75 0.625 0.75 0.625 1 0.375 1 0.375 0 0.375 0 0.625 0 0.875 0.75 0.875 0.75 0.625 0.75 0.625 0.75 0.625 0.75 0.375 0.75</float_array>
          <technique_common>
            <accessor source="#Cube_001-mesh-map-0-array" count="108" stride="2">
              <param name="S" type="float"/>
              <param name="T" type="float"/>
            </accessor>
          </technique_common>
        </source>
        <vertices id="Cube_001-mesh-vertices">
          <input semantic="POSITION" source="#Cube_001-mesh-positions"/>
        </vertices>
        <triangles material="Ivory-material" count="36">
          <input semantic="VERTEX" source="#Cube_001-mesh-vertices" offset="0"/>
          <input semantic="NORMAL" source="#Cube_001-mesh-normals" offset="1"/>
          <input semantic="TEXCOORD" source="#Cube_001-mesh-map-0" offset="2" set="0"/>
          <p>1 0 0 2 0 1 0 0 2 3 1 3 6 1 4 2 1 5 7 2 6 4 2 7 6 2 8 1 3 9 10 3 10 5 3 11 6 4 12 0 4 13 2 4 14 3 3 15 5 3 16 7 3 17 10 3 18 15 3 19 11 3 20 5 3 21 11 3 22 4 3 23 0 3 24 9 3 25 1 3 26 4 3 27 8 3 28 0 3 29 15 4 30 16 4 31 12 4 32 11 3 33 12 3 34 8 3 35 8 3 36 13 3 37 9 3 38 9 3 39 14 3 40 10 3 41 18 5 42 16 5 43 19 5 44 12 0 45 17 0 46 13 0 47 13 3 48 18 3 49 14 3 50 14 2 51 19 2 52 15 2 53 1 0 54 3 0 55 2 0 56 3 1 57 7 1 58 6 1 59 7 2 60 5 2 61 4 2 62 1 3 63 9 3 64 10 3 65 6 4 66 4 4 67 0 4 68 3 3 69 1 3 70 5 3 71 10 3 72 14 3 73 15 3 74 5 3 75 10 3 76 11 3 77 0 3 78 8 3 79 9 3 80 4 3 81 11 3 82 8 3 83 15 4 84 19 4 85 16 4 86 11 3 87 15 3 88 12 3 89 8 3 90 12 3 91 13 3 92 9 3 93 13 3 94 14 3 95 18 5 96 17 5 97 16 5 98 12 0 99 16 0 100 17 0 101 13 3 102 17 3 103 18 3 104 14 2 105 18 2 106 19 2 107</p>
        </triangles>
      </mesh>
    </geometry>
    <geometry id="Cube-mesh" name="Cube">
      <mesh>
        <source id="Cube-mesh-positions">
          <float_array id="Cube-mesh-positions-array" count="24">-0.5 -0.5 -0.5 -0.5 -0.5 0.5 -0.5 0.5 -0.5 -0.5 0.5 0.5 0.5 -0.5 -0.5 0.5 -0.5 0.5 0.5 0.5 -0.5 0.5 0.5 0.5</float_array>
          <technique_common>
            <accessor source="#Cube-mesh-positions-array" count="8" stride="3">
              <param name="X" type="float"/>
              <param name="Y" type="float"/>
              <param name="Z" type="float"/>
            </accessor>
          </technique_common>
        </source>
        <source id="Cube-mesh-normals">
          <float_array id="Cube-mesh-normals-array" count="18">-1 0 0 0 1 0 1 0 0 0 -1 0 0 0 -1 0 0 1</float_array>
          <technique_common>
            <accessor source="#Cube-mesh-normals-array" count="6" stride="3">
              <param name="X" type="float"/>
              <param name="Y" type="float"/>
              <param name="Z" type="float"/>
            </accessor>
          </technique_common>
        </source>
        <source id="Cube-mesh-map-0">
          <float_array id="Cube-mesh-map-0-array" count="72">0.625 0 0.375 0.25 0.375 0 0.625 0.25 0.375 0.5 0.375 0.25 0.625 0.5 0.375 0.75 0.375 0.5 0.625 0.75 0.375 1 0.375 0.75 0.375 0.5 0.125 0.75 0.125 0.5 0.875 0.5 0.625 0.75 0.625 0.5 0.625 0 0.625 0.25 0.375 0.25 0.625 0.25 0.625 0.5 0.375 0.5 0.625 0.5 0.625 0.75 0.375 0.75 0.625 0.75 0.625 1 0.375 1 0.375 0.5 0.375 0.75 0.125 0.75 0.875 0.5 0.875 0.75 0.625 0.75</float_array>
          <technique_common>
            <accessor source="#Cube-mesh-map-0-array" count="36" stride="2">
              <param name="S" type="float"/>
              <param name="T" type="float"/>
            </accessor>
          </technique_common>
        </source>
        <vertices id="Cube-mesh-vertices">
          <input semantic="POSITION" source="#Cube-mesh-positions"/>
        </vertices>
        <triangles material="Ivory-material" count="12">
          <input semantic="VERTEX" source="#Cube-mesh-vertices" offset="0"/>
          <input semantic="NORMAL" source="#Cube-mesh-normals" offset="1"/>
          <input semantic="TEXCOORD" source="#Cube-mesh-map-0" offset="2" set="0"/>
          <p>1 0 0 2 0 1 0 0 2 3 1 3 6 1 4 2 1 5 7 2 6 4 2 7 6 2 8 5 3 9 0 3 10 4 3 11 6 4 12 0 4 13 2 4 14 3 5 15 5 5 16 7 5 17 1 0 18 3 0 19 2 0 20 3 1 21 7 1 22 6 1 23 7 2 24 5 2 25 4 2 26 5 3 27 1 3 28 0 3 29 6 4 30 4 4 31 0 4 32 3 5 33 1 5 34 5 5 35</p>
        </triangles>
      </mesh>
    </geometry>
  </library_geometries>
  <library_visual_scenes>
    <visual_scene id="Scene" name="Scene">
      <node id="Cube_I" name="Cube_I" type="NODE">
        <matrix sid="transform">1 0 0 0 0 1 0 0.1912105 0 0 1 1.0075 0 0 0 1</matrix>
        <instance_geometry url="#Cube_I-mesh" name="Cube_I">
          <bind_material>
            <technique_common>
              <instance_material symbol="Ivory-material" target="#Ivory-material"/>
            </technique_common>
          </bind_material>
        </instance_geometry>
      </node>
      <node id="Cube_H_R" name="Cube_H_R" type="NODE">
        <matrix sid="transform">1 0 0 0.348 0 1 0 -0.1125 0 0 1 0.8965 0 0 0 1</matrix>
        <instance_geometry url="#Cube_H_R-mesh" name="Cube_H_R">
          <bind_material>
            <technique_common>
              <instance_material symbol="Ivory-material" target="#Ivory-material"/>
            </technique_common>
          </bind_material>
        </instance_geometry>
      </node>
      <node id="Cube_H_L" name="Cube_H_L" type="NODE">
        <matrix sid="transform">1 0 0 -0.348 0 1 0 -0.1125 0 0 1 0.8965 0 0 0 1</matrix>
        <instance_geometry url="#Cube_H_L-mesh" name="Cube_H_L">
          <bind_material>
            <technique_common>
              <instance_material symbol="Ivory-material" target="#Ivory-material"/>
            </technique_common>
          </bind_material>
        </instance_geometry>
      </node>
      <node id="Cube_G_R" name="Cube_G_R" type="NODE">
        <matrix sid="transform">1 0 0 0.348 0 1 0 -0.1125 0 0 1 1.2815 0 0 0 1</matrix>
        <instance_geometry url="#Cube_G_R-mesh" name="Cube_G_R">
          <bind_material>
            <technique_common>
              <instance_material symbol="Ivory-material" target="#Ivory-material"/>
            </technique_common>
          </bind_material>
        </instance_geometry>
      </node>
      <node id="Cube_G_L" name="Cube_G_L" type="NODE">
        <matrix sid="transform">1 0 0 -0.348 0 1 0 -0.1125 0 0 1 1.2815 0 0 0 1</matrix>
        <instance_geometry url="#Cube_G_L-mesh" name="Cube_G_L">
          <bind_material>
            <technique_common>
              <instance_material symbol="Ivory-material" target="#Ivory-material"/>
            </technique_common>
          </bind_material>
        </instance_geometry>
      </node>
      <node id="Cube_D" name="Cube_D" type="NODE">
        <matrix sid="transform">1 0 0 0 0 1 0 0.07 0 0 1 1.375 0 0 0 1</matrix>
        <instance_geometry url="#Cube_D-mesh" name="Cube_D">
          <bind_material>
            <technique_common>
              <instance_material symbol="Ivory-material" target="#Ivory-material"/>
            </technique_common>
          </bind_material>
        </instance_geometry>
      </node>
      <node id="Cube_F" name="Cube_F" type="NODE">
        <matrix sid="transform">1 0 0 0 0 1 0 0.21 0 0 1 1.625 0 0 0 1</matrix>
        <instance_geometry url="#Cube_F_001-mesh" name="Cube_F">
          <bind_material>
            <technique_common>
              <instance_material symbol="Ivory-material" target="#Ivory-material"/>
            </technique_common>
          </bind_material>
        </instance_geometry>
      </node>
      <node id="Cube_C" name="Cube_C" type="NODE">
        <matrix sid="transform">1 0 0 0 0 1 0 0 0 0 1 0.115 0 0 0 1</matrix>
        <instance_geometry url="#Cube_006-mesh" name="Cube_C">
          <bind_material>
            <technique_common>
              <instance_material symbol="Ivory-material" target="#Ivory-material">
                <bind_vertex_input semantic="UVMap" input_semantic="TEXCOORD" input_set="0"/>
              </instance_material>
            </technique_common>
          </bind_material>
        </instance_geometry>
      </node>
      <node id="Cube_E" name="Cube_E" type="NODE">
        <matrix sid="transform">1 0 0 0 0 1 0 0 0 0 1 -0.085 0 0 0 1</matrix>
        <instance_geometry url="#Cube_004-mesh" name="Cube_E">
          <bind_material>
            <technique_common>
              <instance_material symbol="Ivory-material" target="#Ivory-material">
                <bind_vertex_input semantic="UVMap" input_semantic="TEXCOORD" input_set="0"/>
              </instance_material>
            </technique_common>
          </bind_material>
        </instance_geometry>
      </node>
      <node id="Cube_B" name="Cube_B" type="NODE">
        <matrix sid="transform">1 0 0 0 0 1 0 0 0 0 1 0 0 0 0 1</matrix>
        <instance_geometry url="#Cube_001-mesh" name="Cube_B">
          <bind_material>
            <technique_common>
              <instance_material symbol="Ivory-material" target="#Ivory-material">
                <bind_vertex_input semantic="UVMap" input_semantic="TEXCOORD" input_set="0"/>
              </instance_material>
            </technique_common>
          </bind_material>
        </instance_geometry>
      </node>
      <node id="Cube_A" name="Cube_A" type="NODE">
        <matrix sid="transform">0.952 0 0 0 0 0.52 0 0 0 0 0.89 0.445 0 0 0 1</matrix>
        <instance_geometry url="#Cube-mesh" name="Cube_A">
          <bind_material>
            <technique_common>
              <instance_material symbol="Ivory-material" target="#Ivory-material">
                <bind_vertex_input semantic="UVMap" input_semantic="TEXCOORD" input_set="0"/>
              </instance_material>
            </technique_common>
          </bind_material>
        </instance_geometry>
      </node>
    </visual_scene>
  </library_visual_scenes>
  <scene>
    <instance_visual_scene url="#Scene"/>
  </scene>
</COLLADA>