# .PCD v0.7 - Point Cloud Data file format
VERSION 0.7
FIELDS x y z
SIZE 4 4 4
TYPE F F F
COUNT 1 1 1
WIDTH 180
HEIGHT 1
VIEWPOINT 0 0 0 1 0 0 0
POINTS 180
DATA ascii
0.025000 -0.325000 -0.025000
0.025000 -0.275000 -0.025000
0.025000 -0.225000 -0.025000
0.075000 -0.275000 -0.025000
0.075000 -0.225000 0.025000
0.125000 -0.275000 -0.025000
0.125000 -0.225000 -0.025000
0.175000 -0.275000 -0.025000
0.175000 -0.225000 -0.025000
0.175000 -0.175000 -0.025000
0.175000 -0.175000 0.025000
0.225000 -0.175000 0.075000
0.275000 -0.175000 -0.025000
0.275000 -0.175000 0.025000
0.275000 -0.175000 0.075000
0.275000 -0.125000 0.075000
0.275000 -0.075000 0.075000
0.325000 -0.175000 -0.025000
0.325000 -0.175000 0.025000
0.325000 -0.175000 0.075000
0.325000 -0.125000 -0.025000
0.325000 -0.125000 0.025000
0.325000 -0.125000 0.075000
0.325000 -0.075000 -0.025000
0.325000 -0.075000 0.025000
0.325000 -0.075000 0.075000
0.325000 -0.025000 -0.025000
0.325000 -0.025000 0.025000
0.325000 -0.025000 0.075000
0.325000 0.025000 -0.025000
0.325000 0.025000 0.025000
0.325000 0.025000 0.075000
0.375000 -0.175000 -0.025000
0.375000 -0.175000 0.025000
0.375000 -0.175000 0.075000
0.375000 -0.125000 -0.025000
0.375000 -0.125000 0.025000
0.375000 -0.125000 0.075000
0.375000 -0.075000 -0.025000
0.375000 -0.075000 0.025000
0.375000 -0.075000 0.075000
0.375000 -0.025000 -0.025000
0.375000 -0.025000 0.025000
0.375000 -0.025000 0.075000
0.375000 0.025000 -0.025000
0.375000 0.025000 0.075000
0.425000 -0.175000 -0.025000
0.425000 -0.175000 0.025000
0.425000 -0.175000 0.075000
0.425000 -0.125000 -0.025000
0.425000 -0.125000 0.025000
0.425000 -0.125000 0.075000
0.425000 -0.075000 -0.025000
0.425000 -0.075000 0.025000
0.425000 -0.075000 0.075000
0.425000 -0.025000 -0.025000
0.425000 -0.025000 0.025000
0.425000 -0.025000 0.075000
0.425000 0.025000 -0.025000
0.425000 0.025000 0.025000
0.425000 0.025000 0.075000
0.475000 -0.225000 -0.025000
0.475000 -0.225000 0.025000
0.475000 -0.225000 0.075000
0.475000 -0.175000 -0.025000
0.475000 -0.175000 0.025000
0.475000 -0.175000 0.075000
0.475000 -0.125000 -0.025000
0.475000 -0.125000 0.025000
0.475000 -0.125000 0.075000
0.475000 -0.075000 -0.025000
0.475000 -0.075000 0.025000
0.475000 -0.075000 0.075000
0.475000 -0.025000 -0.025000
0.475000 -0.025000 0.025000
0.475000 -0.025000 0.075000
0.475000 0.025000 -0.025000
0.475000 0.025000 0.025000
0.475000 0.025000 0.075000
0.525000 -0.225000 -0.025000
0.525000 -0.225000 0.025000
0.525000 -0.225000 0.075000
0.525000 -0.175000 -0.025000
0.525000 -0.175000 0.025000
0.525000 -0.175000 0.075000
0.525000 -0.125000 -0.025000
0.525000 -0.125000 0.025000
0.525000 -0.125000 0.075000
0.525000 -0.075000 -0.025000
0.525000 -0.075000 0.025000
0.525000 -0.075000 0.075000
0.525000 -0.025000 -0.025000
0.525000 -0.025000 0.025000
0.525000 -0.025000 0.075000
0.525000 0.025000 -0.025000
0.525000 0.025000 0.025000
0.525000 0.025000 0.075000
0.575000 -0.225000 -0.025000
0.575000 -0.225000 0.025000
0.575000 -0.225000 0.075000
0.575000 -0.175000 -0.025000
0.575000 -0.175000 0.025000
0.575000 -0.175000 0.075000
0.575000 -0.125000 -0.025000
0.575000 -0.125000 0.025000
0.575000 -0.125000 0.075000
0.575000 -0.075000 -0.025000
0.575000 -0.075000 0.025000
0.575000 -0.075000 0.075000
0.575000 -0.025000 -0.025000
0.575000 -0.025000 0.025000
0.575000 -0.025000 0.075000
0.575000 0.025000 -0.025000
0.575000 0.025000 0.025000
0.575000 0.025000 0.075000
0.625000 -0.225000 -0.025000
0.625000 -0.225000 0.025000
0.625000 -0.225000 0.075000
0.625000 -0.175000 -0.025000
0.625000 -0.175000 0.025000
0.625000 -0.175000 0.075000
0.625000 -0.125000 -0.025000
0.625000 -0.125000 0.025000
0.625000 -0.125000 0.075000
0.625000 -0.075000 -0.025000
0.625000 -0.075000 0.025000
0.625000 -0.075000 0.075000
0.625000 -0.025000 -0.025000
0.625000 -0.025000 0.025000
0.625000 -0.025000 0.075000
0.625000 0.025000 -0.025000
0.625000 0.025000 0.025000
0.625000 0.025000 0.075000
0.675000 -0.225000 -0.025000
0.675000 -0.225000 0.025000
0.675000 -0.225000 0.075000
0.675000 -0.175000 -0.025000
0.675000 -0.175000 0.025000
0.675000 -0.175000 0.075000
0.675000 -0.125000 -0.025000
0.675000 -0.125000 0.025000
0.675000 -0.125000 0.075000
0.675000 -0.075000 -0.025000
0.675000 -0.075000 0.025000
0.675000 -0.075000 0.075000
0.675000 -0.025000 -0.025000
0.675000 -0.025000 0.025000
0.675000 -0.025000 0.075000
0.675000 0.025000 -0.025000
0.675000 0.025000 0.025000
0.675000 0.025000 0.075000
0.725000 -0.275000 0.025000
0.725000 -0.275000 0.075000
0.725000 -0.225000 -0.025000
0.725000 -0.225000 0.025000
0.725000 -0.225000 0.075000
0.725000 -0.175000 -0.025000
0.725000 -0.175000 0.025000
0.725000 -0.175000 0.075000
0.725000 -0.125000 -0.025000
0.725000 -0.125000 0.025000
0.725000 -0.125000 0.075000
0.725000 -0.075000 -0.025000
0.725000 -0.075000 0.025000
0.725000 -0.075000 0.075000
0.725000 -0.025000 -0.025000
0.725000 -0.025000 0.025000
0.725000 -0.025000 0.075000
0.725000 0.025000 -0.025000
0.725000 0.025000 0.025000
0.725000 0.025000 0.075000
0.775000 -0.125000 0.025000
0.775000 -0.125000 0.075000
0.775000 -0.075000 0.025000
0.775000 -0.075000 0.075000
0.775000 -0.025000 -0.025000
0.775000 -0.025000 0.025000
0.775000 -0.025000 0.075000
0.775000 0.025000 0.025000
0.775000 0.025000 0.075000
