# .PCD v0.7 - Point Cloud Data file format
VERSION 0.7
FIELDS x y z
SIZE 4 4 4
TYPE F F F
COUNT 1 1 1
WIDTH 2741
HEIGHT 1
VIEWPOINT 0 0 0 1 0 0 0
POINTS 2741
DATA ascii
0.012500 -0.787500 0.037500
0.012500 -0.787500 0.062500
0.012500 -0.762500 -0.037500
0.012500 -0.762500 -0.012500
0.012500 -0.762500 0.012500
0.012500 -0.762500 0.037500
0.012500 -0.762500 0.062500
0.012500 -0.737500 -0.037500
0.012500 -0.737500 -0.012500
0.012500 -0.737500 0.012500
0.012500 -0.737500 0.037500
0.012500 -0.737500 0.062500
0.012500 -0.712500 -0.037500
0.012500 -0.712500 -0.012500
0.012500 -0.712500 0.012500
0.012500 -0.712500 0.037500
0.012500 -0.712500 0.062500
0.012500 -0.687500 -0.037500
0.012500 -0.687500 -0.012500
0.012500 -0.687500 0.012500
0.012500 -0.687500 0.037500
0.012500 -0.687500 0.062500
0.012500 -0.662500 -0.037500
0.012500 -0.662500 -0.012500
0.012500 -0.662500 0.012500
0.012500 -0.662500 0.037500
0.012500 -0.662500 0.062500
0.012500 -0.637500 -0.037500
0.012500 -0.637500 -0.012500
0.012500 -0.637500 0.012500
0.012500 -0.637500 0.037500
0.012500 -0.637500 0.062500
0.012500 -0.612500 -0.037500
0.012500 -0.612500 -0.012500
0.012500 -0.612500 0.012500
0.012500 -0.612500 0.037500
0.012500 -0.612500 0.062500
0.012500 -0.587500 -0.037500
0.012500 -0.587500 -0.012500
0.012500 -0.587500 0.012500
0.012500 -0.587500 0.037500
0.012500 -0.587500 0.062500
0.012500 -0.562500 -0.037500
0.012500 -0.562500 -0.012500
0.012500 -0.562500 0.012500
0.012500 -0.562500 0.037500
0.012500 -0.562500 0.062500
0.012500 -0.537500 -0.037500
0.012500 -0.537500 -0.012500
0.012500 -0.537500 0.012500
0.012500 -0.537500 0.037500
0.012500 -0.537500 0.062500
0.012500 -0.512500 -0.037500
0.012500 -0.512500 -0.012500
0.012500 -0.512500 0.012500
0.012500 -0.512500 0.037500
0.012500 -0.512500 0.062500
0.012500 -0.487500 -0.037500
0.012500 -0.487500 -0.012500
0.012500 -0.487500 0.012500
0.012500 -0.487500 0.037500
0.012500 -0.487500 0.062500
0.012500 -0.462500 -0.037500
0.012500 -0.462500 -0.012500
0.012500 -0.462500 0.012500
0.012500 -0.462500 0.037500
0.012500 -0.462500 0.062500
0.012500 -0.437500 -0.037500
0.012500 -0.437500 -0.012500
0.012500 -0.437500 0.012500
0.012500 -0.437500 0.037500
0.012500 -0.437500 0.062500
0.012500 -0.412500 -0.037500
0.012500 -0.412500 -0.012500
0.012500 -0.412500 0.012500
0.012500 -0.412500 0.037500
0.012500 -0.412500 0.062500
0.012500 -0.387500 -0.037500
0.012500 -0.387500 -0.012500
0.012500 -0.387500 0.012500
0.012500 -0.387500 0.037500
0.012500 -0.387500 0.062500
0.012500 -0.362500 -0.037500
0.012500 -0.362500 -0.012500
0.012500 -0.362500 0.012500
0.012500 -0.362500 0.037500
0.012500 -0.362500 0.062500
0.012500 -0.337500 -0.037500
0.012500 -0.337500 -0.012500
0.012500 -0.337500 0.012500
0.012500 -0.337500 0.037500
0.012500 -0.337500 0.062500
0.012500 -0.312500 -0.037500
0.012500 -0.312500 0.012500
0.012500 -0.312500 0.037500
0.012500 -0.312500 0.062500
0.012500 -0.287500 -0.037500
0.012500 -0.287500 0.062500
0.012500 -0.262500 -0.037500
0.012500 -0.262500 -0.012500
0.012500 -0.262500 0.012500
0.012500 -0.237500 -0.037500
0.012500 -0.237500 -0.012500
0.012500 -0.237500 0.012500
0.037500 -0.787500 0.037500
0.037500 -0.787500 0.062500
0.037500 -0.762500 -0.037500
0.037500 -0.762500 -0.012500
0.037500 -0.762500 0.012500
0.037500 -0.762500 0.037500
0.037500 -0.762500 0.062500
0.037500 -0.737500 -0.037500
0.037500 -0.737500 -0.012500
0.037500 -0.737500 0.012500
0.037500 -0.737500 0.037500
0.037500 -0.737500 0.062500
0.037500 -0.712500 -0.037500
0.037500 -0.712500 -0.012500
0.037500 -0.712500 0.012500
0.037500 -0.712500 0.037500
0.037500 -0.712500 0.062500
0.037500 -0.687500 -0.037500
0.037500 -0.687500 -0.012500
0.037500 -0.687500 0.012500
0.037500 -0.687500 0.037500
0.037500 -0.687500 0.062500
0.037500 -0.662500 -0.037500
0.037500 -0.662500 -0.012500
0.037500 -0.662500 0.012500
0.037500 -0.662500 0.037500
0.037500 -0.662500 0.062500
0.037500 -0.637500 -0.037500
0.037500 -0.637500 -0.012500
0.037500 -0.637500 0.012500
0.037500 -0.637500 0.037500
0.037500 -0.637500 0.062500
0.037500 -0.612500 -0.037500
0.037500 -0.612500 -0.012500
0.037500 -0.612500 0.012500
0.037500 -0.612500 0.037500
0.037500 -0.612500 0.062500
0.037500 -0.587500 -0.037500
0.037500 -0.587500 -0.012500
0.037500 -0.587500 0.012500
0.037500 -0.587500 0.037500
0.037500 -0.587500 0.062500
0.037500 -0.562500 -0.037500
0.037500 -0.562500 -0.012500
0.037500 -0.562500 0.012500
0.037500 -0.562500 0.037500
0.037500 -0.562500 0.062500
0.037500 -0.537500 -0.037500
0.037500 -0.537500 -0.012500
0.037500 -0.537500 0.012500
0.037500 -0.537500 0.037500
0.037500 -0.537500 0.062500
0.037500 -0.512500 -0.037500
0.037500 -0.512500 -0.012500
0.037500 -0.512500 0.012500
0.037500 -0.512500 0.037500
0.037500 -0.512500 0.062500
0.037500 -0.487500 -0.037500
0.037500 -0.487500 -0.012500
0.037500 -0.487500 0.012500
0.037500 -0.487500 0.037500
0.037500 -0.487500 0.062500
0.037500 -0.462500 -0.037500
0.037500 -0.462500 -0.012500
0.037500 -0.462500 0.012500
0.037500 -0.462500 0.037500
0.037500 -0.462500 0.062500
0.037500 -0.437500 -0.037500
0.037500 -0.437500 -0.012500
0.037500 -0.437500 0.012500
0.037500 -0.437500 0.037500
0.037500 -0.437500 0.062500
0.037500 -0.412500 -0.037500
0.037500 -0.412500 -0.012500
0.037500 -0.412500 0.012500
0.037500 -0.412500 0.037500
0.037500 -0.412500 0.062500
0.037500 -0.387500 -0.037500
0.037500 -0.387500 -0.012500
0.037500 -0.387500 0.012500
0.037500 -0.387500 0.037500
0.037500 -0.387500 0.062500
0.037500 -0.362500 -0.037500
0.037500 -0.362500 -0.012500
0.037500 -0.362500 0.012500
0.037500 -0.362500 0.037500
0.037500 -0.362500 0.062500
0.037500 -0.337500 -0.037500
0.037500 -0.337500 -0.012500
0.037500 -0.337500 0.012500
0.037500 -0.337500 0.037500
0.037500 -0.337500 0.062500
0.037500 -0.312500 -0.037500
0.037500 -0.312500 0.012500
0.037500 -0.312500 0.037500
0.037500 -0.312500 0.062500
0.037500 -0.287500 -0.037500
0.037500 -0.287500 -0.012500
0.037500 -0.287500 0.062500
0.037500 -0.262500 -0.037500
0.037500 -0.262500 -0.012500
0.037500 -0.262500 0.012500
0.037500 -0.237500 -0.037500
0.037500 -0.237500 -0.012500
0.037500 -0.237500 0.012500
0.062500 -0.787500 0.037500
0.062500 -0.787500 0.062500
0.062500 -0.762500 -0.037500
0.062500 -0.762500 -0.012500
0.062500 -0.762500 0.012500
0.062500 -0.762500 0.037500
0.062500 -0.762500 0.062500
0.062500 -0.737500 -0.037500
0.062500 -0.737500 -0.012500
0.062500 -0.737500 0.012500
0.062500 -0.737500 0.037500
0.062500 -0.737500 0.062500
0.062500 -0.712500 -0.037500
0.062500 -0.712500 -0.012500
0.062500 -0.712500 0.012500
0.062500 -0.712500 0.037500
0.062500 -0.712500 0.062500
0.062500 -0.687500 -0.037500
0.062500 -0.687500 -0.012500
0.062500 -0.687500 0.012500
0.062500 -0.687500 0.037500
0.062500 -0.687500 0.062500
0.062500 -0.662500 -0.037500
0.062500 -0.662500 -0.012500
0.062500 -0.662500 0.012500
0.062500 -0.662500 0.037500
0.062500 -0.662500 0.062500
0.062500 -0.637500 -0.037500
0.062500 -0.637500 -0.012500
0.062500 -0.637500 0.012500
0.062500 -0.637500 0.037500
0.062500 -0.637500 0.062500
0.062500 -0.612500 -0.037500
0.062500 -0.612500 -0.012500
0.062500 -0.612500 0.012500
0.062500 -0.612500 0.037500
0.062500 -0.612500 0.062500
0.062500 -0.587500 -0.037500
0.062500 -0.587500 -0.012500
0.062500 -0.587500 0.012500
0.062500 -0.587500 0.037500
0.062500 -0.587500 0.062500
0.062500 -0.562500 -0.037500
0.062500 -0.562500 -0.012500
0.062500 -0.562500 0.012500
0.062500 -0.562500 0.037500
0.062500 -0.562500 0.062500
0.062500 -0.537500 -0.037500
0.062500 -0.537500 -0.012500
0.062500 -0.537500 0.037500
0.062500 -0.537500 0.062500
0.062500 -0.512500 -0.037500
0.062500 -0.512500 -0.012500
0.062500 -0.512500 0.012500
0.062500 -0.512500 0.037500
0.062500 -0.512500 0.062500
0.062500 -0.487500 -0.037500
0.062500 -0.487500 -0.012500
0.062500 -0.487500 0.012500
0.062500 -0.487500 0.037500
0.062500 -0.487500 0.062500
0.062500 -0.462500 -0.037500
0.062500 -0.462500 -0.012500
0.062500 -0.462500 0.012500
0.062500 -0.462500 0.037500
0.062500 -0.462500 0.062500
0.062500 -0.437500 -0.037500
0.062500 -0.437500 -0.012500
0.062500 -0.437500 0.012500
0.062500 -0.437500 0.037500
0.062500 -0.437500 0.062500
0.062500 -0.412500 -0.037500
0.062500 -0.412500 -0.012500
0.062500 -0.412500 0.012500
0.062500 -0.412500 0.037500
0.062500 -0.412500 0.062500
0.062500 -0.387500 -0.037500
0.062500 -0.387500 -0.012500
0.062500 -0.387500 0.012500
0.062500 -0.387500 0.037500
0.062500 -0.387500 0.062500
0.062500 -0.362500 -0.037500
0.062500 -0.362500 -0.012500
0.062500 -0.362500 0.012500
0.062500 -0.362500 0.037500
0.062500 -0.362500 0.062500
0.062500 -0.337500 -0.037500
0.062500 -0.337500 -0.012500
0.062500 -0.337500 0.012500
0.062500 -0.337500 0.037500
0.062500 -0.337500 0.062500
0.062500 -0.312500 -0.037500
0.062500 -0.312500 0.012500
0.062500 -0.312500 0.037500
0.062500 -0.312500 0.062500
0.062500 -0.287500 -0.037500
0.062500 -0.287500 -0.012500
0.062500 -0.287500 0.062500
0.062500 -0.262500 -0.037500
0.062500 -0.262500 -0.012500
0.062500 -0.237500 -0.037500
0.062500 -0.237500 -0.012500
0.062500 -0.237500 0.012500
0.062500 -0.212500 -0.037500
0.062500 -0.212500 -0.012500
0.062500 -0.212500 0.012500
0.062500 -0.212500 0.037500
0.087500 -0.762500 -0.037500
0.087500 -0.762500 -0.012500
0.087500 -0.762500 0.012500
0.087500 -0.762500 0.037500
0.087500 -0.762500 0.062500
0.087500 -0.737500 -0.037500
0.087500 -0.737500 -0.012500
0.087500 -0.737500 0.012500
0.087500 -0.737500 0.037500
0.087500 -0.737500 0.062500
0.087500 -0.712500 -0.037500
0.087500 -0.712500 -0.012500
0.087500 -0.712500 0.012500
0.087500 -0.712500 0.037500
0.087500 -0.712500 0.062500
0.087500 -0.687500 -0.037500
0.087500 -0.687500 -0.012500
0.087500 -0.687500 0.012500
0.087500 -0.687500 0.037500
0.087500 -0.687500 0.062500
0.087500 -0.662500 -0.012500
0.087500 -0.662500 0.012500
0.087500 -0.662500 0.037500
0.087500 -0.662500 0.062500
0.087500 -0.637500 -0.037500
0.087500 -0.637500 -0.012500
0.087500 -0.637500 0.012500
0.087500 -0.637500 0.037500
0.087500 -0.637500 0.062500
0.087500 -0.612500 -0.037500
0.087500 -0.612500 -0.012500
0.087500 -0.612500 0.037500
0.087500 -0.612500 0.062500
0.087500 -0.587500 -0.037500
0.087500 -0.587500 -0.012500
0.087500 -0.587500 0.012500
0.087500 -0.587500 0.037500
0.087500 -0.587500 0.062500
0.087500 -0.562500 -0.037500
0.087500 -0.562500 -0.012500
0.087500 -0.562500 0.012500
0.087500 -0.562500 0.037500
0.087500 -0.562500 0.062500
0.087500 -0.537500 -0.037500
0.087500 -0.537500 -0.012500
0.087500 -0.537500 0.012500
0.087500 -0.537500 0.037500
0.087500 -0.537500 0.062500
0.087500 -0.512500 -0.037500
0.087500 -0.512500 -0.012500
0.087500 -0.512500 0.012500
0.087500 -0.512500 0.037500
0.087500 -0.512500 0.062500
0.087500 -0.487500 -0.037500
0.087500 -0.487500 -0.012500
0.087500 -0.487500 0.012500
0.087500 -0.487500 0.037500
0.087500 -0.487500 0.062500
0.087500 -0.462500 -0.037500
0.087500 -0.462500 -0.012500
0.087500 -0.462500 0.012500
0.087500 -0.462500 0.037500
0.087500 -0.462500 0.062500
0.087500 -0.437500 -0.037500
0.087500 -0.437500 -0.012500
0.087500 -0.437500 0.037500
0.087500 -0.437500 0.062500
0.087500 -0.412500 -0.037500
0.087500 -0.412500 -0.012500
0.087500 -0.412500 0.012500
0.087500 -0.412500 0.037500
0.087500 -0.412500 0.062500
0.087500 -0.387500 -0.037500
0.087500 -0.387500 -0.012500
0.087500 -0.387500 0.012500
0.087500 -0.387500 0.037500
0.087500 -0.387500 0.062500
0.087500 -0.362500 -0.037500
0.087500 -0.362500 -0.012500
0.087500 -0.362500 0.012500
0.087500 -0.362500 0.037500
0.087500 -0.362500 0.062500
0.087500 -0.337500 -0.037500
0.087500 -0.337500 -0.012500
0.087500 -0.337500 0.012500
0.087500 -0.337500 0.037500
0.087500 -0.337500 0.062500
0.087500 -0.312500 -0.037500
0.087500 -0.312500 -0.012500
0.087500 -0.312500 0.012500
0.087500 -0.312500 0.037500
0.087500 -0.312500 0.062500
0.087500 -0.287500 -0.037500
0.087500 -0.287500 -0.012500
0.087500 -0.287500 0.012500
0.087500 -0.287500 0.037500
0.087500 -0.287500 0.062500
0.087500 -0.262500 -0.012500
0.087500 -0.237500 -0.037500
0.087500 -0.237500 -0.012500
0.087500 -0.212500 -0.037500
0.087500 -0.212500 -0.012500
0.087500 -0.212500 0.037500
0.112500 -0.762500 -0.037500
0.112500 -0.762500 -0.012500
0.112500 -0.762500 0.012500
0.112500 -0.762500 0.037500
0.112500 -0.762500 0.062500
0.112500 -0.737500 -0.037500
0.112500 -0.737500 -0.012500
0.112500 -0.737500 0.012500
0.112500 -0.737500 0.037500
0.112500 -0.737500 0.062500
0.112500 -0.712500 -0.037500
0.112500 -0.712500 -0.012500
0.112500 -0.712500 0.012500
0.112500 -0.712500 0.037500
0.112500 -0.712500 0.062500
0.112500 -0.687500 -0.037500
0.112500 -0.687500 -0.012500
0.112500 -0.687500 0.012500
0.112500 -0.687500 0.037500
0.112500 -0.687500 0.062500
0.112500 -0.662500 -0.037500
0.112500 -0.662500 -0.012500
0.112500 -0.662500 0.012500
0.112500 -0.662500 0.037500
0.112500 -0.662500 0.062500
0.112500 -0.637500 -0.037500
0.112500 -0.637500 -0.012500
0.112500 -0.637500 0.012500
0.112500 -0.637500 0.037500
0.112500 -0.637500 0.062500
0.112500 -0.612500 -0.037500
0.112500 -0.612500 -0.012500
0.112500 -0.612500 0.012500
0.112500 -0.612500 0.037500
0.112500 -0.612500 0.062500
0.112500 -0.587500 -0.037500
0.112500 -0.587500 -0.012500
0.112500 -0.587500 0.012500
0.112500 -0.587500 0.037500
0.112500 -0.587500 0.062500
0.112500 -0.562500 -0.037500
0.112500 -0.562500 -0.012500
0.112500 -0.562500 0.037500
0.112500 -0.562500 0.062500
0.112500 -0.537500 -0.037500
0.112500 -0.537500 -0.012500
0.112500 -0.537500 0.012500
0.112500 -0.537500 0.037500
0.112500 -0.537500 0.062500
0.112500 -0.512500 -0.037500
0.112500 -0.512500 -0.012500
0.112500 -0.512500 0.012500
0.112500 -0.512500 0.037500
0.112500 -0.512500 0.062500
0.112500 -0.487500 -0.037500
0.112500 -0.487500 -0.012500
0.112500 -0.487500 0.012500
0.112500 -0.487500 0.037500
0.112500 -0.462500 -0.037500
0.112500 -0.462500 -0.012500
0.112500 -0.462500 0.012500
0.112500 -0.462500 0.037500
0.112500 -0.462500 0.062500
0.112500 -0.437500 -0.037500
0.112500 -0.437500 -0.012500
0.112500 -0.437500 0.012500
0.112500 -0.437500 0.037500
0.112500 -0.437500 0.062500
0.112500 -0.412500 -0.037500
0.112500 -0.412500 -0.012500
0.112500 -0.412500 0.012500
0.112500 -0.412500 0.037500
0.112500 -0.412500 0.062500
0.112500 -0.387500 -0.037500
0.112500 -0.387500 -0.012500
0.112500 -0.387500 0.012500
0.112500 -0.387500 0.037500
0.112500 -0.387500 0.062500
0.112500 -0.362500 -0.037500
0.112500 -0.362500 -0.012500
0.112500 -0.362500 0.012500
0.112500 -0.362500 0.037500
0.112500 -0.362500 0.062500
0.112500 -0.337500 -0.037500
0.112500 -0.337500 -0.012500
0.112500 -0.337500 0.012500
0.112500 -0.337500 0.037500
0.112500 -0.337500 0.062500
0.112500 -0.312500 -0.037500
0.112500 -0.312500 -0.012500
0.112500 -0.312500 0.012500
0.112500 -0.312500 0.037500
0.112500 -0.312500 0.062500
0.112500 -0.287500 -0.037500
0.112500 -0.287500 -0.012500
0.112500 -0.287500 0.037500
0.112500 -0.287500 0.062500
0.112500 -0.262500 -0.037500
0.112500 -0.262500 0.012500
0.112500 -0.262500 0.062500
0.112500 -0.237500 -0.037500
0.112500 -0.237500 -0.012500
0.112500 -0.237500 0.012500
0.112500 -0.212500 -0.012500
0.112500 -0.212500 0.012500
0.112500 -0.187500 -0.012500
0.112500 -0.187500 0.012500
0.112500 -0.187500 0.037500
0.137500 -0.762500 -0.012500
0.137500 -0.762500 0.012500
0.137500 -0.762500 0.037500
0.137500 -0.762500 0.062500
0.137500 -0.737500 -0.037500
0.137500 -0.737500 -0.012500
0.137500 -0.737500 0.012500
0.137500 -0.737500 0.037500
0.137500 -0.737500 0.062500
0.137500 -0.712500 -0.037500
0.137500 -0.712500 -0.012500
0.137500 -0.712500 0.012500
0.137500 -0.712500 0.037500
0.137500 -0.712500 0.062500
0.137500 -0.687500 -0.037500
0.137500 -0.687500 -0.012500
0.137500 -0.687500 0.012500
0.137500 -0.687500 0.037500
0.137500 -0.687500 0.062500
0.137500 -0.662500 -0.037500
0.137500 -0.662500 -0.012500
0.137500 -0.662500 0.012500
0.137500 -0.662500 0.037500
0.137500 -0.662500 0.062500
0.137500 -0.637500 -0.012500
0.137500 -0.637500 0.012500
0.137500 -0.637500 0.037500
0.137500 -0.637500 0.062500
0.137500 -0.612500 -0.037500
0.137500 -0.612500 -0.012500
0.137500 -0.612500 0.012500
0.137500 -0.612500 0.037500
0.137500 -0.612500 0.062500
0.137500 -0.587500 -0.037500
0.137500 -0.587500 -0.012500
0.137500 -0.587500 0.012500
0.137500 -0.587500 0.037500
0.137500 -0.587500 0.062500
0.137500 -0.562500 -0.037500
0.137500 -0.562500 -0.012500
0.137500 -0.562500 0.012500
0.137500 -0.562500 0.037500
0.137500 -0.562500 0.062500
0.137500 -0.537500 -0.037500
0.137500 -0.537500 -0.012500
0.137500 -0.537500 0.012500
0.137500 -0.537500 0.037500
0.137500 -0.537500 0.062500
0.137500 -0.512500 -0.037500
0.137500 -0.512500 -0.012500
0.137500 -0.512500 0.012500
0.137500 -0.512500 0.037500
0.137500 -0.512500 0.062500
0.137500 -0.487500 -0.037500
0.137500 -0.487500 -0.012500
0.137500 -0.487500 0.012500
0.137500 -0.487500 0.037500
0.137500 -0.487500 0.062500
0.137500 -0.462500 -0.037500
0.137500 -0.462500 -0.012500
0.137500 -0.462500 0.012500
0.137500 -0.462500 0.037500
0.137500 -0.462500 0.062500
0.137500 -0.437500 -0.037500
0.137500 -0.437500 -0.012500
0.137500 -0.437500 0.012500
0.137500 -0.437500 0.037500
0.137500 -0.437500 0.062500
0.137500 -0.412500 -0.037500
0.137500 -0.412500 -0.012500
0.137500 -0.412500 0.012500
0.137500 -0.412500 0.037500
0.137500 -0.412500 0.062500
0.137500 -0.387500 -0.037500
0.137500 -0.387500 -0.012500
0.137500 -0.387500 0.012500
0.137500 -0.387500 0.037500
0.137500 -0.387500 0.062500
0.137500 -0.362500 -0.037500
0.137500 -0.362500 -0.012500
0.137500 -0.362500 0.012500
0.137500 -0.362500 0.037500
0.137500 -0.362500 0.062500
0.137500 -0.337500 -0.037500
0.137500 -0.337500 -0.012500
0.137500 -0.337500 0.012500
0.137500 -0.337500 0.037500
0.137500 -0.337500 0.062500
0.137500 -0.312500 -0.037500
0.137500 -0.312500 -0.012500
0.137500 -0.312500 0.012500
0.137500 -0.312500 0.037500
0.137500 -0.312500 0.062500
0.137500 -0.287500 -0.037500
0.137500 -0.287500 -0.012500
0.137500 -0.287500 0.012500
0.137500 -0.287500 0.037500
0.137500 -0.287500 0.062500
0.137500 -0.262500 -0.037500
0.137500 -0.262500 0.037500
0.137500 -0.262500 0.062500
0.137500 -0.237500 -0.037500
0.137500 -0.237500 -0.012500
0.137500 -0.212500 -0.037500
0.137500 -0.212500 -0.012500
0.137500 -0.212500 0.012500
0.137500 -0.187500 -0.037500
0.137500 -0.187500 -0.012500
0.137500 -0.187500 0.037500
0.137500 -0.162500 0.012500
0.137500 -0.162500 0.037500
0.162500 -0.762500 -0.012500
0.162500 -0.762500 0.012500
0.162500 -0.762500 0.037500
0.162500 -0.762500 0.062500
0.162500 -0.737500 -0.037500
0.162500 -0.737500 0.012500
0.162500 -0.737500 0.037500
0.162500 -0.737500 0.062500
0.162500 -0.712500 -0.037500
0.162500 -0.712500 -0.012500
0.162500 -0.712500 0.012500
0.162500 -0.712500 0.037500
0.162500 -0.712500 0.062500
0.162500 -0.687500 -0.037500
0.162500 -0.687500 -0.012500
0.162500 -0.687500 0.012500
0.162500 -0.687500 0.037500
0.162500 -0.687500 0.062500
0.162500 -0.662500 -0.037500
0.162500 -0.662500 -0.012500
0.162500 -0.662500 0.012500
0.162500 -0.662500 0.037500
0.162500 -0.662500 0.062500
0.162500 -0.637500 -0.037500
0.162500 -0.637500 -0.012500
0.162500 -0.637500 0.012500
0.162500 -0.637500 0.037500
0.162500 -0.637500 0.062500
0.162500 -0.612500 -0.037500
0.162500 -0.612500 -0.012500
0.162500 -0.612500 0.012500
0.162500 -0.612500 0.037500
0.162500 -0.612500 0.062500
0.162500 -0.587500 -0.037500
0.162500 -0.587500 -0.012500
0.162500 -0.587500 0.012500
0.162500 -0.587500 0.037500
0.162500 -0.587500 0.062500
0.162500 -0.562500 -0.037500
0.162500 -0.562500 -0.012500
0.162500 -0.562500 0.012500
0.162500 -0.562500 0.037500
0.162500 -0.562500 0.062500
0.162500 -0.537500 -0.037500
0.162500 -0.537500 -0.012500
0.162500 -0.537500 0.012500
0.162500 -0.537500 0.037500
0.162500 -0.537500 0.062500
0.162500 -0.512500 -0.037500
0.162500 -0.512500 -0.012500
0.162500 -0.512500 0.012500
0.162500 -0.512500 0.037500
0.162500 -0.512500 0.062500
0.162500 -0.487500 -0.037500
0.162500 -0.487500 -0.012500
0.162500 -0.487500 0.012500
0.162500 -0.487500 0.037500
0.162500 -0.487500 0.062500
0.162500 -0.462500 -0.037500
0.162500 -0.462500 -0.012500
0.162500 -0.462500 0.012500
0.162500 -0.462500 0.037500
0.162500 -0.462500 0.062500
0.162500 -0.437500 -0.037500
0.162500 -0.437500 -0.012500
0.162500 -0.437500 0.012500
0.162500 -0.437500 0.037500
0.162500 -0.437500 0.062500
0.162500 -0.412500 -0.037500
0.162500 -0.412500 -0.012500
0.162500 -0.412500 0.012500
0.162500 -0.412500 0.037500
0.162500 -0.412500 0.062500
0.162500 -0.387500 -0.037500
0.162500 -0.387500 -0.012500
0.162500 -0.387500 0.012500
0.162500 -0.387500 0.037500
0.162500 -0.387500 0.062500
0.162500 -0.362500 -0.037500
0.162500 -0.362500 -0.012500
0.162500 -0.362500 0.012500
0.162500 -0.362500 0.037500
0.162500 -0.362500 0.062500
0.162500 -0.337500 -0.037500
0.162500 -0.337500 -0.012500
0.162500 -0.337500 0.012500
0.162500 -0.337500 0.037500
0.162500 -0.337500 0.062500
0.162500 -0.312500 -0.037500
0.162500 -0.312500 -0.012500
0.162500 -0.312500 0.012500
0.162500 -0.312500 0.037500
0.162500 -0.312500 0.062500
0.162500 -0.287500 -0.037500
0.162500 -0.287500 -0.012500
0.162500 -0.287500 0.012500
0.162500 -0.287500 0.037500
0.162500 -0.287500 0.062500
0.162500 -0.262500 -0.037500
0.162500 -0.262500 -0.012500
0.162500 -0.262500 0.037500
0.162500 -0.262500 0.062500
0.162500 -0.237500 -0.012500
0.162500 -0.237500 0.062500
0.162500 -0.212500 -0.012500
0.162500 -0.187500 -0.037500
0.162500 -0.162500 -0.037500
0.162500 -0.162500 -0.012500
0.162500 -0.162500 0.012500
0.162500 -0.137500 0.012500
0.162500 -0.137500 0.037500
0.187500 -0.762500 0.012500
0.187500 -0.762500 0.037500
0.187500 -0.762500 0.062500
0.187500 -0.737500 -0.037500
0.187500 -0.737500 -0.012500
0.187500 -0.737500 0.012500
0.187500 -0.737500 0.037500
0.187500 -0.737500 0.062500
0.187500 -0.712500 -0.037500
0.187500 -0.712500 -0.012500
0.187500 -0.712500 0.012500
0.187500 -0.712500 0.037500
0.187500 -0.712500 0.062500
0.187500 -0.687500 -0.037500
0.187500 -0.687500 -0.012500
0.187500 -0.687500 0.012500
0.187500 -0.687500 0.037500
0.187500 -0.687500 0.062500
0.187500 -0.662500 -0.012500
0.187500 -0.662500 0.012500
0.187500 -0.662500 0.037500
0.187500 -0.662500 0.062500
0.187500 -0.637500 -0.037500
0.187500 -0.637500 -0.012500
0.187500 -0.637500 0.012500
0.187500 -0.637500 0.037500
0.187500 -0.637500 0.062500
0.187500 -0.612500 -0.037500
0.187500 -0.612500 -0.012500
0.187500 -0.612500 0.012500
0.187500 -0.612500 0.037500
0.187500 -0.612500 0.062500
0.187500 -0.587500 -0.037500
0.187500 -0.587500 -0.012500
0.187500 -0.587500 0.012500
0.187500 -0.587500 0.037500
0.187500 -0.587500 0.062500
0.187500 -0.562500 -0.037500
0.187500 -0.562500 -0.012500
0.187500 -0.562500 0.012500
0.187500 -0.562500 0.037500
0.187500 -0.562500 0.062500
0.187500 -0.537500 -0.037500
0.187500 -0.537500 -0.012500
0.187500 -0.537500 0.012500
0.187500 -0.537500 0.037500
0.187500 -0.537500 0.062500
0.187500 -0.512500 -0.037500
0.187500 -0.512500 -0.012500
0.187500 -0.512500 0.012500
0.187500 -0.512500 0.037500
0.187500 -0.512500 0.062500
0.187500 -0.487500 -0.037500
0.187500 -0.487500 -0.012500
0.187500 -0.487500 0.012500
0.187500 -0.487500 0.037500
0.187500 -0.487500 0.062500
0.187500 -0.462500 -0.037500
0.187500 -0.462500 -0.012500
0.187500 -0.462500 0.012500
0.187500 -0.462500 0.037500
0.187500 -0.462500 0.062500
0.187500 -0.437500 -0.037500
0.187500 -0.437500 -0.012500
0.187500 -0.437500 0.012500
0.187500 -0.437500 0.037500
0.187500 -0.437500 0.062500
0.187500 -0.412500 -0.037500
0.187500 -0.412500 -0.012500
0.187500 -0.412500 0.012500
0.187500 -0.412500 0.037500
0.187500 -0.412500 0.062500
0.187500 -0.387500 -0.037500
0.187500 -0.387500 -0.012500
0.187500 -0.387500 0.012500
0.187500 -0.387500 0.037500
0.187500 -0.387500 0.062500
0.187500 -0.362500 -0.037500
0.187500 -0.362500 -0.012500
0.187500 -0.362500 0.012500
0.187500 -0.362500 0.037500
0.187500 -0.362500 0.062500
0.187500 -0.337500 -0.037500
0.187500 -0.337500 -0.012500
0.187500 -0.337500 0.012500
0.187500 -0.337500 0.037500
0.187500 -0.337500 0.062500
0.187500 -0.312500 -0.037500
0.187500 -0.312500 -0.012500
0.187500 -0.312500 0.012500
0.187500 -0.312500 0.037500
0.187500 -0.312500 0.062500
0.187500 -0.287500 -0.037500
0.187500 -0.287500 -0.012500
0.187500 -0.287500 0.012500
0.187500 -0.287500 0.037500
0.187500 -0.287500 0.062500
0.187500 -0.262500 -0.037500
0.187500 -0.262500 -0.012500
0.187500 -0.262500 0.012500
0.187500 -0.262500 0.037500
0.187500 -0.262500 0.062500
0.187500 -0.237500 -0.037500
0.187500 -0.237500 -0.012500
0.187500 -0.237500 0.037500
0.187500 -0.237500 0.062500
0.187500 -0.212500 -0.037500
0.187500 -0.212500 -0.012500
0.212500 -0.762500 0.062500
0.212500 -0.737500 -0.037500
0.212500 -0.737500 -0.012500
0.212500 -0.737500 0.012500
0.212500 -0.737500 0.037500
0.212500 -0.737500 0.062500
0.212500 -0.712500 -0.037500
0.212500 -0.712500 -0.012500
0.212500 -0.712500 0.012500
0.212500 -0.712500 0.037500
0.212500 -0.712500 0.062500
0.212500 -0.687500 -0.037500
0.212500 -0.687500 -0.012500
0.212500 -0.687500 0.012500
0.212500 -0.687500 0.037500
0.212500 -0.687500 0.062500
0.212500 -0.662500 -0.037500
0.212500 -0.662500 -0.012500
0.212500 -0.662500 0.012500
0.212500 -0.662500 0.037500
0.212500 -0.662500 0.062500
0.212500 -0.637500 -0.037500
0.212500 -0.637500 -0.012500
0.212500 -0.637500 0.012500
0.212500 -0.637500 0.037500
0.212500 -0.637500 0.062500
0.212500 -0.612500 -0.037500
0.212500 -0.612500 -0.012500
0.212500 -0.612500 0.012500
0.212500 -0.612500 0.037500
0.212500 -0.612500 0.062500
0.212500 -0.587500 -0.037500
0.212500 -0.587500 -0.012500
0.212500 -0.587500 0.012500
0.212500 -0.587500 0.037500
0.212500 -0.587500 0.062500
0.212500 -0.562500 -0.037500
0.212500 -0.562500 -0.012500
0.212500 -0.562500 0.012500
0.212500 -0.562500 0.037500
0.212500 -0.562500 0.062500
0.212500 -0.537500 -0.037500
0.212500 -0.537500 -0.012500
0.212500 -0.537500 0.012500
0.212500 -0.537500 0.037500
0.212500 -0.537500 0.062500
0.212500 -0.512500 -0.037500
0.212500 -0.512500 -0.012500
0.212500 -0.512500 0.012500
0.212500 -0.512500 0.037500
0.212500 -0.512500 0.062500
0.212500 -0.487500 -0.037500
0.212500 -0.487500 -0.012500
0.212500 -0.487500 0.012500
0.212500 -0.487500 0.037500
0.212500 -0.487500 0.062500
0.212500 -0.462500 -0.037500
0.212500 -0.462500 -0.012500
0.212500 -0.462500 0.012500
0.212500 -0.462500 0.037500
0.212500 -0.462500 0.062500
0.212500 -0.437500 -0.037500
0.212500 -0.437500 -0.012500
0.212500 -0.437500 0.012500
0.212500 -0.437500 0.037500
0.212500 -0.437500 0.062500
0.212500 -0.412500 -0.037500
0.212500 -0.412500 -0.012500
0.212500 -0.412500 0.012500
0.212500 -0.412500 0.037500
0.212500 -0.412500 0.062500
0.212500 -0.387500 -0.037500
0.212500 -0.387500 -0.012500
0.212500 -0.387500 0.012500
0.212500 -0.387500 0.037500
0.212500 -0.387500 0.062500
0.212500 -0.362500 -0.037500
0.212500 -0.362500 -0.012500
0.212500 -0.362500 0.012500
0.212500 -0.362500 0.037500
0.212500 -0.362500 0.062500
0.212500 -0.337500 -0.037500
0.212500 -0.337500 -0.012500
0.212500 -0.337500 0.012500
0.212500 -0.337500 0.037500
0.212500 -0.337500 0.062500
0.212500 -0.312500 -0.037500
0.212500 -0.312500 -0.012500
0.212500 -0.312500 0.012500
0.212500 -0.312500 0.037500
0.212500 -0.312500 0.062500
0.212500 -0.287500 -0.037500
0.212500 -0.287500 -0.012500
0.212500 -0.287500 0.012500
0.212500 -0.287500 0.037500
0.212500 -0.287500 0.062500
0.212500 -0.262500 -0.037500
0.212500 -0.262500 -0.012500
0.212500 -0.262500 0.012500
0.212500 -0.262500 0.037500
0.212500 -0.262500 0.062500
0.212500 -0.237500 -0.012500
0.212500 -0.237500 0.012500
0.212500 -0.237500 0.037500
0.212500 -0.237500 0.062500
0.212500 -0.212500 0.037500
0.212500 -0.212500 0.062500
0.237500 -0.737500 -0.012500
0.237500 -0.737500 0.012500
0.237500 -0.737500 0.037500
0.237500 -0.737500 0.062500
0.237500 -0.712500 -0.037500
0.237500 -0.712500 -0.012500
0.237500 -0.712500 0.012500
0.237500 -0.712500 0.037500
0.237500 -0.712500 0.062500
0.237500 -0.687500 -0.037500
0.237500 -0.687500 -0.012500
0.237500 -0.687500 0.012500
0.237500 -0.687500 0.037500
0.237500 -0.687500 0.062500
0.237500 -0.662500 -0.037500
0.237500 -0.662500 -0.012500
0.237500 -0.662500 0.012500
0.237500 -0.662500 0.037500
0.237500 -0.662500 0.062500
0.237500 -0.637500 -0.037500
0.237500 -0.637500 -0.012500
0.237500 -0.637500 0.012500
0.237500 -0.637500 0.037500
0.237500 -0.637500 0.062500
0.237500 -0.612500 -0.037500
0.237500 -0.612500 -0.012500
0.237500 -0.612500 0.012500
0.237500 -0.612500 0.037500
0.237500 -0.612500 0.062500
0.237500 -0.587500 -0.037500
0.237500 -0.587500 -0.012500
0.237500 -0.587500 0.012500
0.237500 -0.587500 0.037500
0.237500 -0.587500 0.062500
0.237500 -0.562500 -0.037500
0.237500 -0.562500 -0.012500
0.237500 -0.562500 0.012500
0.237500 -0.562500 0.037500
0.237500 -0.562500 0.062500
0.237500 -0.537500 -0.037500
0.237500 -0.537500 -0.012500
0.237500 -0.537500 0.012500
0.237500 -0.537500 0.037500
0.237500 -0.537500 0.062500
0.237500 -0.512500 -0.037500
0.237500 -0.512500 -0.012500
0.237500 -0.512500 0.012500
0.237500 -0.512500 0.037500
0.237500 -0.512500 0.062500
0.237500 -0.487500 -0.037500
0.237500 -0.487500 -0.012500
0.237500 -0.487500 0.012500
0.237500 -0.487500 0.037500
0.237500 -0.487500 0.062500
0.237500 -0.462500 -0.037500
0.237500 -0.462500 -0.012500
0.237500 -0.462500 0.012500
0.237500 -0.462500 0.037500
0.237500 -0.462500 0.062500
0.237500 -0.437500 -0.037500
0.237500 -0.437500 -0.012500
0.237500 -0.437500 0.012500
0.237500 -0.437500 0.037500
0.237500 -0.437500 0.062500
0.237500 -0.412500 -0.037500
0.237500 -0.412500 -0.012500
0.237500 -0.412500 0.012500
0.237500 -0.412500 0.037500
0.237500 -0.412500 0.062500
0.237500 -0.387500 -0.037500
0.237500 -0.387500 -0.012500
0.237500 -0.387500 0.012500
0.237500 -0.387500 0.037500
0.237500 -0.387500 0.062500
0.237500 -0.362500 -0.037500
0.237500 -0.362500 -0.012500
0.237500 -0.362500 0.012500
0.237500 -0.362500 0.037500
0.237500 -0.362500 0.062500
0.237500 -0.337500 -0.037500
0.237500 -0.337500 -0.012500
0.237500 -0.337500 0.012500
0.237500 -0.337500 0.037500
0.237500 -0.337500 0.062500
0.237500 -0.312500 -0.037500
0.237500 -0.312500 -0.012500
0.237500 -0.312500 0.012500
0.237500 -0.312500 0.062500
0.237500 -0.287500 -0.037500
0.237500 -0.287500 -0.012500
0.237500 -0.287500 0.012500
0.237500 -0.287500 0.037500
0.237500 -0.287500 0.062500
0.237500 -0.262500 -0.037500
0.237500 -0.262500 -0.012500
0.237500 -0.262500 0.012500
0.237500 -0.262500 0.037500
0.237500 -0.262500 0.062500
0.237500 -0.237500 -0.037500
0.237500 -0.237500 -0.012500
0.237500 -0.237500 0.012500
0.237500 -0.237500 0.037500
0.237500 -0.237500 0.062500
0.237500 -0.212500 -0.012500
0.237500 -0.212500 0.012500
0.237500 -0.212500 0.037500
0.237500 -0.212500 0.062500
0.237500 -0.187500 0.037500
0.237500 -0.187500 0.062500
0.237500 -0.162500 0.062500
0.262500 -0.737500 0.012500
0.262500 -0.737500 0.037500
0.262500 -0.737500 0.062500
0.262500 -0.712500 -0.037500
0.262500 -0.712500 -0.012500
0.262500 -0.712500 0.012500
0.262500 -0.712500 0.037500
0.262500 -0.712500 0.062500
0.262500 -0.687500 -0.037500
0.262500 -0.687500 -0.012500
0.262500 -0.687500 0.012500
0.262500 -0.687500 0.037500
0.262500 -0.687500 0.062500
0.262500 -0.662500 -0.037500
0.262500 -0.662500 -0.012500
0.262500 -0.662500 0.012500
0.262500 -0.662500 0.037500
0.262500 -0.662500 0.062500
0.262500 -0.637500 -0.037500
0.262500 -0.637500 -0.012500
0.262500 -0.637500 0.012500
0.262500 -0.637500 0.037500
0.262500 -0.637500 0.062500
0.262500 -0.612500 -0.037500
0.262500 -0.612500 -0.012500
0.262500 -0.612500 0.012500
0.262500 -0.612500 0.037500
0.262500 -0.612500 0.062500
0.262500 -0.587500 -0.037500
0.262500 -0.587500 -0.012500
0.262500 -0.587500 0.012500
0.262500 -0.587500 0.037500
0.262500 -0.587500 0.062500
0.262500 -0.562500 -0.037500
0.262500 -0.562500 -0.012500
0.262500 -0.562500 0.012500
0.262500 -0.562500 0.037500
0.262500 -0.562500 0.062500
0.262500 -0.537500 -0.037500
0.262500 -0.537500 -0.012500
0.262500 -0.537500 0.012500
0.262500 -0.537500 0.037500
0.262500 -0.537500 0.062500
0.262500 -0.512500 -0.037500
0.262500 -0.512500 -0.012500
0.262500 -0.512500 0.012500
0.262500 -0.512500 0.037500
0.262500 -0.512500 0.062500
0.262500 -0.487500 -0.037500
0.262500 -0.487500 -0.012500
0.262500 -0.487500 0.012500
0.262500 -0.487500 0.037500
0.262500 -0.487500 0.062500
0.262500 -0.462500 -0.037500
0.262500 -0.462500 -0.012500
0.262500 -0.462500 0.012500
0.262500 -0.462500 0.037500
0.262500 -0.462500 0.062500
0.262500 -0.437500 -0.037500
0.262500 -0.437500 -0.012500
0.262500 -0.437500 0.012500
0.262500 -0.437500 0.037500
0.262500 -0.437500 0.062500
0.262500 -0.412500 -0.037500
0.262500 -0.412500 -0.012500
0.262500 -0.412500 0.012500
0.262500 -0.412500 0.037500
0.262500 -0.412500 0.062500
0.262500 -0.387500 -0.037500
0.262500 -0.387500 -0.012500
0.262500 -0.387500 0.012500
0.262500 -0.387500 0.037500
0.262500 -0.387500 0.062500
0.262500 -0.362500 -0.037500
0.262500 -0.362500 -0.012500
0.262500 -0.362500 0.012500
0.262500 -0.362500 0.037500
0.262500 -0.362500 0.062500
0.262500 -0.337500 -0.037500
0.262500 -0.337500 -0.012500
0.262500 -0.337500 0.012500
0.262500 -0.337500 0.037500
0.262500 -0.337500 0.062500
0.262500 -0.312500 -0.037500
0.262500 -0.312500 -0.012500
0.262500 -0.312500 0.012500
0.262500 -0.312500 0.037500
0.262500 -0.312500 0.062500
0.262500 -0.287500 -0.037500
0.262500 -0.287500 -0.012500
0.262500 -0.287500 0.012500
0.262500 -0.287500 0.037500
0.262500 -0.287500 0.062500
0.262500 -0.262500 -0.037500
0.262500 -0.262500 -0.012500
0.262500 -0.262500 0.012500
0.262500 -0.262500 0.037500
0.262500 -0.262500 0.062500
0.262500 -0.237500 -0.037500
0.262500 -0.237500 -0.012500
0.262500 -0.237500 0.012500
0.262500 -0.237500 0.037500
0.262500 -0.237500 0.062500
0.262500 -0.212500 -0.037500
0.262500 -0.212500 -0.012500
0.262500 -0.212500 0.012500
0.262500 -0.212500 0.037500
0.262500 -0.212500 0.062500
0.262500 -0.187500 -0.037500
0.262500 -0.187500 -0.012500
0.262500 -0.187500 0.012500
0.262500 -0.187500 0.037500
0.262500 -0.187500 0.062500
0.262500 -0.162500 0.037500
0.262500 -0.162500 0.062500
0.262500 -0.137500 0.037500
0.262500 -0.137500 0.062500
0.262500 -0.112500 0.062500
0.287500 -0.737500 0.062500
0.287500 -0.712500 -0.037500
0.287500 -0.712500 -0.012500
0.287500 -0.712500 0.012500
0.287500 -0.712500 0.037500
0.287500 -0.712500 0.062500
0.287500 -0.687500 -0.037500
0.287500 -0.687500 -0.012500
0.287500 -0.687500 0.012500
0.287500 -0.687500 0.037500
0.287500 -0.687500 0.062500
0.287500 -0.662500 -0.037500
0.287500 -0.662500 -0.012500
0.287500 -0.662500 0.012500
0.287500 -0.662500 0.037500
0.287500 -0.662500 0.062500
0.287500 -0.637500 -0.037500
0.287500 -0.637500 -0.012500
0.287500 -0.637500 0.012500
0.287500 -0.637500 0.037500
0.287500 -0.637500 0.062500
0.287500 -0.612500 -0.037500
0.287500 -0.612500 -0.012500
0.287500 -0.612500 0.012500
0.287500 -0.612500 0.037500
0.287500 -0.612500 0.062500
0.287500 -0.587500 -0.037500
0.287500 -0.587500 -0.012500
0.287500 -0.587500 0.012500
0.287500 -0.587500 0.037500
0.287500 -0.587500 0.062500
0.287500 -0.562500 -0.037500
0.287500 -0.562500 -0.012500
0.287500 -0.562500 0.012500
0.287500 -0.562500 0.037500
0.287500 -0.537500 -0.037500
0.287500 -0.537500 -0.012500
0.287500 -0.537500 0.012500
0.287500 -0.537500 0.037500
0.287500 -0.537500 0.062500
0.287500 -0.512500 -0.037500
0.287500 -0.512500 -0.012500
0.287500 -0.512500 0.012500
0.287500 -0.512500 0.037500
0.287500 -0.512500 0.062500
0.287500 -0.487500 -0.037500
0.287500 -0.487500 -0.012500
0.287500 -0.487500 0.012500
0.287500 -0.487500 0.037500
0.287500 -0.487500 0.062500
0.287500 -0.462500 -0.037500
0.287500 -0.462500 -0.012500
0.287500 -0.462500 0.012500
0.287500 -0.462500 0.037500
0.287500 -0.462500 0.062500
0.287500 -0.437500 -0.037500
0.287500 -0.437500 -0.012500
0.287500 -0.437500 0.012500
0.287500 -0.437500 0.037500
0.287500 -0.437500 0.062500
0.287500 -0.412500 -0.037500
0.287500 -0.412500 -0.012500
0.287500 -0.412500 0.012500
0.287500 -0.412500 0.037500
0.287500 -0.412500 0.062500
0.287500 -0.387500 -0.037500
0.287500 -0.387500 -0.012500
0.287500 -0.387500 0.012500
0.287500 -0.387500 0.037500
0.287500 -0.387500 0.062500
0.287500 -0.362500 -0.037500
0.287500 -0.362500 -0.012500
0.287500 -0.362500 0.012500
0.287500 -0.362500 0.037500
0.287500 -0.362500 0.062500
0.287500 -0.337500 -0.037500
0.287500 -0.337500 -0.012500
0.287500 -0.337500 0.012500
0.287500 -0.337500 0.037500
0.287500 -0.337500 0.062500
0.287500 -0.312500 -0.037500
0.287500 -0.312500 -0.012500
0.287500 -0.312500 0.012500
0.287500 -0.312500 0.037500
0.287500 -0.312500 0.062500
0.287500 -0.287500 -0.037500
0.287500 -0.287500 -0.012500
0.287500 -0.287500 0.012500
0.287500 -0.287500 0.037500
0.287500 -0.287500 0.062500
0.287500 -0.262500 -0.037500
0.287500 -0.262500 -0.012500
0.287500 -0.262500 0.012500
0.287500 -0.262500 0.037500
0.287500 -0.262500 0.062500
0.287500 -0.237500 -0.037500
0.287500 -0.237500 -0.012500
0.287500 -0.237500 0.012500
0.287500 -0.237500 0.037500
0.287500 -0.237500 0.062500
0.287500 -0.212500 -0.037500
0.287500 -0.212500 -0.012500
0.287500 -0.212500 0.012500
0.287500 -0.212500 0.037500
0.287500 -0.212500 0.062500
0.287500 -0.187500 -0.037500
0.287500 -0.187500 -0.012500
0.287500 -0.187500 0.012500
0.287500 -0.187500 0.037500
0.287500 -0.187500 0.062500
0.287500 -0.162500 -0.037500
0.287500 -0.162500 -0.012500
0.287500 -0.162500 0.012500
0.287500 -0.162500 0.037500
0.287500 -0.162500 0.062500
0.287500 -0.137500 -0.012500
0.287500 -0.137500 0.012500
0.287500 -0.137500 0.037500
0.287500 -0.137500 0.062500
0.287500 -0.112500 0.037500
0.287500 -0.112500 0.062500
0.287500 -0.087500 0.037500
0.287500 -0.087500 0.062500
0.287500 -0.062500 0.062500
0.287500 -0.037500 0.062500
0.287500 -0.012500 0.062500
0.287500 0.012500 0.062500
0.312500 -0.712500 -0.012500
0.312500 -0.712500 0.012500
0.312500 -0.712500 0.037500
0.312500 -0.712500 0.062500
0.312500 -0.687500 -0.037500
0.312500 -0.687500 -0.012500
0.312500 -0.687500 0.012500
0.312500 -0.687500 0.037500
0.312500 -0.687500 0.062500
0.312500 -0.662500 -0.037500
0.312500 -0.662500 -0.012500
0.312500 -0.662500 0.012500
0.312500 -0.662500 0.037500
0.312500 -0.662500 0.062500
0.312500 -0.637500 -0.037500
0.312500 -0.637500 -0.012500
0.312500 -0.637500 0.012500
0.312500 -0.637500 0.037500
0.312500 -0.637500 0.062500
0.312500 -0.612500 -0.037500
0.312500 -0.612500 -0.012500
0.312500 -0.612500 0.012500
0.312500 -0.612500 0.037500
0.312500 -0.612500 0.062500
0.312500 -0.587500 -0.037500
0.312500 -0.587500 -0.012500
0.312500 -0.587500 0.012500
0.312500 -0.587500 0.037500
0.312500 -0.587500 0.062500
0.312500 -0.562500 -0.037500
0.312500 -0.562500 -0.012500
0.312500 -0.562500 0.012500
0.312500 -0.562500 0.037500
0.312500 -0.562500 0.062500
0.312500 -0.537500 -0.037500
0.312500 -0.537500 -0.012500
0.312500 -0.537500 0.012500
0.312500 -0.537500 0.037500
0.312500 -0.537500 0.062500
0.312500 -0.512500 -0.037500
0.312500 -0.512500 -0.012500
0.312500 -0.512500 0.012500
0.312500 -0.512500 0.037500
0.312500 -0.512500 0.062500
0.312500 -0.487500 -0.037500
0.312500 -0.487500 -0.012500
0.312500 -0.487500 0.012500
0.312500 -0.487500 0.037500
0.312500 -0.487500 0.062500
0.312500 -0.462500 -0.037500
0.312500 -0.462500 -0.012500
0.312500 -0.462500 0.012500
0.312500 -0.462500 0.037500
0.312500 -0.462500 0.062500
0.312500 -0.437500 -0.037500
0.312500 -0.437500 -0.012500
0.312500 -0.437500 0.012500
0.312500 -0.437500 0.037500
0.312500 -0.437500 0.062500
0.312500 -0.412500 -0.037500
0.312500 -0.412500 -0.012500
0.312500 -0.412500 0.012500
0.312500 -0.412500 0.037500
0.312500 -0.412500 0.062500
0.312500 -0.387500 -0.037500
0.312500 -0.387500 -0.012500
0.312500 -0.387500 0.012500
0.312500 -0.387500 0.037500
0.312500 -0.387500 0.062500
0.312500 -0.362500 -0.037500
0.312500 -0.362500 -0.012500
0.312500 -0.362500 0.012500
0.312500 -0.362500 0.037500
0.312500 -0.362500 0.062500
0.312500 -0.337500 -0.012500
0.312500 -0.337500 0.012500
0.312500 -0.337500 0.037500
0.312500 -0.337500 0.062500
0.312500 -0.312500 -0.037500
0.312500 -0.312500 -0.012500
0.312500 -0.312500 0.012500
0.312500 -0.312500 0.037500
0.312500 -0.312500 0.062500
0.312500 -0.287500 -0.037500
0.312500 -0.287500 -0.012500
0.312500 -0.287500 0.012500
0.312500 -0.287500 0.037500
0.312500 -0.287500 0.062500
0.312500 -0.262500 -0.037500
0.312500 -0.262500 -0.012500
0.312500 -0.262500 0.012500
0.312500 -0.262500 0.037500
0.312500 -0.237500 -0.037500
0.312500 -0.237500 -0.012500
0.312500 -0.237500 0.012500
0.312500 -0.237500 0.037500
0.312500 -0.237500 0.062500
0.312500 -0.212500 -0.037500
0.312500 -0.212500 -0.012500
0.312500 -0.212500 0.012500
0.312500 -0.212500 0.062500
0.312500 -0.187500 -0.037500
0.312500 -0.187500 -0.012500
0.312500 -0.187500 0.012500
0.312500 -0.187500 0.037500
0.312500 -0.187500 0.062500
0.312500 -0.162500 -0.037500
0.312500 -0.162500 -0.012500
0.312500 -0.162500 0.012500
0.312500 -0.162500 0.037500
0.312500 -0.162500 0.062500
0.312500 -0.137500 -0.037500
0.312500 -0.137500 -0.012500
0.312500 -0.137500 0.012500
0.312500 -0.137500 0.037500
0.312500 -0.137500 0.062500
0.312500 -0.112500 -0.037500
0.312500 -0.112500 -0.012500
0.312500 -0.112500 0.012500
0.312500 -0.112500 0.037500
0.312500 -0.112500 0.062500
0.312500 -0.087500 -0.037500
0.312500 -0.087500 -0.012500
0.312500 -0.087500 0.012500
0.312500 -0.087500 0.037500
0.312500 -0.087500 0.062500
0.312500 -0.062500 0.012500
0.312500 -0.062500 0.037500
0.312500 -0.062500 0.062500
0.312500 -0.037500 0.012500
0.312500 -0.037500 0.037500
0.312500 -0.037500 0.062500
0.312500 -0.012500 0.012500
0.312500 -0.012500 0.037500
0.312500 -0.012500 0.062500
0.312500 0.012500 0.012500
0.312500 0.012500 0.037500
0.312500 0.012500 0.062500
0.337500 -0.712500 0.037500
0.337500 -0.712500 0.062500
0.337500 -0.687500 -0.037500
0.337500 -0.687500 -0.012500
0.337500 -0.687500 0.012500
0.337500 -0.687500 0.037500
0.337500 -0.687500 0.062500
0.337500 -0.662500 -0.037500
0.337500 -0.662500 -0.012500
0.337500 -0.662500 0.012500
0.337500 -0.662500 0.062500
0.337500 -0.637500 -0.037500
0.337500 -0.637500 -0.012500
0.337500 -0.637500 0.012500
0.337500 -0.637500 0.037500
0.337500 -0.637500 0.062500
0.337500 -0.612500 -0.037500
0.337500 -0.612500 -0.012500
0.337500 -0.612500 0.012500
0.337500 -0.612500 0.037500
0.337500 -0.612500 0.062500
0.337500 -0.587500 -0.037500
0.337500 -0.587500 -0.012500
0.337500 -0.587500 0.012500
0.337500 -0.587500 0.037500
0.337500 -0.587500 0.062500
0.337500 -0.562500 -0.037500
0.337500 -0.562500 -0.012500
0.337500 -0.562500 0.012500
0.337500 -0.562500 0.037500
0.337500 -0.562500 0.062500
0.337500 -0.537500 -0.037500
0.337500 -0.537500 -0.012500
0.337500 -0.537500 0.012500
0.337500 -0.537500 0.037500
0.337500 -0.537500 0.062500
0.337500 -0.512500 -0.037500
0.337500 -0.512500 -0.012500
0.337500 -0.512500 0.012500
0.337500 -0.512500 0.037500
0.337500 -0.512500 0.062500
0.337500 -0.487500 -0.037500
0.337500 -0.487500 -0.012500
0.337500 -0.487500 0.012500
0.337500 -0.487500 0.037500
0.337500 -0.487500 0.062500
0.337500 -0.462500 -0.037500
0.337500 -0.462500 -0.012500
0.337500 -0.462500 0.012500
0.337500 -0.462500 0.037500
0.337500 -0.462500 0.062500
0.337500 -0.437500 -0.037500
0.337500 -0.437500 -0.012500
0.337500 -0.437500 0.012500
0.337500 -0.437500 0.037500
0.337500 -0.437500 0.062500
0.337500 -0.412500 -0.037500
0.337500 -0.412500 -0.012500
0.337500 -0.412500 0.012500
0.337500 -0.412500 0.037500
0.337500 -0.412500 0.062500
0.337500 -0.387500 -0.037500
0.337500 -0.387500 -0.012500
0.337500 -0.387500 0.012500
0.337500 -0.387500 0.037500
0.337500 -0.387500 0.062500
0.337500 -0.362500 -0.037500
0.337500 -0.362500 -0.012500
0.337500 -0.362500 0.012500
0.337500 -0.362500 0.037500
0.337500 -0.362500 0.062500
0.337500 -0.337500 -0.037500
0.337500 -0.337500 -0.012500
0.337500 -0.337500 0.012500
0.337500 -0.337500 0.037500
0.337500 -0.337500 0.062500
0.337500 -0.312500 -0.037500
0.337500 -0.312500 -0.012500
0.337500 -0.312500 0.012500
0.337500 -0.312500 0.037500
0.337500 -0.312500 0.062500
0.337500 -0.287500 -0.037500
0.337500 -0.287500 -0.012500
0.337500 -0.287500 0.012500
0.337500 -0.287500 0.037500
0.337500 -0.287500 0.062500
0.337500 -0.262500 -0.037500
0.337500 -0.262500 -0.012500
0.337500 -0.262500 0.012500
0.337500 -0.262500 0.037500
0.337500 -0.262500 0.062500
0.337500 -0.237500 -0.037500
0.337500 -0.237500 -0.012500
0.337500 -0.237500 0.012500
0.337500 -0.237500 0.037500
0.337500 -0.237500 0.062500
0.337500 -0.212500 -0.037500
0.337500 -0.212500 -0.012500
0.337500 -0.212500 0.012500
0.337500 -0.212500 0.037500
0.337500 -0.212500 0.062500
0.337500 -0.187500 -0.037500
0.337500 -0.187500 -0.012500
0.337500 -0.187500 0.012500
0.337500 -0.187500 0.037500
0.337500 -0.187500 0.062500
0.337500 -0.162500 -0.037500
0.337500 -0.162500 -0.012500
0.337500 -0.162500 0.012500
0.337500 -0.162500 0.037500
0.337500 -0.162500 0.062500
0.337500 -0.137500 -0.037500
0.337500 -0.137500 -0.012500
0.337500 -0.137500 0.012500
0.337500 -0.137500 0.037500
0.337500 -0.137500 0.062500
0.337500 -0.112500 -0.037500
0.337500 -0.112500 -0.012500
0.337500 -0.112500 0.012500
0.337500 -0.112500 0.037500
0.337500 -0.112500 0.062500
0.337500 -0.087500 -0.037500
0.337500 -0.087500 -0.012500
0.337500 -0.087500 0.012500
0.337500 -0.087500 0.037500
0.337500 -0.087500 0.062500
0.337500 -0.062500 -0.037500
0.337500 -0.062500 -0.012500
0.337500 -0.062500 0.012500
0.337500 -0.062500 0.037500
0.337500 -0.062500 0.062500
0.337500 -0.037500 -0.037500
0.337500 -0.037500 -0.012500
0.337500 -0.037500 0.012500
0.337500 -0.037500 0.037500
0.337500 -0.037500 0.062500
0.337500 -0.012500 -0.037500
0.337500 -0.012500 -0.012500
0.337500 -0.012500 0.012500
0.337500 -0.012500 0.037500
0.337500 -0.012500 0.062500
0.337500 0.012500 -0.037500
0.337500 0.012500 -0.012500
0.337500 0.012500 0.012500
0.337500 0.012500 0.037500
0.337500 0.012500 0.062500
0.362500 -0.687500 -0.012500
0.362500 -0.687500 0.012500
0.362500 -0.687500 0.037500
0.362500 -0.687500 0.062500
0.362500 -0.662500 -0.037500
0.362500 -0.662500 -0.012500
0.362500 -0.662500 0.012500
0.362500 -0.662500 0.037500
0.362500 -0.662500 0.062500
0.362500 -0.637500 -0.037500
0.362500 -0.637500 -0.012500
0.362500 -0.637500 0.012500
0.362500 -0.637500 0.037500
0.362500 -0.637500 0.062500
0.362500 -0.612500 -0.037500
0.362500 -0.612500 -0.012500
0.362500 -0.612500 0.012500
0.362500 -0.612500 0.037500
0.362500 -0.612500 0.062500
0.362500 -0.587500 -0.037500
0.362500 -0.587500 -0.012500
0.362500 -0.587500 0.012500
0.362500 -0.587500 0.037500
0.362500 -0.587500 0.062500
0.362500 -0.562500 -0.037500
0.362500 -0.562500 -0.012500
0.362500 -0.562500 0.012500
0.362500 -0.562500 0.037500
0.362500 -0.562500 0.062500
0.362500 -0.537500 -0.037500
0.362500 -0.537500 -0.012500
0.362500 -0.537500 0.012500
0.362500 -0.537500 0.037500
0.362500 -0.537500 0.062500
0.362500 -0.512500 -0.037500
0.362500 -0.512500 -0.012500
0.362500 -0.512500 0.012500
0.362500 -0.512500 0.037500
0.362500 -0.512500 0.062500
0.362500 -0.487500 -0.037500
0.362500 -0.487500 -0.012500
0.362500 -0.487500 0.012500
0.362500 -0.487500 0.037500
0.362500 -0.487500 0.062500
0.362500 -0.462500 -0.037500
0.362500 -0.462500 -0.012500
0.362500 -0.462500 0.012500
0.362500 -0.462500 0.037500
0.362500 -0.437500 -0.037500
0.362500 -0.437500 -0.012500
0.362500 -0.437500 0.012500
0.362500 -0.437500 0.037500
0.362500 -0.437500 0.062500
0.362500 -0.412500 -0.037500
0.362500 -0.412500 -0.012500
0.362500 -0.412500 0.012500
0.362500 -0.412500 0.037500
0.362500 -0.412500 0.062500
0.362500 -0.387500 -0.037500
0.362500 -0.387500 -0.012500
0.362500 -0.387500 0.012500
0.362500 -0.387500 0.037500
0.362500 -0.387500 0.062500
0.362500 -0.362500 -0.037500
0.362500 -0.362500 -0.012500
0.362500 -0.362500 0.012500
0.362500 -0.362500 0.037500
0.362500 -0.362500 0.062500
0.362500 -0.337500 -0.037500
0.362500 -0.337500 -0.012500
0.362500 -0.337500 0.012500
0.362500 -0.337500 0.037500
0.362500 -0.337500 0.062500
0.362500 -0.312500 -0.037500
0.362500 -0.312500 -0.012500
0.362500 -0.312500 0.012500
0.362500 -0.312500 0.037500
0.362500 -0.312500 0.062500
0.362500 -0.287500 -0.037500
0.362500 -0.287500 -0.012500
0.362500 -0.287500 0.012500
0.362500 -0.287500 0.037500
0.362500 -0.287500 0.062500
0.362500 -0.262500 -0.037500
0.362500 -0.262500 -0.012500
0.362500 -0.262500 0.012500
0.362500 -0.262500 0.037500
0.362500 -0.262500 0.062500
0.362500 -0.237500 -0.037500
0.362500 -0.237500 -0.012500
0.362500 -0.237500 0.012500
0.362500 -0.237500 0.037500
0.362500 -0.237500 0.062500
0.362500 -0.212500 -0.037500
0.362500 -0.212500 -0.012500
0.362500 -0.212500 0.012500
0.362500 -0.212500 0.037500
0.362500 -0.212500 0.062500
0.362500 -0.187500 -0.037500
0.362500 -0.187500 -0.012500
0.362500 -0.187500 0.012500
0.362500 -0.187500 0.037500
0.362500 -0.187500 0.062500
0.362500 -0.162500 -0.037500
0.362500 -0.162500 -0.012500
0.362500 -0.162500 0.012500
0.362500 -0.162500 0.037500
0.362500 -0.162500 0.062500
0.362500 -0.137500 -0.037500
0.362500 -0.137500 -0.012500
0.362500 -0.137500 0.012500
0.362500 -0.137500 0.037500
0.362500 -0.137500 0.062500
0.362500 -0.112500 -0.037500
0.362500 -0.112500 -0.012500
0.362500 -0.112500 0.012500
0.362500 -0.112500 0.037500
0.362500 -0.112500 0.062500
0.362500 -0.087500 -0.037500
0.362500 -0.087500 -0.012500
0.362500 -0.087500 0.012500
0.362500 -0.087500 0.037500
0.362500 -0.087500 0.062500
0.362500 -0.062500 -0.037500
0.362500 -0.062500 -0.012500
0.362500 -0.062500 0.012500
0.362500 -0.062500 0.062500
0.362500 -0.037500 -0.037500
0.362500 -0.037500 -0.012500
0.362500 -0.037500 0.012500
0.362500 -0.037500 0.037500
0.362500 -0.037500 0.062500
0.362500 -0.012500 -0.037500
0.362500 -0.012500 -0.012500
0.362500 -0.012500 0.012500
0.362500 -0.012500 0.037500
0.362500 -0.012500 0.062500
0.362500 0.012500 -0.037500
0.362500 0.012500 -0.012500
0.362500 0.012500 0.012500
0.362500 0.012500 0.037500
0.362500 0.012500 0.062500
0.387500 -0.687500 0.037500
0.387500 -0.687500 0.062500
0.387500 -0.662500 -0.037500
0.387500 -0.662500 -0.012500
0.387500 -0.662500 0.012500
0.387500 -0.662500 0.037500
0.387500 -0.662500 0.062500
0.387500 -0.637500 -0.037500
0.387500 -0.637500 -0.012500
0.387500 -0.637500 0.012500
0.387500 -0.637500 0.037500
0.387500 -0.637500 0.062500
0.387500 -0.612500 -0.037500
0.387500 -0.612500 -0.012500
0.387500 -0.612500 0.012500
0.387500 -0.612500 0.037500
0.387500 -0.612500 0.062500
0.387500 -0.587500 -0.037500
0.387500 -0.587500 -0.012500
0.387500 -0.587500 0.012500
0.387500 -0.587500 0.037500
0.387500 -0.587500 0.062500
0.387500 -0.562500 -0.037500
0.387500 -0.562500 -0.012500
0.387500 -0.562500 0.012500
0.387500 -0.562500 0.037500
0.387500 -0.562500 0.062500
0.387500 -0.537500 -0.037500
0.387500 -0.537500 -0.012500
0.387500 -0.537500 0.012500
0.387500 -0.537500 0.037500
0.387500 -0.537500 0.062500
0.387500 -0.512500 -0.037500
0.387500 -0.512500 -0.012500
0.387500 -0.512500 0.037500
0.387500 -0.512500 0.062500
0.387500 -0.487500 -0.037500
0.387500 -0.487500 -0.012500
0.387500 -0.487500 0.012500
0.387500 -0.487500 0.037500
0.387500 -0.487500 0.062500
0.387500 -0.462500 -0.037500
0.387500 -0.462500 -0.012500
0.387500 -0.462500 0.012500
0.387500 -0.462500 0.037500
0.387500 -0.462500 0.062500
0.387500 -0.437500 -0.037500
0.387500 -0.437500 -0.012500
0.387500 -0.437500 0.012500
0.387500 -0.437500 0.037500
0.387500 -0.437500 0.062500
0.387500 -0.412500 -0.037500
0.387500 -0.412500 -0.012500
0.387500 -0.412500 0.012500
0.387500 -0.412500 0.037500
0.387500 -0.412500 0.062500
0.387500 -0.387500 -0.037500
0.387500 -0.387500 -0.012500
0.387500 -0.387500 0.012500
0.387500 -0.387500 0.037500
0.387500 -0.387500 0.062500
0.387500 -0.362500 -0.037500
0.387500 -0.362500 -0.012500
0.387500 -0.362500 0.012500
0.387500 -0.362500 0.037500
0.387500 -0.362500 0.062500
0.387500 -0.337500 -0.037500
0.387500 -0.337500 -0.012500
0.387500 -0.337500 0.012500
0.387500 -0.337500 0.037500
0.387500 -0.337500 0.062500
0.387500 -0.312500 -0.037500
0.387500 -0.312500 -0.012500
0.387500 -0.312500 0.012500
0.387500 -0.312500 0.037500
0.387500 -0.287500 -0.037500
0.387500 -0.287500 -0.012500
0.387500 -0.287500 0.012500
0.387500 -0.287500 0.062500
0.387500 -0.262500 -0.037500
0.387500 -0.262500 -0.012500
0.387500 -0.262500 0.012500
0.387500 -0.262500 0.037500
0.387500 -0.262500 0.062500
0.387500 -0.237500 -0.037500
0.387500 -0.237500 -0.012500
0.387500 -0.237500 0.012500
0.387500 -0.237500 0.037500
0.387500 -0.212500 -0.037500
0.387500 -0.212500 -0.012500
0.387500 -0.212500 0.012500
0.387500 -0.212500 0.037500
0.387500 -0.212500 0.062500
0.387500 -0.187500 -0.037500
0.387500 -0.187500 -0.012500
0.387500 -0.187500 0.012500
0.387500 -0.187500 0.062500
0.387500 -0.162500 -0.037500
0.387500 -0.162500 -0.012500
0.387500 -0.162500 0.012500
0.387500 -0.162500 0.037500
0.387500 -0.162500 0.062500
0.387500 -0.137500 -0.037500
0.387500 -0.137500 -0.012500
0.387500 -0.137500 0.012500
0.387500 -0.137500 0.037500
0.387500 -0.137500 0.062500
0.387500 -0.112500 -0.037500
0.387500 -0.112500 -0.012500
0.387500 -0.112500 0.012500
0.387500 -0.112500 0.037500
0.387500 -0.112500 0.062500
0.387500 -0.087500 -0.037500
0.387500 -0.087500 -0.012500
0.387500 -0.087500 0.012500
0.387500 -0.087500 0.037500
0.387500 -0.087500 0.062500
0.387500 -0.062500 -0.037500
0.387500 -0.062500 -0.012500
0.387500 -0.062500 0.012500
0.387500 -0.062500 0.037500
0.387500 -0.062500 0.062500
0.387500 -0.037500 -0.037500
0.387500 -0.037500 -0.012500
0.387500 -0.037500 0.012500
0.387500 -0.037500 0.037500
0.387500 -0.037500 0.062500
0.387500 -0.012500 -0.037500
0.387500 -0.012500 -0.012500
0.387500 -0.012500 0.012500
0.387500 -0.012500 0.037500
0.387500 0.012500 -0.037500
0.387500 0.012500 -0.012500
0.387500 0.012500 0.012500
0.387500 0.012500 0.037500
0.387500 0.012500 0.062500
0.412500 -0.662500 0.012500
0.412500 -0.662500 0.037500
0.412500 -0.662500 0.062500
0.412500 -0.637500 -0.037500
0.412500 -0.637500 -0.012500
0.412500 -0.637500 0.012500
0.412500 -0.637500 0.037500
0.412500 -0.637500 0.062500
0.412500 -0.612500 -0.037500
0.412500 -0.612500 -0.012500
0.412500 -0.612500 0.012500
0.412500 -0.612500 0.037500
0.412500 -0.612500 0.062500
0.412500 -0.587500 -0.037500
0.412500 -0.587500 -0.012500
0.412500 -0.587500 0.012500
0.412500 -0.587500 0.037500
0.412500 -0.587500 0.062500
0.412500 -0.562500 -0.037500
0.412500 -0.562500 -0.012500
0.412500 -0.562500 0.012500
0.412500 -0.562500 0.037500
0.412500 -0.562500 0.062500
0.412500 -0.537500 -0.037500
0.412500 -0.537500 -0.012500
0.412500 -0.537500 0.012500
0.412500 -0.537500 0.037500
0.412500 -0.537500 0.062500
0.412500 -0.512500 -0.037500
0.412500 -0.512500 -0.012500
0.412500 -0.512500 0.012500
0.412500 -0.512500 0.037500
0.412500 -0.512500 0.062500
0.412500 -0.487500 -0.037500
0.412500 -0.487500 -0.012500
0.412500 -0.487500 0.012500
0.412500 -0.487500 0.037500
0.412500 -0.487500 0.062500
0.412500 -0.462500 -0.037500
0.412500 -0.462500 -0.012500
0.412500 -0.462500 0.012500
0.412500 -0.462500 0.037500
0.412500 -0.462500 0.062500
0.412500 -0.437500 -0.037500
0.412500 -0.437500 -0.012500
0.412500 -0.437500 0.012500
0.412500 -0.437500 0.037500
0.412500 -0.437500 0.062500
0.412500 -0.412500 -0.037500
0.412500 -0.412500 -0.012500
0.412500 -0.412500 0.012500
0.412500 -0.412500 0.037500
0.412500 -0.412500 0.062500
0.412500 -0.387500 -0.037500
0.412500 -0.387500 -0.012500
0.412500 -0.387500 0.012500
0.412500 -0.387500 0.037500
0.412500 -0.387500 0.062500
0.412500 -0.362500 -0.037500
0.412500 -0.362500 -0.012500
0.412500 -0.362500 0.012500
0.412500 -0.362500 0.037500
0.412500 -0.362500 0.062500
0.412500 -0.337500 -0.037500
0.412500 -0.337500 -0.012500
0.412500 -0.337500 0.012500
0.412500 -0.337500 0.037500
0.412500 -0.337500 0.062500
0.412500 -0.312500 -0.037500
0.412500 -0.312500 -0.012500
0.412500 -0.312500 0.012500
0.412500 -0.312500 0.037500
0.412500 -0.312500 0.062500
0.412500 -0.287500 -0.037500
0.412500 -0.287500 -0.012500
0.412500 -0.287500 0.012500
0.412500 -0.287500 0.037500
0.412500 -0.287500 0.062500
0.412500 -0.262500 -0.037500
0.412500 -0.262500 -0.012500
0.412500 -0.262500 0.012500
0.412500 -0.262500 0.037500
0.412500 -0.237500 -0.037500
0.412500 -0.237500 -0.012500
0.412500 -0.237500 0.012500
0.412500 -0.237500 0.037500
0.412500 -0.237500 0.062500
0.412500 -0.212500 -0.037500
0.412500 -0.212500 -0.012500
0.412500 -0.212500 0.012500
0.412500 -0.212500 0.037500
0.412500 -0.212500 0.062500
0.412500 -0.187500 -0.037500
0.412500 -0.187500 -0.012500
0.412500 -0.187500 0.012500
0.412500 -0.187500 0.037500
0.412500 -0.187500 0.062500
0.412500 -0.162500 -0.037500
0.412500 -0.162500 -0.012500
0.412500 -0.162500 0.012500
0.412500 -0.162500 0.037500
0.412500 -0.162500 0.062500
0.412500 -0.137500 -0.037500
0.412500 -0.137500 -0.012500
0.412500 -0.137500 0.012500
0.412500 -0.137500 0.037500
0.412500 -0.137500 0.062500
0.412500 -0.112500 -0.037500
0.412500 -0.112500 -0.012500
0.412500 -0.112500 0.012500
0.412500 -0.112500 0.037500
0.412500 -0.112500 0.062500
0.412500 -0.087500 -0.037500
0.412500 -0.087500 -0.012500
0.412500 -0.087500 0.012500
0.412500 -0.087500 0.037500
0.412500 -0.087500 0.062500
0.412500 -0.062500 -0.037500
0.412500 -0.062500 -0.012500
0.412500 -0.062500 0.012500
0.412500 -0.062500 0.037500
0.412500 -0.062500 0.062500
0.412500 -0.037500 -0.037500
0.412500 -0.037500 -0.012500
0.412500 -0.037500 0.012500
0.412500 -0.037500 0.037500
0.412500 -0.037500 0.062500
0.412500 -0.012500 -0.012500
0.412500 -0.012500 0.012500
0.412500 -0.012500 0.037500
0.412500 -0.012500 0.062500
0.412500 0.012500 -0.037500
0.412500 0.012500 -0.012500
0.412500 0.012500 0.012500
0.412500 0.012500 0.037500
0.412500 0.012500 0.062500
0.437500 -0.637500 -0.012500
0.437500 -0.637500 0.012500
0.437500 -0.637500 0.037500
0.437500 -0.637500 0.062500
0.437500 -0.612500 -0.012500
0.437500 -0.612500 0.012500
0.437500 -0.612500 0.037500
0.437500 -0.612500 0.062500
0.437500 -0.587500 -0.037500
0.437500 -0.587500 -0.012500
0.437500 -0.587500 0.012500
0.437500 -0.587500 0.037500
0.437500 -0.587500 0.062500
0.437500 -0.562500 -0.037500
0.437500 -0.562500 -0.012500
0.437500 -0.562500 0.012500
0.437500 -0.562500 0.037500
0.437500 -0.562500 0.062500
0.437500 -0.537500 -0.037500
0.437500 -0.537500 -0.012500
0.437500 -0.537500 0.012500
0.437500 -0.537500 0.037500
0.437500 -0.512500 -0.037500
0.437500 -0.512500 -0.012500
0.437500 -0.512500 0.012500
0.437500 -0.512500 0.037500
0.437500 -0.512500 0.062500
0.437500 -0.487500 -0.037500
0.437500 -0.487500 -0.012500
0.437500 -0.487500 0.012500
0.437500 -0.487500 0.037500
0.437500 -0.487500 0.062500
0.437500 -0.462500 -0.037500
0.437500 -0.462500 -0.012500
0.437500 -0.462500 0.012500
0.437500 -0.462500 0.037500
0.437500 -0.462500 0.062500
0.437500 -0.437500 -0.037500
0.437500 -0.437500 -0.012500
0.437500 -0.437500 0.012500
0.437500 -0.437500 0.037500
0.437500 -0.437500 0.062500
0.437500 -0.412500 -0.037500
0.437500 -0.412500 -0.012500
0.437500 -0.412500 0.012500
0.437500 -0.412500 0.037500
0.437500 -0.412500 0.062500
0.437500 -0.387500 -0.037500
0.437500 -0.387500 -0.012500
0.437500 -0.387500 0.012500
0.437500 -0.387500 0.037500
0.437500 -0.387500 0.062500
0.437500 -0.362500 -0.037500
0.437500 -0.362500 -0.012500
0.437500 -0.362500 0.012500
0.437500 -0.362500 0.037500
0.437500 -0.362500 0.062500
0.437500 -0.337500 -0.012500
0.437500 -0.337500 0.012500
0.437500 -0.337500 0.037500
0.437500 -0.337500 0.062500
0.437500 -0.312500 -0.037500
0.437500 -0.312500 -0.012500
0.437500 -0.312500 0.012500
0.437500 -0.312500 0.037500
0.437500 -0.312500 0.062500
0.437500 -0.287500 -0.037500
0.437500 -0.287500 -0.012500
0.437500 -0.287500 0.012500
0.437500 -0.287500 0.062500
0.437500 -0.262500 -0.037500
0.437500 -0.262500 -0.012500
0.437500 -0.262500 0.062500
0.437500 -0.237500 -0.037500
0.437500 -0.237500 -0.012500
0.437500 -0.237500 0.012500
0.437500 -0.237500 0.037500
0.437500 -0.237500 0.062500
0.437500 -0.212500 -0.037500
0.437500 -0.212500 -0.012500
0.437500 -0.212500 0.012500
0.437500 -0.212500 0.037500
0.437500 -0.212500 0.062500
0.437500 -0.187500 -0.037500
0.437500 -0.187500 -0.012500
0.437500 -0.187500 0.012500
0.437500 -0.187500 0.037500
0.437500 -0.187500 0.062500
0.437500 -0.162500 -0.037500
0.437500 -0.162500 -0.012500
0.437500 -0.162500 0.012500
0.437500 -0.162500 0.037500
0.437500 -0.162500 0.062500
0.437500 -0.137500 -0.037500
0.437500 -0.137500 -0.012500
0.437500 -0.137500 0.012500
0.437500 -0.137500 0.037500
0.437500 -0.137500 0.062500
0.437500 -0.112500 -0.037500
0.437500 -0.112500 -0.012500
0.437500 -0.112500 0.012500
0.437500 -0.112500 0.037500
0.437500 -0.112500 0.062500
0.437500 -0.087500 -0.037500
0.437500 -0.087500 -0.012500
0.437500 -0.087500 0.012500
0.437500 -0.087500 0.037500
0.437500 -0.087500 0.062500
0.437500 -0.062500 -0.037500
0.437500 -0.062500 -0.012500
0.437500 -0.062500 0.012500
0.437500 -0.062500 0.037500
0.437500 -0.062500 0.062500
0.437500 -0.037500 -0.037500
0.437500 -0.037500 -0.012500
0.437500 -0.037500 0.012500
0.437500 -0.037500 0.037500
0.437500 -0.037500 0.062500
0.437500 -0.012500 -0.037500
0.437500 -0.012500 -0.012500
0.437500 -0.012500 0.012500
0.437500 -0.012500 0.037500
0.437500 -0.012500 0.062500
0.437500 0.012500 -0.037500
0.437500 0.012500 -0.012500
0.437500 0.012500 0.012500
0.437500 0.012500 0.037500
0.437500 0.012500 0.062500
0.462500 -0.637500 0.037500
0.462500 -0.637500 0.062500
0.462500 -0.612500 -0.037500
0.462500 -0.612500 -0.012500
0.462500 -0.612500 0.012500
0.462500 -0.612500 0.037500
0.462500 -0.612500 0.062500
0.462500 -0.587500 -0.012500
0.462500 -0.587500 0.012500
0.462500 -0.587500 0.037500
0.462500 -0.587500 0.062500
0.462500 -0.562500 -0.037500
0.462500 -0.562500 -0.012500
0.462500 -0.562500 0.012500
0.462500 -0.562500 0.037500
0.462500 -0.562500 0.062500
0.462500 -0.537500 -0.037500
0.462500 -0.537500 -0.012500
0.462500 -0.537500 0.012500
0.462500 -0.537500 0.037500
0.462500 -0.537500 0.062500
0.462500 -0.512500 -0.037500
0.462500 -0.512500 -0.012500
0.462500 -0.512500 0.012500
0.462500 -0.512500 0.037500
0.462500 -0.512500 0.062500
0.462500 -0.487500 -0.037500
0.462500 -0.487500 -0.012500
0.462500 -0.487500 0.012500
0.462500 -0.487500 0.037500
0.462500 -0.487500 0.062500
0.462500 -0.462500 -0.037500
0.462500 -0.462500 -0.012500
0.462500 -0.462500 0.012500
0.462500 -0.462500 0.037500
0.462500 -0.462500 0.062500
0.462500 -0.437500 -0.037500
0.462500 -0.437500 -0.012500
0.462500 -0.437500 0.012500
0.462500 -0.437500 0.037500
0.462500 -0.437500 0.062500
0.462500 -0.412500 -0.037500
0.462500 -0.412500 -0.012500
0.462500 -0.412500 0.012500
0.462500 -0.412500 0.037500
0.462500 -0.412500 0.062500
0.462500 -0.387500 -0.037500
0.462500 -0.387500 -0.012500
0.462500 -0.387500 0.012500
0.462500 -0.387500 0.037500
0.462500 -0.387500 0.062500
0.462500 -0.362500 -0.037500
0.462500 -0.362500 -0.012500
0.462500 -0.362500 0.012500
0.462500 -0.362500 0.037500
0.462500 -0.362500 0.062500
0.462500 -0.337500 -0.037500
0.462500 -0.337500 -0.012500
0.462500 -0.337500 0.012500
0.462500 -0.337500 0.037500
0.462500 -0.337500 0.062500
0.462500 -0.312500 -0.037500
0.462500 -0.312500 -0.012500
0.462500 -0.312500 0.012500
0.462500 -0.312500 0.037500
0.462500 -0.312500 0.062500
0.462500 -0.287500 -0.037500
0.462500 -0.287500 -0.012500
0.462500 -0.287500 0.037500
0.462500 -0.287500 0.062500
0.462500 -0.262500 -0.037500
0.462500 -0.262500 -0.012500
0.462500 -0.262500 0.012500
0.462500 -0.262500 0.037500
0.462500 -0.262500 0.062500
0.462500 -0.237500 -0.037500
0.462500 -0.237500 -0.012500
0.462500 -0.237500 0.012500
0.462500 -0.237500 0.037500
0.462500 -0.237500 0.062500
0.462500 -0.212500 -0.037500
0.462500 -0.212500 0.012500
0.462500 -0.212500 0.037500
0.462500 -0.212500 0.062500
0.462500 -0.187500 -0.037500
0.462500 -0.187500 -0.012500
0.462500 -0.187500 0.012500
0.462500 -0.187500 0.037500
0.462500 -0.187500 0.062500
0.462500 -0.162500 -0.037500
0.462500 -0.162500 -0.012500
0.462500 -0.162500 0.012500
0.462500 -0.162500 0.037500
0.462500 -0.162500 0.062500
0.462500 -0.137500 -0.037500
0.462500 -0.137500 -0.012500
0.462500 -0.137500 0.012500
0.462500 -0.137500 0.037500
0.462500 -0.137500 0.062500
0.462500 -0.112500 -0.037500
0.462500 -0.112500 -0.012500
0.462500 -0.112500 0.012500
0.462500 -0.112500 0.037500
0.462500 -0.112500 0.062500
0.462500 -0.087500 -0.037500
0.462500 -0.087500 -0.012500
0.462500 -0.087500 0.012500
0.462500 -0.087500 0.037500
0.462500 -0.087500 0.062500
0.462500 -0.062500 -0.037500
0.462500 -0.062500 -0.012500
0.462500 -0.062500 0.012500
0.462500 -0.062500 0.037500
0.462500 -0.062500 0.062500
0.462500 -0.037500 -0.037500
0.462500 -0.037500 -0.012500
0.462500 -0.037500 0.012500
0.462500 -0.037500 0.037500
0.462500 -0.037500 0.062500
0.462500 -0.012500 -0.037500
0.462500 -0.012500 -0.012500
0.462500 -0.012500 0.012500
0.462500 -0.012500 0.037500
0.462500 -0.012500 0.062500
0.462500 0.012500 -0.037500
0.462500 0.012500 -0.012500
0.462500 0.012500 0.012500
0.462500 0.012500 0.037500
0.462500 0.012500 0.062500
0.487500 -0.612500 0.012500
0.487500 -0.612500 0.037500
0.487500 -0.612500 0.062500
0.487500 -0.587500 -0.037500
0.487500 -0.587500 -0.012500
0.487500 -0.587500 0.012500
0.487500 -0.587500 0.037500
0.487500 -0.587500 0.062500
0.487500 -0.562500 -0.012500
0.487500 -0.562500 0.012500
0.487500 -0.562500 0.037500
0.487500 -0.562500 0.062500
0.487500 -0.537500 -0.037500
0.487500 -0.537500 -0.012500
0.487500 -0.537500 0.012500
0.487500 -0.537500 0.037500
0.487500 -0.537500 0.062500
0.487500 -0.512500 -0.037500
0.487500 -0.512500 -0.012500
0.487500 -0.512500 0.012500
0.487500 -0.512500 0.037500
0.487500 -0.512500 0.062500
0.487500 -0.487500 -0.037500
0.487500 -0.487500 -0.012500
0.487500 -0.487500 0.012500
0.487500 -0.487500 0.037500
0.487500 -0.487500 0.062500
0.487500 -0.462500 -0.037500
0.487500 -0.462500 -0.012500
0.487500 -0.462500 0.012500
0.487500 -0.462500 0.062500
0.487500 -0.437500 -0.037500
0.487500 -0.437500 -0.012500
0.487500 -0.437500 0.012500
0.487500 -0.437500 0.037500
0.487500 -0.437500 0.062500
0.487500 -0.412500 -0.037500
0.487500 -0.412500 -0.012500
0.487500 -0.412500 0.012500
0.487500 -0.412500 0.037500
0.487500 -0.412500 0.062500
0.487500 -0.387500 -0.037500
0.487500 -0.387500 -0.012500
0.487500 -0.387500 0.012500
0.487500 -0.387500 0.037500
0.487500 -0.387500 0.062500
0.487500 -0.362500 -0.037500
0.487500 -0.362500 -0.012500
0.487500 -0.362500 0.012500
0.487500 -0.362500 0.037500
0.487500 -0.337500 -0.037500
0.487500 -0.337500 -0.012500
0.487500 -0.337500 0.012500
0.487500 -0.337500 0.037500
0.487500 -0.337500 0.062500
0.487500 -0.312500 -0.037500
0.487500 -0.312500 -0.012500
0.487500 -0.312500 0.012500
0.487500 -0.312500 0.037500
0.487500 -0.312500 0.062500
0.487500 -0.287500 -0.037500
0.487500 -0.287500 -0.012500
0.487500 -0.287500 0.012500
0.487500 -0.287500 0.037500
0.487500 -0.287500 0.062500
0.487500 -0.262500 -0.037500
0.487500 -0.262500 -0.012500
0.487500 -0.262500 0.012500
0.487500 -0.262500 0.037500
0.487500 -0.262500 0.062500
0.487500 -0.237500 -0.037500
0.487500 -0.237500 -0.012500
0.487500 -0.237500 0.012500
0.487500 -0.237500 0.037500
0.487500 -0.237500 0.062500
0.487500 -0.212500 -0.037500
0.487500 -0.212500 -0.012500
0.487500 -0.212500 0.012500
0.487500 -0.212500 0.037500
0.487500 -0.212500 0.062500
0.487500 -0.187500 -0.037500
0.487500 -0.187500 -0.012500
0.487500 -0.187500 0.012500
0.487500 -0.187500 0.037500
0.487500 -0.187500 0.062500
0.487500 -0.162500 -0.037500
0.487500 -0.162500 -0.012500
0.487500 -0.162500 0.012500
0.487500 -0.162500 0.037500
0.487500 -0.162500 0.062500
0.487500 -0.137500 -0.037500
0.487500 -0.137500 -0.012500
0.487500 -0.137500 0.012500
0.487500 -0.137500 0.037500
0.487500 -0.137500 0.062500
0.487500 -0.112500 -0.037500
0.487500 -0.112500 -0.012500
0.487500 -0.112500 0.012500
0.487500 -0.112500 0.037500
0.487500 -0.112500 0.062500
0.487500 -0.087500 -0.037500
0.487500 -0.087500 -0.012500
0.487500 -0.087500 0.012500
0.487500 -0.087500 0.037500
0.487500 -0.087500 0.062500
0.487500 -0.062500 -0.037500
0.487500 -0.062500 -0.012500
0.487500 -0.062500 0.012500
0.487500 -0.062500 0.037500
0.487500 -0.062500 0.062500
0.487500 -0.037500 -0.037500
0.487500 -0.037500 -0.012500
0.487500 -0.037500 0.012500
0.487500 -0.037500 0.037500
0.487500 -0.037500 0.062500
0.487500 -0.012500 -0.012500
0.487500 -0.012500 0.012500
0.487500 -0.012500 0.037500
0.487500 -0.012500 0.062500
0.487500 0.012500 -0.037500
0.487500 0.012500 -0.012500
0.487500 0.012500 0.012500
0.487500 0.012500 0.037500
0.487500 0.012500 0.062500
0.512500 -0.587500 0.012500
0.512500 -0.587500 0.037500
0.512500 -0.587500 0.062500
0.512500 -0.562500 -0.037500
0.512500 -0.562500 -0.012500
0.512500 -0.562500 0.012500
0.512500 -0.562500 0.037500
0.512500 -0.562500 0.062500
0.512500 -0.537500 -0.037500
0.512500 -0.537500 -0.012500
0.512500 -0.537500 0.012500
0.512500 -0.537500 0.037500
0.512500 -0.537500 0.062500
0.512500 -0.512500 -0.012500
0.512500 -0.512500 0.012500
0.512500 -0.512500 0.037500
0.512500 -0.512500 0.062500
0.512500 -0.487500 -0.037500
0.512500 -0.487500 -0.012500
0.512500 -0.487500 0.012500
0.512500 -0.487500 0.037500
0.512500 -0.487500 0.062500
0.512500 -0.462500 -0.037500
0.512500 -0.462500 -0.012500
0.512500 -0.462500 0.012500
0.512500 -0.462500 0.037500
0.512500 -0.462500 0.062500
0.512500 -0.437500 -0.037500
0.512500 -0.437500 -0.012500
0.512500 -0.437500 0.012500
0.512500 -0.437500 0.037500
0.512500 -0.437500 0.062500
0.512500 -0.412500 -0.037500
0.512500 -0.412500 -0.012500
0.512500 -0.412500 0.012500
0.512500 -0.412500 0.037500
0.512500 -0.412500 0.062500
0.512500 -0.387500 -0.037500
0.512500 -0.387500 -0.012500
0.512500 -0.387500 0.012500
0.512500 -0.387500 0.037500
0.512500 -0.387500 0.062500
0.512500 -0.362500 -0.037500
0.512500 -0.362500 -0.012500
0.512500 -0.362500 0.012500
0.512500 -0.362500 0.037500
0.512500 -0.362500 0.062500
0.512500 -0.337500 -0.037500
0.512500 -0.337500 -0.012500
0.512500 -0.337500 0.012500
0.512500 -0.312500 -0.037500
0.512500 -0.312500 -0.012500
0.512500 -0.312500 0.012500
0.512500 -0.312500 0.062500
0.512500 -0.287500 -0.037500
0.512500 -0.287500 -0.012500
0.512500 -0.287500 0.012500
0.512500 -0.287500 0.037500
0.512500 -0.287500 0.062500
0.512500 -0.262500 -0.037500
0.512500 -0.262500 -0.012500
0.512500 -0.262500 0.012500
0.512500 -0.262500 0.037500
0.512500 -0.262500 0.062500
0.512500 -0.237500 -0.037500
0.512500 -0.237500 -0.012500
0.512500 -0.237500 0.012500
0.512500 -0.237500 0.037500
0.512500 -0.212500 -0.037500
0.512500 -0.212500 -0.012500
0.512500 -0.212500 0.037500
0.512500 -0.212500 0.062500
0.512500 -0.187500 -0.037500
0.512500 -0.187500 -0.012500
0.512500 -0.187500 0.012500
0.512500 -0.187500 0.037500
0.512500 -0.187500 0.062500
0.512500 -0.162500 -0.037500
0.512500 -0.162500 -0.012500
0.512500 -0.162500 0.012500
0.512500 -0.162500 0.037500
0.512500 -0.162500 0.062500
0.512500 -0.137500 -0.037500
0.512500 -0.137500 -0.012500
0.512500 -0.137500 0.012500
0.512500 -0.137500 0.037500
0.512500 -0.137500 0.062500
0.512500 -0.112500 -0.037500
0.512500 -0.112500 -0.012500
0.512500 -0.112500 0.012500
0.512500 -0.112500 0.037500
0.512500 -0.112500 0.062500
0.512500 -0.087500 -0.037500
0.512500 -0.087500 -0.012500
0.512500 -0.087500 0.012500
0.512500 -0.087500 0.037500
0.512500 -0.087500 0.062500
0.512500 -0.062500 -0.037500
0.512500 -0.062500 -0.012500
0.512500 -0.062500 0.012500
0.512500 -0.062500 0.037500
0.512500 -0.062500 0.062500
0.512500 -0.037500 -0.037500
0.512500 -0.037500 -0.012500
0.512500 -0.037500 0.012500
0.512500 -0.037500 0.037500
0.512500 -0.037500 0.062500
0.512500 -0.012500 -0.037500
0.512500 -0.012500 -0.012500
0.512500 -0.012500 0.012500
0.512500 -0.012500 0.037500
0.512500 -0.012500 0.062500
0.512500 0.012500 -0.037500
0.512500 0.012500 -0.012500
0.512500 0.012500 0.037500
0.512500 0.012500 0.062500
0.537500 -0.562500 -0.012500
0.537500 -0.562500 0.012500
0.537500 -0.562500 0.037500
0.537500 -0.562500 0.062500
0.537500 -0.537500 -0.037500
0.537500 -0.537500 -0.012500
0.537500 -0.537500 0.012500
0.537500 -0.537500 0.037500
0.537500 -0.537500 0.062500
0.537500 -0.512500 -0.037500
0.537500 -0.512500 -0.012500
0.537500 -0.512500 0.012500
0.537500 -0.512500 0.037500
0.537500 -0.512500 0.062500
0.537500 -0.487500 -0.037500
0.537500 -0.487500 -0.012500
0.537500 -0.487500 0.012500
0.537500 -0.487500 0.037500
0.537500 -0.487500 0.062500
0.537500 -0.462500 -0.037500
0.537500 -0.462500 -0.012500
0.537500 -0.462500 0.012500
0.537500 -0.462500 0.037500
0.537500 -0.462500 0.062500
0.537500 -0.437500 -0.037500
0.537500 -0.437500 -0.012500
0.537500 -0.437500 0.012500
0.537500 -0.437500 0.037500
0.537500 -0.437500 0.062500
0.537500 -0.412500 -0.037500
0.537500 -0.412500 -0.012500
0.537500 -0.412500 0.012500
0.537500 -0.412500 0.037500
0.537500 -0.412500 0.062500
0.537500 -0.387500 -0.037500
0.537500 -0.387500 -0.012500
0.537500 -0.387500 0.012500
0.537500 -0.387500 0.037500
0.537500 -0.387500 0.062500
0.537500 -0.362500 -0.037500
0.537500 -0.362500 -0.012500
0.537500 -0.362500 0.012500
0.537500 -0.362500 0.037500
0.537500 -0.362500 0.062500
0.537500 -0.337500 -0.037500
0.537500 -0.337500 -0.012500
0.537500 -0.337500 0.012500
0.537500 -0.337500 0.037500
0.537500 -0.337500 0.062500
0.537500 -0.312500 -0.037500
0.537500 -0.312500 -0.012500
0.537500 -0.312500 0.037500
0.537500 -0.312500 0.062500
0.537500 -0.287500 -0.037500
0.537500 -0.287500 -0.012500
0.537500 -0.287500 0.012500
0.537500 -0.287500 0.062500
0.537500 -0.262500 -0.037500
0.537500 -0.262500 -0.012500
0.537500 -0.262500 0.012500
0.537500 -0.262500 0.037500
0.537500 -0.262500 0.062500
0.537500 -0.237500 -0.037500
0.537500 -0.237500 -0.012500
0.537500 -0.237500 0.012500
0.537500 -0.237500 0.037500
0.537500 -0.237500 0.062500
0.537500 -0.212500 -0.037500
0.537500 -0.212500 -0.012500
0.537500 -0.212500 0.012500
0.537500 -0.212500 0.037500
0.537500 -0.212500 0.062500
0.537500 -0.187500 -0.037500
0.537500 -0.187500 -0.012500
0.537500 -0.187500 0.012500
0.537500 -0.187500 0.037500
0.537500 -0.187500 0.062500
0.537500 -0.162500 -0.037500
0.537500 -0.162500 -0.012500
0.537500 -0.162500 0.012500
0.537500 -0.162500 0.037500
0.537500 -0.162500 0.062500
0.537500 -0.137500 -0.037500
0.537500 -0.137500 -0.012500
0.537500 -0.137500 0.012500
0.537500 -0.137500 0.037500
0.537500 -0.137500 0.062500
0.537500 -0.112500 -0.037500
0.537500 -0.112500 -0.012500
0.537500 -0.112500 0.012500
0.537500 -0.112500 0.037500
0.537500 -0.112500 0.062500
0.537500 -0.087500 -0.037500
0.537500 -0.087500 -0.012500
0.537500 -0.087500 0.012500
0.537500 -0.087500 0.037500
0.537500 -0.087500 0.062500
0.537500 -0.062500 -0.037500
0.537500 -0.062500 -0.012500
0.537500 -0.062500 0.012500
0.537500 -0.062500 0.037500
0.537500 -0.062500 0.062500
0.537500 -0.037500 -0.037500
0.537500 -0.037500 -0.012500
0.537500 -0.037500 0.012500
0.537500 -0.037500 0.037500
0.537500 -0.037500 0.062500
0.537500 -0.012500 -0.037500
0.537500 -0.012500 -0.012500
0.537500 -0.012500 0.012500
0.537500 -0.012500 0.037500
0.537500 -0.012500 0.062500
0.537500 0.012500 -0.037500
0.537500 0.012500 -0.012500
0.537500 0.012500 0.012500
0.537500 0.012500 0.037500
0.537500 0.012500 0.062500
0.562500 -0.537500 -0.012500
0.562500 -0.537500 0.012500
0.562500 -0.537500 0.037500
0.562500 -0.537500 0.062500
0.562500 -0.512500 -0.037500
0.562500 -0.512500 -0.012500
0.562500 -0.512500 0.012500
0.562500 -0.512500 0.037500
0.562500 -0.512500 0.062500
0.562500 -0.487500 -0.037500
0.562500 -0.487500 -0.012500
0.562500 -0.487500 0.012500
0.562500 -0.487500 0.037500
0.562500 -0.487500 0.062500
0.562500 -0.462500 -0.037500
0.562500 -0.462500 -0.012500
0.562500 -0.462500 0.037500
0.562500 -0.462500 0.062500
0.562500 -0.437500 -0.037500
0.562500 -0.437500 -0.012500
0.562500 -0.437500 0.012500
0.562500 -0.437500 0.037500
0.562500 -0.437500 0.062500
0.562500 -0.412500 -0.012500
0.562500 -0.412500 0.012500
0.562500 -0.412500 0.037500
0.562500 -0.387500 -0.037500
0.562500 -0.387500 -0.012500
0.562500 -0.387500 0.012500
0.562500 -0.387500 0.037500
0.562500 -0.387500 0.062500
0.562500 -0.362500 -0.037500
0.562500 -0.362500 -0.012500
0.562500 -0.362500 0.012500
0.562500 -0.362500 0.037500
0.562500 -0.362500 0.062500
0.562500 -0.337500 -0.037500
0.562500 -0.337500 -0.012500
0.562500 -0.337500 0.012500
0.562500 -0.337500 0.037500
0.562500 -0.337500 0.062500
0.562500 -0.312500 -0.037500
0.562500 -0.312500 -0.012500
0.562500 -0.312500 0.012500
0.562500 -0.312500 0.037500
0.562500 -0.312500 0.062500
0.562500 -0.287500 -0.037500
0.562500 -0.287500 -0.012500
0.562500 -0.287500 0.012500
0.562500 -0.287500 0.037500
0.562500 -0.287500 0.062500
0.562500 -0.262500 -0.037500
0.562500 -0.262500 -0.012500
0.562500 -0.262500 0.012500
0.562500 -0.262500 0.037500
0.562500 -0.262500 0.062500
0.562500 -0.237500 -0.037500
0.562500 -0.237500 -0.012500
0.562500 -0.237500 0.012500
0.562500 -0.237500 0.037500
0.562500 -0.237500 0.062500
0.562500 -0.212500 -0.037500
0.562500 -0.212500 -0.012500
0.562500 -0.212500 0.012500
0.562500 -0.212500 0.037500
0.562500 -0.212500 0.062500
0.562500 -0.187500 -0.037500
0.562500 -0.187500 -0.012500
0.562500 -0.187500 0.012500
0.562500 -0.187500 0.037500
0.562500 -0.187500 0.062500
0.562500 -0.162500 -0.037500
0.562500 -0.162500 -0.012500
0.562500 -0.162500 0.012500
0.562500 -0.162500 0.037500
0.562500 -0.162500 0.062500
0.562500 -0.137500 -0.037500
0.562500 -0.137500 -0.012500
0.562500 -0.137500 0.012500
0.562500 -0.137500 0.037500
0.562500 -0.137500 0.062500
0.562500 -0.112500 -0.037500
0.562500 -0.112500 -0.012500
0.562500 -0.112500 0.012500
0.562500 -0.112500 0.037500
0.562500 -0.112500 0.062500
0.562500 -0.087500 -0.037500
0.562500 -0.087500 -0.012500
0.562500 -0.087500 0.012500
0.562500 -0.087500 0.037500
0.562500 -0.087500 0.062500
0.562500 -0.062500 -0.037500
0.562500 -0.062500 -0.012500
0.562500 -0.062500 0.012500
0.562500 -0.062500 0.037500
0.562500 -0.062500 0.062500
0.562500 -0.037500 -0.037500
0.562500 -0.037500 -0.012500
0.562500 -0.037500 0.012500
0.562500 -0.037500 0.037500
0.562500 -0.037500 0.062500
0.562500 -0.012500 -0.037500
0.562500 -0.012500 -0.012500
0.562500 -0.012500 0.012500
0.562500 -0.012500 0.037500
0.562500 -0.012500 0.062500
0.562500 0.012500 -0.037500
0.562500 0.012500 -0.012500
0.562500 0.012500 0.037500
0.562500 0.012500 0.062500
