# .PCD v0.7 - Point Cloud Data file format
VERSION 0.7
FIELDS x y z intensity
SIZE 4 4 4 4
TYPE F F F F
COUNT 1 1 1 1
WIDTH 452
HEIGHT 1
VIEWPOINT 0 0 0 1 0 0 0
POINTS 452
DATA ascii
0.025000 -0.775000 0.025000 0.041667
0.025000 -0.725000 0.025000 0.166667
0.025000 -0.725000 0.075000 0.083333
0.025000 -0.675000 -0.025000 0.125000
0.025000 -0.675000 0.025000 0.041667
0.025000 -0.675000 0.075000 0.166667
0.025000 -0.625000 -0.025000 0.166667
0.025000 -0.625000 0.025000 0.166667
0.025000 -0.625000 0.075000 0.166667
0.025000 -0.575000 -0.025000 0.083333
0.025000 -0.575000 0.025000 0.208333
0.025000 -0.575000 0.075000 0.166667
0.025000 -0.525000 -0.025000 0.125000
0.025000 -0.525000 0.025000 0.208333
0.025000 -0.525000 0.075000 0.250000
0.025000 -0.475000 -0.025000 0.083333
0.025000 -0.475000 0.025000 0.166667
0.025000 -0.475000 0.075000 0.291667
0.025000 -0.425000 -0.025000 0.083333
0.025000 -0.425000 0.025000 0.125000
0.025000 -0.425000 0.075000 0.250000
0.025000 -0.375000 -0.025000 0.083333
0.025000 -0.375000 0.025000 0.083333
0.025000 -0.375000 0.075000 0.291667
0.025000 -0.325000 -0.025000 0.083333
0.025000 -0.325000 0.025000 0.041667
0.025000 -0.325000 0.075000 0.125000
0.025000 -0.275000 -0.025000 0.041667
0.025000 -0.275000 0.025000 0.083333
0.025000 -0.275000 0.075000 0.041667
0.025000 -0.225000 -0.025000 0.041667
0.025000 -0.225000 0.025000 0.083333
0.025000 -0.225000 0.075000 0.083333
0.075000 -0.775000 0.025000 0.083333
0.075000 -0.775000 0.075000 0.041667
0.075000 -0.725000 0.025000 0.125000
0.075000 -0.725000 0.075000 0.125000
0.075000 -0.675000 -0.025000 0.083333
0.075000 -0.675000 0.025000 0.166667
0.075000 -0.675000 0.075000 0.125000
0.075000 -0.625000 -0.025000 0.083333
0.075000 -0.625000 0.025000 0.166667
0.075000 -0.625000 0.075000 0.208333
0.075000 -0.575000 -0.025000 0.083333
0.075000 -0.575000 0.025000 0.166667
0.075000 -0.575000 0.075000 0.166667
0.075000 -0.525000 -0.025000 0.083333
0.075000 -0.525000 0.025000 0.041667
0.075000 -0.525000 0.075000 0.083333
0.075000 -0.475000 -0.025000 0.041667
0.075000 -0.475000 0.025000 0.041667
0.075000 -0.475000 0.075000 0.208333
0.075000 -0.425000 -0.025000 0.041667
0.075000 -0.425000 0.025000 0.083333
0.075000 -0.425000 0.075000 0.083333
0.075000 -0.375000 -0.025000 0.041667
0.075000 -0.375000 0.075000 0.250000
0.075000 -0.325000 0.025000 0.083333
0.075000 -0.325000 0.075000 0.041667
0.075000 -0.275000 -0.025000 0.083333
0.075000 -0.275000 0.025000 0.041667
0.075000 -0.275000 0.075000 0.041667
0.075000 -0.225000 -0.025000 0.041667
0.075000 -0.225000 0.025000 0.041667
0.075000 -0.225000 0.075000 0.083333
0.075000 -0.175000 -0.025000 0.041667
0.075000 -0.175000 0.025000 0.041667
0.125000 -0.775000 0.075000 0.083333
0.125000 -0.725000 0.025000 0.083333
0.125000 -0.725000 0.075000 0.125000
0.125000 -0.675000 -0.025000 0.083333
0.125000 -0.675000 0.025000 0.208333
0.125000 -0.675000 0.075000 0.125000
0.125000 -0.625000 -0.025000 0.083333
0.125000 -0.625000 0.025000 0.083333
0.125000 -0.625000 0.075000 0.208333
0.125000 -0.575000 -0.025000 0.083333
0.125000 -0.575000 0.025000 0.125000
0.125000 -0.575000 0.075000 0.083333
0.125000 -0.525000 -0.025000 0.125000
0.125000 -0.525000 0.025000 0.166667
0.125000 -0.525000 0.075000 0.208333
0.125000 -0.475000 -0.025000 0.166667
0.125000 -0.475000 0.025000 0.125000
0.125000 -0.475000 0.075000 0.208333
0.125000 -0.425000 0.025000 0.166667
0.125000 -0.425000 0.075000 0.125000
0.125000 -0.375000 -0.025000 0.083333
0.125000 -0.375000 0.075000 0.125000
0.125000 -0.275000 -0.025000 0.041667
0.125000 -0.275000 0.075000 0.083333
0.125000 -0.225000 -0.025000 0.125000
0.125000 -0.225000 0.025000 0.041667
0.125000 -0.225000 0.075000 0.041667
0.125000 -0.075000 -0.025000 0.041667
0.175000 -0.775000 0.075000 0.083333
0.175000 -0.725000 0.025000 0.125000
0.175000 -0.725000 0.075000 0.166667
0.175000 -0.675000 -0.025000 0.083333
0.175000 -0.675000 0.025000 0.125000
0.175000 -0.675000 0.075000 0.166667
0.175000 -0.625000 -0.025000 0.083333
0.175000 -0.625000 0.025000 0.166667
0.175000 -0.625000 0.075000 0.083333
0.175000 -0.575000 -0.025000 0.166667
0.175000 -0.575000 0.025000 0.041667
0.175000 -0.575000 0.075000 0.208333
0.175000 -0.525000 -0.025000 0.041667
0.175000 -0.525000 0.025000 0.250000
0.175000 -0.525000 0.075000 0.208333
0.175000 -0.475000 -0.025000 0.041667
0.175000 -0.475000 0.025000 0.166667
0.175000 -0.475000 0.075000 0.166667
0.175000 -0.425000 -0.025000 0.041667
0.175000 -0.425000 0.025000 0.125000
0.175000 -0.425000 0.075000 0.208333
0.175000 -0.375000 -0.025000 0.083333
0.175000 -0.375000 0.025000 0.041667
0.175000 -0.375000 0.075000 0.125000
0.175000 -0.325000 0.075000 0.083333
0.175000 -0.275000 -0.025000 0.041667
0.175000 -0.275000 0.025000 0.041667
0.175000 -0.275000 0.075000 0.083333
0.175000 -0.225000 -0.025000 0.125000
0.175000 -0.225000 0.025000 0.083333
0.175000 -0.225000 0.075000 0.041667
0.175000 -0.175000 -0.025000 0.083333
0.175000 -0.175000 0.025000 0.125000
0.175000 -0.125000 -0.025000 0.083333
0.175000 -0.125000 0.025000 0.041667
0.175000 -0.075000 -0.025000 0.083333
0.175000 -0.025000 -0.025000 0.083333
0.175000 0.025000 -0.025000 0.125000
0.225000 -0.775000 0.075000 0.041667
0.225000 -0.725000 0.025000 0.166667
0.225000 -0.725000 0.075000 0.083333
0.225000 -0.675000 -0.025000 0.083333
0.225000 -0.675000 0.025000 0.125000
0.225000 -0.675000 0.075000 0.125000
0.225000 -0.625000 -0.025000 0.125000
0.225000 -0.625000 0.025000 0.083333
0.225000 -0.625000 0.075000 0.125000
0.225000 -0.575000 -0.025000 0.083333
0.225000 -0.575000 0.025000 0.083333
0.225000 -0.575000 0.075000 0.083333
0.225000 -0.525000 -0.025000 0.166667
0.225000 -0.525000 0.025000 0.125000
0.225000 -0.525000 0.075000 0.125000
0.225000 -0.475000 -0.025000 0.125000
0.225000 -0.475000 0.025000 0.083333
0.225000 -0.475000 0.075000 0.083333
0.225000 -0.425000 -0.025000 0.083333
0.225000 -0.425000 0.025000 0.041667
0.225000 -0.425000 0.075000 0.125000
0.225000 -0.375000 -0.025000 0.041667
0.225000 -0.375000 0.025000 0.125000
0.225000 -0.375000 0.075000 0.083333
0.225000 -0.325000 -0.025000 0.041667
0.225000 -0.325000 0.025000 0.041667
0.225000 -0.325000 0.075000 0.250000
0.225000 -0.275000 -0.025000 0.083333
0.225000 -0.275000 0.025000 0.083333
0.225000 -0.275000 0.075000 0.208333
0.225000 -0.225000 0.025000 0.041667
0.225000 -0.175000 0.025000 0.041667
0.225000 -0.175000 0.075000 0.125000
0.225000 -0.125000 -0.025000 0.041667
0.225000 -0.075000 -0.025000 0.041667
0.225000 -0.025000 -0.025000 0.041667
0.225000 -0.025000 0.025000 0.041667
0.225000 0.025000 -0.025000 0.083333
0.275000 -0.725000 0.075000 0.041667
0.275000 -0.675000 -0.025000 0.083333
0.275000 -0.675000 0.025000 0.041667
0.275000 -0.675000 0.075000 0.041667
0.275000 -0.625000 0.025000 0.041667
0.275000 -0.625000 0.075000 0.041667
0.275000 -0.575000 -0.025000 0.041667
0.275000 -0.575000 0.025000 0.041667
0.275000 -0.575000 0.075000 0.083333
0.275000 -0.525000 0.025000 0.041667
0.275000 -0.525000 0.075000 0.041667
0.275000 -0.475000 -0.025000 0.041667
0.275000 -0.475000 0.025000 0.083333
0.275000 -0.475000 0.075000 0.083333
0.275000 -0.375000 -0.025000 0.041667
0.275000 -0.325000 -0.025000 0.041667
0.275000 -0.325000 0.025000 0.083333
0.275000 -0.275000 -0.025000 0.083333
0.275000 -0.275000 0.025000 0.083333
0.275000 -0.225000 -0.025000 0.083333
0.275000 -0.225000 0.025000 0.125000
0.275000 -0.175000 -0.025000 0.125000
0.275000 -0.175000 0.025000 0.208333
0.275000 -0.175000 0.075000 0.083333
0.275000 -0.125000 -0.025000 0.041667
0.275000 -0.125000 0.025000 0.041667
0.275000 -0.125000 0.075000 0.041667
0.275000 -0.075000 0.075000 0.083333
0.275000 -0.025000 -0.025000 0.041667
0.275000 0.025000 -0.025000 0.041667
0.325000 -0.375000 -0.025000 0.041667
0.325000 -0.325000 -0.025000 0.041667
0.325000 -0.275000 -0.025000 0.125000
0.325000 -0.275000 0.025000 0.083333
0.325000 -0.225000 -0.025000 0.166667
0.325000 -0.225000 0.025000 0.083333
0.325000 -0.225000 0.075000 0.041667
0.325000 -0.175000 -0.025000 0.208333
0.325000 -0.175000 0.025000 0.166667
0.325000 -0.175000 0.075000 0.125000
0.325000 -0.125000 -0.025000 0.208333
0.325000 -0.125000 0.025000 0.166667
0.325000 -0.125000 0.075000 0.083333
0.325000 -0.075000 -0.025000 0.083333
0.325000 -0.075000 0.025000 0.083333
0.325000 -0.075000 0.075000 0.125000
0.325000 -0.025000 -0.025000 0.166667
0.325000 -0.025000 0.025000 0.083333
0.325000 -0.025000 0.075000 0.125000
0.325000 0.025000 -0.025000 0.125000
0.325000 0.025000 0.025000 0.125000
0.325000 0.025000 0.075000 0.125000
0.375000 -0.325000 -0.025000 0.083333
0.375000 -0.275000 -0.025000 0.083333
0.375000 -0.275000 0.025000 0.125000
0.375000 -0.275000 0.075000 0.083333
0.375000 -0.225000 -0.025000 0.083333
0.375000 -0.225000 0.025000 0.083333
0.375000 -0.225000 0.075000 0.083333
0.375000 -0.175000 -0.025000 0.166667
0.375000 -0.175000 0.025000 0.125000
0.375000 -0.175000 0.075000 0.125000
0.375000 -0.125000 -0.025000 0.166667
0.375000 -0.125000 0.025000 0.166667
0.375000 -0.125000 0.075000 0.166667
0.375000 -0.075000 -0.025000 0.125000
0.375000 -0.075000 0.025000 0.166667
0.375000 -0.075000 0.075000 0.125000
0.375000 -0.025000 -0.025000 0.125000
0.375000 -0.025000 0.025000 0.166667
0.375000 -0.025000 0.075000 0.125000
0.375000 0.025000 -0.025000 0.166667
0.375000 0.025000 0.025000 0.083333
0.375000 0.025000 0.075000 0.166667
0.425000 -0.575000 0.075000 0.083333
0.425000 -0.375000 -0.025000 0.041667
0.425000 -0.375000 0.025000 0.041667
0.425000 -0.375000 0.075000 0.125000
0.425000 -0.325000 0.025000 0.041667
0.425000 -0.325000 0.075000 0.041667
0.425000 -0.275000 -0.025000 0.083333
0.425000 -0.275000 0.025000 0.083333
0.425000 -0.275000 0.075000 0.125000
0.425000 -0.225000 -0.025000 0.041667
0.425000 -0.225000 0.025000 0.041667
0.425000 -0.225000 0.075000 0.083333
0.425000 -0.175000 -0.025000 0.166667
0.425000 -0.175000 0.025000 0.166667
0.425000 -0.175000 0.075000 0.166667
0.425000 -0.125000 -0.025000 0.166667
0.425000 -0.125000 0.025000 0.125000
0.425000 -0.125000 0.075000 0.125000
0.425000 -0.075000 -0.025000 0.125000
0.425000 -0.075000 0.025000 0.166667
0.425000 -0.075000 0.075000 0.083333
0.425000 -0.025000 -0.025000 0.166667
0.425000 -0.025000 0.025000 0.125000
0.425000 -0.025000 0.075000 0.166667
0.425000 0.025000 -0.025000 0.125000
0.425000 0.025000 0.025000 0.166667
0.425000 0.025000 0.075000 0.125000
0.475000 -0.375000 0.025000 0.083333
0.475000 -0.375000 0.075000 0.083333
0.475000 -0.325000 -0.025000 0.083333
0.475000 -0.325000 0.025000 0.083333
0.475000 -0.325000 0.075000 0.041667
0.475000 -0.275000 -0.025000 0.083333
0.475000 -0.275000 0.025000 0.125000
0.475000 -0.275000 0.075000 0.125000
0.475000 -0.225000 -0.025000 0.041667
0.475000 -0.225000 0.025000 0.166667
0.475000 -0.225000 0.075000 0.125000
0.475000 -0.175000 -0.025000 0.125000
0.475000 -0.175000 0.025000 0.208333
0.475000 -0.175000 0.075000 0.250000
0.475000 -0.125000 -0.025000 0.125000
0.475000 -0.125000 0.025000 0.166667
0.475000 -0.125000 0.075000 0.166667
0.475000 -0.075000 -0.025000 0.125000
0.475000 -0.075000 0.025000 0.166667
0.475000 -0.075000 0.075000 0.166667
0.475000 -0.025000 -0.025000 0.125000
0.475000 -0.025000 0.025000 0.083333
0.475000 -0.025000 0.075000 0.208333
0.475000 0.025000 -0.025000 0.125000
0.475000 0.025000 0.025000 0.125000
0.475000 0.025000 0.075000 0.208333
0.525000 -0.375000 -0.025000 0.083333
0.525000 -0.375000 0.025000 0.041667
0.525000 -0.375000 0.075000 0.041667
0.525000 -0.325000 -0.025000 0.041667
0.525000 -0.325000 0.025000 0.083333
0.525000 -0.275000 -0.025000 0.125000
0.525000 -0.275000 0.025000 0.041667
0.525000 -0.275000 0.075000 0.125000
0.525000 -0.225000 -0.025000 0.166667
0.525000 -0.225000 0.025000 0.166667
0.525000 -0.225000 0.075000 0.166667
0.525000 -0.175000 -0.025000 0.125000
0.525000 -0.175000 0.025000 0.208333
0.525000 -0.175000 0.075000 0.208333
0.525000 -0.125000 -0.025000 0.166667
0.525000 -0.125000 0.025000 0.250000
0.525000 -0.125000 0.075000 0.166667
0.525000 -0.075000 -0.025000 0.083333
0.525000 -0.075000 0.025000 0.250000
0.525000 -0.075000 0.075000 0.166667
0.525000 -0.025000 -0.025000 0.166667
0.525000 -0.025000 0.025000 0.250000
0.525000 -0.025000 0.075000 0.250000
0.525000 0.025000 -0.025000 0.166667
0.525000 0.025000 0.025000 0.208333
0.525000 0.025000 0.075000 0.208333
0.575000 -0.425000 -0.025000 0.041667
0.575000 -0.375000 -0.025000 0.083333
0.575000 -0.375000 0.025000 0.083333
0.575000 -0.375000 0.075000 0.083333
0.575000 -0.325000 -0.025000 0.083333
0.575000 -0.325000 0.025000 0.083333
0.575000 -0.325000 0.075000 0.083333
0.575000 -0.275000 -0.025000 0.083333
0.575000 -0.275000 0.025000 0.083333
0.575000 -0.275000 0.075000 0.125000
0.575000 -0.225000 -0.025000 0.208333
0.575000 -0.225000 0.025000 0.166667
0.575000 -0.225000 0.075000 0.208333
0.575000 -0.175000 -0.025000 0.208333
0.575000 -0.175000 0.025000 0.208333
0.575000 -0.175000 0.075000 0.083333
0.575000 -0.125000 -0.025000 0.208333
0.575000 -0.125000 0.025000 0.250000
0.575000 -0.125000 0.075000 0.166667
0.575000 -0.075000 -0.025000 0.125000
0.575000 -0.075000 0.025000 0.166667
0.575000 -0.075000 0.075000 0.125000
0.575000 -0.025000 -0.025000 0.208333
0.575000 -0.025000 0.025000 0.208333
0.575000 -0.025000 0.075000 0.166667
0.575000 0.025000 -0.025000 0.125000
0.575000 0.025000 0.025000 0.208333
0.575000 0.025000 0.075000 0.208333
0.625000 -0.425000 0.025000 0.083333
0.625000 -0.425000 0.075000 0.083333
0.625000 -0.375000 -0.025000 0.083333
0.625000 -0.375000 0.025000 0.083333
0.625000 -0.375000 0.075000 0.083333
0.625000 -0.325000 -0.025000 0.041667
0.625000 -0.325000 0.025000 0.166667
0.625000 -0.325000 0.075000 0.083333
0.625000 -0.275000 -0.025000 0.125000
0.625000 -0.275000 0.025000 0.083333
0.625000 -0.275000 0.075000 0.125000
0.625000 -0.225000 -0.025000 0.208333
0.625000 -0.225000 0.025000 0.208333
0.625000 -0.225000 0.075000 0.166667
0.625000 -0.175000 -0.025000 0.250000
0.625000 -0.175000 0.025000 0.166667
0.625000 -0.175000 0.075000 0.083333
0.625000 -0.125000 -0.025000 0.208333
0.625000 -0.125000 0.025000 0.166667
0.625000 -0.125000 0.075000 0.250000
0.625000 -0.075000 -0.025000 0.250000
0.625000 -0.075000 0.025000 0.166667
0.625000 -0.075000 0.075000 0.208333
0.625000 -0.025000 -0.025000 0.208333
0.625000 -0.025000 0.025000 0.250000
0.625000 -0.025000 0.075000 0.208333
0.625000 0.025000 -0.025000 0.166667
0.625000 0.025000 0.025000 0.125000
0.625000 0.025000 0.075000 0.250000
0.675000 -0.425000 0.025000 0.041667
0.675000 -0.425000 0.075000 0.083333
0.675000 -0.375000 0.025000 0.083333
0.675000 -0.375000 0.075000 0.083333
0.675000 -0.325000 -0.025000 0.083333
0.675000 -0.325000 0.025000 0.083333
0.675000 -0.325000 0.075000 0.083333
0.675000 -0.275000 -0.025000 0.166667
0.675000 -0.275000 0.025000 0.083333
0.675000 -0.275000 0.075000 0.083333
0.675000 -0.225000 -0.025000 0.166667
0.675000 -0.225000 0.025000 0.125000
0.675000 -0.225000 0.075000 0.125000
0.675000 -0.175000 -0.025000 0.250000
0.675000 -0.175000 0.025000 0.125000
0.675000 -0.175000 0.075000 0.208333
0.675000 -0.125000 -0.025000 0.125000
0.675000 -0.125000 0.025000 0.208333
0.675000 -0.125000 0.075000 0.166667
0.675000 -0.075000 -0.025000 0.125000
0.675000 -0.075000 0.025000 0.125000
0.675000 -0.075000 0.075000 0.125000
0.675000 -0.025000 -0.025000 0.166667
0.675000 -0.025000 0.025000 0.208333
0.675000 -0.025000 0.075000 0.250000
0.675000 0.025000 -0.025000 0.083333
0.675000 0.025000 0.025000 0.125000
0.675000 0.025000 0.075000 0.166667
0.725000 -0.425000 0.075000 0.083333
0.725000 -0.375000 0.075000 0.041667
0.725000 -0.325000 0.025000 0.041667
0.725000 -0.325000 0.075000 0.083333
0.725000 -0.275000 0.025000 0.125000
0.725000 -0.275000 0.075000 0.166667
0.725000 -0.225000 -0.025000 0.125000
0.725000 -0.225000 0.025000 0.083333
0.725000 -0.225000 0.075000 0.125000
0.725000 -0.175000 -0.025000 0.083333
0.725000 -0.175000 0.025000 0.208333
0.725000 -0.175000 0.075000 0.250000
0.725000 -0.125000 -0.025000 0.125000
0.725000 -0.125000 0.025000 0.166667
0.725000 -0.125000 0.075000 0.208333
0.725000 -0.075000 -0.025000 0.166667
0.725000 -0.075000 0.025000 0.208333
0.725000 -0.075000 0.075000 0.250000
0.725000 -0.025000 -0.025000 0.125000
0.725000 -0.025000 0.025000 0.250000
0.725000 -0.025000 0.075000 0.250000
0.725000 0.025000 -0.025000 0.125000
0.725000 0.025000 0.025000 0.208333
0.725000 0.025000 0.075000 0.250000
0.775000 -0.325000 0.075000 0.083333
0.775000 -0.275000 0.075000 0.083333
0.775000 -0.225000 0.025000 0.083333
0.775000 -0.225000 0.075000 0.125000
0.775000 -0.175000 0.025000 0.083333
0.775000 -0.175000 0.075000 0.166667
0.775000 -0.125000 0.025000 0.250000
0.775000 -0.125000 0.075000 0.208333
0.775000 -0.075000 0.025000 0.166667
0.775000 -0.075000 0.075000 0.250000
0.775000 -0.025000 -0.025000 0.041667
0.775000 -0.025000 0.025000 0.250000
0.775000 -0.025000 0.075000 0.250000
0.775000 0.025000 0.025000 0.125000
0.775000 0.025000 0.075000 0.250000
0.825000 -0.125000 0.075000 0.041667
0.825000 -0.075000 0.075000 0.083333
0.825000 -0.025000 0.075000 0.083333
0.825000 0.025000 0.075000 0.083333
